<?xml version="1.0" encoding="UTF-8" standalone="no"?><svg xmlns="http://www.w3.org/2000/svg" xmlns:xlink="http://www.w3.org/1999/xlink" contentScriptType="application/ecmascript" contentStyleType="text/css" height="947px" preserveAspectRatio="none" style="width:544px;height:947px;background:#FFFFFF;" version="1.1" viewBox="0 0 544 947" width="544px" zoomAndPan="magnify"><defs><filter height="300%" id="fbm84sugzrqa5" width="300%" x="-1" y="-1"><feGaussianBlur result="blurOut" stdDeviation="2.0"/><feColorMatrix in="blurOut" result="blurOut2" type="matrix" values="0 0 0 0 0 0 0 0 0 0 0 0 0 0 0 0 0 0 .4 0"/><feOffset dx="4.0" dy="4.0" in="blurOut2" result="blurOut3"/><feBlend in="SourceGraphic" in2="blurOut3" mode="normal"/></filter></defs><g><text fill="#000000" font-family="sans-serif" font-size="18" lengthAdjust="spacing" textLength="451" x="40" y="17.4023">US029 - As Project Manager, I want to start a sprint</text><!--MD5=[1d71c37d7c29c6556dfc8cecaa7ab762]
class StartASprintUI--><rect codeLine="8" fill="#FEFECE" filter="url(#fbm84sugzrqa5)" height="48" id="StartASprintUI" style="stroke:#A80036;stroke-width:1.5;" width="110" x="324.5" y="28.1992"/><ellipse cx="339.5" cy="44.1992" fill="#ADD1B2" rx="11" ry="11" style="stroke:#A80036;stroke-width:1.0;"/><path d="M341.9731,50.3423 Q341.3921,50.6411 340.7529,50.7905 Q340.1138,50.9399 339.4082,50.9399 Q336.9014,50.9399 335.5815,49.2881 Q334.2617,47.6362 334.2617,44.5151 Q334.2617,41.3857 335.5815,39.7339 Q336.9014,38.082 339.4082,38.082 Q340.1138,38.082 340.7612,38.2314 Q341.4087,38.3809 341.9731,38.6797 L341.9731,41.4023 Q341.3423,40.8213 340.7488,40.5515 Q340.1553,40.2817 339.5244,40.2817 Q338.1797,40.2817 337.4949,41.3484 Q336.8101,42.415 336.8101,44.5151 Q336.8101,46.6069 337.4949,47.6736 Q338.1797,48.7402 339.5244,48.7402 Q340.1553,48.7402 340.7488,48.4705 Q341.3423,48.2007 341.9731,47.6196 Z " fill="#000000"/><text fill="#000000" font-family="sans-serif" font-size="12" lengthAdjust="spacing" textLength="78" x="353.5" y="48.7344">StartASprintUI</text><line style="stroke:#A80036;stroke-width:1.5;" x1="325.5" x2="433.5" y1="60.1992" y2="60.1992"/><line style="stroke:#A80036;stroke-width:1.5;" x1="325.5" x2="433.5" y1="68.1992" y2="68.1992"/><!--MD5=[6c0ef7892d4c375cbcd45feac4031298]
class StartASprintController--><rect codeLine="11" fill="#FEFECE" filter="url(#fbm84sugzrqa5)" height="60.9551" id="StartASprintController" style="stroke:#A80036;stroke-width:1.5;" width="155" x="215" y="150.1992"/><ellipse cx="230" cy="166.1992" fill="#ADD1B2" rx="11" ry="11" style="stroke:#A80036;stroke-width:1.0;"/><path d="M232.4731,172.3423 Q231.8921,172.6411 231.2529,172.7905 Q230.6138,172.9399 229.9082,172.9399 Q227.4014,172.9399 226.0815,171.2881 Q224.7617,169.6362 224.7617,166.5151 Q224.7617,163.3857 226.0815,161.7339 Q227.4014,160.082 229.9082,160.082 Q230.6138,160.082 231.2612,160.2314 Q231.9087,160.3809 232.4731,160.6797 L232.4731,163.4023 Q231.8423,162.8213 231.2488,162.5515 Q230.6553,162.2817 230.0244,162.2817 Q228.6797,162.2817 227.9949,163.3484 Q227.3101,164.415 227.3101,166.5151 Q227.3101,168.6069 227.9949,169.6736 Q228.6797,170.7402 230.0244,170.7402 Q230.6553,170.7402 231.2488,170.4705 Q231.8423,170.2007 232.4731,169.6196 Z " fill="#000000"/><text fill="#000000" font-family="sans-serif" font-size="12" lengthAdjust="spacing" textLength="123" x="244" y="170.7344">StartASprintController</text><line style="stroke:#A80036;stroke-width:1.5;" x1="216" x2="369" y1="182.1992" y2="182.1992"/><line style="stroke:#A80036;stroke-width:1.5;" x1="216" x2="369" y1="190.1992" y2="190.1992"/><text fill="#000000" font-family="sans-serif" font-size="11" lengthAdjust="spacing" textLength="138" x="221" y="204.834">+startASprint(sprintDTO)</text><!--MD5=[15b21f74ba73368c0529623be9aa69c1]
class StartASprintDTO--><rect codeLine="15" fill="#FEFECE" filter="url(#fbm84sugzrqa5)" height="86.8652" id="StartASprintDTO" style="stroke:#A80036;stroke-width:1.5;" width="125" x="405" y="137.1992"/><ellipse cx="420" cy="153.1992" fill="#ADD1B2" rx="11" ry="11" style="stroke:#A80036;stroke-width:1.0;"/><path d="M422.4731,159.3423 Q421.8921,159.6411 421.2529,159.7905 Q420.6138,159.9399 419.9082,159.9399 Q417.4014,159.9399 416.0815,158.2881 Q414.7617,156.6362 414.7617,153.5151 Q414.7617,150.3857 416.0815,148.7339 Q417.4014,147.082 419.9082,147.082 Q420.6138,147.082 421.2612,147.2314 Q421.9087,147.3809 422.4731,147.6797 L422.4731,150.4023 Q421.8423,149.8213 421.2488,149.5515 Q420.6553,149.2817 420.0244,149.2817 Q418.6797,149.2817 417.9949,150.3484 Q417.3101,151.415 417.3101,153.5151 Q417.3101,155.6069 417.9949,156.6736 Q418.6797,157.7402 420.0244,157.7402 Q420.6553,157.7402 421.2488,157.4705 Q421.8423,157.2007 422.4731,156.6196 Z " fill="#000000"/><text fill="#000000" font-family="sans-serif" font-size="12" lengthAdjust="spacing" textLength="93" x="434" y="157.7344">StartASprintDTO</text><line style="stroke:#A80036;stroke-width:1.5;" x1="406" x2="529" y1="169.1992" y2="169.1992"/><line style="stroke:#A80036;stroke-width:1.5;" x1="406" x2="529" y1="177.1992" y2="177.1992"/><text fill="#000000" font-family="sans-serif" font-size="11" lengthAdjust="spacing" textLength="62" x="411" y="191.834">+getCode()</text><text fill="#000000" font-family="sans-serif" font-size="11" lengthAdjust="spacing" textLength="77" x="411" y="204.7891">+getSprintID()</text><text fill="#000000" font-family="sans-serif" font-size="11" lengthAdjust="spacing" textLength="83" x="411" y="217.7441">+getStartDate()</text><!--MD5=[02e4b9b7573f1156f41e60aa5b4e25a4]
class Company--><rect codeLine="21" fill="#FEFECE" filter="url(#fbm84sugzrqa5)" height="60.9551" id="Company" style="stroke:#A80036;stroke-width:1.5;" width="111" x="292" y="285.1992"/><ellipse cx="318.25" cy="301.1992" fill="#ADD1B2" rx="11" ry="11" style="stroke:#A80036;stroke-width:1.0;"/><path d="M320.7231,307.3423 Q320.1421,307.6411 319.5029,307.7905 Q318.8638,307.9399 318.1582,307.9399 Q315.6514,307.9399 314.3315,306.2881 Q313.0117,304.6362 313.0117,301.5151 Q313.0117,298.3857 314.3315,296.7339 Q315.6514,295.082 318.1582,295.082 Q318.8638,295.082 319.5112,295.2314 Q320.1587,295.3809 320.7231,295.6797 L320.7231,298.4023 Q320.0923,297.8213 319.4988,297.5515 Q318.9053,297.2817 318.2744,297.2817 Q316.9297,297.2817 316.2449,298.3484 Q315.5601,299.415 315.5601,301.5151 Q315.5601,303.6069 316.2449,304.6736 Q316.9297,305.7402 318.2744,305.7402 Q318.9053,305.7402 319.4988,305.4705 Q320.0923,305.2007 320.7231,304.6196 Z " fill="#000000"/><text fill="#000000" font-family="sans-serif" font-size="12" lengthAdjust="spacing" textLength="54" x="334.75" y="305.7344">Company</text><line style="stroke:#A80036;stroke-width:1.5;" x1="293" x2="402" y1="317.1992" y2="317.1992"/><line style="stroke:#A80036;stroke-width:1.5;" x1="293" x2="402" y1="325.1992" y2="325.1992"/><text fill="#000000" font-family="sans-serif" font-size="11" lengthAdjust="spacing" textLength="99" x="298" y="339.834">+getProjectStore()</text><!--MD5=[0cf43f64de24b70e8ffe65ff9ee7abee]
class ProjectStore--><rect codeLine="25" fill="#FEFECE" filter="url(#fbm84sugzrqa5)" height="60.9551" id="ProjectStore" style="stroke:#A80036;stroke-width:1.5;" width="184" x="291.5" y="506.1992"/><ellipse cx="344.75" cy="522.1992" fill="#ADD1B2" rx="11" ry="11" style="stroke:#A80036;stroke-width:1.0;"/><path d="M347.2231,528.3423 Q346.6421,528.6411 346.0029,528.7905 Q345.3638,528.9399 344.6582,528.9399 Q342.1514,528.9399 340.8315,527.2881 Q339.5117,525.6362 339.5117,522.5151 Q339.5117,519.3857 340.8315,517.7339 Q342.1514,516.082 344.6582,516.082 Q345.3638,516.082 346.0112,516.2314 Q346.6587,516.3809 347.2231,516.6797 L347.2231,519.4023 Q346.5923,518.8213 345.9988,518.5515 Q345.4053,518.2817 344.7744,518.2817 Q343.4297,518.2817 342.7449,519.3484 Q342.0601,520.415 342.0601,522.5151 Q342.0601,524.6069 342.7449,525.6736 Q343.4297,526.7402 344.7744,526.7402 Q345.4053,526.7402 345.9988,526.4705 Q346.5923,526.2007 347.2231,525.6196 Z " fill="#000000"/><text fill="#000000" font-family="sans-serif" font-size="12" lengthAdjust="spacing" textLength="69" x="365.25" y="526.7344">ProjectStore</text><line style="stroke:#A80036;stroke-width:1.5;" x1="292.5" x2="474.5" y1="538.1992" y2="538.1992"/><line style="stroke:#A80036;stroke-width:1.5;" x1="292.5" x2="474.5" y1="546.1992" y2="546.1992"/><text fill="#000000" font-family="sans-serif" font-size="11" lengthAdjust="spacing" textLength="172" x="297.5" y="560.834">+getProjectByCode(String code)</text><!--MD5=[79d378210367c0c6ec62ef762ddfbd1b]
class Project--><rect codeLine="29" fill="#FEFECE" filter="url(#fbm84sugzrqa5)" height="99.8203" id="Project" style="stroke:#A80036;stroke-width:1.5;" width="117" x="256" y="644.1992"/><ellipse cx="291.25" cy="660.1992" fill="#ADD1B2" rx="11" ry="11" style="stroke:#A80036;stroke-width:1.0;"/><path d="M293.7231,666.3423 Q293.1421,666.6411 292.5029,666.7905 Q291.8638,666.9399 291.1582,666.9399 Q288.6514,666.9399 287.3315,665.2881 Q286.0117,663.6362 286.0117,660.5151 Q286.0117,657.3857 287.3315,655.7339 Q288.6514,654.082 291.1582,654.082 Q291.8638,654.082 292.5112,654.2314 Q293.1587,654.3809 293.7231,654.6797 L293.7231,657.4023 Q293.0923,656.8213 292.4988,656.5515 Q291.9053,656.2817 291.2744,656.2817 Q289.9297,656.2817 289.2449,657.3484 Q288.5601,658.415 288.5601,660.5151 Q288.5601,662.6069 289.2449,663.6736 Q289.9297,664.7402 291.2744,664.7402 Q291.9053,664.7402 292.4988,664.4705 Q293.0923,664.2007 293.7231,663.6196 Z " fill="#000000"/><text fill="#000000" font-family="sans-serif" font-size="12" lengthAdjust="spacing" textLength="40" x="309.75" y="664.7344">Project</text><line style="stroke:#A80036;stroke-width:1.5;" x1="257" x2="372" y1="676.1992" y2="676.1992"/><text fill="#000000" font-family="sans-serif" font-size="11" lengthAdjust="spacing" textLength="73" x="262" y="690.834">-code : String</text><text fill="#000000" font-family="sans-serif" font-size="11" lengthAdjust="spacing" textLength="105" x="262" y="703.7891">-sprintDuration: int</text><line style="stroke:#A80036;stroke-width:1.5;" x1="257" x2="372" y1="710.1094" y2="710.1094"/><text fill="#000000" font-family="sans-serif" font-size="11" lengthAdjust="spacing" textLength="87" x="262" y="724.7441">-hasCode(code)</text><text fill="#000000" font-family="sans-serif" font-size="11" lengthAdjust="spacing" textLength="100" x="262" y="737.6992">+getProjectTeam()</text><!--MD5=[65512b4198a937e8c73da9f2b73fc58d]
class SprintList--><rect codeLine="36" fill="#FEFECE" filter="url(#fbm84sugzrqa5)" height="112.7754" id="SprintList" style="stroke:#A80036;stroke-width:1.5;" width="265" x="7" y="821.1992"/><ellipse cx="109.25" cy="837.1992" fill="#ADD1B2" rx="11" ry="11" style="stroke:#A80036;stroke-width:1.0;"/><path d="M111.7231,843.3423 Q111.1421,843.6411 110.5029,843.7905 Q109.8638,843.9399 109.1582,843.9399 Q106.6514,843.9399 105.3315,842.2881 Q104.0117,840.6362 104.0117,837.5151 Q104.0117,834.3857 105.3315,832.7339 Q106.6514,831.082 109.1582,831.082 Q109.8638,831.082 110.5112,831.2314 Q111.1587,831.3809 111.7231,831.6797 L111.7231,834.4023 Q111.0923,833.8213 110.4988,833.5515 Q109.9053,833.2817 109.2744,833.2817 Q107.9297,833.2817 107.2449,834.3484 Q106.5601,835.415 106.5601,837.5151 Q106.5601,839.6069 107.2449,840.6736 Q107.9297,841.7402 109.2744,841.7402 Q109.9053,841.7402 110.4988,841.4705 Q111.0923,841.2007 111.7231,840.6196 Z " fill="#000000"/><text fill="#000000" font-family="sans-serif" font-size="12" lengthAdjust="spacing" textLength="52" x="129.75" y="841.7344">SprintList</text><line style="stroke:#A80036;stroke-width:1.5;" x1="8" x2="271" y1="853.1992" y2="853.1992"/><text fill="#000000" font-family="sans-serif" font-size="11" lengthAdjust="spacing" textLength="129" x="13" y="867.834">sprintList : List&lt;Sprint&gt;</text><line style="stroke:#A80036;stroke-width:1.5;" x1="8" x2="271" y1="874.1543" y2="874.1543"/><text fill="#000000" font-family="sans-serif" font-size="11" lengthAdjust="spacing" textLength="109" x="13" y="888.7891">+getSprint(sprintID)</text><text fill="#000000" font-family="sans-serif" font-size="11" lengthAdjust="spacing" textLength="253" x="13" y="901.7441">+startASprint(sprintID, startDate, projectTeam)</text><text fill="#000000" font-family="sans-serif" font-size="11" lengthAdjust="spacing" textLength="109" x="13" y="914.6992">+getSprint(sprintID)</text><text fill="#000000" font-family="sans-serif" font-size="11" lengthAdjust="spacing" textLength="156" x="13" y="927.6543">+validateStartDate(startDate)</text><!--MD5=[452a66c2e8d45f5bd209be454bbcd04f]
class Sprint--><rect codeLine="44" fill="#FEFECE" filter="url(#fbm84sugzrqa5)" height="99.8203" id="Sprint" style="stroke:#A80036;stroke-width:1.5;" width="134" x="81.5" y="376.1992"/><ellipse cx="127.75" cy="392.1992" fill="#ADD1B2" rx="11" ry="11" style="stroke:#A80036;stroke-width:1.0;"/><path d="M130.2231,398.3423 Q129.6421,398.6411 129.0029,398.7905 Q128.3638,398.9399 127.6582,398.9399 Q125.1514,398.9399 123.8315,397.2881 Q122.5117,395.6362 122.5117,392.5151 Q122.5117,389.3857 123.8315,387.7339 Q125.1514,386.082 127.6582,386.082 Q128.3638,386.082 129.0112,386.2314 Q129.6587,386.3809 130.2231,386.6797 L130.2231,389.4023 Q129.5923,388.8213 128.9988,388.5515 Q128.4053,388.2817 127.7744,388.2817 Q126.4297,388.2817 125.7449,389.3484 Q125.0601,390.415 125.0601,392.5151 Q125.0601,394.6069 125.7449,395.6736 Q126.4297,396.7402 127.7744,396.7402 Q128.4053,396.7402 128.9988,396.4705 Q129.5923,396.2007 130.2231,395.6196 Z " fill="#000000"/><text fill="#000000" font-family="sans-serif" font-size="12" lengthAdjust="spacing" textLength="33" x="148.25" y="396.7344">Sprint</text><line style="stroke:#A80036;stroke-width:1.5;" x1="82.5" x2="214.5" y1="408.1992" y2="408.1992"/><text fill="#000000" font-family="sans-serif" font-size="11" lengthAdjust="spacing" textLength="71" x="87.5" y="422.834">-idSprint : int</text><text fill="#000000" font-family="sans-serif" font-size="11" lengthAdjust="spacing" textLength="116" x="87.5" y="435.7891">-startDate : LocalDate</text><line style="stroke:#A80036;stroke-width:1.5;" x1="82.5" x2="214.5" y1="442.1094" y2="442.1094"/><text fill="#000000" font-family="sans-serif" font-size="11" lengthAdjust="spacing" textLength="122" x="87.5" y="456.7441">+hasSprintID(sprintID)</text><text fill="#000000" font-family="sans-serif" font-size="11" lengthAdjust="spacing" textLength="82" x="87.5" y="469.6992">+setStartDate()</text><!--MD5=[ea85c9eeae48c9b9754651e25079a913]
class ProjectTeam--><rect codeLine="51" fill="#FEFECE" filter="url(#fbm84sugzrqa5)" height="60.9551" id="ProjectTeam" style="stroke:#A80036;stroke-width:1.5;" width="136" x="332.5" y="847.1992"/><ellipse cx="361.45" cy="863.1992" fill="#ADD1B2" rx="11" ry="11" style="stroke:#A80036;stroke-width:1.0;"/><path d="M363.9231,869.3423 Q363.3421,869.6411 362.7029,869.7905 Q362.0638,869.9399 361.3582,869.9399 Q358.8514,869.9399 357.5315,868.2881 Q356.2117,866.6362 356.2117,863.5151 Q356.2117,860.3857 357.5315,858.7339 Q358.8514,857.082 361.3582,857.082 Q362.0638,857.082 362.7112,857.2314 Q363.3587,857.3809 363.9231,857.6797 L363.9231,860.4023 Q363.2923,859.8213 362.6988,859.5515 Q362.1053,859.2817 361.4744,859.2817 Q360.1297,859.2817 359.4449,860.3484 Q358.7601,861.415 358.7601,863.5151 Q358.7601,865.6069 359.4449,866.6736 Q360.1297,867.7402 361.4744,867.7402 Q362.1053,867.7402 362.6988,867.4705 Q363.2923,867.2007 363.9231,866.6196 Z " fill="#000000"/><text fill="#000000" font-family="sans-serif" font-size="12" lengthAdjust="spacing" textLength="73" x="378.55" y="867.7344">ProjectTeam</text><line style="stroke:#A80036;stroke-width:1.5;" x1="333.5" x2="467.5" y1="879.1992" y2="879.1992"/><line style="stroke:#A80036;stroke-width:1.5;" x1="333.5" x2="467.5" y1="887.1992" y2="887.1992"/><text fill="#000000" font-family="sans-serif" font-size="11" lengthAdjust="spacing" textLength="124" x="338.5" y="901.834">+validateProjectTeam()</text><!--MD5=[774ecadfd44d7d6b7089a3bc06633265]
link StartASprintUI to StartASprintController--><path codeLine="55" d="M363.54,76.3992 C350.21,95.7892 331,123.7192 315.92,145.6492 " fill="none" id="StartASprintUI-to-StartASprintController" style="stroke:#A80036;stroke-width:1.0;stroke-dasharray:7.0,7.0;"/><polygon fill="#A80036" points="312.96,149.9492,321.3466,144.7854,315.786,145.8244,314.7469,140.2638,312.96,149.9492" style="stroke:#A80036;stroke-width:1.0;"/><!--MD5=[2f21678ef67f973d1c2494bd58c242c4]
link StartASprintUI to StartASprintDTO--><path codeLine="56" d="M395.64,76.3992 C406.62,92.1792 421.53,113.6192 434.92,132.8692 " fill="none" id="StartASprintUI-to-StartASprintDTO" style="stroke:#A80036;stroke-width:1.0;stroke-dasharray:7.0,7.0;"/><polygon fill="#A80036" points="437.93,137.1992,436.0661,127.5283,435.0713,133.097,429.5026,132.1022,437.93,137.1992" style="stroke:#A80036;stroke-width:1.0;"/><!--MD5=[c1186ceb38396d496fa9c680b65c7215]
link StartASprintController to Company--><path codeLine="57" d="M304.71,211.2192 C313.12,231.5692 324.34,258.6892 333.18,280.0592 " fill="none" id="StartASprintController-to-Company" style="stroke:#A80036;stroke-width:1.0;stroke-dasharray:7.0,7.0;"/><polygon fill="#A80036" points="335.14,284.8092,335.412,274.9641,333.2363,280.1858,328.0145,278.0101,335.14,284.8092" style="stroke:#A80036;stroke-width:1.0;"/><!--MD5=[a17c5d4d5c31285ec1ef45b23c79bcc3]
link StartASprintController to ProjectStore--><path codeLine="58" d="M345.41,211.3692 C372.26,229.2292 402.84,254.4792 420.5,285.1992 C462.92,358.9892 464.03,396.3692 434.5,476.1992 C431.11,485.3492 425.62,494.0492 419.47,501.8192 " fill="none" id="StartASprintController-to-ProjectStore" style="stroke:#A80036;stroke-width:1.0;stroke-dasharray:7.0,7.0;"/><polygon fill="#A80036" points="416,506.0392,424.7976,501.6119,419.1685,502.1713,418.609,496.5422,416,506.0392" style="stroke:#A80036;stroke-width:1.0;"/><!--MD5=[6ef7da5496e0f773db60c7dcaa374718]
link StartASprintController to Project--><path codeLine="59" d="M285.97,211.4192 C281.78,232.0092 276.72,260.1292 274.5,285.1992 C263.44,410.0492 253.87,443.4092 273.5,567.1992 C277.34,591.3892 285.07,617.2392 292.8,639.1992 " fill="none" id="StartASprintController-to-Project" style="stroke:#A80036;stroke-width:1.0;stroke-dasharray:7.0,7.0;"/><polygon fill="#A80036" points="294.55,644.1092,295.3126,634.2899,292.8792,639.3966,287.7725,636.9632,294.55,644.1092" style="stroke:#A80036;stroke-width:1.0;"/><!--MD5=[5c5c0559edb4f24a017f3fab2160b9d8]
link StartASprintController to SprintList--><path codeLine="60" d="M214.91,192.9992 C146.79,207.8292 58.5,241.2192 58.5,314.6992 C58.5,314.6992 58.5,314.6992 58.5,695.1992 C58.5,738.2992 77.78,782.5392 97.53,816.5592 " fill="none" id="StartASprintController-to-SprintList" style="stroke:#A80036;stroke-width:1.0;stroke-dasharray:7.0,7.0;"/><polygon fill="#A80036" points="100.19,821.0692,99.0901,811.282,97.6618,816.7555,92.1882,815.3271,100.19,821.0692" style="stroke:#A80036;stroke-width:1.0;"/><!--MD5=[1d73f85265946bcfac1b12d86c59c15b]
link StartASprintController to Sprint--><path codeLine="61" d="M252.55,211.3192 C238.41,223.3692 223.34,238.2292 212.5,254.1992 C188.41,289.6992 171.9,335.4592 161.69,370.7092 " fill="none" id="StartASprintController-to-Sprint" style="stroke:#A80036;stroke-width:1.0;stroke-dasharray:7.0,7.0;"/><polygon fill="#A80036" points="160.23,375.8292,166.5427,368.2694,161.5998,371.0205,158.8487,366.0777,160.23,375.8292" style="stroke:#A80036;stroke-width:1.0;"/><!--MD5=[16810c79348e92afea5783ef730549c6]
link StartASprintController to ProjectTeam--><path codeLine="62" d="M357.61,211.3292 C427.47,244.1492 528.5,295.0092 528.5,314.6992 C528.5,314.6992 528.5,314.6992 528.5,695.1992 C528.5,755.8392 480.19,810.4692 442.93,843.5892 " fill="none" id="StartASprintController-to-ProjectTeam" style="stroke:#A80036;stroke-width:1.0;stroke-dasharray:7.0,7.0;"/><polygon fill="#A80036" points="438.9,847.1292,448.3017,844.1953,442.6567,843.8296,443.0224,838.1846,438.9,847.1292" style="stroke:#A80036;stroke-width:1.0;"/><!--MD5=[5080d0b1308565521d8577f7e8059843]
reverse link Company to ProjectStore--><path codeLine="64" d="M349.18,359.4192 C351.08,391.7692 355.09,437.1592 363.5,476.1992 C365.63,486.1092 368.86,496.6692 372.1,506.0992 " fill="none" id="Company-backto-ProjectStore" style="stroke:#A80036;stroke-width:1.0;"/><polygon fill="#FFFFFF" points="348.49,346.4092,344.8123,352.612,349.1235,358.3925,352.8012,352.1897,348.49,346.4092" style="stroke:#A80036;stroke-width:1.0;"/><text fill="#000000" font-family="sans-serif" font-size="13" lengthAdjust="spacing" textLength="65" x="364.5" y="431.2676">knows the</text><text fill="#000000" font-family="sans-serif" font-size="13" lengthAdjust="spacing" textLength="8" x="339.8692" y="366.895">1</text><text fill="#000000" font-family="sans-serif" font-size="13" lengthAdjust="spacing" textLength="8" x="360.7313" y="495.3721">1</text><!--MD5=[c2999c5e21c0a7115ef87c36c02875b6]
reverse link ProjectStore to Project--><path codeLine="65" d="M364.98,579.4392 C356.14,599.3592 345.5,623.3292 336.28,644.1192 " fill="none" id="ProjectStore-backto-Project" style="stroke:#A80036;stroke-width:1.0;"/><polygon fill="#A80036" points="370.36,567.3092,364.2709,571.1723,365.4949,578.2788,371.584,574.4157,370.36,567.3092" style="stroke:#A80036;stroke-width:1.0;"/><text fill="#000000" font-family="sans-serif" font-size="13" lengthAdjust="spacing" textLength="74" x="356.5" y="610.7676">has a list of</text><text fill="#000000" font-family="sans-serif" font-size="13" lengthAdjust="spacing" textLength="8" x="358.8249" y="587.7744">1</text><text fill="#000000" font-family="sans-serif" font-size="13" lengthAdjust="spacing" textLength="22" x="315.7959" y="633.6249">0..*</text><!--MD5=[f9d8fe6ce79c321ab87967b8c43ad885]
reverse link Project to SprintList--><path codeLine="66" d="M258.08,753.7092 C237.23,775.3392 213.67,799.7792 193.07,821.1392 " fill="none" id="Project-backto-SprintList" style="stroke:#A80036;stroke-width:1.0;"/><polygon fill="#A80036" points="267.14,744.3192,260.0966,745.8651,258.8145,752.9614,265.858,751.4154,267.14,744.3192" style="stroke:#A80036;stroke-width:1.0;"/><text fill="#000000" font-family="sans-serif" font-size="13" lengthAdjust="spacing" textLength="54" x="238.5" y="787.7676">contains</text><text fill="#000000" font-family="sans-serif" font-size="13" lengthAdjust="spacing" textLength="8" x="252.2385" y="764.6632">1</text><text fill="#000000" font-family="sans-serif" font-size="13" lengthAdjust="spacing" textLength="22" x="176.5243" y="810.5342">0..*</text><!--MD5=[352310352512ea7c8ebcd3b871b8d730]
reverse link Project to ProjectTeam--><path codeLine="67" d="M343.41,756.2092 C357.93,786.8592 374.86,822.5892 386.49,847.1392 " fill="none" id="Project-backto-ProjectTeam" style="stroke:#A80036;stroke-width:1.0;"/><polygon fill="#A80036" points="337.77,744.3192,336.721,751.4536,342.9031,755.166,343.9521,748.0316,337.77,744.3192" style="stroke:#A80036;stroke-width:1.0;"/><text fill="#000000" font-family="sans-serif" font-size="13" lengthAdjust="spacing" textLength="22" x="358.5" y="787.7676">has</text><text fill="#000000" font-family="sans-serif" font-size="13" lengthAdjust="spacing" textLength="8" x="332.3594" y="764.6632">1</text><text fill="#000000" font-family="sans-serif" font-size="13" lengthAdjust="spacing" textLength="8" x="374.5503" y="836.4208">1</text><!--MD5=[e37efea1bf95fc8199437cddcd2a85f3]
link Sprint to SprintList--><path codeLine="68" d="M144.12,476.2492 C141.31,510.1792 137.94,556.3892 136.5,597.1992 C133.76,674.7992 135.62,764.5792 137.4,820.9992 " fill="none" id="Sprint-SprintList" style="stroke:#A80036;stroke-width:1.0;"/><text fill="#000000" font-family="sans-serif" font-size="13" lengthAdjust="spacing" textLength="74" x="137.5" y="610.7676">has a list of</text><text fill="#000000" font-family="sans-serif" font-size="13" lengthAdjust="spacing" textLength="8" x="134.9939" y="496.5838">1</text><text fill="#000000" font-family="sans-serif" font-size="13" lengthAdjust="spacing" textLength="8" x="128.6184" y="810.3762">1</text><!--MD5=[73a509025110337e90de824a5cc935f9]
@startuml
'https://plantuml.com/class-diagram

'hide circle
skinparam classAttributeIconSize 0

title US029 - As Project Manager, I want to start a sprint

class StartASprintUI {
}

class StartASprintController {
+startASprint(sprintDTO)
}

class StartASprintDTO {
+getCode()
+getSprintID()
+getStartDate()
}

class Company {
+getProjectStore()
}

class ProjectStore {
+getProjectByCode(String code)
}

class Project {
-code : String
-sprintDuration: int
-hasCode(code)
+getProjectTeam()
}

class SprintList {
sprintList : List<Sprint>
+getSprint(sprintID)
+startASprint(sprintID, startDate, projectTeam)
+getSprint(sprintID)
+validateStartDate(startDate)
}

class Sprint {
-idSprint : int
-startDate : LocalDate
+hasSprintID(sprintID)
+setStartDate()
}

class ProjectTeam {
+validateProjectTeam()
}

StartASprintUI ..> StartASprintController
StartASprintUI ..> StartASprintDTO
StartASprintController ..> Company
StartASprintController ..> ProjectStore
StartASprintController ..> Project
StartASprintController ..> SprintList
StartASprintController ..> Sprint
StartASprintController ..> ProjectTeam

Company "1" o- - "1" ProjectStore: knows the
ProjectStore "1" *- - "0..*" Project: has a list of
Project "1" *- - "0..*" SprintList: contains
Project "1" *- - "1" ProjectTeam: has
Sprint "1" - - "1" SprintList: has a list of

@enduml

@startuml

skinparam classAttributeIconSize 0

title US029 - As Project Manager, I want to start a sprint

class StartASprintUI {
}

class StartASprintController {
+startASprint(sprintDTO)
}

class StartASprintDTO {
+getCode()
+getSprintID()
+getStartDate()
}

class Company {
+getProjectStore()
}

class ProjectStore {
+getProjectByCode(String code)
}

class Project {
-code : String
-sprintDuration: int
-hasCode(code)
+getProjectTeam()
}

class SprintList {
sprintList : List<Sprint>
+getSprint(sprintID)
+startASprint(sprintID, startDate, projectTeam)
+getSprint(sprintID)
+validateStartDate(startDate)
}

class Sprint {
-idSprint : int
-startDate : LocalDate
+hasSprintID(sprintID)
+setStartDate()
}

class ProjectTeam {
+validateProjectTeam()
}

StartASprintUI ..> StartASprintController
StartASprintUI ..> StartASprintDTO
StartASprintController ..> Company
StartASprintController ..> ProjectStore
StartASprintController ..> Project
StartASprintController ..> SprintList
StartASprintController ..> Sprint
StartASprintController ..> ProjectTeam

Company "1" o- - "1" ProjectStore: knows the
ProjectStore "1" *- - "0..*" Project: has a list of
Project "1" *- - "0..*" SprintList: contains
Project "1" *- - "1" ProjectTeam: has
Sprint "1" - - "1" SprintList: has a list of

@enduml

PlantUML version 1.2022.0(Tue Jan 11 16:16:42 WET 2022)
(GPL source distribution)
Java Runtime: OpenJDK Runtime Environment
JVM: OpenJDK 64-Bit Server VM
Default Encoding: UTF-8
Language: pt
Country: PT
--></g></svg>