<?xml version="1.0" encoding="UTF-8" standalone="no"?><svg xmlns="http://www.w3.org/2000/svg" xmlns:xlink="http://www.w3.org/1999/xlink" contentScriptType="application/ecmascript" contentStyleType="text/css" height="992px" preserveAspectRatio="none" style="width:1529px;height:992px;background:#FFFFFF;" version="1.1" viewBox="0 0 1529 992" width="1529px" zoomAndPan="magnify"><defs><filter height="300%" id="f1bqtnk6d3c36" width="300%" x="-1" y="-1"><feGaussianBlur result="blurOut" stdDeviation="2.0"/><feColorMatrix in="blurOut" result="blurOut2" type="matrix" values="0 0 0 0 0 0 0 0 0 0 0 0 0 0 0 0 0 0 .4 0"/><feOffset dx="4.0" dy="4.0" in="blurOut2" result="blurOut3"/><feBlend in="SourceGraphic" in2="blurOut3" mode="normal"/></filter></defs><g><text fill="#000000" font-family="sans-serif" font-size="18" lengthAdjust="spacing" textLength="625" x="450.25" y="30.6855">US006 - As Administrator, I want to update profiles assigned to a user account.</text><rect fill="#FFFFFF" filter="url(#f1bqtnk6d3c36)" height="305.5156" style="stroke:#A80036;stroke-width:1.0;" width="10" x="326.5" y="158.6016"/><rect fill="#FFFFFF" filter="url(#f1bqtnk6d3c36)" height="212.4609" style="stroke:#A80036;stroke-width:1.0;" width="10" x="326.5" y="494.4688"/><rect fill="#FFFFFF" filter="url(#f1bqtnk6d3c36)" height="151.7578" style="stroke:#A80036;stroke-width:1.0;" width="10" x="326.5" y="737.2813"/><rect fill="#FFFFFF" filter="url(#f1bqtnk6d3c36)" height="244.8125" style="stroke:#A80036;stroke-width:1.0;" width="10" x="658.5" y="188.9531"/><rect fill="#FFFFFF" filter="url(#f1bqtnk6d3c36)" height="151.7578" style="stroke:#A80036;stroke-width:1.0;" width="10" x="658.5" y="524.8203"/><rect fill="#FFFFFF" filter="url(#f1bqtnk6d3c36)" height="91.0547" style="stroke:#A80036;stroke-width:1.0;" width="10" x="658.5" y="767.6328"/><rect fill="#FFFFFF" filter="url(#f1bqtnk6d3c36)" height="30.3516" style="stroke:#A80036;stroke-width:1.0;" width="10" x="827.5" y="219.3047"/><rect fill="#FFFFFF" filter="url(#f1bqtnk6d3c36)" height="30.3516" style="stroke:#A80036;stroke-width:1.0;" width="10" x="827.5" y="555.1719"/><rect fill="#FFFFFF" filter="url(#f1bqtnk6d3c36)" height="123.4063" style="stroke:#A80036;stroke-width:1.0;" width="10" x="999.5" y="280.0078"/><rect fill="#FFFFFF" filter="url(#f1bqtnk6d3c36)" height="30.3516" style="stroke:#A80036;stroke-width:1.0;" width="10" x="1246" y="615.875"/><rect fill="#FFFFFF" filter="url(#f1bqtnk6d3c36)" height="30.3516" style="stroke:#A80036;stroke-width:1.0;" width="10" x="1436" y="335.7109"/><rect fill="#FFFFFF" filter="url(#f1bqtnk6d3c36)" height="30.3516" style="stroke:#A80036;stroke-width:1.0;" width="10" x="1436" y="797.9844"/><rect fill="#FFFFFF" filter="url(#f1bqtnk6d3c36)" height="79.0547" style="stroke:#000000;stroke-width:2.0;" width="642" x="873.5" y="295.0078"/><line style="stroke:#A80036;stroke-width:1.0;stroke-dasharray:5.0,5.0;" x1="49" x2="49" y1="126.25" y2="907.0391"/><line style="stroke:#A80036;stroke-width:1.0;stroke-dasharray:5.0,5.0;" x1="331" x2="331" y1="126.25" y2="907.0391"/><line style="stroke:#A80036;stroke-width:1.0;stroke-dasharray:5.0,5.0;" x1="663" x2="663" y1="126.25" y2="907.0391"/><line style="stroke:#A80036;stroke-width:1.0;stroke-dasharray:5.0,5.0;" x1="832.5" x2="832.5" y1="126.25" y2="907.0391"/><line style="stroke:#A80036;stroke-width:1.0;stroke-dasharray:5.0,5.0;" x1="1004.5" x2="1004.5" y1="126.25" y2="907.0391"/><line style="stroke:#A80036;stroke-width:1.0;stroke-dasharray:5.0,5.0;" x1="1250.5" x2="1250.5" y1="126.25" y2="907.0391"/><line style="stroke:#A80036;stroke-width:1.0;stroke-dasharray:5.0,5.0;" x1="1440.5" x2="1440.5" y1="126.25" y2="907.0391"/><text fill="#000000" font-family="sans-serif" font-size="14" lengthAdjust="spacing" textLength="83" x="5" y="123.1738">Administrator</text><ellipse cx="49.5" cy="51.6406" fill="#FEFECE" filter="url(#f1bqtnk6d3c36)" rx="8" ry="8" style="stroke:#A80036;stroke-width:2.0;"/><path d="M49.5,59.6406 L49.5,86.6406 M36.5,67.6406 L62.5,67.6406 M49.5,86.6406 L36.5,101.6406 M49.5,86.6406 L62.5,101.6406 " fill="none" filter="url(#f1bqtnk6d3c36)" style="stroke:#A80036;stroke-width:2.0;"/><text fill="#000000" font-family="sans-serif" font-size="14" lengthAdjust="spacing" textLength="83" x="5" y="920.5723">Administrator</text><ellipse cx="49.5" cy="933.6484" fill="#FEFECE" filter="url(#f1bqtnk6d3c36)" rx="8" ry="8" style="stroke:#A80036;stroke-width:2.0;"/><path d="M49.5,941.6484 L49.5,968.6484 M36.5,949.6484 L62.5,949.6484 M49.5,968.6484 L36.5,983.6484 M49.5,968.6484 L62.5,983.6484 " fill="none" filter="url(#f1bqtnk6d3c36)" style="stroke:#A80036;stroke-width:2.0;"/><rect fill="#FEFECE" filter="url(#f1bqtnk6d3c36)" height="31.6094" style="stroke:#A80036;stroke-width:1.5;" width="187" x="236" y="89.6406"/><text fill="#000000" font-family="sans-serif" font-size="14" lengthAdjust="spacing" textLength="173" x="243" y="111.1738">:CreateUpdateUserProfileUI</text><rect fill="#FEFECE" filter="url(#f1bqtnk6d3c36)" height="31.6094" style="stroke:#A80036;stroke-width:1.5;" width="187" x="236" y="906.0391"/><text fill="#000000" font-family="sans-serif" font-size="14" lengthAdjust="spacing" textLength="173" x="243" y="927.5723">:CreateUpdateUserProfileUI</text><rect fill="#FEFECE" filter="url(#f1bqtnk6d3c36)" height="31.6094" style="stroke:#A80036;stroke-width:1.5;" width="185" x="569" y="89.6406"/><text fill="#000000" font-family="sans-serif" font-size="14" lengthAdjust="spacing" textLength="171" x="576" y="111.1738">:CreateUserStoryController</text><rect fill="#FEFECE" filter="url(#f1bqtnk6d3c36)" height="31.6094" style="stroke:#A80036;stroke-width:1.5;" width="185" x="569" y="906.0391"/><text fill="#000000" font-family="sans-serif" font-size="14" lengthAdjust="spacing" textLength="171" x="576" y="927.5723">:CreateUserStoryController</text><rect fill="#FEFECE" filter="url(#f1bqtnk6d3c36)" height="31.6094" style="stroke:#A80036;stroke-width:1.5;" width="78" x="791.5" y="89.6406"/><text fill="#000000" font-family="sans-serif" font-size="14" lengthAdjust="spacing" textLength="64" x="798.5" y="111.1738">:Company</text><rect fill="#FEFECE" filter="url(#f1bqtnk6d3c36)" height="31.6094" style="stroke:#A80036;stroke-width:1.5;" width="78" x="791.5" y="906.0391"/><text fill="#000000" font-family="sans-serif" font-size="14" lengthAdjust="spacing" textLength="64" x="798.5" y="927.5723">:Company</text><rect fill="#FEFECE" filter="url(#f1bqtnk6d3c36)" height="31.6094" style="stroke:#A80036;stroke-width:1.5;" width="238" x="883.5" y="89.6406"/><text fill="#000000" font-family="sans-serif" font-size="14" lengthAdjust="spacing" textLength="224" x="890.5" y="111.1738">systemUserStore: SystemUserStore</text><rect fill="#FEFECE" filter="url(#f1bqtnk6d3c36)" height="31.6094" style="stroke:#A80036;stroke-width:1.5;" width="238" x="883.5" y="906.0391"/><text fill="#000000" font-family="sans-serif" font-size="14" lengthAdjust="spacing" textLength="224" x="890.5" y="927.5723">systemUserStore: SystemUserStore</text><rect fill="#FEFECE" filter="url(#f1bqtnk6d3c36)" height="31.6094" style="stroke:#A80036;stroke-width:1.5;" width="227" x="1135.5" y="89.6406"/><text fill="#000000" font-family="sans-serif" font-size="14" lengthAdjust="spacing" textLength="213" x="1142.5" y="111.1738">userProfileStore: UserProfileStore</text><rect fill="#FEFECE" filter="url(#f1bqtnk6d3c36)" height="31.6094" style="stroke:#A80036;stroke-width:1.5;" width="227" x="1135.5" y="906.0391"/><text fill="#000000" font-family="sans-serif" font-size="14" lengthAdjust="spacing" textLength="213" x="1142.5" y="927.5723">userProfileStore: UserProfileStore</text><rect fill="#FEFECE" filter="url(#f1bqtnk6d3c36)" height="31.6094" style="stroke:#A80036;stroke-width:1.5;" width="125" x="1376.5" y="89.6406"/><text fill="#000000" font-family="sans-serif" font-size="14" lengthAdjust="spacing" textLength="111" x="1383.5" y="111.1738">user: SystemUser</text><rect fill="#FEFECE" filter="url(#f1bqtnk6d3c36)" height="31.6094" style="stroke:#A80036;stroke-width:1.5;" width="125" x="1376.5" y="906.0391"/><text fill="#000000" font-family="sans-serif" font-size="14" lengthAdjust="spacing" textLength="111" x="1383.5" y="927.5723">user: SystemUser</text><rect fill="#FFFFFF" filter="url(#f1bqtnk6d3c36)" height="305.5156" style="stroke:#A80036;stroke-width:1.0;" width="10" x="326.5" y="158.6016"/><rect fill="#FFFFFF" filter="url(#f1bqtnk6d3c36)" height="212.4609" style="stroke:#A80036;stroke-width:1.0;" width="10" x="326.5" y="494.4688"/><rect fill="#FFFFFF" filter="url(#f1bqtnk6d3c36)" height="151.7578" style="stroke:#A80036;stroke-width:1.0;" width="10" x="326.5" y="737.2813"/><rect fill="#FFFFFF" filter="url(#f1bqtnk6d3c36)" height="244.8125" style="stroke:#A80036;stroke-width:1.0;" width="10" x="658.5" y="188.9531"/><rect fill="#FFFFFF" filter="url(#f1bqtnk6d3c36)" height="151.7578" style="stroke:#A80036;stroke-width:1.0;" width="10" x="658.5" y="524.8203"/><rect fill="#FFFFFF" filter="url(#f1bqtnk6d3c36)" height="91.0547" style="stroke:#A80036;stroke-width:1.0;" width="10" x="658.5" y="767.6328"/><rect fill="#FFFFFF" filter="url(#f1bqtnk6d3c36)" height="30.3516" style="stroke:#A80036;stroke-width:1.0;" width="10" x="827.5" y="219.3047"/><rect fill="#FFFFFF" filter="url(#f1bqtnk6d3c36)" height="30.3516" style="stroke:#A80036;stroke-width:1.0;" width="10" x="827.5" y="555.1719"/><rect fill="#FFFFFF" filter="url(#f1bqtnk6d3c36)" height="123.4063" style="stroke:#A80036;stroke-width:1.0;" width="10" x="999.5" y="280.0078"/><rect fill="#FFFFFF" filter="url(#f1bqtnk6d3c36)" height="30.3516" style="stroke:#A80036;stroke-width:1.0;" width="10" x="1246" y="615.875"/><rect fill="#FFFFFF" filter="url(#f1bqtnk6d3c36)" height="30.3516" style="stroke:#A80036;stroke-width:1.0;" width="10" x="1436" y="335.7109"/><rect fill="#FFFFFF" filter="url(#f1bqtnk6d3c36)" height="30.3516" style="stroke:#A80036;stroke-width:1.0;" width="10" x="1436" y="797.9844"/><polygon fill="#A80036" points="314.5,154.6016,324.5,158.6016,314.5,162.6016,318.5,158.6016" style="stroke:#A80036;stroke-width:1.0;"/><line style="stroke:#A80036;stroke-width:1.0;" x1="49.5" x2="320.5" y1="158.6016" y2="158.6016"/><text fill="#000000" font-family="sans-serif" font-size="13" font-weight="bold" lengthAdjust="spacing" textLength="7" x="56.5" y="153.7451">1</text><text fill="#000000" font-family="sans-serif" font-size="13" lengthAdjust="spacing" textLength="109" x="67.5" y="153.7451">Start update profile</text><polygon fill="#A80036" points="646.5,184.9531,656.5,188.9531,646.5,192.9531,650.5,188.9531" style="stroke:#A80036;stroke-width:1.0;"/><line style="stroke:#A80036;stroke-width:1.0;" x1="336.5" x2="652.5" y1="188.9531" y2="188.9531"/><text fill="#000000" font-family="sans-serif" font-size="13" font-weight="bold" lengthAdjust="spacing" textLength="7" x="343.5" y="184.0967">2</text><text fill="#000000" font-family="sans-serif" font-size="13" lengthAdjust="spacing" textLength="84" x="354.5" y="184.0967">getUser(email)</text><polygon fill="#A80036" points="815.5,215.3047,825.5,219.3047,815.5,223.3047,819.5,219.3047" style="stroke:#A80036;stroke-width:1.0;"/><line style="stroke:#A80036;stroke-width:1.0;" x1="668.5" x2="821.5" y1="219.3047" y2="219.3047"/><text fill="#000000" font-family="sans-serif" font-size="13" font-weight="bold" lengthAdjust="spacing" textLength="7" x="675.5" y="214.4482">3</text><text fill="#000000" font-family="sans-serif" font-size="13" lengthAdjust="spacing" textLength="129" x="686.5" y="214.4482">getSystemUserStore()</text><polygon fill="#A80036" points="679.5,245.6563,669.5,249.6563,679.5,253.6563,675.5,249.6563" style="stroke:#A80036;stroke-width:1.0;"/><line style="stroke:#A80036;stroke-width:1.0;stroke-dasharray:2.0,2.0;" x1="673.5" x2="831.5" y1="249.6563" y2="249.6563"/><text fill="#000000" font-family="sans-serif" font-size="13" font-weight="bold" lengthAdjust="spacing" textLength="7" x="685.5" y="244.7998">4</text><text fill="#000000" font-family="sans-serif" font-size="13" lengthAdjust="spacing" textLength="101" x="696.5" y="244.7998">systemUserStore</text><polygon fill="#A80036" points="987.5,276.0078,997.5,280.0078,987.5,284.0078,991.5,280.0078" style="stroke:#A80036;stroke-width:1.0;"/><line style="stroke:#A80036;stroke-width:1.0;" x1="668.5" x2="993.5" y1="280.0078" y2="280.0078"/><text fill="#000000" font-family="sans-serif" font-size="13" font-weight="bold" lengthAdjust="spacing" textLength="7" x="675.5" y="275.1514">5</text><text fill="#000000" font-family="sans-serif" font-size="13" lengthAdjust="spacing" textLength="137" x="686.5" y="275.1514">getUserByEmail (email)</text><path d="M873.5,295.0078 L946.5,295.0078 L946.5,303.0078 L936.5,313.0078 L873.5,313.0078 L873.5,295.0078 " fill="#EEEEEE" style="stroke:#000000;stroke-width:1.0;"/><rect fill="none" height="79.0547" style="stroke:#000000;stroke-width:2.0;" width="642" x="873.5" y="295.0078"/><text fill="#000000" font-family="sans-serif" font-size="13" font-weight="bold" lengthAdjust="spacing" textLength="28" x="888.5" y="309.5029">loop</text><text fill="#000000" font-family="sans-serif" font-size="11" font-weight="bold" lengthAdjust="spacing" textLength="113" x="961.5" y="308.4268">[check user's email]</text><polygon fill="#A80036" points="1424,331.7109,1434,335.7109,1424,339.7109,1428,335.7109" style="stroke:#A80036;stroke-width:1.0;"/><line style="stroke:#A80036;stroke-width:1.0;" x1="1009.5" x2="1430" y1="335.7109" y2="335.7109"/><text fill="#000000" font-family="sans-serif" font-size="13" font-weight="bold" lengthAdjust="spacing" textLength="7" x="1016.5" y="330.8545">6</text><text fill="#000000" font-family="sans-serif" font-size="13" lengthAdjust="spacing" textLength="113" x="1027.5" y="330.8545">isYourEmail (email)</text><polygon fill="#A80036" points="1020.5,362.0625,1010.5,366.0625,1020.5,370.0625,1016.5,366.0625" style="stroke:#A80036;stroke-width:1.0;"/><line style="stroke:#A80036;stroke-width:1.0;stroke-dasharray:2.0,2.0;" x1="1014.5" x2="1440" y1="366.0625" y2="366.0625"/><text fill="#000000" font-family="sans-serif" font-size="13" font-weight="bold" lengthAdjust="spacing" textLength="7" x="1026.5" y="361.2061">7</text><text fill="#000000" font-family="sans-serif" font-size="13" lengthAdjust="spacing" textLength="22" x="1037.5" y="361.2061">true</text><polygon fill="#A80036" points="679.5,399.4141,669.5,403.4141,679.5,407.4141,675.5,403.4141" style="stroke:#A80036;stroke-width:1.0;"/><line style="stroke:#A80036;stroke-width:1.0;stroke-dasharray:2.0,2.0;" x1="673.5" x2="1003.5" y1="403.4141" y2="403.4141"/><text fill="#000000" font-family="sans-serif" font-size="13" font-weight="bold" lengthAdjust="spacing" textLength="7" x="685.5" y="398.5576">8</text><text fill="#000000" font-family="sans-serif" font-size="13" lengthAdjust="spacing" textLength="25" x="696.5" y="398.5576">user</text><polygon fill="#A80036" points="347.5,429.7656,337.5,433.7656,347.5,437.7656,343.5,433.7656" style="stroke:#A80036;stroke-width:1.0;"/><line style="stroke:#A80036;stroke-width:1.0;stroke-dasharray:2.0,2.0;" x1="341.5" x2="662.5" y1="433.7656" y2="433.7656"/><text fill="#000000" font-family="sans-serif" font-size="13" font-weight="bold" lengthAdjust="spacing" textLength="7" x="353.5" y="428.9092">9</text><text fill="#000000" font-family="sans-serif" font-size="13" lengthAdjust="spacing" textLength="25" x="364.5" y="428.9092">user</text><polygon fill="#A80036" points="60.5,460.1172,50.5,464.1172,60.5,468.1172,56.5,464.1172" style="stroke:#A80036;stroke-width:1.0;"/><line style="stroke:#A80036;stroke-width:1.0;stroke-dasharray:2.0,2.0;" x1="54.5" x2="330.5" y1="464.1172" y2="464.1172"/><text fill="#000000" font-family="sans-serif" font-size="13" font-weight="bold" lengthAdjust="spacing" textLength="14" x="66.5" y="459.2607">10</text><text fill="#000000" font-family="sans-serif" font-size="13" lengthAdjust="spacing" textLength="141" x="84.5" y="459.2607">Show System User data</text><polygon fill="#A80036" points="314.5,490.4688,324.5,494.4688,314.5,498.4688,318.5,494.4688" style="stroke:#A80036;stroke-width:1.0;"/><line style="stroke:#A80036;stroke-width:1.0;" x1="49.5" x2="320.5" y1="494.4688" y2="494.4688"/><text fill="#000000" font-family="sans-serif" font-size="13" font-weight="bold" lengthAdjust="spacing" textLength="14" x="56.5" y="489.6123">11</text><text fill="#000000" font-family="sans-serif" font-size="13" lengthAdjust="spacing" textLength="109" x="74.5" y="489.6123">Choose new profile</text><polygon fill="#A80036" points="646.5,520.8203,656.5,524.8203,646.5,528.8203,650.5,524.8203" style="stroke:#A80036;stroke-width:1.0;"/><line style="stroke:#A80036;stroke-width:1.0;" x1="336.5" x2="652.5" y1="524.8203" y2="524.8203"/><text fill="#000000" font-family="sans-serif" font-size="13" font-weight="bold" lengthAdjust="spacing" textLength="14" x="343.5" y="519.9639">12</text><text fill="#000000" font-family="sans-serif" font-size="13" lengthAdjust="spacing" textLength="110" x="361.5" y="519.9639">getUserProfileList()</text><polygon fill="#A80036" points="815.5,551.1719,825.5,555.1719,815.5,559.1719,819.5,555.1719" style="stroke:#A80036;stroke-width:1.0;"/><line style="stroke:#A80036;stroke-width:1.0;" x1="668.5" x2="821.5" y1="555.1719" y2="555.1719"/><text fill="#000000" font-family="sans-serif" font-size="13" font-weight="bold" lengthAdjust="spacing" textLength="14" x="675.5" y="550.3154">13</text><text fill="#000000" font-family="sans-serif" font-size="13" lengthAdjust="spacing" textLength="120" x="693.5" y="550.3154">getUserProfileStore()</text><polygon fill="#A80036" points="679.5,581.5234,669.5,585.5234,679.5,589.5234,675.5,585.5234" style="stroke:#A80036;stroke-width:1.0;"/><line style="stroke:#A80036;stroke-width:1.0;stroke-dasharray:2.0,2.0;" x1="673.5" x2="831.5" y1="585.5234" y2="585.5234"/><text fill="#000000" font-family="sans-serif" font-size="13" font-weight="bold" lengthAdjust="spacing" textLength="14" x="685.5" y="580.667">14</text><text fill="#000000" font-family="sans-serif" font-size="13" lengthAdjust="spacing" textLength="92" x="703.5" y="580.667">userProfileStore</text><polygon fill="#A80036" points="1234,611.875,1244,615.875,1234,619.875,1238,615.875" style="stroke:#A80036;stroke-width:1.0;"/><line style="stroke:#A80036;stroke-width:1.0;" x1="668.5" x2="1240" y1="615.875" y2="615.875"/><text fill="#000000" font-family="sans-serif" font-size="13" font-weight="bold" lengthAdjust="spacing" textLength="14" x="675.5" y="611.0186">15</text><text fill="#000000" font-family="sans-serif" font-size="13" lengthAdjust="spacing" textLength="110" x="693.5" y="611.0186">getUserProfileList()</text><polygon fill="#A80036" points="679.5,642.2266,669.5,646.2266,679.5,650.2266,675.5,646.2266" style="stroke:#A80036;stroke-width:1.0;"/><line style="stroke:#A80036;stroke-width:1.0;stroke-dasharray:2.0,2.0;" x1="673.5" x2="1250" y1="646.2266" y2="646.2266"/><text fill="#000000" font-family="sans-serif" font-size="13" font-weight="bold" lengthAdjust="spacing" textLength="14" x="685.5" y="641.3701">16</text><text fill="#000000" font-family="sans-serif" font-size="13" lengthAdjust="spacing" textLength="82" x="703.5" y="641.3701">userProfileList</text><polygon fill="#A80036" points="347.5,672.5781,337.5,676.5781,347.5,680.5781,343.5,676.5781" style="stroke:#A80036;stroke-width:1.0;"/><line style="stroke:#A80036;stroke-width:1.0;stroke-dasharray:2.0,2.0;" x1="341.5" x2="662.5" y1="676.5781" y2="676.5781"/><text fill="#000000" font-family="sans-serif" font-size="13" font-weight="bold" lengthAdjust="spacing" textLength="14" x="353.5" y="671.7217">17</text><text fill="#000000" font-family="sans-serif" font-size="13" lengthAdjust="spacing" textLength="82" x="371.5" y="671.7217">userProfileList</text><polygon fill="#A80036" points="60.5,702.9297,50.5,706.9297,60.5,710.9297,56.5,706.9297" style="stroke:#A80036;stroke-width:1.0;"/><line style="stroke:#A80036;stroke-width:1.0;stroke-dasharray:2.0,2.0;" x1="54.5" x2="330.5" y1="706.9297" y2="706.9297"/><text fill="#000000" font-family="sans-serif" font-size="13" font-weight="bold" lengthAdjust="spacing" textLength="14" x="66.5" y="702.0732">18</text><text fill="#000000" font-family="sans-serif" font-size="13" lengthAdjust="spacing" textLength="118" x="84.5" y="702.0732">Show userProfileList</text><polygon fill="#A80036" points="314.5,733.2813,324.5,737.2813,314.5,741.2813,318.5,737.2813" style="stroke:#A80036;stroke-width:1.0;"/><line style="stroke:#A80036;stroke-width:1.0;" x1="49.5" x2="320.5" y1="737.2813" y2="737.2813"/><text fill="#000000" font-family="sans-serif" font-size="13" font-weight="bold" lengthAdjust="spacing" textLength="14" x="56.5" y="732.4248">19</text><text fill="#000000" font-family="sans-serif" font-size="13" lengthAdjust="spacing" textLength="240" x="74.5" y="732.4248">Update profile assigned to a user account</text><polygon fill="#A80036" points="646.5,763.6328,656.5,767.6328,646.5,771.6328,650.5,767.6328" style="stroke:#A80036;stroke-width:1.0;"/><line style="stroke:#A80036;stroke-width:1.0;" x1="336.5" x2="652.5" y1="767.6328" y2="767.6328"/><text fill="#000000" font-family="sans-serif" font-size="13" font-weight="bold" lengthAdjust="spacing" textLength="14" x="343.5" y="762.7764">20</text><text fill="#000000" font-family="sans-serif" font-size="13" lengthAdjust="spacing" textLength="285" x="361.5" y="762.7764">updateProfile (systemUser, oldProfile, newProfile)</text><polygon fill="#A80036" points="1424,793.9844,1434,797.9844,1424,801.9844,1428,797.9844" style="stroke:#A80036;stroke-width:1.0;"/><line style="stroke:#A80036;stroke-width:1.0;" x1="668.5" x2="1430" y1="797.9844" y2="797.9844"/><text fill="#000000" font-family="sans-serif" font-size="13" font-weight="bold" lengthAdjust="spacing" textLength="14" x="675.5" y="793.1279">21</text><text fill="#000000" font-family="sans-serif" font-size="13" lengthAdjust="spacing" textLength="207" x="693.5" y="793.1279">updateProfile (oldProfile, newProfile)</text><polygon fill="#A80036" points="679.5,824.3359,669.5,828.3359,679.5,832.3359,675.5,828.3359" style="stroke:#A80036;stroke-width:1.0;"/><line style="stroke:#A80036;stroke-width:1.0;stroke-dasharray:2.0,2.0;" x1="673.5" x2="1440" y1="828.3359" y2="828.3359"/><text fill="#000000" font-family="sans-serif" font-size="13" font-weight="bold" lengthAdjust="spacing" textLength="14" x="685.5" y="823.4795">22</text><text fill="#000000" font-family="sans-serif" font-size="13" lengthAdjust="spacing" textLength="22" x="703.5" y="823.4795">true</text><polygon fill="#A80036" points="347.5,854.6875,337.5,858.6875,347.5,862.6875,343.5,858.6875" style="stroke:#A80036;stroke-width:1.0;"/><line style="stroke:#A80036;stroke-width:1.0;stroke-dasharray:2.0,2.0;" x1="341.5" x2="662.5" y1="858.6875" y2="858.6875"/><text fill="#000000" font-family="sans-serif" font-size="13" font-weight="bold" lengthAdjust="spacing" textLength="14" x="353.5" y="853.8311">23</text><text fill="#000000" font-family="sans-serif" font-size="13" lengthAdjust="spacing" textLength="22" x="371.5" y="853.8311">true</text><polygon fill="#A80036" points="60.5,885.0391,50.5,889.0391,60.5,893.0391,56.5,889.0391" style="stroke:#A80036;stroke-width:1.0;"/><line style="stroke:#A80036;stroke-width:1.0;stroke-dasharray:2.0,2.0;" x1="54.5" x2="330.5" y1="889.0391" y2="889.0391"/><text fill="#000000" font-family="sans-serif" font-size="13" font-weight="bold" lengthAdjust="spacing" textLength="14" x="66.5" y="884.1826">24</text><text fill="#000000" font-family="sans-serif" font-size="13" lengthAdjust="spacing" textLength="145" x="84.5" y="884.1826">inform operation success</text><!--MD5=[1664e14fdd2d64bead99d27ed5c10170]
@startuml

title "US006 - As Administrator, I want to update profiles assigned to a user account."

autoactivate on
autonumber

actor "Administrator" as Administrator
participant ":CreateUpdateUserProfileUI" as UI
participant ":CreateUserStoryController" as Controller
participant ":Company" as Company
participant "systemUserStore: SystemUserStore" as UserStore
participant "userProfileStore: UserProfileStore" as ProfileStore
participant "user: SystemUser" as User



Administrator -> UI: Start update profile
UI -> Controller: getUser(email)
Controller -> Company: getSystemUserStore()
return systemUserStore
Controller -> UserStore: getUserByEmail (email)
loop check user's email
    UserStore -> User: isYourEmail (email)
    return true
end
return user
return user
return Show System User data

Administrator -> UI: Choose new profile
UI -> Controller: getUserProfileList()
Controller -> Company: getUserProfileStore()
return userProfileStore
Controller -> ProfileStore: getUserProfileList()
return userProfileList
return userProfileList
return Show userProfileList

Administrator -> UI: Update profile assigned to a user account
UI -> Controller: updateProfile (systemUser, oldProfile, newProfile)
Controller -> User: updateProfile (oldProfile, newProfile)
return true
return true
return inform operation success

@enduml

PlantUML version 1.2022.0(Tue Jan 11 16:16:42 GMT 2022)
(GPL source distribution)
Java Runtime: OpenJDK Runtime Environment
JVM: OpenJDK 64-Bit Server VM
Default Encoding: Cp1252
Language: pt
Country: PT
--></g></svg>