<?xml version="1.0" encoding="UTF-8" standalone="no"?><svg xmlns="http://www.w3.org/2000/svg" xmlns:xlink="http://www.w3.org/1999/xlink" contentScriptType="application/ecmascript" contentStyleType="text/css" height="675px" preserveAspectRatio="none" style="width:1608px;height:675px;background:#FFFFFF;" version="1.1" viewBox="0 0 1608 675" width="1608px" zoomAndPan="magnify"><defs><filter height="300%" id="f1u8bck7dkh8e" width="300%" x="-1" y="-1"><feGaussianBlur result="blurOut" stdDeviation="2.0"/><feColorMatrix in="blurOut" result="blurOut2" type="matrix" values="0 0 0 0 0 0 0 0 0 0 0 0 0 0 0 0 0 0 .4 0"/><feOffset dx="4.0" dy="4.0" in="blurOut2" result="blurOut3"/><feBlend in="SourceGraphic" in2="blurOut3" mode="normal"/></filter></defs><g><text fill="#000000" font-family="sans-serif" font-size="18" lengthAdjust="spacing" textLength="535" x="534" y="30.6855">US014 - As Director, I want to define the Scrum Master of a project.</text><rect fill="#FFFFFF" filter="url(#f1u8bck7dkh8e)" height="444.1797" style="stroke:#A80036;stroke-width:1.0;" width="10" x="28" y="136.25"/><rect fill="#FFFFFF" filter="url(#f1u8bck7dkh8e)" height="412.8281" style="stroke:#A80036;stroke-width:1.0;" width="10" x="206" y="158.6016"/><rect fill="#FFFFFF" filter="url(#f1u8bck7dkh8e)" height="352.125" style="stroke:#A80036;stroke-width:1.0;" width="10" x="404" y="188.9531"/><rect fill="#FFFFFF" filter="url(#f1u8bck7dkh8e)" height="30.3516" style="stroke:#A80036;stroke-width:1.0;" width="10" x="561.5" y="219.3047"/><rect fill="#FFFFFF" filter="url(#f1u8bck7dkh8e)" height="123.4063" style="stroke:#A80036;stroke-width:1.0;" width="10" x="691.5" y="280.0078"/><rect fill="#FFFFFF" filter="url(#f1u8bck7dkh8e)" height="30.3516" style="stroke:#A80036;stroke-width:1.0;" width="10" x="825.5" y="335.7109"/><rect fill="#FFFFFF" filter="url(#f1u8bck7dkh8e)" height="76.9609" style="stroke:#A80036;stroke-width:1.0;" width="10" x="939" y="433.7656"/><rect fill="#FFFFFF" filter="url(#f1u8bck7dkh8e)" height="79.0547" style="stroke:#000000;stroke-width:2.0;" width="278" x="607.5" y="295.0078"/><line style="stroke:#A80036;stroke-width:1.0;stroke-dasharray:5.0,5.0;" x1="33" x2="33" y1="126.25" y2="589.4297"/><line style="stroke:#A80036;stroke-width:1.0;stroke-dasharray:5.0,5.0;" x1="210.5" x2="210.5" y1="126.25" y2="589.4297"/><line style="stroke:#A80036;stroke-width:1.0;stroke-dasharray:5.0,5.0;" x1="408.5" x2="408.5" y1="126.25" y2="589.4297"/><line style="stroke:#A80036;stroke-width:1.0;stroke-dasharray:5.0,5.0;" x1="566.5" x2="566.5" y1="126.25" y2="589.4297"/><line style="stroke:#A80036;stroke-width:1.0;stroke-dasharray:5.0,5.0;" x1="696.5" x2="696.5" y1="126.25" y2="589.4297"/><line style="stroke:#A80036;stroke-width:1.0;stroke-dasharray:5.0,5.0;" x1="830.5" x2="830.5" y1="126.25" y2="589.4297"/><line style="stroke:#A80036;stroke-width:1.0;stroke-dasharray:5.0,5.0;" x1="943.5" x2="943.5" y1="126.25" y2="589.4297"/><line style="stroke:#A80036;stroke-width:1.0;stroke-dasharray:5.0,5.0;" x1="1521" x2="1521" y1="475.0703" y2="589.4297"/><text fill="#000000" font-family="sans-serif" font-size="14" lengthAdjust="spacing" textLength="50" x="5" y="123.1738">Director</text><ellipse cx="33" cy="51.6406" fill="#FEFECE" filter="url(#f1u8bck7dkh8e)" rx="8" ry="8" style="stroke:#A80036;stroke-width:2.0;"/><path d="M33,59.6406 L33,86.6406 M20,67.6406 L46,67.6406 M33,86.6406 L20,101.6406 M33,86.6406 L46,101.6406 " fill="none" filter="url(#f1u8bck7dkh8e)" style="stroke:#A80036;stroke-width:2.0;"/><text fill="#000000" font-family="sans-serif" font-size="14" lengthAdjust="spacing" textLength="50" x="5" y="602.9629">Director</text><ellipse cx="33" cy="616.0391" fill="#FEFECE" filter="url(#f1u8bck7dkh8e)" rx="8" ry="8" style="stroke:#A80036;stroke-width:2.0;"/><path d="M33,624.0391 L33,651.0391 M20,632.0391 L46,632.0391 M33,651.0391 L20,666.0391 M33,651.0391 L46,666.0391 " fill="none" filter="url(#f1u8bck7dkh8e)" style="stroke:#A80036;stroke-width:2.0;"/><rect fill="#FEFECE" filter="url(#f1u8bck7dkh8e)" height="31.6094" style="stroke:#A80036;stroke-width:1.5;" width="159" x="129.5" y="89.6406"/><text fill="#000000" font-family="sans-serif" font-size="14" lengthAdjust="spacing" textLength="145" x="136.5" y="111.1738">: AssignScrumMasterUI</text><rect fill="#FEFECE" filter="url(#f1u8bck7dkh8e)" height="31.6094" style="stroke:#A80036;stroke-width:1.5;" width="159" x="129.5" y="588.4297"/><text fill="#000000" font-family="sans-serif" font-size="14" lengthAdjust="spacing" textLength="145" x="136.5" y="609.9629">: AssignScrumMasterUI</text><rect fill="#FEFECE" filter="url(#f1u8bck7dkh8e)" height="31.6094" style="stroke:#A80036;stroke-width:1.5;" width="209" x="302.5" y="89.6406"/><text fill="#000000" font-family="sans-serif" font-size="14" lengthAdjust="spacing" textLength="195" x="309.5" y="111.1738">: AssignScrumMasterController</text><rect fill="#FEFECE" filter="url(#f1u8bck7dkh8e)" height="31.6094" style="stroke:#A80036;stroke-width:1.5;" width="209" x="302.5" y="588.4297"/><text fill="#000000" font-family="sans-serif" font-size="14" lengthAdjust="spacing" textLength="195" x="309.5" y="609.9629">: AssignScrumMasterController</text><rect fill="#FEFECE" filter="url(#f1u8bck7dkh8e)" height="31.6094" style="stroke:#A80036;stroke-width:1.5;" width="78" x="525.5" y="89.6406"/><text fill="#000000" font-family="sans-serif" font-size="14" lengthAdjust="spacing" textLength="64" x="532.5" y="111.1738">:Company</text><rect fill="#FEFECE" filter="url(#f1u8bck7dkh8e)" height="31.6094" style="stroke:#A80036;stroke-width:1.5;" width="78" x="525.5" y="588.4297"/><text fill="#000000" font-family="sans-serif" font-size="14" lengthAdjust="spacing" textLength="64" x="532.5" y="609.9629">:Company</text><rect fill="#FEFECE" filter="url(#f1u8bck7dkh8e)" height="31.6094" style="stroke:#A80036;stroke-width:1.5;" width="154" x="617.5" y="89.6406"/><text fill="#000000" font-family="sans-serif" font-size="14" lengthAdjust="spacing" textLength="140" x="624.5" y="111.1738">projStore:ProjectStore</text><rect fill="#FEFECE" filter="url(#f1u8bck7dkh8e)" height="31.6094" style="stroke:#A80036;stroke-width:1.5;" width="154" x="617.5" y="588.4297"/><text fill="#000000" font-family="sans-serif" font-size="14" lengthAdjust="spacing" textLength="140" x="624.5" y="609.9629">projStore:ProjectStore</text><rect fill="#FEFECE" filter="url(#f1u8bck7dkh8e)" height="31.6094" style="stroke:#A80036;stroke-width:1.5;" width="86" x="785.5" y="89.6406"/><text fill="#000000" font-family="sans-serif" font-size="14" lengthAdjust="spacing" textLength="72" x="792.5" y="111.1738">proj:Project</text><rect fill="#FEFECE" filter="url(#f1u8bck7dkh8e)" height="31.6094" style="stroke:#A80036;stroke-width:1.5;" width="86" x="785.5" y="588.4297"/><text fill="#000000" font-family="sans-serif" font-size="14" lengthAdjust="spacing" textLength="72" x="792.5" y="609.9629">proj:Project</text><rect fill="#FEFECE" filter="url(#f1u8bck7dkh8e)" height="31.6094" style="stroke:#A80036;stroke-width:1.5;" width="113" x="885.5" y="89.6406"/><text fill="#000000" font-family="sans-serif" font-size="14" lengthAdjust="spacing" textLength="99" x="892.5" y="111.1738">ProjectsMapper</text><rect fill="#FEFECE" filter="url(#f1u8bck7dkh8e)" height="31.6094" style="stroke:#A80036;stroke-width:1.5;" width="113" x="885.5" y="588.4297"/><text fill="#000000" font-family="sans-serif" font-size="14" lengthAdjust="spacing" textLength="99" x="892.5" y="609.9629">ProjectsMapper</text><rect fill="#FEFECE" filter="url(#f1u8bck7dkh8e)" height="31.6094" style="stroke:#A80036;stroke-width:1.5;" width="150" x="1444" y="588.4297"/><text fill="#000000" font-family="sans-serif" font-size="14" lengthAdjust="spacing" textLength="136" x="1451" y="609.9629">projDTO: ProjectDTO</text><rect fill="#FFFFFF" filter="url(#f1u8bck7dkh8e)" height="444.1797" style="stroke:#A80036;stroke-width:1.0;" width="10" x="28" y="136.25"/><rect fill="#FFFFFF" filter="url(#f1u8bck7dkh8e)" height="412.8281" style="stroke:#A80036;stroke-width:1.0;" width="10" x="206" y="158.6016"/><rect fill="#FFFFFF" filter="url(#f1u8bck7dkh8e)" height="352.125" style="stroke:#A80036;stroke-width:1.0;" width="10" x="404" y="188.9531"/><rect fill="#FFFFFF" filter="url(#f1u8bck7dkh8e)" height="30.3516" style="stroke:#A80036;stroke-width:1.0;" width="10" x="561.5" y="219.3047"/><rect fill="#FFFFFF" filter="url(#f1u8bck7dkh8e)" height="123.4063" style="stroke:#A80036;stroke-width:1.0;" width="10" x="691.5" y="280.0078"/><rect fill="#FFFFFF" filter="url(#f1u8bck7dkh8e)" height="30.3516" style="stroke:#A80036;stroke-width:1.0;" width="10" x="825.5" y="335.7109"/><rect fill="#FFFFFF" filter="url(#f1u8bck7dkh8e)" height="76.9609" style="stroke:#A80036;stroke-width:1.0;" width="10" x="939" y="433.7656"/><polygon fill="#A80036" points="194,154.6016,204,158.6016,194,162.6016,198,158.6016" style="stroke:#A80036;stroke-width:1.0;"/><line style="stroke:#A80036;stroke-width:1.0;" x1="38" x2="200" y1="158.6016" y2="158.6016"/><text fill="#000000" font-family="sans-serif" font-size="13" font-weight="bold" lengthAdjust="spacing" textLength="7" x="45" y="153.7451">1</text><text fill="#000000" font-family="sans-serif" font-size="13" lengthAdjust="spacing" textLength="138" x="56" y="153.7451">Ask to access a project</text><polygon fill="#A80036" points="392,184.9531,402,188.9531,392,192.9531,396,188.9531" style="stroke:#A80036;stroke-width:1.0;"/><line style="stroke:#A80036;stroke-width:1.0;" x1="216" x2="398" y1="188.9531" y2="188.9531"/><text fill="#000000" font-family="sans-serif" font-size="13" font-weight="bold" lengthAdjust="spacing" textLength="7" x="223" y="184.0967">2</text><text fill="#000000" font-family="sans-serif" font-size="13" lengthAdjust="spacing" textLength="95" x="234" y="184.0967">getProject(code)</text><polygon fill="#A80036" points="549.5,215.3047,559.5,219.3047,549.5,223.3047,553.5,219.3047" style="stroke:#A80036;stroke-width:1.0;"/><line style="stroke:#A80036;stroke-width:1.0;" x1="414" x2="555.5" y1="219.3047" y2="219.3047"/><text fill="#000000" font-family="sans-serif" font-size="13" font-weight="bold" lengthAdjust="spacing" textLength="7" x="421" y="214.4482">3</text><text fill="#000000" font-family="sans-serif" font-size="13" lengthAdjust="spacing" textLength="98" x="432" y="214.4482">getProjectStore()</text><polygon fill="#A80036" points="425,245.6563,415,249.6563,425,253.6563,421,249.6563" style="stroke:#A80036;stroke-width:1.0;"/><line style="stroke:#A80036;stroke-width:1.0;stroke-dasharray:2.0,2.0;" x1="419" x2="565.5" y1="249.6563" y2="249.6563"/><text fill="#000000" font-family="sans-serif" font-size="13" font-weight="bold" lengthAdjust="spacing" textLength="7" x="431" y="244.7998">4</text><text fill="#000000" font-family="sans-serif" font-size="13" lengthAdjust="spacing" textLength="52" x="442" y="244.7998">projStore</text><polygon fill="#A80036" points="679.5,276.0078,689.5,280.0078,679.5,284.0078,683.5,280.0078" style="stroke:#A80036;stroke-width:1.0;"/><line style="stroke:#A80036;stroke-width:1.0;" x1="414" x2="685.5" y1="280.0078" y2="280.0078"/><text fill="#000000" font-family="sans-serif" font-size="13" font-weight="bold" lengthAdjust="spacing" textLength="7" x="421" y="275.1514">5</text><text fill="#000000" font-family="sans-serif" font-size="13" lengthAdjust="spacing" textLength="141" x="432" y="275.1514">getProjectByCode(code)</text><path d="M607.5,295.0078 L680.5,295.0078 L680.5,303.0078 L670.5,313.0078 L607.5,313.0078 L607.5,295.0078 " fill="#EEEEEE" style="stroke:#000000;stroke-width:1.0;"/><rect fill="none" height="79.0547" style="stroke:#000000;stroke-width:2.0;" width="278" x="607.5" y="295.0078"/><text fill="#000000" font-family="sans-serif" font-size="13" font-weight="bold" lengthAdjust="spacing" textLength="28" x="622.5" y="309.5029">loop</text><text fill="#000000" font-family="sans-serif" font-size="11" font-weight="bold" lengthAdjust="spacing" textLength="92" x="695.5" y="308.4268">[hasCode(code)]</text><polygon fill="#A80036" points="813.5,331.7109,823.5,335.7109,813.5,339.7109,817.5,335.7109" style="stroke:#A80036;stroke-width:1.0;"/><line style="stroke:#A80036;stroke-width:1.0;" x1="701.5" x2="819.5" y1="335.7109" y2="335.7109"/><text fill="#000000" font-family="sans-serif" font-size="13" font-weight="bold" lengthAdjust="spacing" textLength="7" x="708.5" y="330.8545">6</text><text fill="#000000" font-family="sans-serif" font-size="13" lengthAdjust="spacing" textLength="87" x="719.5" y="330.8545">hasCode(code)</text><polygon fill="#A80036" points="712.5,362.0625,702.5,366.0625,712.5,370.0625,708.5,366.0625" style="stroke:#A80036;stroke-width:1.0;"/><line style="stroke:#A80036;stroke-width:1.0;stroke-dasharray:2.0,2.0;" x1="706.5" x2="829.5" y1="366.0625" y2="366.0625"/><text fill="#000000" font-family="sans-serif" font-size="13" font-weight="bold" lengthAdjust="spacing" textLength="7" x="718.5" y="361.2061">7</text><text fill="#000000" font-family="sans-serif" font-size="13" lengthAdjust="spacing" textLength="22" x="729.5" y="361.2061">true</text><polygon fill="#A80036" points="425,399.4141,415,403.4141,425,407.4141,421,403.4141" style="stroke:#A80036;stroke-width:1.0;"/><line style="stroke:#A80036;stroke-width:1.0;stroke-dasharray:2.0,2.0;" x1="419" x2="695.5" y1="403.4141" y2="403.4141"/><text fill="#000000" font-family="sans-serif" font-size="13" font-weight="bold" lengthAdjust="spacing" textLength="7" x="431" y="398.5576">8</text><text fill="#000000" font-family="sans-serif" font-size="13" lengthAdjust="spacing" textLength="21" x="442" y="398.5576">proj</text><polygon fill="#A80036" points="927,429.7656,937,433.7656,927,437.7656,931,433.7656" style="stroke:#A80036;stroke-width:1.0;"/><line style="stroke:#A80036;stroke-width:1.0;" x1="414" x2="933" y1="433.7656" y2="433.7656"/><text fill="#000000" font-family="sans-serif" font-size="13" font-weight="bold" lengthAdjust="spacing" textLength="7" x="421" y="428.9092">9</text><text fill="#000000" font-family="sans-serif" font-size="13" lengthAdjust="spacing" textLength="66" x="432" y="428.9092">toDTO(proj)</text><polygon fill="#A80036" points="1432,460.1172,1442,464.1172,1432,468.1172,1436,464.1172" style="stroke:#A80036;stroke-width:1.0;"/><line style="stroke:#A80036;stroke-width:1.0;stroke-dasharray:2.0,2.0;" x1="949" x2="1438" y1="464.1172" y2="464.1172"/><text fill="#000000" font-family="sans-serif" font-size="13" font-weight="bold" lengthAdjust="spacing" textLength="14" x="956" y="459.2607">10</text><text fill="#000000" font-family="sans-serif" font-size="13" lengthAdjust="spacing" textLength="453" x="974" y="459.2607">ProjectDTO(String code, String projectName, String startDate, String endDate)</text><rect fill="#FEFECE" filter="url(#f1u8bck7dkh8e)" height="31.6094" style="stroke:#A80036;stroke-width:1.5;" width="150" x="1444" y="441.7656"/><text fill="#000000" font-family="sans-serif" font-size="14" lengthAdjust="spacing" textLength="136" x="1451" y="463.2988">projDTO: ProjectDTO</text><polygon fill="#A80036" points="425,506.7266,415,510.7266,425,514.7266,421,510.7266" style="stroke:#A80036;stroke-width:1.0;"/><line style="stroke:#A80036;stroke-width:1.0;stroke-dasharray:2.0,2.0;" x1="419" x2="943" y1="510.7266" y2="510.7266"/><text fill="#000000" font-family="sans-serif" font-size="13" font-weight="bold" lengthAdjust="spacing" textLength="14" x="431" y="505.8701">11</text><text fill="#000000" font-family="sans-serif" font-size="13" lengthAdjust="spacing" textLength="47" x="449" y="505.8701">projDTO</text><polygon fill="#A80036" points="227,537.0781,217,541.0781,227,545.0781,223,541.0781" style="stroke:#A80036;stroke-width:1.0;"/><line style="stroke:#A80036;stroke-width:1.0;stroke-dasharray:2.0,2.0;" x1="221" x2="408" y1="541.0781" y2="541.0781"/><text fill="#000000" font-family="sans-serif" font-size="13" font-weight="bold" lengthAdjust="spacing" textLength="14" x="233" y="536.2217">12</text><text fill="#000000" font-family="sans-serif" font-size="13" lengthAdjust="spacing" textLength="47" x="251" y="536.2217">projDTO</text><polygon fill="#A80036" points="49,567.4297,39,571.4297,49,575.4297,45,571.4297" style="stroke:#A80036;stroke-width:1.0;"/><line style="stroke:#A80036;stroke-width:1.0;stroke-dasharray:2.0,2.0;" x1="43" x2="210" y1="571.4297" y2="571.4297"/><text fill="#000000" font-family="sans-serif" font-size="13" font-weight="bold" lengthAdjust="spacing" textLength="14" x="55" y="566.5732">13</text><text fill="#000000" font-family="sans-serif" font-size="13" lengthAdjust="spacing" textLength="47" x="73" y="566.5732">projDTO</text><!--MD5=[e52fcf340201615808d0643bfeebd8cf]
@startuml

title "US014 - As Director, I want to define the Scrum Master of a project."

autoactivate on
autonumber

actor "Director" as Director
participant ": AssignScrumMasterUI" as UI
participant ": AssignScrumMasterController" as Controller
participant ":Company" as Company
participant "projStore:ProjectStore" as ProjectStore
participant "proj:Project" as Project
participant "ProjectsMapper" as ProjectsMapper
participant "projDTO: ProjectDTO" as ProjectDTO


activate Director

Director -> UI: Ask to access a project
UI -> Controller: getProject(code)
Controller -> Company: getProjectStore()
return projStore
Controller -> ProjectStore: getProjectByCode(code)
    loop hasCode(code)
        ProjectStore -> Project: hasCode(code)
        return true
    end
return proj
Controller -> ProjectsMapper: toDTO(proj)
ProjectsMapper - -> ProjectDTO**: ProjectDTO(String code, String projectName, String startDate, String endDate)
deactivate ProjectDTO
ProjectsMapper - -> Controller: projDTO
Controller - -> UI: projDTO
UI - -> Director: projDTO

@enduml

PlantUML version 1.2022.0(Tue Jan 11 16:16:42 GMT 2022)
(GPL source distribution)
Java Runtime: OpenJDK Runtime Environment
JVM: OpenJDK 64-Bit Server VM
Default Encoding: Cp1252
Language: pt
Country: PT
--></g></svg>