<?xml version="1.0" encoding="UTF-8" standalone="no"?><svg xmlns="http://www.w3.org/2000/svg" xmlns:xlink="http://www.w3.org/1999/xlink" contentScriptType="application/ecmascript" contentStyleType="text/css" height="535px" preserveAspectRatio="none" style="width:560px;height:535px;background:#FFFFFF;" version="1.1" viewBox="0 0 560 535" width="560px" zoomAndPan="magnify"><defs><filter height="300%" id="f1pifs632ujmd6" width="300%" x="-1" y="-1"><feGaussianBlur result="blurOut" stdDeviation="2.0"/><feColorMatrix in="blurOut" result="blurOut2" type="matrix" values="0 0 0 0 0 0 0 0 0 0 0 0 0 0 0 0 0 0 .4 0"/><feOffset dx="4.0" dy="4.0" in="blurOut2" result="blurOut3"/><feBlend in="SourceGraphic" in2="blurOut3" mode="normal"/></filter></defs><g><text fill="#000000" font-family="sans-serif" font-size="18" lengthAdjust="spacing" textLength="535" x="9" y="30.6855">US014 - As Director, I want to define the Scrum Master of a project.</text><rect fill="#FFFFFF" filter="url(#f1pifs632ujmd6)" height="304.5156" style="stroke:#A80036;stroke-width:1.0;" width="10" x="166.5" y="136.25"/><rect fill="#FFFFFF" filter="url(#f1pifs632ujmd6)" height="30.3516" style="stroke:#A80036;stroke-width:1.0;" width="10" x="370.5" y="158.6016"/><rect fill="#FFFFFF" filter="url(#f1pifs632ujmd6)" height="30.3516" style="stroke:#A80036;stroke-width:1.0;" width="10" x="370.5" y="219.3047"/><rect fill="#FFFFFF" filter="url(#f1pifs632ujmd6)" height="30.3516" style="stroke:#A80036;stroke-width:1.0;" width="10" x="370.5" y="280.0078"/><rect fill="#FFFFFF" filter="url(#f1pifs632ujmd6)" height="30.3516" style="stroke:#A80036;stroke-width:1.0;" width="10" x="370.5" y="340.7109"/><rect fill="#FFFFFF" filter="url(#f1pifs632ujmd6)" height="30.3516" style="stroke:#A80036;stroke-width:1.0;" width="10" x="370.5" y="401.4141"/><line style="stroke:#A80036;stroke-width:1.0;stroke-dasharray:5.0,5.0;" x1="171.5" x2="171.5" y1="126.25" y2="449.7656"/><line style="stroke:#A80036;stroke-width:1.0;stroke-dasharray:5.0,5.0;" x1="375.5" x2="375.5" y1="126.25" y2="449.7656"/><text fill="#000000" font-family="sans-serif" font-size="14" lengthAdjust="spacing" textLength="50" x="143.5" y="123.1738">Director</text><ellipse cx="171.5" cy="51.6406" fill="#FEFECE" filter="url(#f1pifs632ujmd6)" rx="8" ry="8" style="stroke:#A80036;stroke-width:2.0;"/><path d="M171.5,59.6406 L171.5,86.6406 M158.5,67.6406 L184.5,67.6406 M171.5,86.6406 L158.5,101.6406 M171.5,86.6406 L184.5,101.6406 " fill="none" filter="url(#f1pifs632ujmd6)" style="stroke:#A80036;stroke-width:2.0;"/><text fill="#000000" font-family="sans-serif" font-size="14" lengthAdjust="spacing" textLength="50" x="143.5" y="463.2988">Director</text><ellipse cx="171.5" cy="476.375" fill="#FEFECE" filter="url(#f1pifs632ujmd6)" rx="8" ry="8" style="stroke:#A80036;stroke-width:2.0;"/><path d="M171.5,484.375 L171.5,511.375 M158.5,492.375 L184.5,492.375 M171.5,511.375 L158.5,526.375 M171.5,511.375 L184.5,526.375 " fill="none" filter="url(#f1pifs632ujmd6)" style="stroke:#A80036;stroke-width:2.0;"/><rect fill="#FEFECE" filter="url(#f1pifs632ujmd6)" height="31.6094" style="stroke:#A80036;stroke-width:1.5;" width="64" x="341.5" y="89.6406"/><text fill="#000000" font-family="sans-serif" font-size="14" lengthAdjust="spacing" textLength="50" x="348.5" y="111.1738">:System</text><rect fill="#FEFECE" filter="url(#f1pifs632ujmd6)" height="31.6094" style="stroke:#A80036;stroke-width:1.5;" width="64" x="341.5" y="448.7656"/><text fill="#000000" font-family="sans-serif" font-size="14" lengthAdjust="spacing" textLength="50" x="348.5" y="470.2988">:System</text><rect fill="#FFFFFF" filter="url(#f1pifs632ujmd6)" height="304.5156" style="stroke:#A80036;stroke-width:1.0;" width="10" x="166.5" y="136.25"/><rect fill="#FFFFFF" filter="url(#f1pifs632ujmd6)" height="30.3516" style="stroke:#A80036;stroke-width:1.0;" width="10" x="370.5" y="158.6016"/><rect fill="#FFFFFF" filter="url(#f1pifs632ujmd6)" height="30.3516" style="stroke:#A80036;stroke-width:1.0;" width="10" x="370.5" y="219.3047"/><rect fill="#FFFFFF" filter="url(#f1pifs632ujmd6)" height="30.3516" style="stroke:#A80036;stroke-width:1.0;" width="10" x="370.5" y="280.0078"/><rect fill="#FFFFFF" filter="url(#f1pifs632ujmd6)" height="30.3516" style="stroke:#A80036;stroke-width:1.0;" width="10" x="370.5" y="340.7109"/><rect fill="#FFFFFF" filter="url(#f1pifs632ujmd6)" height="30.3516" style="stroke:#A80036;stroke-width:1.0;" width="10" x="370.5" y="401.4141"/><polygon fill="#A80036" points="358.5,154.6016,368.5,158.6016,358.5,162.6016,362.5,158.6016" style="stroke:#A80036;stroke-width:1.0;"/><line style="stroke:#A80036;stroke-width:1.0;" x1="176.5" x2="364.5" y1="158.6016" y2="158.6016"/><text fill="#000000" font-family="sans-serif" font-size="13" font-weight="bold" lengthAdjust="spacing" textLength="7" x="183.5" y="153.7451">1</text><text fill="#000000" font-family="sans-serif" font-size="13" lengthAdjust="spacing" textLength="151" x="194.5" y="153.7451">Access the list of projects</text><polygon fill="#A80036" points="187.5,184.9531,177.5,188.9531,187.5,192.9531,183.5,188.9531" style="stroke:#A80036;stroke-width:1.0;"/><line style="stroke:#A80036;stroke-width:1.0;stroke-dasharray:2.0,2.0;" x1="181.5" x2="374.5" y1="188.9531" y2="188.9531"/><text fill="#000000" font-family="sans-serif" font-size="13" font-weight="bold" lengthAdjust="spacing" textLength="7" x="193.5" y="184.0967">2</text><text fill="#000000" font-family="sans-serif" font-size="13" lengthAdjust="spacing" textLength="66" x="204.5" y="184.0967">projectsDto</text><polygon fill="#A80036" points="358.5,215.3047,368.5,219.3047,358.5,223.3047,362.5,219.3047" style="stroke:#A80036;stroke-width:1.0;"/><line style="stroke:#A80036;stroke-width:1.0;" x1="176.5" x2="364.5" y1="219.3047" y2="219.3047"/><text fill="#000000" font-family="sans-serif" font-size="13" font-weight="bold" lengthAdjust="spacing" textLength="7" x="183.5" y="214.4482">3</text><text fill="#000000" font-family="sans-serif" font-size="13" lengthAdjust="spacing" textLength="91" x="194.5" y="214.4482">Select a project</text><polygon fill="#A80036" points="187.5,245.6563,177.5,249.6563,187.5,253.6563,183.5,249.6563" style="stroke:#A80036;stroke-width:1.0;"/><line style="stroke:#A80036;stroke-width:1.0;stroke-dasharray:2.0,2.0;" x1="181.5" x2="374.5" y1="249.6563" y2="249.6563"/><text fill="#000000" font-family="sans-serif" font-size="13" font-weight="bold" lengthAdjust="spacing" textLength="7" x="193.5" y="244.7998">4</text><text fill="#000000" font-family="sans-serif" font-size="13" lengthAdjust="spacing" textLength="149" x="204.5" y="244.7998">Shows project information</text><polygon fill="#A80036" points="358.5,276.0078,368.5,280.0078,358.5,284.0078,362.5,280.0078" style="stroke:#A80036;stroke-width:1.0;"/><line style="stroke:#A80036;stroke-width:1.0;" x1="176.5" x2="364.5" y1="280.0078" y2="280.0078"/><text fill="#000000" font-family="sans-serif" font-size="13" font-weight="bold" lengthAdjust="spacing" textLength="7" x="183.5" y="275.1514">5</text><text fill="#000000" font-family="sans-serif" font-size="13" lengthAdjust="spacing" textLength="155" x="194.5" y="275.1514">Access the list of resource</text><polygon fill="#A80036" points="187.5,306.3594,177.5,310.3594,187.5,314.3594,183.5,310.3594" style="stroke:#A80036;stroke-width:1.0;"/><line style="stroke:#A80036;stroke-width:1.0;stroke-dasharray:2.0,2.0;" x1="181.5" x2="374.5" y1="310.3594" y2="310.3594"/><text fill="#000000" font-family="sans-serif" font-size="13" font-weight="bold" lengthAdjust="spacing" textLength="7" x="193.5" y="305.5029">6</text><text fill="#000000" font-family="sans-serif" font-size="13" lengthAdjust="spacing" textLength="134" x="204.5" y="305.5029">Shows projectTeamDto</text><polygon fill="#A80036" points="358.5,336.7109,368.5,340.7109,358.5,344.7109,362.5,340.7109" style="stroke:#A80036;stroke-width:1.0;"/><line style="stroke:#A80036;stroke-width:1.0;" x1="176.5" x2="364.5" y1="340.7109" y2="340.7109"/><text fill="#000000" font-family="sans-serif" font-size="13" font-weight="bold" lengthAdjust="spacing" textLength="7" x="183.5" y="335.8545">7</text><text fill="#000000" font-family="sans-serif" font-size="13" lengthAdjust="spacing" textLength="103" x="194.5" y="335.8545">Choose Resource</text><polygon fill="#A80036" points="187.5,367.0625,177.5,371.0625,187.5,375.0625,183.5,371.0625" style="stroke:#A80036;stroke-width:1.0;"/><line style="stroke:#A80036;stroke-width:1.0;stroke-dasharray:2.0,2.0;" x1="181.5" x2="374.5" y1="371.0625" y2="371.0625"/><text fill="#000000" font-family="sans-serif" font-size="13" font-weight="bold" lengthAdjust="spacing" textLength="7" x="193.5" y="366.2061">8</text><text fill="#000000" font-family="sans-serif" font-size="13" lengthAdjust="spacing" textLength="113" x="204.5" y="366.2061">Shows resourceDto</text><polygon fill="#A80036" points="358.5,397.4141,368.5,401.4141,358.5,405.4141,362.5,401.4141" style="stroke:#A80036;stroke-width:1.0;"/><line style="stroke:#A80036;stroke-width:1.0;" x1="176.5" x2="364.5" y1="401.4141" y2="401.4141"/><text fill="#000000" font-family="sans-serif" font-size="13" font-weight="bold" lengthAdjust="spacing" textLength="7" x="183.5" y="396.5576">9</text><text fill="#000000" font-family="sans-serif" font-size="13" lengthAdjust="spacing" textLength="122" x="194.5" y="396.5576">Define Scrum Master</text><polygon fill="#A80036" points="187.5,427.7656,177.5,431.7656,187.5,435.7656,183.5,431.7656" style="stroke:#A80036;stroke-width:1.0;"/><line style="stroke:#A80036;stroke-width:1.0;stroke-dasharray:2.0,2.0;" x1="181.5" x2="374.5" y1="431.7656" y2="431.7656"/><text fill="#000000" font-family="sans-serif" font-size="13" font-weight="bold" lengthAdjust="spacing" textLength="14" x="193.5" y="426.9092">10</text><text fill="#000000" font-family="sans-serif" font-size="13" lengthAdjust="spacing" textLength="152" x="211.5" y="426.9092">Informs operation success</text><!--MD5=[55df7fa6999ecf651ab3d110859cdb0e]
@startuml

title "US014 - As Director, I want to define the Scrum Master of a project."
autoactivate on
autonumber

actor "Director" as Director
participant ":System" as System

activate Director

Director -> System: Access the list of projects
System - -> Director: projectsDto
Director -> System: Select a project
System - -> Director: Shows project information
Director -> System: Access the list of resource
System - -> Director: Shows projectTeamDto
Director -> System: Choose Resource
System - -> Director: Shows resourceDto
Director -> System: Define Scrum Master
System - -> Director: Informs operation success


@enduml

PlantUML version 1.2022.0(Tue Jan 11 16:16:42 GMT 2022)
(GPL source distribution)
Java Runtime: OpenJDK Runtime Environment
JVM: OpenJDK 64-Bit Server VM
Default Encoding: Cp1252
Language: pt
Country: PT
--></g></svg>