<?xml version="1.0" encoding="UTF-8" standalone="no"?><svg xmlns="http://www.w3.org/2000/svg" xmlns:xlink="http://www.w3.org/1999/xlink" contentScriptType="application/ecmascript" contentStyleType="text/css" height="735px" preserveAspectRatio="none" style="width:1757px;height:735px;background:#FFFFFF;" version="1.1" viewBox="0 0 1757 735" width="1757px" zoomAndPan="magnify"><defs><filter height="300%" id="f10v2pgisu523f" width="300%" x="-1" y="-1"><feGaussianBlur result="blurOut" stdDeviation="2.0"/><feColorMatrix in="blurOut" result="blurOut2" type="matrix" values="0 0 0 0 0 0 0 0 0 0 0 0 0 0 0 0 0 0 .4 0"/><feOffset dx="4.0" dy="4.0" in="blurOut2" result="blurOut3"/><feBlend in="SourceGraphic" in2="blurOut3" mode="normal"/></filter></defs><g><text fill="#000000" font-family="sans-serif" font-size="18" lengthAdjust="spacing" textLength="535" x="608.5" y="30.6855">US014 - As Director, I want to define the Scrum Master of a project.</text><rect fill="#FFFFFF" filter="url(#f10v2pgisu523f)" height="504.8828" style="stroke:#A80036;stroke-width:1.0;" width="10" x="28" y="136.25"/><rect fill="#FFFFFF" filter="url(#f10v2pgisu523f)" height="473.5313" style="stroke:#A80036;stroke-width:1.0;" width="10" x="274" y="158.6016"/><rect fill="#FFFFFF" filter="url(#f10v2pgisu523f)" height="412.8281" style="stroke:#A80036;stroke-width:1.0;" width="10" x="472" y="188.9531"/><rect fill="#FFFFFF" filter="url(#f10v2pgisu523f)" height="30.3516" style="stroke:#A80036;stroke-width:1.0;" width="10" x="633.5" y="219.3047"/><rect fill="#FFFFFF" filter="url(#f10v2pgisu523f)" height="184.1094" style="stroke:#A80036;stroke-width:1.0;" width="10" x="769.5" y="280.0078"/><rect fill="#FFFFFF" filter="url(#f10v2pgisu523f)" height="30.3516" style="stroke:#A80036;stroke-width:1.0;" width="10" x="920.5" y="335.7109"/><rect fill="#FFFFFF" filter="url(#f10v2pgisu523f)" height="30.3516" style="stroke:#A80036;stroke-width:1.0;" width="10" x="920.5" y="396.4141"/><rect fill="#FFFFFF" filter="url(#f10v2pgisu523f)" height="76.9609" style="stroke:#A80036;stroke-width:1.0;" width="10" x="1043" y="494.4688"/><rect fill="#FFFFFF" filter="url(#f10v2pgisu523f)" height="139.7578" style="stroke:#000000;stroke-width:2.0;" width="291.5" x="683.5" y="295.0078"/><line style="stroke:#A80036;stroke-width:1.0;stroke-dasharray:5.0,5.0;" x1="33" x2="33" y1="126.25" y2="650.1328"/><line style="stroke:#A80036;stroke-width:1.0;stroke-dasharray:5.0,5.0;" x1="278.5" x2="278.5" y1="126.25" y2="650.1328"/><line style="stroke:#A80036;stroke-width:1.0;stroke-dasharray:5.0,5.0;" x1="476.5" x2="476.5" y1="126.25" y2="650.1328"/><line style="stroke:#A80036;stroke-width:1.0;stroke-dasharray:5.0,5.0;" x1="638.5" x2="638.5" y1="126.25" y2="650.1328"/><line style="stroke:#A80036;stroke-width:1.0;stroke-dasharray:5.0,5.0;" x1="774.5" x2="774.5" y1="126.25" y2="650.1328"/><line style="stroke:#A80036;stroke-width:1.0;stroke-dasharray:5.0,5.0;" x1="925" x2="925" y1="126.25" y2="650.1328"/><line style="stroke:#A80036;stroke-width:1.0;stroke-dasharray:5.0,5.0;" x1="1048" x2="1048" y1="126.25" y2="650.1328"/><line style="stroke:#A80036;stroke-width:1.0;stroke-dasharray:5.0,5.0;" x1="1665" x2="1665" y1="535.7734" y2="650.1328"/><text fill="#000000" font-family="sans-serif" font-size="14" lengthAdjust="spacing" textLength="50" x="5" y="123.1738">Director</text><ellipse cx="33" cy="51.6406" fill="#FEFECE" filter="url(#f10v2pgisu523f)" rx="8" ry="8" style="stroke:#A80036;stroke-width:2.0;"/><path d="M33,59.6406 L33,86.6406 M20,67.6406 L46,67.6406 M33,86.6406 L20,101.6406 M33,86.6406 L46,101.6406 " fill="none" filter="url(#f10v2pgisu523f)" style="stroke:#A80036;stroke-width:2.0;"/><text fill="#000000" font-family="sans-serif" font-size="14" lengthAdjust="spacing" textLength="50" x="5" y="663.666">Director</text><ellipse cx="33" cy="676.7422" fill="#FEFECE" filter="url(#f10v2pgisu523f)" rx="8" ry="8" style="stroke:#A80036;stroke-width:2.0;"/><path d="M33,684.7422 L33,711.7422 M20,692.7422 L46,692.7422 M33,711.7422 L20,726.7422 M33,711.7422 L46,726.7422 " fill="none" filter="url(#f10v2pgisu523f)" style="stroke:#A80036;stroke-width:2.0;"/><rect fill="#FEFECE" filter="url(#f10v2pgisu523f)" height="31.6094" style="stroke:#A80036;stroke-width:1.5;" width="159" x="197.5" y="89.6406"/><text fill="#000000" font-family="sans-serif" font-size="14" lengthAdjust="spacing" textLength="145" x="204.5" y="111.1738">: AssignScrumMasterUI</text><rect fill="#FEFECE" filter="url(#f10v2pgisu523f)" height="31.6094" style="stroke:#A80036;stroke-width:1.5;" width="159" x="197.5" y="649.1328"/><text fill="#000000" font-family="sans-serif" font-size="14" lengthAdjust="spacing" textLength="145" x="204.5" y="670.666">: AssignScrumMasterUI</text><rect fill="#FEFECE" filter="url(#f10v2pgisu523f)" height="31.6094" style="stroke:#A80036;stroke-width:1.5;" width="209" x="370.5" y="89.6406"/><text fill="#000000" font-family="sans-serif" font-size="14" lengthAdjust="spacing" textLength="195" x="377.5" y="111.1738">: AssignScrumMasterController</text><rect fill="#FEFECE" filter="url(#f10v2pgisu523f)" height="31.6094" style="stroke:#A80036;stroke-width:1.5;" width="209" x="370.5" y="649.1328"/><text fill="#000000" font-family="sans-serif" font-size="14" lengthAdjust="spacing" textLength="195" x="377.5" y="670.666">: AssignScrumMasterController</text><rect fill="#FEFECE" filter="url(#f10v2pgisu523f)" height="31.6094" style="stroke:#A80036;stroke-width:1.5;" width="86" x="593.5" y="89.6406"/><text fill="#000000" font-family="sans-serif" font-size="14" lengthAdjust="spacing" textLength="72" x="600.5" y="111.1738">proj:Project</text><rect fill="#FEFECE" filter="url(#f10v2pgisu523f)" height="31.6094" style="stroke:#A80036;stroke-width:1.5;" width="86" x="593.5" y="649.1328"/><text fill="#000000" font-family="sans-serif" font-size="14" lengthAdjust="spacing" textLength="72" x="600.5" y="670.666">proj:Project</text><rect fill="#FEFECE" filter="url(#f10v2pgisu523f)" height="31.6094" style="stroke:#A80036;stroke-width:1.5;" width="158" x="693.5" y="89.6406"/><text fill="#000000" font-family="sans-serif" font-size="14" lengthAdjust="spacing" textLength="144" x="700.5" y="111.1738">projTeam:ProjectTeam</text><rect fill="#FEFECE" filter="url(#f10v2pgisu523f)" height="31.6094" style="stroke:#A80036;stroke-width:1.5;" width="158" x="693.5" y="649.1328"/><text fill="#000000" font-family="sans-serif" font-size="14" lengthAdjust="spacing" textLength="144" x="700.5" y="670.666">projTeam:ProjectTeam</text><rect fill="#FEFECE" filter="url(#f10v2pgisu523f)" height="31.6094" style="stroke:#A80036;stroke-width:1.5;" width="75" x="886" y="89.6406"/><text fill="#000000" font-family="sans-serif" font-size="14" lengthAdjust="spacing" textLength="61" x="893" y="111.1738">Resource</text><rect fill="#FEFECE" filter="url(#f10v2pgisu523f)" height="31.6094" style="stroke:#A80036;stroke-width:1.5;" width="75" x="886" y="649.1328"/><text fill="#000000" font-family="sans-serif" font-size="14" lengthAdjust="spacing" textLength="61" x="893" y="670.666">Resource</text><rect fill="#FEFECE" filter="url(#f10v2pgisu523f)" height="31.6094" style="stroke:#A80036;stroke-width:1.5;" width="142" x="975" y="89.6406"/><text fill="#000000" font-family="sans-serif" font-size="14" lengthAdjust="spacing" textLength="128" x="982" y="111.1738">ProjectTeamMapper</text><rect fill="#FEFECE" filter="url(#f10v2pgisu523f)" height="31.6094" style="stroke:#A80036;stroke-width:1.5;" width="142" x="975" y="649.1328"/><text fill="#000000" font-family="sans-serif" font-size="14" lengthAdjust="spacing" textLength="128" x="982" y="670.666">ProjectTeamMapper</text><rect fill="#FEFECE" filter="url(#f10v2pgisu523f)" height="31.6094" style="stroke:#A80036;stroke-width:1.5;" width="159" x="1584" y="649.1328"/><text fill="#000000" font-family="sans-serif" font-size="14" lengthAdjust="spacing" textLength="145" x="1591" y="670.666">resDTO:ResourceDTO</text><rect fill="#FFFFFF" filter="url(#f10v2pgisu523f)" height="504.8828" style="stroke:#A80036;stroke-width:1.0;" width="10" x="28" y="136.25"/><rect fill="#FFFFFF" filter="url(#f10v2pgisu523f)" height="473.5313" style="stroke:#A80036;stroke-width:1.0;" width="10" x="274" y="158.6016"/><rect fill="#FFFFFF" filter="url(#f10v2pgisu523f)" height="412.8281" style="stroke:#A80036;stroke-width:1.0;" width="10" x="472" y="188.9531"/><rect fill="#FFFFFF" filter="url(#f10v2pgisu523f)" height="30.3516" style="stroke:#A80036;stroke-width:1.0;" width="10" x="633.5" y="219.3047"/><rect fill="#FFFFFF" filter="url(#f10v2pgisu523f)" height="184.1094" style="stroke:#A80036;stroke-width:1.0;" width="10" x="769.5" y="280.0078"/><rect fill="#FFFFFF" filter="url(#f10v2pgisu523f)" height="30.3516" style="stroke:#A80036;stroke-width:1.0;" width="10" x="920.5" y="335.7109"/><rect fill="#FFFFFF" filter="url(#f10v2pgisu523f)" height="30.3516" style="stroke:#A80036;stroke-width:1.0;" width="10" x="920.5" y="396.4141"/><rect fill="#FFFFFF" filter="url(#f10v2pgisu523f)" height="76.9609" style="stroke:#A80036;stroke-width:1.0;" width="10" x="1043" y="494.4688"/><polygon fill="#A80036" points="262,154.6016,272,158.6016,262,162.6016,266,158.6016" style="stroke:#A80036;stroke-width:1.0;"/><line style="stroke:#A80036;stroke-width:1.0;" x1="38" x2="268" y1="158.6016" y2="158.6016"/><text fill="#000000" font-family="sans-serif" font-size="13" font-weight="bold" lengthAdjust="spacing" textLength="7" x="45" y="153.7451">1</text><text fill="#000000" font-family="sans-serif" font-size="13" lengthAdjust="spacing" textLength="206" x="56" y="153.7451">Ask to access resource of a project</text><polygon fill="#A80036" points="460,184.9531,470,188.9531,460,192.9531,464,188.9531" style="stroke:#A80036;stroke-width:1.0;"/><line style="stroke:#A80036;stroke-width:1.0;" x1="284" x2="466" y1="188.9531" y2="188.9531"/><text fill="#000000" font-family="sans-serif" font-size="13" font-weight="bold" lengthAdjust="spacing" textLength="7" x="291" y="184.0967">2</text><text fill="#000000" font-family="sans-serif" font-size="13" lengthAdjust="spacing" textLength="113" x="302" y="184.0967">getResource(name)</text><polygon fill="#A80036" points="621.5,215.3047,631.5,219.3047,621.5,223.3047,625.5,219.3047" style="stroke:#A80036;stroke-width:1.0;"/><line style="stroke:#A80036;stroke-width:1.0;" x1="482" x2="627.5" y1="219.3047" y2="219.3047"/><text fill="#000000" font-family="sans-serif" font-size="13" font-weight="bold" lengthAdjust="spacing" textLength="7" x="489" y="214.4482">3</text><text fill="#000000" font-family="sans-serif" font-size="13" lengthAdjust="spacing" textLength="99" x="500" y="214.4482">getProjectTeam()</text><polygon fill="#A80036" points="493,245.6563,483,249.6563,493,253.6563,489,249.6563" style="stroke:#A80036;stroke-width:1.0;"/><line style="stroke:#A80036;stroke-width:1.0;stroke-dasharray:2.0,2.0;" x1="487" x2="637.5" y1="249.6563" y2="249.6563"/><text fill="#000000" font-family="sans-serif" font-size="13" font-weight="bold" lengthAdjust="spacing" textLength="7" x="499" y="244.7998">4</text><text fill="#000000" font-family="sans-serif" font-size="13" lengthAdjust="spacing" textLength="53" x="510" y="244.7998">projTeam</text><polygon fill="#A80036" points="757.5,276.0078,767.5,280.0078,757.5,284.0078,761.5,280.0078" style="stroke:#A80036;stroke-width:1.0;"/><line style="stroke:#A80036;stroke-width:1.0;" x1="482" x2="763.5" y1="280.0078" y2="280.0078"/><text fill="#000000" font-family="sans-serif" font-size="13" font-weight="bold" lengthAdjust="spacing" textLength="7" x="489" y="275.1514">5</text><text fill="#000000" font-family="sans-serif" font-size="13" lengthAdjust="spacing" textLength="163" x="500" y="275.1514">getResourceByName(name)</text><path d="M683.5,295.0078 L756.5,295.0078 L756.5,303.0078 L746.5,313.0078 L683.5,313.0078 L683.5,295.0078 " fill="#EEEEEE" style="stroke:#000000;stroke-width:1.0;"/><rect fill="none" height="139.7578" style="stroke:#000000;stroke-width:2.0;" width="291.5" x="683.5" y="295.0078"/><text fill="#000000" font-family="sans-serif" font-size="13" font-weight="bold" lengthAdjust="spacing" textLength="28" x="698.5" y="309.5029">loop</text><text fill="#000000" font-family="sans-serif" font-size="11" font-weight="bold" lengthAdjust="spacing" textLength="95" x="771.5" y="308.4268">[hasEmail(email)]</text><polygon fill="#A80036" points="908.5,331.7109,918.5,335.7109,908.5,339.7109,912.5,335.7109" style="stroke:#A80036;stroke-width:1.0;"/><line style="stroke:#A80036;stroke-width:1.0;" x1="779.5" x2="914.5" y1="335.7109" y2="335.7109"/><text fill="#000000" font-family="sans-serif" font-size="13" font-weight="bold" lengthAdjust="spacing" textLength="7" x="786.5" y="330.8545">6</text><text fill="#000000" font-family="sans-serif" font-size="13" lengthAdjust="spacing" textLength="111" x="797.5" y="330.8545">isYourName(name)</text><polygon fill="#A80036" points="790.5,362.0625,780.5,366.0625,790.5,370.0625,786.5,366.0625" style="stroke:#A80036;stroke-width:1.0;"/><line style="stroke:#A80036;stroke-width:1.0;stroke-dasharray:2.0,2.0;" x1="784.5" x2="924.5" y1="366.0625" y2="366.0625"/><text fill="#000000" font-family="sans-serif" font-size="13" font-weight="bold" lengthAdjust="spacing" textLength="7" x="796.5" y="361.2061">7</text><text fill="#000000" font-family="sans-serif" font-size="13" lengthAdjust="spacing" textLength="22" x="807.5" y="361.2061">true</text><polygon fill="#A80036" points="908.5,392.4141,918.5,396.4141,908.5,400.4141,912.5,396.4141" style="stroke:#A80036;stroke-width:1.0;"/><line style="stroke:#A80036;stroke-width:1.0;" x1="779.5" x2="914.5" y1="396.4141" y2="396.4141"/><text fill="#000000" font-family="sans-serif" font-size="13" font-weight="bold" lengthAdjust="spacing" textLength="7" x="786.5" y="391.5576">8</text><text fill="#000000" font-family="sans-serif" font-size="13" lengthAdjust="spacing" textLength="60" x="797.5" y="391.5576">isCurrent()</text><polygon fill="#A80036" points="790.5,422.7656,780.5,426.7656,790.5,430.7656,786.5,426.7656" style="stroke:#A80036;stroke-width:1.0;"/><line style="stroke:#A80036;stroke-width:1.0;stroke-dasharray:2.0,2.0;" x1="784.5" x2="924.5" y1="426.7656" y2="426.7656"/><text fill="#000000" font-family="sans-serif" font-size="13" font-weight="bold" lengthAdjust="spacing" textLength="7" x="796.5" y="421.9092">9</text><text fill="#000000" font-family="sans-serif" font-size="13" lengthAdjust="spacing" textLength="22" x="807.5" y="421.9092">true</text><polygon fill="#A80036" points="493,460.1172,483,464.1172,493,468.1172,489,464.1172" style="stroke:#A80036;stroke-width:1.0;"/><line style="stroke:#A80036;stroke-width:1.0;stroke-dasharray:2.0,2.0;" x1="487" x2="773.5" y1="464.1172" y2="464.1172"/><text fill="#000000" font-family="sans-serif" font-size="13" font-weight="bold" lengthAdjust="spacing" textLength="14" x="499" y="459.2607">10</text><text fill="#000000" font-family="sans-serif" font-size="13" lengthAdjust="spacing" textLength="50" x="517" y="459.2607">resource</text><polygon fill="#A80036" points="1031,490.4688,1041,494.4688,1031,498.4688,1035,494.4688" style="stroke:#A80036;stroke-width:1.0;"/><line style="stroke:#A80036;stroke-width:1.0;" x1="482" x2="1037" y1="494.4688" y2="494.4688"/><text fill="#000000" font-family="sans-serif" font-size="13" font-weight="bold" lengthAdjust="spacing" textLength="14" x="489" y="489.6123">11</text><text fill="#000000" font-family="sans-serif" font-size="13" lengthAdjust="spacing" textLength="89" x="507" y="489.6123">toDto(resource)</text><polygon fill="#A80036" points="1572,520.8203,1582,524.8203,1572,528.8203,1576,524.8203" style="stroke:#A80036;stroke-width:1.0;"/><line style="stroke:#A80036;stroke-width:1.0;" x1="1053" x2="1578" y1="524.8203" y2="524.8203"/><text fill="#000000" font-family="sans-serif" font-size="13" font-weight="bold" lengthAdjust="spacing" textLength="14" x="1060" y="519.9639">12</text><text fill="#000000" font-family="sans-serif" font-size="13" lengthAdjust="spacing" textLength="489" x="1078" y="519.9639">ResourceDTO(name, role, startDate, endDate, costPerHour, percentageOfAllocation)</text><rect fill="#FEFECE" filter="url(#f10v2pgisu523f)" height="31.6094" style="stroke:#A80036;stroke-width:1.5;" width="159" x="1584" y="502.4688"/><text fill="#000000" font-family="sans-serif" font-size="14" lengthAdjust="spacing" textLength="145" x="1591" y="524.002">resDTO:ResourceDTO</text><polygon fill="#A80036" points="493,567.4297,483,571.4297,493,575.4297,489,571.4297" style="stroke:#A80036;stroke-width:1.0;"/><line style="stroke:#A80036;stroke-width:1.0;stroke-dasharray:2.0,2.0;" x1="487" x2="1047" y1="571.4297" y2="571.4297"/><text fill="#000000" font-family="sans-serif" font-size="13" font-weight="bold" lengthAdjust="spacing" textLength="14" x="499" y="566.5732">13</text><text fill="#000000" font-family="sans-serif" font-size="13" lengthAdjust="spacing" textLength="44" x="517" y="566.5732">resDTO</text><polygon fill="#A80036" points="295,597.7813,285,601.7813,295,605.7813,291,601.7813" style="stroke:#A80036;stroke-width:1.0;"/><line style="stroke:#A80036;stroke-width:1.0;stroke-dasharray:2.0,2.0;" x1="289" x2="476" y1="601.7813" y2="601.7813"/><text fill="#000000" font-family="sans-serif" font-size="13" font-weight="bold" lengthAdjust="spacing" textLength="14" x="301" y="596.9248">14</text><text fill="#000000" font-family="sans-serif" font-size="13" lengthAdjust="spacing" textLength="44" x="319" y="596.9248">resDTO</text><polygon fill="#A80036" points="49,628.1328,39,632.1328,49,636.1328,45,632.1328" style="stroke:#A80036;stroke-width:1.0;"/><line style="stroke:#A80036;stroke-width:1.0;stroke-dasharray:2.0,2.0;" x1="43" x2="278" y1="632.1328" y2="632.1328"/><text fill="#000000" font-family="sans-serif" font-size="13" font-weight="bold" lengthAdjust="spacing" textLength="14" x="55" y="627.2764">15</text><text fill="#000000" font-family="sans-serif" font-size="13" lengthAdjust="spacing" textLength="44" x="73" y="627.2764">resDTO</text><!--MD5=[459e0ee49b715ed1eaaf89c8aada9bf4]
@startuml

title "US014 - As Director, I want to define the Scrum Master of a project."

autoactivate on
autonumber

actor "Director" as Director
participant ": AssignScrumMasterUI" as UI
participant ": AssignScrumMasterController" as Controller
participant "proj:Project" as Project
participant "projTeam:ProjectTeam" as ProjectTeam
participant "Resource" as Resource
participant "ProjectTeamMapper" as ProjectTeamMapper
participant "resDTO:ResourceDTO" as ResourceDTO

activate Director

Director -> UI: Ask to access resource of a project
UI -> Controller: getResource(name)
Controller -> Project: getProjectTeam()
return projTeam
Controller -> ProjectTeam: getResourceByName(name)
    loop hasEmail(email)
        ProjectTeam -> Resource: isYourName(name)
        return true
        ProjectTeam -> Resource: isCurrent()
        return true
    end
return resource
Controller -> ProjectTeamMapper: toDto(resource)
ProjectTeamMapper -> ResourceDTO**: ResourceDTO(name, role, startDate, endDate, costPerHour, percentageOfAllocation)
return resDTO
return resDTO
return resDTO

@enduml

PlantUML version 1.2022.0(Tue Jan 11 16:16:42 GMT 2022)
(GPL source distribution)
Java Runtime: OpenJDK Runtime Environment
JVM: OpenJDK 64-Bit Server VM
Default Encoding: Cp1252
Language: pt
Country: PT
--></g></svg>