<?xml version="1.0" encoding="UTF-8" standalone="no"?><svg xmlns="http://www.w3.org/2000/svg" xmlns:xlink="http://www.w3.org/1999/xlink" contentScriptType="application/ecmascript" contentStyleType="text/css" height="413px" preserveAspectRatio="none" style="width:560px;height:413px;background:#FFFFFF;" version="1.1" viewBox="0 0 560 413" width="560px" zoomAndPan="magnify"><defs><filter height="300%" id="f1iiram3wyo8os" width="300%" x="-1" y="-1"><feGaussianBlur result="blurOut" stdDeviation="2.0"/><feColorMatrix in="blurOut" result="blurOut2" type="matrix" values="0 0 0 0 0 0 0 0 0 0 0 0 0 0 0 0 0 0 .4 0"/><feOffset dx="4.0" dy="4.0" in="blurOut2" result="blurOut3"/><feBlend in="SourceGraphic" in2="blurOut3" mode="normal"/></filter></defs><g><text fill="#000000" font-family="sans-serif" font-size="18" lengthAdjust="spacing" textLength="535" x="9" y="30.6855">US014 - As Director, I want to define the Scrum Master of a project.</text><rect fill="#FFFFFF" filter="url(#f1iiram3wyo8os)" height="183.1094" style="stroke:#A80036;stroke-width:1.0;" width="10" x="123.5" y="136.25"/><rect fill="#FFFFFF" filter="url(#f1iiram3wyo8os)" height="30.3516" style="stroke:#A80036;stroke-width:1.0;" width="10" x="413.5" y="158.6016"/><rect fill="#FFFFFF" filter="url(#f1iiram3wyo8os)" height="30.3516" style="stroke:#A80036;stroke-width:1.0;" width="10" x="413.5" y="219.3047"/><rect fill="#FFFFFF" filter="url(#f1iiram3wyo8os)" height="30.3516" style="stroke:#A80036;stroke-width:1.0;" width="10" x="413.5" y="280.0078"/><line style="stroke:#A80036;stroke-width:1.0;stroke-dasharray:5.0,5.0;" x1="128.5" x2="128.5" y1="126.25" y2="328.3594"/><line style="stroke:#A80036;stroke-width:1.0;stroke-dasharray:5.0,5.0;" x1="418.5" x2="418.5" y1="126.25" y2="328.3594"/><text fill="#000000" font-family="sans-serif" font-size="14" lengthAdjust="spacing" textLength="50" x="100.5" y="123.1738">Director</text><ellipse cx="128.5" cy="51.6406" fill="#FEFECE" filter="url(#f1iiram3wyo8os)" rx="8" ry="8" style="stroke:#A80036;stroke-width:2.0;"/><path d="M128.5,59.6406 L128.5,86.6406 M115.5,67.6406 L141.5,67.6406 M128.5,86.6406 L115.5,101.6406 M128.5,86.6406 L141.5,101.6406 " fill="none" filter="url(#f1iiram3wyo8os)" style="stroke:#A80036;stroke-width:2.0;"/><text fill="#000000" font-family="sans-serif" font-size="14" lengthAdjust="spacing" textLength="50" x="100.5" y="341.8926">Director</text><ellipse cx="128.5" cy="354.9688" fill="#FEFECE" filter="url(#f1iiram3wyo8os)" rx="8" ry="8" style="stroke:#A80036;stroke-width:2.0;"/><path d="M128.5,362.9688 L128.5,389.9688 M115.5,370.9688 L141.5,370.9688 M128.5,389.9688 L115.5,404.9688 M128.5,389.9688 L141.5,404.9688 " fill="none" filter="url(#f1iiram3wyo8os)" style="stroke:#A80036;stroke-width:2.0;"/><rect fill="#FEFECE" filter="url(#f1iiram3wyo8os)" height="31.6094" style="stroke:#A80036;stroke-width:1.5;" width="64" x="384.5" y="89.6406"/><text fill="#000000" font-family="sans-serif" font-size="14" lengthAdjust="spacing" textLength="50" x="391.5" y="111.1738">:System</text><rect fill="#FEFECE" filter="url(#f1iiram3wyo8os)" height="31.6094" style="stroke:#A80036;stroke-width:1.5;" width="64" x="384.5" y="327.3594"/><text fill="#000000" font-family="sans-serif" font-size="14" lengthAdjust="spacing" textLength="50" x="391.5" y="348.8926">:System</text><rect fill="#FFFFFF" filter="url(#f1iiram3wyo8os)" height="183.1094" style="stroke:#A80036;stroke-width:1.0;" width="10" x="123.5" y="136.25"/><rect fill="#FFFFFF" filter="url(#f1iiram3wyo8os)" height="30.3516" style="stroke:#A80036;stroke-width:1.0;" width="10" x="413.5" y="158.6016"/><rect fill="#FFFFFF" filter="url(#f1iiram3wyo8os)" height="30.3516" style="stroke:#A80036;stroke-width:1.0;" width="10" x="413.5" y="219.3047"/><rect fill="#FFFFFF" filter="url(#f1iiram3wyo8os)" height="30.3516" style="stroke:#A80036;stroke-width:1.0;" width="10" x="413.5" y="280.0078"/><polygon fill="#A80036" points="401.5,154.6016,411.5,158.6016,401.5,162.6016,405.5,158.6016" style="stroke:#A80036;stroke-width:1.0;"/><line style="stroke:#A80036;stroke-width:1.0;" x1="133.5" x2="407.5" y1="158.6016" y2="158.6016"/><text fill="#000000" font-family="sans-serif" font-size="13" font-weight="bold" lengthAdjust="spacing" textLength="7" x="140.5" y="153.7451">1</text><text fill="#000000" font-family="sans-serif" font-size="13" lengthAdjust="spacing" textLength="178" x="151.5" y="153.7451">Ask to access a project (code)</text><polygon fill="#A80036" points="144.5,184.9531,134.5,188.9531,144.5,192.9531,140.5,188.9531" style="stroke:#A80036;stroke-width:1.0;"/><line style="stroke:#A80036;stroke-width:1.0;stroke-dasharray:2.0,2.0;" x1="138.5" x2="417.5" y1="188.9531" y2="188.9531"/><text fill="#000000" font-family="sans-serif" font-size="13" font-weight="bold" lengthAdjust="spacing" textLength="7" x="150.5" y="184.0967">2</text><text fill="#000000" font-family="sans-serif" font-size="13" lengthAdjust="spacing" textLength="180" x="161.5" y="184.0967">Shows the request project data</text><polygon fill="#A80036" points="401.5,215.3047,411.5,219.3047,401.5,223.3047,405.5,219.3047" style="stroke:#A80036;stroke-width:1.0;"/><line style="stroke:#A80036;stroke-width:1.0;" x1="133.5" x2="407.5" y1="219.3047" y2="219.3047"/><text fill="#000000" font-family="sans-serif" font-size="13" font-weight="bold" lengthAdjust="spacing" textLength="7" x="140.5" y="214.4482">3</text><text fill="#000000" font-family="sans-serif" font-size="13" lengthAdjust="spacing" textLength="250" x="151.5" y="214.4482">Ask to access resource of a project (name)</text><polygon fill="#A80036" points="144.5,245.6563,134.5,249.6563,144.5,253.6563,140.5,249.6563" style="stroke:#A80036;stroke-width:1.0;"/><line style="stroke:#A80036;stroke-width:1.0;stroke-dasharray:2.0,2.0;" x1="138.5" x2="417.5" y1="249.6563" y2="249.6563"/><text fill="#000000" font-family="sans-serif" font-size="13" font-weight="bold" lengthAdjust="spacing" textLength="7" x="150.5" y="244.7998">4</text><text fill="#000000" font-family="sans-serif" font-size="13" lengthAdjust="spacing" textLength="191" x="161.5" y="244.7998">Shows the request resource data</text><polygon fill="#A80036" points="401.5,276.0078,411.5,280.0078,401.5,284.0078,405.5,280.0078" style="stroke:#A80036;stroke-width:1.0;"/><line style="stroke:#A80036;stroke-width:1.0;" x1="133.5" x2="407.5" y1="280.0078" y2="280.0078"/><text fill="#000000" font-family="sans-serif" font-size="13" font-weight="bold" lengthAdjust="spacing" textLength="7" x="140.5" y="275.1514">5</text><text fill="#000000" font-family="sans-serif" font-size="13" lengthAdjust="spacing" textLength="126" x="151.5" y="275.1514">Define Product Owner</text><polygon fill="#A80036" points="144.5,306.3594,134.5,310.3594,144.5,314.3594,140.5,310.3594" style="stroke:#A80036;stroke-width:1.0;"/><line style="stroke:#A80036;stroke-width:1.0;stroke-dasharray:2.0,2.0;" x1="138.5" x2="417.5" y1="310.3594" y2="310.3594"/><text fill="#000000" font-family="sans-serif" font-size="13" font-weight="bold" lengthAdjust="spacing" textLength="7" x="150.5" y="305.5029">6</text><text fill="#000000" font-family="sans-serif" font-size="13" lengthAdjust="spacing" textLength="152" x="161.5" y="305.5029">Informs operation success</text><!--MD5=[a43426bb38d56698932a157d20e0b88b]
@startuml

title "US014 - As Director, I want to define the Scrum Master of a project."
autoactivate on
autonumber

actor "Director" as Director
participant ":System" as System

activate Director

Director -> System: Ask to access a project (code)
System - -> Director: Shows the request project data
Director -> System: Ask to access resource of a project (name)
System - -> Director: Shows the request resource data
Director -> System: Define Product Owner
System - -> Director: Informs operation success

@enduml

PlantUML version 1.2022.0(Tue Jan 11 16:16:42 GMT 2022)
(GPL source distribution)
Java Runtime: OpenJDK Runtime Environment
JVM: OpenJDK 64-Bit Server VM
Default Encoding: Cp1252
Language: pt
Country: PT
--></g></svg>