<?xml version="1.0" encoding="UTF-8" standalone="no"?><svg xmlns="http://www.w3.org/2000/svg" xmlns:xlink="http://www.w3.org/1999/xlink" contentScriptType="application/ecmascript" contentStyleType="text/css" height="778px" preserveAspectRatio="none" style="width:755px;height:778px;background:#FFFFFF;" version="1.1" viewBox="0 0 755 778" width="755px" zoomAndPan="magnify"><defs><filter height="300%" id="f7ew5dbupea61" width="300%" x="-1" y="-1"><feGaussianBlur result="blurOut" stdDeviation="2.0"/><feColorMatrix in="blurOut" result="blurOut2" type="matrix" values="0 0 0 0 0 0 0 0 0 0 0 0 0 0 0 0 0 0 .4 0"/><feOffset dx="4.0" dy="4.0" in="blurOut2" result="blurOut3"/><feBlend in="SourceGraphic" in2="blurOut3" mode="normal"/></filter></defs><g><text fill="#000000" font-family="sans-serif" font-size="18" lengthAdjust="spacing" textLength="746" x="2" y="17.4023">US010 - As Authenticated user, i want to update its own data (e.g. photo, function...)</text><!--MD5=[dc70826148653b7492c22464f0a5baee]
class UpdatePersonalDataUI--><rect codeLine="8" fill="#FEFECE" filter="url(#f7ew5dbupea61)" height="48" id="UpdatePersonalDataUI" style="stroke:#A80036;stroke-width:1.5;" width="161" x="288.5" y="28.1992"/><ellipse cx="303.5" cy="44.1992" fill="#ADD1B2" rx="11" ry="11" style="stroke:#A80036;stroke-width:1.0;"/><path d="M305.9731,50.3423 Q305.3921,50.6411 304.7529,50.7905 Q304.1138,50.9399 303.4082,50.9399 Q300.9014,50.9399 299.5815,49.2881 Q298.2617,47.6362 298.2617,44.5151 Q298.2617,41.3857 299.5815,39.7339 Q300.9014,38.082 303.4082,38.082 Q304.1138,38.082 304.7612,38.2314 Q305.4087,38.3809 305.9731,38.6797 L305.9731,41.4023 Q305.3423,40.8213 304.7488,40.5515 Q304.1553,40.2817 303.5244,40.2817 Q302.1797,40.2817 301.4949,41.3484 Q300.8101,42.415 300.8101,44.5151 Q300.8101,46.6069 301.4949,47.6736 Q302.1797,48.7402 303.5244,48.7402 Q304.1553,48.7402 304.7488,48.4705 Q305.3423,48.2007 305.9731,47.6196 Z " fill="#000000"/><text fill="#000000" font-family="sans-serif" font-size="12" lengthAdjust="spacing" textLength="129" x="317.5" y="48.7344">UpdatePersonalDataUI</text><line style="stroke:#A80036;stroke-width:1.5;" x1="289.5" x2="448.5" y1="60.1992" y2="60.1992"/><line style="stroke:#A80036;stroke-width:1.5;" x1="289.5" x2="448.5" y1="68.1992" y2="68.1992"/><!--MD5=[656248b3324c4572a873b9973e352078]
class UpdatePersonalDataController--><rect codeLine="11" fill="#FEFECE" filter="url(#f7ew5dbupea61)" height="73.9102" id="UpdatePersonalDataController" style="stroke:#A80036;stroke-width:1.5;" width="271" x="233.5" y="137.1992"/><ellipse cx="277.75" cy="153.1992" fill="#ADD1B2" rx="11" ry="11" style="stroke:#A80036;stroke-width:1.0;"/><path d="M280.2231,159.3423 Q279.6421,159.6411 279.0029,159.7905 Q278.3638,159.9399 277.6582,159.9399 Q275.1514,159.9399 273.8315,158.2881 Q272.5117,156.6362 272.5117,153.5151 Q272.5117,150.3857 273.8315,148.7339 Q275.1514,147.082 277.6582,147.082 Q278.3638,147.082 279.0112,147.2314 Q279.6587,147.3809 280.2231,147.6797 L280.2231,150.4023 Q279.5923,149.8213 278.9988,149.5515 Q278.4053,149.2817 277.7744,149.2817 Q276.4297,149.2817 275.7449,150.3484 Q275.0601,151.415 275.0601,153.5151 Q275.0601,155.6069 275.7449,156.6736 Q276.4297,157.7402 277.7744,157.7402 Q278.4053,157.7402 278.9988,157.4705 Q279.5923,157.2007 280.2231,156.6196 Z " fill="#000000"/><text fill="#000000" font-family="sans-serif" font-size="12" lengthAdjust="spacing" textLength="174" x="298.25" y="157.7344">UpdatePersonalDataController</text><line style="stroke:#A80036;stroke-width:1.5;" x1="234.5" x2="503.5" y1="169.1992" y2="169.1992"/><line style="stroke:#A80036;stroke-width:1.5;" x1="234.5" x2="503.5" y1="177.1992" y2="177.1992"/><text fill="#000000" font-family="sans-serif" font-size="11" lengthAdjust="spacing" textLength="87" x="239.5" y="191.834">+getUser(email)</text><text fill="#000000" font-family="sans-serif" font-size="11" lengthAdjust="spacing" textLength="259" x="239.5" y="204.7891">+updateSystemUser(username, function, photo)</text><!--MD5=[02e4b9b7573f1156f41e60aa5b4e25a4]
class Company--><rect codeLine="16" fill="#FEFECE" filter="url(#f7ew5dbupea61)" height="60.9551" id="Company" style="stroke:#A80036;stroke-width:1.5;" width="137" x="178.5" y="272.1992"/><ellipse cx="216.45" cy="288.1992" fill="#ADD1B2" rx="11" ry="11" style="stroke:#A80036;stroke-width:1.0;"/><path d="M218.9231,294.3423 Q218.3421,294.6411 217.7029,294.7905 Q217.0638,294.9399 216.3582,294.9399 Q213.8514,294.9399 212.5315,293.2881 Q211.2117,291.6362 211.2117,288.5151 Q211.2117,285.3857 212.5315,283.7339 Q213.8514,282.082 216.3582,282.082 Q217.0638,282.082 217.7112,282.2314 Q218.3587,282.3809 218.9231,282.6797 L218.9231,285.4023 Q218.2923,284.8213 217.6988,284.5515 Q217.1053,284.2817 216.4744,284.2817 Q215.1297,284.2817 214.4449,285.3484 Q213.7601,286.415 213.7601,288.5151 Q213.7601,290.6069 214.4449,291.6736 Q215.1297,292.7402 216.4744,292.7402 Q217.1053,292.7402 217.6988,292.4705 Q218.2923,292.2007 218.9231,291.6196 Z " fill="#000000"/><text fill="#000000" font-family="sans-serif" font-size="12" lengthAdjust="spacing" textLength="54" x="235.55" y="292.7344">Company</text><line style="stroke:#A80036;stroke-width:1.5;" x1="179.5" x2="314.5" y1="304.1992" y2="304.1992"/><line style="stroke:#A80036;stroke-width:1.5;" x1="179.5" x2="314.5" y1="312.1992" y2="312.1992"/><text fill="#000000" font-family="sans-serif" font-size="11" lengthAdjust="spacing" textLength="125" x="184.5" y="326.834">+getSystemUserStore()</text><!--MD5=[8787f7db94578849901ee2e9b6146b1d]
class SystemUserStore--><rect codeLine="20" fill="#FEFECE" filter="url(#f7ew5dbupea61)" height="60.9551" id="SystemUserStore" style="stroke:#A80036;stroke-width:1.5;" width="139" x="247.5" y="410.1992"/><ellipse cx="267.9" cy="426.1992" fill="#ADD1B2" rx="11" ry="11" style="stroke:#A80036;stroke-width:1.0;"/><path d="M270.3731,432.3423 Q269.7921,432.6411 269.1529,432.7905 Q268.5138,432.9399 267.8082,432.9399 Q265.3014,432.9399 263.9815,431.2881 Q262.6617,429.6362 262.6617,426.5151 Q262.6617,423.3857 263.9815,421.7339 Q265.3014,420.082 267.8082,420.082 Q268.5138,420.082 269.1612,420.2314 Q269.8087,420.3809 270.3731,420.6797 L270.3731,423.4023 Q269.7423,422.8213 269.1488,422.5515 Q268.5553,422.2817 267.9244,422.2817 Q266.5797,422.2817 265.8949,423.3484 Q265.2101,424.415 265.2101,426.5151 Q265.2101,428.6069 265.8949,429.6736 Q266.5797,430.7402 267.9244,430.7402 Q268.5553,430.7402 269.1488,430.4705 Q269.7423,430.2007 270.3731,429.6196 Z " fill="#000000"/><text fill="#000000" font-family="sans-serif" font-size="12" lengthAdjust="spacing" textLength="95" x="283.1" y="430.7344">SystemUserStore</text><line style="stroke:#A80036;stroke-width:1.5;" x1="248.5" x2="385.5" y1="442.1992" y2="442.1992"/><line style="stroke:#A80036;stroke-width:1.5;" x1="248.5" x2="385.5" y1="450.1992" y2="450.1992"/><text fill="#000000" font-family="sans-serif" font-size="11" lengthAdjust="spacing" textLength="127" x="253.5" y="464.834">+getUserByEmail(email)</text><!--MD5=[bc064d979c32666ae52f3d7624591b7b]
class SystemUser--><rect codeLine="25" fill="#FEFECE" filter="url(#f7ew5dbupea61)" height="216.416" id="SystemUser" style="stroke:#A80036;stroke-width:1.5;" width="496" x="130" y="548.1992"/><ellipse cx="340.75" cy="564.1992" fill="#ADD1B2" rx="11" ry="11" style="stroke:#A80036;stroke-width:1.0;"/><path d="M343.2231,570.3423 Q342.6421,570.6411 342.0029,570.7905 Q341.3638,570.9399 340.6582,570.9399 Q338.1514,570.9399 336.8315,569.2881 Q335.5117,567.6362 335.5117,564.5151 Q335.5117,561.3857 336.8315,559.7339 Q338.1514,558.082 340.6582,558.082 Q341.3638,558.082 342.0112,558.2314 Q342.6587,558.3809 343.2231,558.6797 L343.2231,561.4023 Q342.5923,560.8213 341.9988,560.5515 Q341.4053,560.2817 340.7744,560.2817 Q339.4297,560.2817 338.7449,561.3484 Q338.0601,562.415 338.0601,564.5151 Q338.0601,566.6069 338.7449,567.6736 Q339.4297,568.7402 340.7744,568.7402 Q341.4053,568.7402 341.9988,568.4705 Q342.5923,568.2007 343.2231,567.6196 Z " fill="#000000"/><text fill="#000000" font-family="sans-serif" font-size="12" lengthAdjust="spacing" textLength="66" x="361.25" y="568.7344">SystemUser</text><line style="stroke:#A80036;stroke-width:1.5;" x1="131" x2="625" y1="580.1992" y2="580.1992"/><text fill="#000000" font-family="sans-serif" font-size="11" lengthAdjust="spacing" textLength="94" x="136" y="594.834">username : String</text><text fill="#000000" font-family="sans-serif" font-size="11" lengthAdjust="spacing" textLength="69" x="136" y="607.7891">email : String</text><text fill="#000000" font-family="sans-serif" font-size="11" lengthAdjust="spacing" textLength="73" x="136" y="620.7441">photo : String</text><text fill="#000000" font-family="sans-serif" font-size="11" lengthAdjust="spacing" textLength="93" x="136" y="633.6992">password : String</text><text fill="#000000" font-family="sans-serif" font-size="11" lengthAdjust="spacing" textLength="164" x="136" y="646.6543">passwordConfirmation : String</text><text fill="#000000" font-family="sans-serif" font-size="11" lengthAdjust="spacing" textLength="86" x="136" y="659.6094">function : String</text><text fill="#000000" font-family="sans-serif" font-size="11" lengthAdjust="spacing" textLength="160" x="136" y="672.5645">activateUser : boolean = False</text><line style="stroke:#A80036;stroke-width:1.5;" x1="131" x2="625" y1="678.8848" y2="678.8848"/><text fill="#000000" font-family="sans-serif" font-size="11" lengthAdjust="spacing" textLength="484" x="136" y="693.5195">+SystemUser(username, email, photo, password, passwordConfirmation, function, profile)</text><text fill="#000000" font-family="sans-serif" font-size="11" lengthAdjust="spacing" textLength="108" x="136" y="706.4746">+isYourEmail(email)</text><text fill="#000000" font-family="sans-serif" font-size="11" lengthAdjust="spacing" textLength="213" x="136" y="719.4297">+setAllData(username, function, photo)</text><text fill="#000000" font-family="sans-serif" font-size="11" lengthAdjust="spacing" textLength="140" x="136" y="732.3848">+setUsername(username)</text><text fill="#000000" font-family="sans-serif" font-size="11" lengthAdjust="spacing" textLength="125" x="136" y="745.3398">+setFunction(function)</text><text fill="#000000" font-family="sans-serif" font-size="11" lengthAdjust="spacing" textLength="96" x="136" y="758.2949">+setPhoto(photo)</text><!--MD5=[21c9184e093d3c8ab3574166ca6af88b]
link UpdatePersonalDataUI to UpdatePersonalDataController--><path codeLine="42" d="M369,76.3392 C369,92.0292 369,113.1992 369,131.7492 " fill="none" id="UpdatePersonalDataUI-to-UpdatePersonalDataController" style="stroke:#A80036;stroke-width:1.0;stroke-dasharray:7.0,7.0;"/><polygon fill="#A80036" points="369,136.9092,373,127.9092,369,131.9092,365,127.9092,369,136.9092" style="stroke:#A80036;stroke-width:1.0;"/><!--MD5=[e5734e4b4915b369e0350708a3631c73]
link UpdatePersonalDataController to Company--><path codeLine="44" d="M334.04,211.4492 C316.89,229.2292 296.36,250.5192 279.54,267.9592 " fill="none" id="UpdatePersonalDataController-to-Company" style="stroke:#A80036;stroke-width:1.0;stroke-dasharray:7.0,7.0;"/><polygon fill="#A80036" points="275.8,271.8392,284.9266,268.1372,279.2707,268.24,279.1678,262.5841,275.8,271.8392" style="stroke:#A80036;stroke-width:1.0;"/><!--MD5=[cc2e9ba5acbe84ecd0a01e18b7bf553c]
link UpdatePersonalDataController to SystemUserStore--><path codeLine="45" d="M361.88,211.4192 C351.85,262.4392 333.68,354.8392 323.82,405.0092 " fill="none" id="UpdatePersonalDataController-to-SystemUserStore" style="stroke:#A80036;stroke-width:1.0;stroke-dasharray:7.0,7.0;"/><polygon fill="#A80036" points="322.83,410.0292,328.4812,401.963,323.7886,405.122,320.6296,400.4293,322.83,410.0292" style="stroke:#A80036;stroke-width:1.0;"/><!--MD5=[8bcc85a4609a7c670ca24cac815fdd8a]
link UpdatePersonalDataController to SystemUser--><path codeLine="46" d="M376.58,211.4292 C378.47,221.0792 380.42,231.5192 382,241.1992 C398.56,342.5392 411.2,368.7592 404,471.1992 C402.36,494.4892 399.57,519.3092 396.42,542.9292 " fill="none" id="UpdatePersonalDataController-to-SystemUser" style="stroke:#A80036;stroke-width:1.0;stroke-dasharray:7.0,7.0;"/><polygon fill="#A80036" points="395.74,547.9592,400.9118,539.5775,396.4111,543.0045,392.9842,538.5038,395.74,547.9592" style="stroke:#A80036;stroke-width:1.0;"/><!--MD5=[8b399b28c903131df3378f5fe4d26a41]
reverse link Company to SystemUserStore--><path codeLine="49" d="M268.24,344.9692 C279,365.8592 291.81,390.7492 301.6,409.7792 " fill="none" id="Company-backto-SystemUserStore" style="stroke:#A80036;stroke-width:1.0;"/><polygon fill="#FFFFFF" points="262.19,333.2092,261.3765,340.3743,267.6776,343.881,268.491,336.7159,262.19,333.2092" style="stroke:#A80036;stroke-width:1.0;"/><text fill="#000000" font-family="sans-serif" font-size="13" lengthAdjust="spacing" textLength="22" x="288" y="376.7676">has</text><text fill="#000000" font-family="sans-serif" font-size="13" lengthAdjust="spacing" textLength="8" x="256.4979" y="353.6538">1</text><text fill="#000000" font-family="sans-serif" font-size="13" lengthAdjust="spacing" textLength="8" x="289.5988" y="399.4601">1</text><!--MD5=[7758a2d24f0b1a5b8a5ff338858e9484]
reverse link SystemUserStore to SystemUser--><path codeLine="50" d="M329.12,484.1192 C334.43,502.6892 340.92,525.4092 347.41,548.1492 " fill="none" id="SystemUserStore-backto-SystemUser" style="stroke:#A80036;stroke-width:1.0;"/><polygon fill="#A80036" points="325.48,471.3892,323.2822,478.2572,328.7767,482.9275,330.9744,476.0595,325.48,471.3892" style="stroke:#A80036;stroke-width:1.0;"/><text fill="#000000" font-family="sans-serif" font-size="13" lengthAdjust="spacing" textLength="22" x="340" y="514.7676">has</text><text fill="#000000" font-family="sans-serif" font-size="13" lengthAdjust="spacing" textLength="8" x="318.404" y="491.8709">1</text><text fill="#000000" font-family="sans-serif" font-size="13" lengthAdjust="spacing" textLength="22" x="322.4857" y="537.5893">0..*</text><!--MD5=[10e8b09880f55cc71272afb228797e64]
@startuml
'https://plantuml.com/class-diagram

'hide circle
skinparam classAttributeIconSize 0

title US010 - As Authenticated user, i want to update its own data (e.g. photo, function...)

class UpdatePersonalDataUI {
}

class UpdatePersonalDataController {
+getUser(email)
+updateSystemUser(username, function, photo)
}

class Company {
+getSystemUserStore()
}

class SystemUserStore {
+getUserByEmail(email)
}


class SystemUser {
username : String
email : String
photo : String
password : String
passwordConfirmation : String
function : String
activateUser : boolean = False
+SystemUser(username, email, photo, password, passwordConfirmation, function, profile)
+isYourEmail(email)
+setAllData(username, function, photo)
+setUsername(username)
+setFunction(function)
+setPhoto(photo)
}


UpdatePersonalDataUI ..> UpdatePersonalDataController

UpdatePersonalDataController ..> Company
UpdatePersonalDataController ..> SystemUserStore
UpdatePersonalDataController ..> SystemUser


Company "1" o- - "1" SystemUserStore: has
SystemUserStore "1" *- - "0..*" SystemUser: has

@enduml

@startuml

skinparam classAttributeIconSize 0

title US010 - As Authenticated user, i want to update its own data (e.g. photo, function...)

class UpdatePersonalDataUI {
}

class UpdatePersonalDataController {
+getUser(email)
+updateSystemUser(username, function, photo)
}

class Company {
+getSystemUserStore()
}

class SystemUserStore {
+getUserByEmail(email)
}


class SystemUser {
username : String
email : String
photo : String
password : String
passwordConfirmation : String
function : String
activateUser : boolean = False
+SystemUser(username, email, photo, password, passwordConfirmation, function, profile)
+isYourEmail(email)
+setAllData(username, function, photo)
+setUsername(username)
+setFunction(function)
+setPhoto(photo)
}


UpdatePersonalDataUI ..> UpdatePersonalDataController

UpdatePersonalDataController ..> Company
UpdatePersonalDataController ..> SystemUserStore
UpdatePersonalDataController ..> SystemUser


Company "1" o- - "1" SystemUserStore: has
SystemUserStore "1" *- - "0..*" SystemUser: has

@enduml

PlantUML version 1.2022.0(Tue Jan 11 16:16:42 WET 2022)
(GPL source distribution)
Java Runtime: OpenJDK Runtime Environment
JVM: OpenJDK 64-Bit Server VM
Default Encoding: UTF-8
Language: pt
Country: PT
--></g></svg>