<?xml version="1.0" encoding="UTF-8" standalone="no"?><svg xmlns="http://www.w3.org/2000/svg" xmlns:xlink="http://www.w3.org/1999/xlink" contentScriptType="application/ecmascript" contentStyleType="text/css" height="729px" preserveAspectRatio="none" style="width:1075px;height:729px;background:#FFFFFF;" version="1.1" viewBox="0 0 1075 729" width="1075px" zoomAndPan="magnify"><defs><filter height="300%" id="fnia7cm9d7foc" width="300%" x="-1" y="-1"><feGaussianBlur result="blurOut" stdDeviation="2.0"/><feColorMatrix in="blurOut" result="blurOut2" type="matrix" values="0 0 0 0 0 0 0 0 0 0 0 0 0 0 0 0 0 0 .4 0"/><feOffset dx="4.0" dy="4.0" in="blurOut2" result="blurOut3"/><feBlend in="SourceGraphic" in2="blurOut3" mode="normal"/></filter></defs><g><text fill="#000000" font-family="sans-serif" font-size="18" lengthAdjust="spacing" textLength="492" x="289" y="30.6855">US012 - "As Director, I want to create a new project typology."</text><rect fill="#FFFFFF" filter="url(#fnia7cm9d7foc)" height="30.3516" style="stroke:#A80036;stroke-width:1.0;" width="10" x="275" y="158.6016"/><rect fill="#FFFFFF" filter="url(#fnia7cm9d7foc)" height="406.4766" style="stroke:#A80036;stroke-width:1.0;" width="10" x="275" y="219.3047"/><rect fill="#FFFFFF" filter="url(#fnia7cm9d7foc)" height="345.7734" style="stroke:#A80036;stroke-width:1.0;" width="10" x="478" y="249.6563"/><rect fill="#FFFFFF" filter="url(#fnia7cm9d7foc)" height="30.3516" style="stroke:#A80036;stroke-width:1.0;" width="10" x="634.5" y="280.0078"/><rect fill="#FFFFFF" filter="url(#fnia7cm9d7foc)" height="76.9609" style="stroke:#A80036;stroke-width:1.0;" width="10" x="786" y="340.7109"/><rect fill="#FFFFFF" filter="url(#fnia7cm9d7foc)" height="117.0547" style="stroke:#A80036;stroke-width:1.0;" width="10" x="786" y="448.0234"/><rect fill="#FFFFFF" filter="url(#fnia7cm9d7foc)" height="41.3516" style="stroke:#A80036;stroke-width:1.0;" width="10" x="791" y="486.375"/><line style="stroke:#A80036;stroke-width:1.0;stroke-dasharray:5.0,5.0;" x1="33" x2="33" y1="126.25" y2="643.7813"/><line style="stroke:#A80036;stroke-width:1.0;stroke-dasharray:5.0,5.0;" x1="279.5" x2="279.5" y1="126.25" y2="643.7813"/><line style="stroke:#A80036;stroke-width:1.0;stroke-dasharray:5.0,5.0;" x1="482.5" x2="482.5" y1="126.25" y2="643.7813"/><line style="stroke:#A80036;stroke-width:1.0;stroke-dasharray:5.0,5.0;" x1="639.5" x2="639.5" y1="126.25" y2="643.7813"/><line style="stroke:#A80036;stroke-width:1.0;stroke-dasharray:5.0,5.0;" x1="790.5" x2="790.5" y1="126.25" y2="643.7813"/><line style="stroke:#A80036;stroke-width:1.0;stroke-dasharray:5.0,5.0;" x1="1011" x2="1011" y1="382.0156" y2="643.7813"/><text fill="#000000" font-family="sans-serif" font-size="14" lengthAdjust="spacing" textLength="50" x="5" y="123.1738">Director</text><ellipse cx="33" cy="51.6406" fill="#FEFECE" filter="url(#fnia7cm9d7foc)" rx="8" ry="8" style="stroke:#A80036;stroke-width:2.0;"/><path d="M33,59.6406 L33,86.6406 M20,67.6406 L46,67.6406 M33,86.6406 L20,101.6406 M33,86.6406 L46,101.6406 " fill="none" filter="url(#fnia7cm9d7foc)" style="stroke:#A80036;stroke-width:2.0;"/><text fill="#000000" font-family="sans-serif" font-size="14" lengthAdjust="spacing" textLength="50" x="5" y="657.3145">Director</text><ellipse cx="33" cy="670.3906" fill="#FEFECE" filter="url(#fnia7cm9d7foc)" rx="8" ry="8" style="stroke:#A80036;stroke-width:2.0;"/><path d="M33,678.3906 L33,705.3906 M20,686.3906 L46,686.3906 M33,705.3906 L20,720.3906 M33,705.3906 L46,720.3906 " fill="none" filter="url(#fnia7cm9d7foc)" style="stroke:#A80036;stroke-width:2.0;"/><rect fill="#FEFECE" filter="url(#fnia7cm9d7foc)" height="31.6094" style="stroke:#A80036;stroke-width:1.5;" width="157" x="199.5" y="89.6406"/><text fill="#000000" font-family="sans-serif" font-size="14" lengthAdjust="spacing" textLength="143" x="206.5" y="111.1738">:CreateNewTypologyUI</text><rect fill="#FEFECE" filter="url(#fnia7cm9d7foc)" height="31.6094" style="stroke:#A80036;stroke-width:1.5;" width="157" x="199.5" y="642.7813"/><text fill="#000000" font-family="sans-serif" font-size="14" lengthAdjust="spacing" textLength="143" x="206.5" y="664.3145">:CreateNewTypologyUI</text><rect fill="#FEFECE" filter="url(#fnia7cm9d7foc)" height="31.6094" style="stroke:#A80036;stroke-width:1.5;" width="207" x="377.5" y="89.6406"/><text fill="#000000" font-family="sans-serif" font-size="14" lengthAdjust="spacing" textLength="193" x="384.5" y="111.1738">:CreateNewTypologyController</text><rect fill="#FEFECE" filter="url(#fnia7cm9d7foc)" height="31.6094" style="stroke:#A80036;stroke-width:1.5;" width="207" x="377.5" y="642.7813"/><text fill="#000000" font-family="sans-serif" font-size="14" lengthAdjust="spacing" textLength="193" x="384.5" y="664.3145">:CreateNewTypologyController</text><rect fill="#FEFECE" filter="url(#fnia7cm9d7foc)" height="31.6094" style="stroke:#A80036;stroke-width:1.5;" width="78" x="598.5" y="89.6406"/><text fill="#000000" font-family="sans-serif" font-size="14" lengthAdjust="spacing" textLength="64" x="605.5" y="111.1738">:Company</text><rect fill="#FEFECE" filter="url(#fnia7cm9d7foc)" height="31.6094" style="stroke:#A80036;stroke-width:1.5;" width="78" x="598.5" y="642.7813"/><text fill="#000000" font-family="sans-serif" font-size="14" lengthAdjust="spacing" textLength="64" x="605.5" y="664.3145">:Company</text><rect fill="#FEFECE" filter="url(#fnia7cm9d7foc)" height="31.6094" style="stroke:#A80036;stroke-width:1.5;" width="197" x="690.5" y="89.6406"/><text fill="#000000" font-family="sans-serif" font-size="14" lengthAdjust="spacing" textLength="183" x="697.5" y="111.1738">typologyRepository:TypologyStore</text><rect fill="#FEFECE" filter="url(#fnia7cm9d7foc)" height="31.6094" style="stroke:#A80036;stroke-width:1.5;" width="197" x="690.5" y="642.7813"/><text fill="#000000" font-family="sans-serif" font-size="14" lengthAdjust="spacing" textLength="183" x="697.5" y="664.3145">typologyRepository:TypologyStore</text><rect fill="#FEFECE" filter="url(#fnia7cm9d7foc)" height="31.6094" style="stroke:#A80036;stroke-width:1.5;" width="103" x="958" y="642.7813"/><text fill="#000000" font-family="sans-serif" font-size="14" lengthAdjust="spacing" textLength="89" x="965" y="664.3145">typo:Typology</text><rect fill="#FFFFFF" filter="url(#fnia7cm9d7foc)" height="30.3516" style="stroke:#A80036;stroke-width:1.0;" width="10" x="275" y="158.6016"/><rect fill="#FFFFFF" filter="url(#fnia7cm9d7foc)" height="406.4766" style="stroke:#A80036;stroke-width:1.0;" width="10" x="275" y="219.3047"/><rect fill="#FFFFFF" filter="url(#fnia7cm9d7foc)" height="345.7734" style="stroke:#A80036;stroke-width:1.0;" width="10" x="478" y="249.6563"/><rect fill="#FFFFFF" filter="url(#fnia7cm9d7foc)" height="30.3516" style="stroke:#A80036;stroke-width:1.0;" width="10" x="634.5" y="280.0078"/><rect fill="#FFFFFF" filter="url(#fnia7cm9d7foc)" height="76.9609" style="stroke:#A80036;stroke-width:1.0;" width="10" x="786" y="340.7109"/><rect fill="#FFFFFF" filter="url(#fnia7cm9d7foc)" height="117.0547" style="stroke:#A80036;stroke-width:1.0;" width="10" x="786" y="448.0234"/><rect fill="#FFFFFF" filter="url(#fnia7cm9d7foc)" height="41.3516" style="stroke:#A80036;stroke-width:1.0;" width="10" x="791" y="486.375"/><polygon fill="#A80036" points="263,154.6016,273,158.6016,263,162.6016,267,158.6016" style="stroke:#A80036;stroke-width:1.0;"/><line style="stroke:#A80036;stroke-width:1.0;" x1="33" x2="269" y1="158.6016" y2="158.6016"/><text fill="#000000" font-family="sans-serif" font-size="13" font-weight="bold" lengthAdjust="spacing" textLength="7" x="40" y="153.7451">1</text><text fill="#000000" font-family="sans-serif" font-size="13" lengthAdjust="spacing" textLength="212" x="51" y="153.7451">Starts the creation of a new typology</text><polygon fill="#A80036" points="44,184.9531,34,188.9531,44,192.9531,40,188.9531" style="stroke:#A80036;stroke-width:1.0;"/><line style="stroke:#A80036;stroke-width:1.0;stroke-dasharray:2.0,2.0;" x1="38" x2="279" y1="188.9531" y2="188.9531"/><text fill="#000000" font-family="sans-serif" font-size="13" font-weight="bold" lengthAdjust="spacing" textLength="7" x="50" y="184.0967">2</text><text fill="#000000" font-family="sans-serif" font-size="13" lengthAdjust="spacing" textLength="152" x="61" y="184.0967">Request data (description)</text><polygon fill="#A80036" points="263,215.3047,273,219.3047,263,223.3047,267,219.3047" style="stroke:#A80036;stroke-width:1.0;"/><line style="stroke:#A80036;stroke-width:1.0;" x1="33" x2="269" y1="219.3047" y2="219.3047"/><text fill="#000000" font-family="sans-serif" font-size="13" font-weight="bold" lengthAdjust="spacing" textLength="7" x="40" y="214.4482">3</text><text fill="#000000" font-family="sans-serif" font-size="13" lengthAdjust="spacing" textLength="111" x="51" y="214.4482">types required data</text><polygon fill="#A80036" points="466,245.6563,476,249.6563,466,253.6563,470,249.6563" style="stroke:#A80036;stroke-width:1.0;"/><line style="stroke:#A80036;stroke-width:1.0;" x1="285" x2="472" y1="249.6563" y2="249.6563"/><text fill="#000000" font-family="sans-serif" font-size="13" font-weight="bold" lengthAdjust="spacing" textLength="7" x="292" y="244.7998">4</text><text fill="#000000" font-family="sans-serif" font-size="13" lengthAdjust="spacing" textLength="163" x="303" y="244.7998">createTypology (description)</text><polygon fill="#A80036" points="622.5,276.0078,632.5,280.0078,622.5,284.0078,626.5,280.0078" style="stroke:#A80036;stroke-width:1.0;"/><line style="stroke:#A80036;stroke-width:1.0;" x1="488" x2="628.5" y1="280.0078" y2="280.0078"/><text fill="#000000" font-family="sans-serif" font-size="13" font-weight="bold" lengthAdjust="spacing" textLength="7" x="495" y="275.1514">5</text><text fill="#000000" font-family="sans-serif" font-size="13" lengthAdjust="spacing" textLength="109" x="506" y="275.1514">getTypologyStore()</text><polygon fill="#A80036" points="499,306.3594,489,310.3594,499,314.3594,495,310.3594" style="stroke:#A80036;stroke-width:1.0;"/><line style="stroke:#A80036;stroke-width:1.0;stroke-dasharray:2.0,2.0;" x1="493" x2="638.5" y1="310.3594" y2="310.3594"/><text fill="#000000" font-family="sans-serif" font-size="13" font-weight="bold" lengthAdjust="spacing" textLength="7" x="505" y="305.5029">6</text><text fill="#000000" font-family="sans-serif" font-size="13" lengthAdjust="spacing" textLength="80" x="516" y="305.5029">typologyRepository</text><polygon fill="#A80036" points="774,336.7109,784,340.7109,774,344.7109,778,340.7109" style="stroke:#A80036;stroke-width:1.0;"/><line style="stroke:#A80036;stroke-width:1.0;" x1="488" x2="780" y1="340.7109" y2="340.7109"/><text fill="#000000" font-family="sans-serif" font-size="13" font-weight="bold" lengthAdjust="spacing" textLength="7" x="495" y="335.8545">7</text><text fill="#000000" font-family="sans-serif" font-size="13" lengthAdjust="spacing" textLength="163" x="506" y="335.8545">createTypology (description)</text><polygon fill="#A80036" points="946,367.0625,956,371.0625,946,375.0625,950,371.0625" style="stroke:#A80036;stroke-width:1.0;"/><line style="stroke:#A80036;stroke-width:1.0;" x1="796" x2="952" y1="371.0625" y2="371.0625"/><text fill="#000000" font-family="sans-serif" font-size="13" font-weight="bold" lengthAdjust="spacing" textLength="7" x="803" y="366.2061">8</text><text fill="#000000" font-family="sans-serif" font-size="13" lengthAdjust="spacing" textLength="127" x="814" y="366.2061">Typology (description)</text><rect fill="#FEFECE" filter="url(#fnia7cm9d7foc)" height="31.6094" style="stroke:#A80036;stroke-width:1.5;" width="103" x="958" y="348.7109"/><text fill="#000000" font-family="sans-serif" font-size="14" lengthAdjust="spacing" textLength="89" x="965" y="370.2441">typo:Typology</text><polygon fill="#A80036" points="499,413.6719,489,417.6719,499,421.6719,495,417.6719" style="stroke:#A80036;stroke-width:1.0;"/><line style="stroke:#A80036;stroke-width:1.0;stroke-dasharray:2.0,2.0;" x1="493" x2="790" y1="417.6719" y2="417.6719"/><text fill="#000000" font-family="sans-serif" font-size="13" font-weight="bold" lengthAdjust="spacing" textLength="7" x="505" y="412.8154">9</text><text fill="#000000" font-family="sans-serif" font-size="13" lengthAdjust="spacing" textLength="49" x="516" y="412.8154">typology</text><polygon fill="#A80036" points="774,444.0234,784,448.0234,774,452.0234,778,448.0234" style="stroke:#A80036;stroke-width:1.0;"/><line style="stroke:#A80036;stroke-width:1.0;" x1="488" x2="780" y1="448.0234" y2="448.0234"/><text fill="#000000" font-family="sans-serif" font-size="13" font-weight="bold" lengthAdjust="spacing" textLength="14" x="495" y="443.167">10</text><text fill="#000000" font-family="sans-serif" font-size="13" lengthAdjust="spacing" textLength="115" x="513" y="443.167">saveTypology (typo)</text><line style="stroke:#A80036;stroke-width:1.0;" x1="796" x2="843" y1="473.375" y2="473.375"/><line style="stroke:#A80036;stroke-width:1.0;" x1="843" x2="843" y1="473.375" y2="486.375"/><line style="stroke:#A80036;stroke-width:1.0;" x1="802" x2="843" y1="486.375" y2="486.375"/><polygon fill="#A80036" points="812,482.375,802,486.375,812,490.375,808,486.375" style="stroke:#A80036;stroke-width:1.0;"/><text fill="#000000" font-family="sans-serif" font-size="13" font-weight="bold" lengthAdjust="spacing" textLength="14" x="808" y="468.5186">11</text><text fill="#000000" font-family="sans-serif" font-size="13" lengthAdjust="spacing" textLength="132" x="826" y="468.5186">validateTypology (typo)</text><line style="stroke:#A80036;stroke-width:1.0;stroke-dasharray:2.0,2.0;" x1="801" x2="843" y1="526.7266" y2="526.7266"/><line style="stroke:#A80036;stroke-width:1.0;stroke-dasharray:2.0,2.0;" x1="843" x2="843" y1="526.7266" y2="539.7266"/><line style="stroke:#A80036;stroke-width:1.0;stroke-dasharray:2.0,2.0;" x1="796" x2="843" y1="539.7266" y2="539.7266"/><polygon fill="#A80036" points="806,535.7266,796,539.7266,806,543.7266,802,539.7266" style="stroke:#A80036;stroke-width:1.0;"/><text fill="#000000" font-family="sans-serif" font-size="13" font-weight="bold" lengthAdjust="spacing" textLength="14" x="808" y="521.8701">12</text><text fill="#000000" font-family="sans-serif" font-size="13" lengthAdjust="spacing" textLength="22" x="826" y="521.8701">true</text><polygon fill="#A80036" points="499,561.0781,489,565.0781,499,569.0781,495,565.0781" style="stroke:#A80036;stroke-width:1.0;"/><line style="stroke:#A80036;stroke-width:1.0;stroke-dasharray:2.0,2.0;" x1="493" x2="790" y1="565.0781" y2="565.0781"/><text fill="#000000" font-family="sans-serif" font-size="13" font-weight="bold" lengthAdjust="spacing" textLength="14" x="505" y="560.2217">13</text><text fill="#000000" font-family="sans-serif" font-size="13" lengthAdjust="spacing" textLength="22" x="523" y="560.2217">true</text><polygon fill="#A80036" points="296,591.4297,286,595.4297,296,599.4297,292,595.4297" style="stroke:#A80036;stroke-width:1.0;"/><line style="stroke:#A80036;stroke-width:1.0;stroke-dasharray:2.0,2.0;" x1="290" x2="482" y1="595.4297" y2="595.4297"/><text fill="#000000" font-family="sans-serif" font-size="13" font-weight="bold" lengthAdjust="spacing" textLength="14" x="302" y="590.5732">14</text><text fill="#000000" font-family="sans-serif" font-size="13" lengthAdjust="spacing" textLength="22" x="320" y="590.5732">true</text><polygon fill="#A80036" points="44,621.7813,34,625.7813,44,629.7813,40,625.7813" style="stroke:#A80036;stroke-width:1.0;"/><line style="stroke:#A80036;stroke-width:1.0;stroke-dasharray:2.0,2.0;" x1="38" x2="279" y1="625.7813" y2="625.7813"/><text fill="#000000" font-family="sans-serif" font-size="13" font-weight="bold" lengthAdjust="spacing" textLength="14" x="50" y="620.9248">15</text><text fill="#000000" font-family="sans-serif" font-size="13" lengthAdjust="spacing" textLength="145" x="68" y="620.9248">Informs operation sucess</text><!--MD5=[1726c3c63eda57e55c63398e558e1cdb]
@startuml

title US012 - "As Director, I want to create a new project typology."

autoactivate on
autonumber

actor "Director" as Director
participant ":CreateNewTypologyUI" as UI
participant ":CreateNewTypologyController" as Controller
participant ":Company" as Company
participant "typologyRepository:TypologyRepository" as Store
participant "typo:Typology" as Typology

Director -> UI: Starts the creation of a new typology
return Request data (description)
Director -> UI: types required data
UI -> Controller: createTypology (description)
Controller -> Company: getTypologyRepository()
return typologyRepository
Controller -> Store: createTypology (description)
Store -> Typology**: Typology (description)
return typology
Controller -> Store: saveTypology (typo)
Store -> Store: validateTypology (typo)
return true
return true
return true
return Informs operation sucess


@enduml

PlantUML version 1.2022.0(Tue Jan 11 16:16:42 GMT 2022)
(GPL source distribution)
Java Runtime: OpenJDK Runtime Environment
JVM: OpenJDK 64-Bit Server VM
Default Encoding: Cp1252
Language: pt
Country: PT
--></g></svg>