<?xml version="1.0" encoding="UTF-8" standalone="no"?><svg xmlns="http://www.w3.org/2000/svg" xmlns:xlink="http://www.w3.org/1999/xlink" contentScriptType="application/ecmascript" contentStyleType="text/css" height="1240px" preserveAspectRatio="none" style="width:1105px;height:1240px;background:#FFFFFF;" version="1.1" viewBox="0 0 1105 1240" width="1105px" zoomAndPan="magnify"><defs><filter height="300%" id="fsp7f053kphds" width="300%" x="-1" y="-1"><feGaussianBlur result="blurOut" stdDeviation="2.0"/><feColorMatrix in="blurOut" result="blurOut2" type="matrix" values="0 0 0 0 0 0 0 0 0 0 0 0 0 0 0 0 0 0 .4 0"/><feOffset dx="4.0" dy="4.0" in="blurOut2" result="blurOut3"/><feBlend in="SourceGraphic" in2="blurOut3" mode="normal"/></filter></defs><g><text fill="#000000" font-family="sans-serif" font-size="18" lengthAdjust="spacing" textLength="671" x="210.75" y="17.4023">US007 - As Director, I want to associate a human resource (user) to a project</text><!--MD5=[231d6d6907ad75bbbdbcf604ed5726fc]
class AssociateResourceUI--><rect codeLine="8" fill="#FEFECE" filter="url(#fsp7f053kphds)" height="48" id="AssociateResourceUI" style="stroke:#A80036;stroke-width:1.5;" width="150" x="248" y="28.1992"/><ellipse cx="263" cy="44.1992" fill="#ADD1B2" rx="11" ry="11" style="stroke:#A80036;stroke-width:1.0;"/><path d="M265.4731,50.3423 Q264.8921,50.6411 264.2529,50.7905 Q263.6138,50.9399 262.9082,50.9399 Q260.4014,50.9399 259.0815,49.2881 Q257.7617,47.6362 257.7617,44.5151 Q257.7617,41.3857 259.0815,39.7339 Q260.4014,38.082 262.9082,38.082 Q263.6138,38.082 264.2612,38.2314 Q264.9087,38.3809 265.4731,38.6797 L265.4731,41.4023 Q264.8423,40.8213 264.2488,40.5515 Q263.6553,40.2817 263.0244,40.2817 Q261.6797,40.2817 260.9949,41.3484 Q260.3101,42.415 260.3101,44.5151 Q260.3101,46.6069 260.9949,47.6736 Q261.6797,48.7402 263.0244,48.7402 Q263.6553,48.7402 264.2488,48.4705 Q264.8423,48.2007 265.4731,47.6196 Z " fill="#000000"/><text fill="#000000" font-family="sans-serif" font-size="12" lengthAdjust="spacing" textLength="118" x="277" y="48.7344">AssociateResourceUI</text><line style="stroke:#A80036;stroke-width:1.5;" x1="249" x2="397" y1="60.1992" y2="60.1992"/><line style="stroke:#A80036;stroke-width:1.5;" x1="249" x2="397" y1="68.1992" y2="68.1992"/><!--MD5=[64460d780418aa034b32f169cf278c0f]
class AssociateResourceController--><rect codeLine="11" fill="#FEFECE" filter="url(#fsp7f053kphds)" height="86.8652" id="AssociateResourceController" style="stroke:#A80036;stroke-width:1.5;" width="540" x="53" y="137.1992"/><ellipse cx="237.25" cy="153.1992" fill="#ADD1B2" rx="11" ry="11" style="stroke:#A80036;stroke-width:1.0;"/><path d="M239.7231,159.3423 Q239.1421,159.6411 238.5029,159.7905 Q237.8638,159.9399 237.1582,159.9399 Q234.6514,159.9399 233.3315,158.2881 Q232.0117,156.6362 232.0117,153.5151 Q232.0117,150.3857 233.3315,148.7339 Q234.6514,147.082 237.1582,147.082 Q237.8638,147.082 238.5112,147.2314 Q239.1587,147.3809 239.7231,147.6797 L239.7231,150.4023 Q239.0923,149.8213 238.4988,149.5515 Q237.9053,149.2817 237.2744,149.2817 Q235.9297,149.2817 235.2449,150.3484 Q234.5601,151.415 234.5601,153.5151 Q234.5601,155.6069 235.2449,156.6736 Q235.9297,157.7402 237.2744,157.7402 Q237.9053,157.7402 238.4988,157.4705 Q239.0923,157.2007 239.7231,156.6196 Z " fill="#000000"/><text fill="#000000" font-family="sans-serif" font-size="12" lengthAdjust="spacing" textLength="163" x="257.75" y="157.7344">AssociateResourceController</text><line style="stroke:#A80036;stroke-width:1.5;" x1="54" x2="592" y1="169.1992" y2="169.1992"/><line style="stroke:#A80036;stroke-width:1.5;" x1="54" x2="592" y1="177.1992" y2="177.1992"/><text fill="#000000" font-family="sans-serif" font-size="11" lengthAdjust="spacing" textLength="90" x="59" y="191.834">+getProjectList()</text><text fill="#000000" font-family="sans-serif" font-size="11" lengthAdjust="spacing" textLength="116" x="59" y="204.7891">+getSystemUserList()</text><text fill="#000000" font-family="sans-serif" font-size="11" lengthAdjust="spacing" textLength="528" x="59" y="217.7441">+associateResource(email, projectCode, startDate, endDate, costPerHour, percentageOfAllocation)</text><!--MD5=[02e4b9b7573f1156f41e60aa5b4e25a4]
class Company--><rect codeLine="17" fill="#FEFECE" filter="url(#fsp7f053kphds)" height="73.9102" id="Company" style="stroke:#A80036;stroke-width:1.5;" width="137" x="254.5" y="291.6992"/><ellipse cx="292.45" cy="307.6992" fill="#ADD1B2" rx="11" ry="11" style="stroke:#A80036;stroke-width:1.0;"/><path d="M294.9231,313.8423 Q294.3421,314.1411 293.7029,314.2905 Q293.0638,314.4399 292.3582,314.4399 Q289.8514,314.4399 288.5315,312.7881 Q287.2117,311.1362 287.2117,308.0151 Q287.2117,304.8857 288.5315,303.2339 Q289.8514,301.582 292.3582,301.582 Q293.0638,301.582 293.7112,301.7314 Q294.3587,301.8809 294.9231,302.1797 L294.9231,304.9023 Q294.2923,304.3213 293.6988,304.0515 Q293.1053,303.7817 292.4744,303.7817 Q291.1297,303.7817 290.4449,304.8484 Q289.7601,305.915 289.7601,308.0151 Q289.7601,310.1069 290.4449,311.1736 Q291.1297,312.2402 292.4744,312.2402 Q293.1053,312.2402 293.6988,311.9705 Q294.2923,311.7007 294.9231,311.1196 Z " fill="#000000"/><text fill="#000000" font-family="sans-serif" font-size="12" lengthAdjust="spacing" textLength="54" x="311.55" y="312.2344">Company</text><line style="stroke:#A80036;stroke-width:1.5;" x1="255.5" x2="390.5" y1="323.6992" y2="323.6992"/><line style="stroke:#A80036;stroke-width:1.5;" x1="255.5" x2="390.5" y1="331.6992" y2="331.6992"/><text fill="#000000" font-family="sans-serif" font-size="11" lengthAdjust="spacing" textLength="99" x="260.5" y="346.334">+getProjectStore()</text><text fill="#000000" font-family="sans-serif" font-size="11" lengthAdjust="spacing" textLength="125" x="260.5" y="359.2891">+getSystemUserStore()</text><!--MD5=[0cf43f64de24b70e8ffe65ff9ee7abee]
class ProjectStore--><rect codeLine="22" fill="#FEFECE" filter="url(#fsp7f053kphds)" height="86.8652" id="ProjectStore" style="stroke:#A80036;stroke-width:1.5;" width="386" x="427" y="285.1992"/><ellipse cx="581.25" cy="301.1992" fill="#ADD1B2" rx="11" ry="11" style="stroke:#A80036;stroke-width:1.0;"/><path d="M583.7231,307.3423 Q583.1421,307.6411 582.5029,307.7905 Q581.8638,307.9399 581.1582,307.9399 Q578.6514,307.9399 577.3315,306.2881 Q576.0117,304.6362 576.0117,301.5151 Q576.0117,298.3857 577.3315,296.7339 Q578.6514,295.082 581.1582,295.082 Q581.8638,295.082 582.5112,295.2314 Q583.1587,295.3809 583.7231,295.6797 L583.7231,298.4023 Q583.0923,297.8213 582.4988,297.5515 Q581.9053,297.2817 581.2744,297.2817 Q579.9297,297.2817 579.2449,298.3484 Q578.5601,299.415 578.5601,301.5151 Q578.5601,303.6069 579.2449,304.6736 Q579.9297,305.7402 581.2744,305.7402 Q581.9053,305.7402 582.4988,305.4705 Q583.0923,305.2007 583.7231,304.6196 Z " fill="#000000"/><text fill="#000000" font-family="sans-serif" font-size="12" lengthAdjust="spacing" textLength="69" x="601.75" y="305.7344">ProjectStore</text><line style="stroke:#A80036;stroke-width:1.5;" x1="428" x2="812" y1="317.1992" y2="317.1992"/><line style="stroke:#A80036;stroke-width:1.5;" x1="428" x2="812" y1="325.1992" y2="325.1992"/><text fill="#000000" font-family="sans-serif" font-size="11" lengthAdjust="spacing" textLength="77" x="433" y="339.834">+getProjects()</text><text fill="#000000" font-family="sans-serif" font-size="11" lengthAdjust="spacing" textLength="137" x="433" y="352.7891">+getProjectByCode(code)</text><text fill="#000000" font-family="sans-serif" font-size="11" lengthAdjust="spacing" textLength="374" x="433" y="365.7441">+validateAllocation(user, percentageOfAllocation, startDate, endDate)</text><!--MD5=[79d378210367c0c6ec62ef762ddfbd1b]
class Project--><rect codeLine="28" fill="#FEFECE" filter="url(#fsp7f053kphds)" height="294.1465" id="Project" style="stroke:#A80036;stroke-width:1.5;" width="447" x="644.5" y="449.1992"/><ellipse cx="843.75" cy="465.1992" fill="#ADD1B2" rx="11" ry="11" style="stroke:#A80036;stroke-width:1.0;"/><path d="M846.2231,471.3423 Q845.6421,471.6411 845.0029,471.7905 Q844.3638,471.9399 843.6582,471.9399 Q841.1514,471.9399 839.8315,470.2881 Q838.5117,468.6362 838.5117,465.5151 Q838.5117,462.3857 839.8315,460.7339 Q841.1514,459.082 843.6582,459.082 Q844.3638,459.082 845.0112,459.2314 Q845.6587,459.3809 846.2231,459.6797 L846.2231,462.4023 Q845.5923,461.8213 844.9988,461.5515 Q844.4053,461.2817 843.7744,461.2817 Q842.4297,461.2817 841.7449,462.3484 Q841.0601,463.415 841.0601,465.5151 Q841.0601,467.6069 841.7449,468.6736 Q842.4297,469.7402 843.7744,469.7402 Q844.4053,469.7402 844.9988,469.4705 Q845.5923,469.2007 846.2231,468.6196 Z " fill="#000000"/><text fill="#000000" font-family="sans-serif" font-size="12" lengthAdjust="spacing" textLength="40" x="864.25" y="469.7344">Project</text><line style="stroke:#A80036;stroke-width:1.5;" x1="645.5" x2="1090.5" y1="481.1992" y2="481.1992"/><text fill="#000000" font-family="sans-serif" font-size="11" lengthAdjust="spacing" textLength="67" x="650.5" y="495.834">code : String</text><text fill="#000000" font-family="sans-serif" font-size="11" lengthAdjust="spacing" textLength="109" x="650.5" y="508.7891">projectName : String</text><text fill="#000000" font-family="sans-serif" font-size="11" lengthAdjust="spacing" textLength="102" x="650.5" y="521.7441">description : String</text><text fill="#000000" font-family="sans-serif" font-size="11" lengthAdjust="spacing" textLength="113" x="650.5" y="534.6992">customer : Customer</text><text fill="#000000" font-family="sans-serif" font-size="11" lengthAdjust="spacing" textLength="106" x="650.5" y="547.6543">typology : Typology</text><text fill="#000000" font-family="sans-serif" font-size="11" lengthAdjust="spacing" textLength="150" x="650.5" y="560.6094">projectStatus : ProjectStatus</text><text fill="#000000" font-family="sans-serif" font-size="11" lengthAdjust="spacing" textLength="176" x="650.5" y="573.5645">userStoryStore : ProductBacklog</text><text fill="#000000" font-family="sans-serif" font-size="11" lengthAdjust="spacing" textLength="172" x="650.5" y="586.5195">businessSector : BusinessSector</text><text fill="#000000" font-family="sans-serif" font-size="11" lengthAdjust="spacing" textLength="142" x="650.5" y="599.4746">projectTeam : ProjectTeam</text><text fill="#000000" font-family="sans-serif" font-size="11" lengthAdjust="spacing" textLength="110" x="650.5" y="612.4297">startDate : LocalDate</text><text fill="#000000" font-family="sans-serif" font-size="11" lengthAdjust="spacing" textLength="105" x="650.5" y="625.3848">endDate : LocalDate</text><text fill="#000000" font-family="sans-serif" font-size="11" lengthAdjust="spacing" textLength="116" x="650.5" y="638.3398">numberOfSprints : int</text><text fill="#000000" font-family="sans-serif" font-size="11" lengthAdjust="spacing" textLength="84" x="650.5" y="651.2949">budget : double</text><text fill="#000000" font-family="sans-serif" font-size="11" lengthAdjust="spacing" textLength="102" x="650.5" y="664.25">sprintDuration : int</text><line style="stroke:#A80036;stroke-width:1.5;" x1="645.5" x2="1090.5" y1="670.5703" y2="670.5703"/><text fill="#000000" font-family="sans-serif" font-size="11" lengthAdjust="spacing" textLength="90" x="650.5" y="685.2051">+hasCode(code)</text><text fill="#000000" font-family="sans-serif" font-size="11" lengthAdjust="spacing" textLength="435" x="650.5" y="698.1602">+createResource(user, startDate, endDate, costPerHour, percentageOfAllocation)</text><text fill="#000000" font-family="sans-serif" font-size="11" lengthAdjust="spacing" textLength="135" x="650.5" y="711.1152">+addResource(resource)</text><text fill="#000000" font-family="sans-serif" font-size="11" lengthAdjust="spacing" textLength="153" x="650.5" y="724.0703">-validateResource(resource)</text><text fill="#000000" font-family="sans-serif" font-size="11" lengthAdjust="spacing" textLength="136" x="650.5" y="737.0254">-saveResource(resource)</text><!--MD5=[ea85c9eeae48c9b9754651e25079a913]
class ProjectTeam--><rect codeLine="50" fill="#FEFECE" filter="url(#fsp7f053kphds)" height="60.9551" id="ProjectTeam" style="stroke:#A80036;stroke-width:1.5;" width="144" x="738" y="872.1992"/><ellipse cx="770.55" cy="888.1992" fill="#ADD1B2" rx="11" ry="11" style="stroke:#A80036;stroke-width:1.0;"/><path d="M773.0231,894.3423 Q772.4421,894.6411 771.8029,894.7905 Q771.1638,894.9399 770.4582,894.9399 Q767.9514,894.9399 766.6315,893.2881 Q765.3117,891.6362 765.3117,888.5151 Q765.3117,885.3857 766.6315,883.7339 Q767.9514,882.082 770.4582,882.082 Q771.1638,882.082 771.8112,882.2314 Q772.4587,882.3809 773.0231,882.6797 L773.0231,885.4023 Q772.3923,884.8213 771.7988,884.5515 Q771.2053,884.2817 770.5744,884.2817 Q769.2297,884.2817 768.5449,885.3484 Q767.8601,886.415 767.8601,888.5151 Q767.8601,890.6069 768.5449,891.6736 Q769.2297,892.7402 770.5744,892.7402 Q771.2053,892.7402 771.7988,892.4705 Q772.3923,892.2007 773.0231,891.6196 Z " fill="#000000"/><text fill="#000000" font-family="sans-serif" font-size="12" lengthAdjust="spacing" textLength="73" x="788.45" y="892.7344">ProjectTeam</text><line style="stroke:#A80036;stroke-width:1.5;" x1="739" x2="881" y1="904.1992" y2="904.1992"/><line style="stroke:#A80036;stroke-width:1.5;" x1="739" x2="881" y1="912.1992" y2="912.1992"/><text fill="#000000" font-family="sans-serif" font-size="11" lengthAdjust="spacing" textLength="132" x="744" y="926.834">-addResource(resource)</text><!--MD5=[8787f7db94578849901ee2e9b6146b1d]
class SystemUserStore--><rect codeLine="54" fill="#FEFECE" filter="url(#fsp7f053kphds)" height="73.9102" id="SystemUserStore" style="stroke:#A80036;stroke-width:1.5;" width="139" x="178.5" y="559.1992"/><ellipse cx="198.9" cy="575.1992" fill="#ADD1B2" rx="11" ry="11" style="stroke:#A80036;stroke-width:1.0;"/><path d="M201.3731,581.3423 Q200.7921,581.6411 200.1529,581.7905 Q199.5138,581.9399 198.8082,581.9399 Q196.3014,581.9399 194.9815,580.2881 Q193.6617,578.6362 193.6617,575.5151 Q193.6617,572.3857 194.9815,570.7339 Q196.3014,569.082 198.8082,569.082 Q199.5138,569.082 200.1612,569.2314 Q200.8087,569.3809 201.3731,569.6797 L201.3731,572.4023 Q200.7423,571.8213 200.1488,571.5515 Q199.5553,571.2817 198.9244,571.2817 Q197.5797,571.2817 196.8949,572.3484 Q196.2101,573.415 196.2101,575.5151 Q196.2101,577.6069 196.8949,578.6736 Q197.5797,579.7402 198.9244,579.7402 Q199.5553,579.7402 200.1488,579.4705 Q200.7423,579.2007 201.3731,578.6196 Z " fill="#000000"/><text fill="#000000" font-family="sans-serif" font-size="12" lengthAdjust="spacing" textLength="95" x="214.1" y="579.7344">SystemUserStore</text><line style="stroke:#A80036;stroke-width:1.5;" x1="179.5" x2="316.5" y1="591.1992" y2="591.1992"/><line style="stroke:#A80036;stroke-width:1.5;" x1="179.5" x2="316.5" y1="599.1992" y2="599.1992"/><text fill="#000000" font-family="sans-serif" font-size="11" lengthAdjust="spacing" textLength="103" x="184.5" y="613.834">+getSystemUsers()</text><text fill="#000000" font-family="sans-serif" font-size="11" lengthAdjust="spacing" textLength="127" x="184.5" y="626.7891">+getUserByEmail(email)</text><!--MD5=[bc064d979c32666ae52f3d7624591b7b]
class SystemUser--><rect codeLine="59" fill="#FEFECE" filter="url(#fsp7f053kphds)" height="164.5957" id="SystemUser" style="stroke:#A80036;stroke-width:1.5;" width="496" x="7" y="820.1992"/><ellipse cx="217.75" cy="836.1992" fill="#ADD1B2" rx="11" ry="11" style="stroke:#A80036;stroke-width:1.0;"/><path d="M220.2231,842.3423 Q219.6421,842.6411 219.0029,842.7905 Q218.3638,842.9399 217.6582,842.9399 Q215.1514,842.9399 213.8315,841.2881 Q212.5117,839.6362 212.5117,836.5151 Q212.5117,833.3857 213.8315,831.7339 Q215.1514,830.082 217.6582,830.082 Q218.3638,830.082 219.0112,830.2314 Q219.6587,830.3809 220.2231,830.6797 L220.2231,833.4023 Q219.5923,832.8213 218.9988,832.5515 Q218.4053,832.2817 217.7744,832.2817 Q216.4297,832.2817 215.7449,833.3484 Q215.0601,834.415 215.0601,836.5151 Q215.0601,838.6069 215.7449,839.6736 Q216.4297,840.7402 217.7744,840.7402 Q218.4053,840.7402 218.9988,840.4705 Q219.5923,840.2007 220.2231,839.6196 Z " fill="#000000"/><text fill="#000000" font-family="sans-serif" font-size="12" lengthAdjust="spacing" textLength="66" x="238.25" y="840.7344">SystemUser</text><line style="stroke:#A80036;stroke-width:1.5;" x1="8" x2="502" y1="852.1992" y2="852.1992"/><text fill="#000000" font-family="sans-serif" font-size="11" lengthAdjust="spacing" textLength="94" x="13" y="866.834">username : String</text><text fill="#000000" font-family="sans-serif" font-size="11" lengthAdjust="spacing" textLength="69" x="13" y="879.7891">email : String</text><text fill="#000000" font-family="sans-serif" font-size="11" lengthAdjust="spacing" textLength="73" x="13" y="892.7441">photo : String</text><text fill="#000000" font-family="sans-serif" font-size="11" lengthAdjust="spacing" textLength="93" x="13" y="905.6992">password : String</text><text fill="#000000" font-family="sans-serif" font-size="11" lengthAdjust="spacing" textLength="164" x="13" y="918.6543">passwordConfirmation : String</text><text fill="#000000" font-family="sans-serif" font-size="11" lengthAdjust="spacing" textLength="86" x="13" y="931.6094">function : String</text><text fill="#000000" font-family="sans-serif" font-size="11" lengthAdjust="spacing" textLength="160" x="13" y="944.5645">activateUser : boolean = False</text><line style="stroke:#A80036;stroke-width:1.5;" x1="8" x2="502" y1="950.8848" y2="950.8848"/><text fill="#000000" font-family="sans-serif" font-size="11" lengthAdjust="spacing" textLength="484" x="13" y="965.5195">+SystemUser(username, email, photo, password, passwordConfirmation, function, profile)</text><text fill="#000000" font-family="sans-serif" font-size="11" lengthAdjust="spacing" textLength="108" x="13" y="978.4746">+isYourEmail(email)</text><!--MD5=[6b13f1b330d33795af281e5c1dfe1e98]
class Resource--><rect codeLine="72" fill="#FEFECE" filter="url(#fsp7f053kphds)" height="164.5957" id="Resource" style="stroke:#A80036;stroke-width:1.5;" width="247" x="496.5" y="1062.1992"/><ellipse cx="589.25" cy="1078.1992" fill="#ADD1B2" rx="11" ry="11" style="stroke:#A80036;stroke-width:1.0;"/><path d="M591.7231,1084.3423 Q591.1421,1084.6411 590.5029,1084.7905 Q589.8638,1084.9399 589.1582,1084.9399 Q586.6514,1084.9399 585.3315,1083.2881 Q584.0117,1081.6362 584.0117,1078.5151 Q584.0117,1075.3857 585.3315,1073.7339 Q586.6514,1072.082 589.1582,1072.082 Q589.8638,1072.082 590.5112,1072.2314 Q591.1587,1072.3809 591.7231,1072.6797 L591.7231,1075.4023 Q591.0923,1074.8213 590.4988,1074.5515 Q589.9053,1074.2817 589.2744,1074.2817 Q587.9297,1074.2817 587.2449,1075.3484 Q586.5601,1076.415 586.5601,1078.5151 Q586.5601,1080.6069 587.2449,1081.6736 Q587.9297,1082.7402 589.2744,1082.7402 Q589.9053,1082.7402 590.4988,1082.4705 Q591.0923,1082.2007 591.7231,1081.6196 Z " fill="#000000"/><text fill="#000000" font-family="sans-serif" font-size="12" lengthAdjust="spacing" textLength="53" x="609.75" y="1082.7344">Resource</text><line style="stroke:#A80036;stroke-width:1.5;" x1="497.5" x2="742.5" y1="1094.1992" y2="1094.1992"/><text fill="#000000" font-family="sans-serif" font-size="11" lengthAdjust="spacing" textLength="96" x="502.5" y="1108.834">user : SystemUser</text><text fill="#000000" font-family="sans-serif" font-size="11" lengthAdjust="spacing" textLength="90" x="502.5" y="1121.7891">role : ProjectRole</text><text fill="#000000" font-family="sans-serif" font-size="11" lengthAdjust="spacing" textLength="110" x="502.5" y="1134.7441">startDate : LocalDate</text><text fill="#000000" font-family="sans-serif" font-size="11" lengthAdjust="spacing" textLength="105" x="502.5" y="1147.6992">endDate : LocalDate</text><text fill="#000000" font-family="sans-serif" font-size="11" lengthAdjust="spacing" textLength="113" x="502.5" y="1160.6543">costPerHour : double</text><text fill="#000000" font-family="sans-serif" font-size="11" lengthAdjust="spacing" textLength="173" x="502.5" y="1173.6094">percentageOfAllocation : double</text><line style="stroke:#A80036;stroke-width:1.5;" x1="497.5" x2="742.5" y1="1179.9297" y2="1179.9297"/><text fill="#000000" font-family="sans-serif" font-size="11" lengthAdjust="spacing" textLength="59" x="502.5" y="1194.5645">+getUser()</text><text fill="#000000" font-family="sans-serif" font-size="11" lengthAdjust="spacing" textLength="160" x="502.5" y="1207.5195">+getPercentageOfAllocation()</text><text fill="#000000" font-family="sans-serif" font-size="11" lengthAdjust="spacing" textLength="235" x="502.5" y="1220.4746">+checkAllocationPeriod(startDate, endDate)</text><!--MD5=[13516e16ed144eef80b15c04bf15e44c]
link AssociateResourceUI to AssociateResourceController--><path codeLine="84" d="M323,76.3992 C323,91.9192 323,112.8992 323,131.8992 " fill="none" id="AssociateResourceUI-to-AssociateResourceController" style="stroke:#A80036;stroke-width:1.0;stroke-dasharray:7.0,7.0;"/><polygon fill="#A80036" points="323,137.1992,327,128.1992,323,132.1992,319,128.1992,323,137.1992" style="stroke:#A80036;stroke-width:1.0;"/><!--MD5=[93602f0c3b0278be6d8fb53e1f7a3248]
link AssociateResourceController to Company--><path codeLine="86" d="M323,224.3192 C323,243.8592 323,266.9392 323,286.3292 " fill="none" id="AssociateResourceController-to-Company" style="stroke:#A80036;stroke-width:1.0;stroke-dasharray:7.0,7.0;"/><polygon fill="#A80036" points="323,291.6892,327,282.6892,323,286.6892,319,282.6892,323,291.6892" style="stroke:#A80036;stroke-width:1.0;"/><!--MD5=[3cae3d6ff71a6999abd783a4d722f995]
link AssociateResourceController to ProjectStore--><path codeLine="87" d="M409.7,224.3192 C447.13,242.7192 490.94,264.2592 528.85,282.8892 " fill="none" id="AssociateResourceController-to-ProjectStore" style="stroke:#A80036;stroke-width:1.0;stroke-dasharray:7.0,7.0;"/><polygon fill="#A80036" points="533.45,285.1492,527.1309,277.5948,528.9608,282.9475,523.6082,284.7775,533.45,285.1492" style="stroke:#A80036;stroke-width:1.0;"/><!--MD5=[cd3861ef7c2a3882a19661d9c4cdea2a]
link AssociateResourceController to SystemUserStore--><path codeLine="88" d="M276.1,224.4192 C260.54,241.5992 245.14,262.6792 237,285.1992 C203.99,376.5892 222.97,493.1392 237.06,553.9992 " fill="none" id="AssociateResourceController-to-SystemUserStore" style="stroke:#A80036;stroke-width:1.0;stroke-dasharray:7.0,7.0;"/><polygon fill="#A80036" points="238.23,558.9892,240.0623,549.3123,237.0848,554.1221,232.275,551.1446,238.23,558.9892" style="stroke:#A80036;stroke-width:1.0;"/><!--MD5=[223b1d932c2fbbeadc382f1ce7bdc986]
link SystemUserStore to SystemUser--><path codeLine="89" d="M247.32,633.4892 C246.76,672.2892 246.29,735.6092 248,790.1992 C248.25,798.2292 248.61,806.5692 249.02,814.9292 " fill="none" id="SystemUserStore-to-SystemUser" style="stroke:#A80036;stroke-width:1.0;stroke-dasharray:7.0,7.0;"/><polygon fill="#A80036" points="249.29,820.1292,252.8487,810.9458,249.0474,815.1351,244.8581,811.3339,249.29,820.1292" style="stroke:#A80036;stroke-width:1.0;"/><!--MD5=[7758a2d24f0b1a5b8a5ff338858e9484]
reverse link SystemUserStore to SystemUser--><path codeLine="96" d="M249.13,646.4592 C250.21,693.3492 251.85,764.7892 253.13,820.1692 " fill="none" id="SystemUserStore-backto-SystemUser" style="stroke:#A80036;stroke-width:1.0;"/><polygon fill="#A80036" points="248.83,633.3292,244.9695,639.4199,249.1068,645.326,252.9674,639.2353,248.83,633.3292" style="stroke:#A80036;stroke-width:1.0;"/><text fill="#000000" font-family="sans-serif" font-size="13" lengthAdjust="spacing" textLength="22" x="254" y="786.7676">has</text><text fill="#000000" font-family="sans-serif" font-size="13" lengthAdjust="spacing" textLength="8" x="240.2852" y="653.6028">1</text><text fill="#000000" font-family="sans-serif" font-size="13" lengthAdjust="spacing" textLength="22" x="229.9435" y="809.4709">0..*</text><!--MD5=[626cc0adcc6c3eabfe261ec19000087f]
link ProjectStore to Project--><path codeLine="90" d="M659.85,372.3592 C678.9,392.7592 702.97,418.5292 727.93,445.2392 " fill="none" id="ProjectStore-to-Project" style="stroke:#A80036;stroke-width:1.0;stroke-dasharray:7.0,7.0;"/><polygon fill="#A80036" points="731.62,449.1892,728.4021,439.8809,728.2079,445.5344,722.5544,445.3403,731.62,449.1892" style="stroke:#A80036;stroke-width:1.0;"/><!--MD5=[098a7972f1e1a3bcd9610c7c1309bebc]
link ProjectStore to Resource--><path codeLine="91" d="M620,372.3192 C620,500.4292 620,883.8892 620,1057.0892 " fill="none" id="ProjectStore-to-Resource" style="stroke:#A80036;stroke-width:1.0;stroke-dasharray:7.0,7.0;"/><polygon fill="#A80036" points="620,1062.1592,624,1053.1592,620,1057.1592,616,1053.1592,620,1062.1592" style="stroke:#A80036;stroke-width:1.0;"/><!--MD5=[9953a814c058dd671fcf1ab36e7beb34]
link Project to ProjectTeam--><path codeLine="92" d="M837.69,743.5892 C835.73,753.5992 833.81,763.5392 832,773.1992 C826.05,804.8992 819.9,841.1192 815.63,867.0092 " fill="none" id="Project-to-ProjectTeam" style="stroke:#A80036;stroke-width:1.0;stroke-dasharray:7.0,7.0;"/><polygon fill="#A80036" points="814.8,872.0492,820.2097,863.8191,815.6127,867.1157,812.3161,862.5187,814.8,872.0492" style="stroke:#A80036;stroke-width:1.0;"/><!--MD5=[352310352512ea7c8ebcd3b871b8d730]
reverse link Project to ProjectTeam--><path codeLine="97" d="M837.73,756.0892 C829.25,800.6392 820.91,844.4192 815.63,872.1592 " fill="none" id="Project-backto-ProjectTeam" style="stroke:#A80036;stroke-width:1.0;"/><polygon fill="#A80036" points="840.19,743.2092,835.1396,748.3564,837.9483,754.998,842.9987,749.8508,840.19,743.2092" style="stroke:#A80036;stroke-width:1.0;"/><text fill="#000000" font-family="sans-serif" font-size="13" lengthAdjust="spacing" textLength="22" x="834" y="786.7676">has</text><text fill="#000000" font-family="sans-serif" font-size="13" lengthAdjust="spacing" textLength="8" x="830.5498" y="763.7487">1</text><text fill="#000000" font-family="sans-serif" font-size="13" lengthAdjust="spacing" textLength="8" x="807.9866" y="861.4452">1</text><!--MD5=[8b399b28c903131df3378f5fe4d26a41]
reverse link Company to SystemUserStore--><path codeLine="95" d="M309.24,378.3892 C294.48,430.6492 271.38,512.4392 258.17,559.1992 " fill="none" id="Company-backto-SystemUserStore" style="stroke:#A80036;stroke-width:1.0;"/><polygon fill="#FFFFFF" points="312.81,365.7792,307.3318,370.4685,309.5534,377.3289,315.0316,372.6396,312.81,365.7792" style="stroke:#A80036;stroke-width:1.0;"/><text fill="#000000" font-family="sans-serif" font-size="13" lengthAdjust="spacing" textLength="22" x="302" y="415.7676">has</text><text fill="#000000" font-family="sans-serif" font-size="13" lengthAdjust="spacing" textLength="8" x="302.3711" y="386.0442">1</text><text fill="#000000" font-family="sans-serif" font-size="13" lengthAdjust="spacing" textLength="8" x="251.3462" y="548.3229">1</text><!--MD5=[12ab16047cb79fbb7abfb3b5c3592b87]
reverse link ProjectTeam to Resource--><path codeLine="98" d="M778.14,943.9492 C752.69,976.0892 716.2,1022.1892 684.68,1061.9992 " fill="none" id="ProjectTeam-backto-Resource" style="stroke:#A80036;stroke-width:1.0;"/><polygon fill="#A80036" points="786.32,933.6092,779.4601,935.8322,778.8736,943.0194,785.7335,940.7964,786.32,933.6092" style="stroke:#A80036;stroke-width:1.0;"/><text fill="#000000" font-family="sans-serif" font-size="13" lengthAdjust="spacing" textLength="22" x="721" y="1028.7676">has</text><text fill="#000000" font-family="sans-serif" font-size="13" lengthAdjust="spacing" textLength="8" x="772.8705" y="953.7745">1</text><text fill="#000000" font-family="sans-serif" font-size="13" lengthAdjust="spacing" textLength="22" x="667.4609" y="1051.566">0..*</text><!--MD5=[0ba2a2f19cd4730613a419e17de1aa3e]
@startuml
'https://plantuml.com/class-diagram

'hide circle
skinparam classAttributeIconSize 0

title US007 - As Director, I want to associate a human resource (user) to a project

class AssociateResourceUI {
}

class AssociateResourceController {
    +getProjectList()
    +getSystemUserList()
    +associateResource(email, projectCode, startDate, endDate, costPerHour, percentageOfAllocation)
}

class Company {
    +getProjectStore()
    +getSystemUserStore()
}

class ProjectStore {
+getProjects()
+getProjectByCode(code)
+validateAllocation(user, percentageOfAllocation, startDate, endDate)
}

class Project {
code : String
projectName : String
description : String
customer : Customer
typology : Typology
projectStatus : ProjectStatus
userStoryStore : ProductBacklog
businessSector : BusinessSector
projectTeam : ProjectTeam
startDate : LocalDate
endDate : LocalDate
numberOfSprints : int
budget : double
sprintDuration : int
+hasCode(code)
+createResource(user, startDate, endDate, costPerHour, percentageOfAllocation)
+addResource(resource)
-validateResource(resource)
-saveResource(resource)
}

class ProjectTeam {
-addResource(resource)
}

class SystemUserStore {
+getSystemUsers()
+getUserByEmail(email)
}

class SystemUser {
username : String
email : String
photo : String
password : String
passwordConfirmation : String
function : String
activateUser : boolean = False
+SystemUser(username, email, photo, password, passwordConfirmation, function, profile)
+isYourEmail(email)
}


class Resource {
user : SystemUser
role : ProjectRole
startDate : LocalDate
endDate : LocalDate
costPerHour : double
percentageOfAllocation : double
+getUser()
+getPercentageOfAllocation()
+checkAllocationPeriod(startDate, endDate)
}

AssociateResourceUI ..> AssociateResourceController

AssociateResourceController ..> Company
AssociateResourceController ..> ProjectStore
AssociateResourceController ..> SystemUserStore
SystemUserStore ..> SystemUser
ProjectStore ..> Project
ProjectStore ..> Resource
Project ..> ProjectTeam


Company "1" o- - "1" SystemUserStore: has
SystemUserStore "1" *- - "0..*" SystemUser: has
Project "1" *- - "1" ProjectTeam: has
ProjectTeam "1" *- - "0..*" Resource: has


@enduml

@startuml

skinparam classAttributeIconSize 0

title US007 - As Director, I want to associate a human resource (user) to a project

class AssociateResourceUI {
}

class AssociateResourceController {
    +getProjectList()
    +getSystemUserList()
    +associateResource(email, projectCode, startDate, endDate, costPerHour, percentageOfAllocation)
}

class Company {
    +getProjectStore()
    +getSystemUserStore()
}

class ProjectStore {
+getProjects()
+getProjectByCode(code)
+validateAllocation(user, percentageOfAllocation, startDate, endDate)
}

class Project {
code : String
projectName : String
description : String
customer : Customer
typology : Typology
projectStatus : ProjectStatus
userStoryStore : ProductBacklog
businessSector : BusinessSector
projectTeam : ProjectTeam
startDate : LocalDate
endDate : LocalDate
numberOfSprints : int
budget : double
sprintDuration : int
+hasCode(code)
+createResource(user, startDate, endDate, costPerHour, percentageOfAllocation)
+addResource(resource)
-validateResource(resource)
-saveResource(resource)
}

class ProjectTeam {
-addResource(resource)
}

class SystemUserStore {
+getSystemUsers()
+getUserByEmail(email)
}

class SystemUser {
username : String
email : String
photo : String
password : String
passwordConfirmation : String
function : String
activateUser : boolean = False
+SystemUser(username, email, photo, password, passwordConfirmation, function, profile)
+isYourEmail(email)
}


class Resource {
user : SystemUser
role : ProjectRole
startDate : LocalDate
endDate : LocalDate
costPerHour : double
percentageOfAllocation : double
+getUser()
+getPercentageOfAllocation()
+checkAllocationPeriod(startDate, endDate)
}

AssociateResourceUI ..> AssociateResourceController

AssociateResourceController ..> Company
AssociateResourceController ..> ProjectStore
AssociateResourceController ..> SystemUserStore
SystemUserStore ..> SystemUser
ProjectStore ..> Project
ProjectStore ..> Resource
Project ..> ProjectTeam


Company "1" o- - "1" SystemUserStore: has
SystemUserStore "1" *- - "0..*" SystemUser: has
Project "1" *- - "1" ProjectTeam: has
ProjectTeam "1" *- - "0..*" Resource: has


@enduml

PlantUML version 1.2022.0(Tue Jan 11 16:16:42 WET 2022)
(GPL source distribution)
Java Runtime: OpenJDK Runtime Environment
JVM: OpenJDK 64-Bit Server VM
Default Encoding: UTF-8
Language: pt
Country: PT
--></g></svg>