<?xml version="1.0" encoding="UTF-8" standalone="no"?><svg xmlns="http://www.w3.org/2000/svg" xmlns:xlink="http://www.w3.org/1999/xlink" contentScriptType="application/ecmascript" contentStyleType="text/css" height="761px" preserveAspectRatio="none" style="width:1260px;height:761px;background:#FFFFFF;" version="1.1" viewBox="0 0 1260 761" width="1260px" zoomAndPan="magnify"><defs><filter height="300%" id="fnz5hy7m0wcrd" width="300%" x="-1" y="-1"><feGaussianBlur result="blurOut" stdDeviation="2.0"/><feColorMatrix in="blurOut" result="blurOut2" type="matrix" values="0 0 0 0 0 0 0 0 0 0 0 0 0 0 0 0 0 0 .4 0"/><feOffset dx="4.0" dy="4.0" in="blurOut2" result="blurOut3"/><feBlend in="SourceGraphic" in2="blurOut3" mode="normal"/></filter></defs><g><text fill="#000000" font-family="sans-serif" font-size="18" lengthAdjust="spacing" textLength="544" x="355.5" y="30.6855">US027 - As Director, I want to define the Product Owner of a project.</text><rect fill="#FFFFFF" filter="url(#fnz5hy7m0wcrd)" height="530.8828" style="stroke:#A80036;stroke-width:1.0;" width="10" x="28" y="136.25"/><rect fill="#FFFFFF" filter="url(#fnz5hy7m0wcrd)" height="499.5313" style="stroke:#A80036;stroke-width:1.0;" width="10" x="206" y="158.6016"/><rect fill="#FFFFFF" filter="url(#fnz5hy7m0wcrd)" height="331.5156" style="stroke:#A80036;stroke-width:1.0;" width="10" x="411" y="188.9531"/><rect fill="#FFFFFF" filter="url(#fnz5hy7m0wcrd)" height="30.3516" style="stroke:#A80036;stroke-width:1.0;" width="10" x="572" y="219.3047"/><rect fill="#FFFFFF" filter="url(#fnz5hy7m0wcrd)" height="210.1094" style="stroke:#A80036;stroke-width:1.0;" width="10" x="702" y="280.0078"/><rect fill="#FFFFFF" filter="url(#fnz5hy7m0wcrd)" height="149.4063" style="stroke:#A80036;stroke-width:1.0;" width="10" x="883" y="310.3594"/><rect fill="#FFFFFF" filter="url(#fnz5hy7m0wcrd)" height="41.3516" style="stroke:#A80036;stroke-width:1.0;" width="10" x="888" y="374.0625"/><rect fill="#FFFFFF" filter="url(#fnz5hy7m0wcrd)" height="105.0547" style="stroke:#000000;stroke-width:2.0;" width="185" x="833" y="325.3594"/><line style="stroke:#A80036;stroke-width:1.0;stroke-dasharray:5.0,5.0;" x1="33" x2="33" y1="126.25" y2="676.1328"/><line style="stroke:#A80036;stroke-width:1.0;stroke-dasharray:5.0,5.0;" x1="211" x2="211" y1="126.25" y2="676.1328"/><line style="stroke:#A80036;stroke-width:1.0;stroke-dasharray:5.0,5.0;" x1="416" x2="416" y1="126.25" y2="676.1328"/><line style="stroke:#A80036;stroke-width:1.0;stroke-dasharray:5.0,5.0;" x1="577" x2="577" y1="126.25" y2="676.1328"/><line style="stroke:#A80036;stroke-width:1.0;stroke-dasharray:5.0,5.0;" x1="707" x2="707" y1="126.25" y2="676.1328"/><line style="stroke:#A80036;stroke-width:1.0;stroke-dasharray:5.0,5.0;" x1="888" x2="888" y1="126.25" y2="676.1328"/><line style="stroke:#A80036;stroke-width:1.0;stroke-dasharray:5.0,5.0;" x1="1009.5" x2="1009.5" y1="126.25" y2="676.1328"/><line style="stroke:#A80036;stroke-width:1.0;stroke-dasharray:5.0,5.0;" x1="1173" x2="1173" y1="561.7734" y2="676.1328"/><text fill="#000000" font-family="sans-serif" font-size="14" lengthAdjust="spacing" textLength="50" x="5" y="123.1738">Director</text><ellipse cx="33" cy="51.6406" fill="#FEFECE" filter="url(#fnz5hy7m0wcrd)" rx="8" ry="8" style="stroke:#A80036;stroke-width:2.0;"/><path d="M33,59.6406 L33,86.6406 M20,67.6406 L46,67.6406 M33,86.6406 L20,101.6406 M33,86.6406 L46,101.6406 " fill="none" filter="url(#fnz5hy7m0wcrd)" style="stroke:#A80036;stroke-width:2.0;"/><text fill="#000000" font-family="sans-serif" font-size="14" lengthAdjust="spacing" textLength="50" x="5" y="689.666">Director</text><ellipse cx="33" cy="702.7422" fill="#FEFECE" filter="url(#fnz5hy7m0wcrd)" rx="8" ry="8" style="stroke:#A80036;stroke-width:2.0;"/><path d="M33,710.7422 L33,737.7422 M20,718.7422 L46,718.7422 M33,737.7422 L20,752.7422 M33,737.7422 L46,752.7422 " fill="none" filter="url(#fnz5hy7m0wcrd)" style="stroke:#A80036;stroke-width:2.0;"/><rect fill="#FEFECE" filter="url(#fnz5hy7m0wcrd)" height="31.6094" style="stroke:#A80036;stroke-width:1.5;" width="166" x="126" y="89.6406"/><text fill="#000000" font-family="sans-serif" font-size="14" lengthAdjust="spacing" textLength="152" x="133" y="111.1738">: AssignProductOwnerUI</text><rect fill="#FEFECE" filter="url(#fnz5hy7m0wcrd)" height="31.6094" style="stroke:#A80036;stroke-width:1.5;" width="166" x="126" y="675.1328"/><text fill="#000000" font-family="sans-serif" font-size="14" lengthAdjust="spacing" textLength="152" x="133" y="696.666">: AssignProductOwnerUI</text><rect fill="#FEFECE" filter="url(#fnz5hy7m0wcrd)" height="31.6094" style="stroke:#A80036;stroke-width:1.5;" width="216" x="306" y="89.6406"/><text fill="#000000" font-family="sans-serif" font-size="14" lengthAdjust="spacing" textLength="202" x="313" y="111.1738">: AssignProductOwnerController</text><rect fill="#FEFECE" filter="url(#fnz5hy7m0wcrd)" height="31.6094" style="stroke:#A80036;stroke-width:1.5;" width="216" x="306" y="675.1328"/><text fill="#000000" font-family="sans-serif" font-size="14" lengthAdjust="spacing" textLength="202" x="313" y="696.666">: AssignProductOwnerController</text><rect fill="#FEFECE" filter="url(#fnz5hy7m0wcrd)" height="31.6094" style="stroke:#A80036;stroke-width:1.5;" width="78" x="536" y="89.6406"/><text fill="#000000" font-family="sans-serif" font-size="14" lengthAdjust="spacing" textLength="64" x="543" y="111.1738">:Company</text><rect fill="#FEFECE" filter="url(#fnz5hy7m0wcrd)" height="31.6094" style="stroke:#A80036;stroke-width:1.5;" width="78" x="536" y="675.1328"/><text fill="#000000" font-family="sans-serif" font-size="14" lengthAdjust="spacing" textLength="64" x="543" y="696.666">:Company</text><rect fill="#FEFECE" filter="url(#fnz5hy7m0wcrd)" height="31.6094" style="stroke:#A80036;stroke-width:1.5;" width="154" x="628" y="89.6406"/><text fill="#000000" font-family="sans-serif" font-size="14" lengthAdjust="spacing" textLength="140" x="635" y="111.1738">projStore:ProjectStore</text><rect fill="#FEFECE" filter="url(#fnz5hy7m0wcrd)" height="31.6094" style="stroke:#A80036;stroke-width:1.5;" width="154" x="628" y="675.1328"/><text fill="#000000" font-family="sans-serif" font-size="14" lengthAdjust="spacing" textLength="140" x="635" y="696.666">projStore:ProjectStore</text><rect fill="#FEFECE" filter="url(#fnz5hy7m0wcrd)" height="31.6094" style="stroke:#A80036;stroke-width:1.5;" width="86" x="843" y="89.6406"/><text fill="#000000" font-family="sans-serif" font-size="14" lengthAdjust="spacing" textLength="72" x="850" y="111.1738">proj:Project</text><rect fill="#FEFECE" filter="url(#fnz5hy7m0wcrd)" height="31.6094" style="stroke:#A80036;stroke-width:1.5;" width="86" x="843" y="675.1328"/><text fill="#000000" font-family="sans-serif" font-size="14" lengthAdjust="spacing" textLength="72" x="850" y="696.666">proj:Project</text><rect fill="#FEFECE" filter="url(#fnz5hy7m0wcrd)" height="31.6094" style="stroke:#A80036;stroke-width:1.5;" width="113" x="951.5" y="89.6406"/><text fill="#000000" font-family="sans-serif" font-size="14" lengthAdjust="spacing" textLength="99" x="958.5" y="111.1738">ProjectsMapper</text><rect fill="#FEFECE" filter="url(#fnz5hy7m0wcrd)" height="31.6094" style="stroke:#A80036;stroke-width:1.5;" width="113" x="951.5" y="675.1328"/><text fill="#000000" font-family="sans-serif" font-size="14" lengthAdjust="spacing" textLength="99" x="958.5" y="696.666">ProjectsMapper</text><rect fill="#FEFECE" filter="url(#fnz5hy7m0wcrd)" height="31.6094" style="stroke:#A80036;stroke-width:1.5;" width="150" x="1096" y="675.1328"/><text fill="#000000" font-family="sans-serif" font-size="14" lengthAdjust="spacing" textLength="136" x="1103" y="696.666">projDTO: ProjectDTO</text><rect fill="#FFFFFF" filter="url(#fnz5hy7m0wcrd)" height="530.8828" style="stroke:#A80036;stroke-width:1.0;" width="10" x="28" y="136.25"/><rect fill="#FFFFFF" filter="url(#fnz5hy7m0wcrd)" height="499.5313" style="stroke:#A80036;stroke-width:1.0;" width="10" x="206" y="158.6016"/><rect fill="#FFFFFF" filter="url(#fnz5hy7m0wcrd)" height="331.5156" style="stroke:#A80036;stroke-width:1.0;" width="10" x="411" y="188.9531"/><rect fill="#FFFFFF" filter="url(#fnz5hy7m0wcrd)" height="30.3516" style="stroke:#A80036;stroke-width:1.0;" width="10" x="572" y="219.3047"/><rect fill="#FFFFFF" filter="url(#fnz5hy7m0wcrd)" height="210.1094" style="stroke:#A80036;stroke-width:1.0;" width="10" x="702" y="280.0078"/><rect fill="#FFFFFF" filter="url(#fnz5hy7m0wcrd)" height="149.4063" style="stroke:#A80036;stroke-width:1.0;" width="10" x="883" y="310.3594"/><rect fill="#FFFFFF" filter="url(#fnz5hy7m0wcrd)" height="41.3516" style="stroke:#A80036;stroke-width:1.0;" width="10" x="888" y="374.0625"/><polygon fill="#A80036" points="194,154.6016,204,158.6016,194,162.6016,198,158.6016" style="stroke:#A80036;stroke-width:1.0;"/><line style="stroke:#A80036;stroke-width:1.0;" x1="38" x2="200" y1="158.6016" y2="158.6016"/><text fill="#000000" font-family="sans-serif" font-size="13" font-weight="bold" lengthAdjust="spacing" textLength="7" x="45" y="153.7451">1</text><text fill="#000000" font-family="sans-serif" font-size="13" lengthAdjust="spacing" textLength="138" x="56" y="153.7451">Ask to access a project</text><polygon fill="#A80036" points="399,184.9531,409,188.9531,399,192.9531,403,188.9531" style="stroke:#A80036;stroke-width:1.0;"/><line style="stroke:#A80036;stroke-width:1.0;" x1="216" x2="405" y1="188.9531" y2="188.9531"/><text fill="#000000" font-family="sans-serif" font-size="13" font-weight="bold" lengthAdjust="spacing" textLength="7" x="223" y="184.0967">2</text><text fill="#000000" font-family="sans-serif" font-size="13" lengthAdjust="spacing" textLength="95" x="234" y="184.0967">getProject(code)</text><polygon fill="#A80036" points="560,215.3047,570,219.3047,560,223.3047,564,219.3047" style="stroke:#A80036;stroke-width:1.0;"/><line style="stroke:#A80036;stroke-width:1.0;" x1="421" x2="566" y1="219.3047" y2="219.3047"/><text fill="#000000" font-family="sans-serif" font-size="13" font-weight="bold" lengthAdjust="spacing" textLength="7" x="428" y="214.4482">3</text><text fill="#000000" font-family="sans-serif" font-size="13" lengthAdjust="spacing" textLength="98" x="439" y="214.4482">getProjectStore()</text><polygon fill="#A80036" points="432,245.6563,422,249.6563,432,253.6563,428,249.6563" style="stroke:#A80036;stroke-width:1.0;"/><line style="stroke:#A80036;stroke-width:1.0;stroke-dasharray:2.0,2.0;" x1="426" x2="576" y1="249.6563" y2="249.6563"/><text fill="#000000" font-family="sans-serif" font-size="13" font-weight="bold" lengthAdjust="spacing" textLength="7" x="438" y="244.7998">4</text><text fill="#000000" font-family="sans-serif" font-size="13" lengthAdjust="spacing" textLength="52" x="449" y="244.7998">projStore</text><polygon fill="#A80036" points="690,276.0078,700,280.0078,690,284.0078,694,280.0078" style="stroke:#A80036;stroke-width:1.0;"/><line style="stroke:#A80036;stroke-width:1.0;" x1="421" x2="696" y1="280.0078" y2="280.0078"/><text fill="#000000" font-family="sans-serif" font-size="13" font-weight="bold" lengthAdjust="spacing" textLength="7" x="428" y="275.1514">5</text><text fill="#000000" font-family="sans-serif" font-size="13" lengthAdjust="spacing" textLength="95" x="439" y="275.1514">getProject(code)</text><polygon fill="#A80036" points="871,306.3594,881,310.3594,871,314.3594,875,310.3594" style="stroke:#A80036;stroke-width:1.0;"/><line style="stroke:#A80036;stroke-width:1.0;" x1="712" x2="877" y1="310.3594" y2="310.3594"/><text fill="#000000" font-family="sans-serif" font-size="13" font-weight="bold" lengthAdjust="spacing" textLength="7" x="719" y="305.5029">6</text><text fill="#000000" font-family="sans-serif" font-size="13" lengthAdjust="spacing" textLength="141" x="730" y="305.5029">getProjectByCode(code)</text><path d="M833,325.3594 L906,325.3594 L906,333.3594 L896,343.3594 L833,343.3594 L833,325.3594 " fill="#EEEEEE" style="stroke:#000000;stroke-width:1.0;"/><rect fill="none" height="105.0547" style="stroke:#000000;stroke-width:2.0;" width="185" x="833" y="325.3594"/><text fill="#000000" font-family="sans-serif" font-size="13" font-weight="bold" lengthAdjust="spacing" textLength="28" x="848" y="339.8545">loop</text><text fill="#000000" font-family="sans-serif" font-size="11" font-weight="bold" lengthAdjust="spacing" textLength="92" x="921" y="338.7783">[hasCode(code)]</text><line style="stroke:#A80036;stroke-width:1.0;" x1="893" x2="940" y1="361.0625" y2="361.0625"/><line style="stroke:#A80036;stroke-width:1.0;" x1="940" x2="940" y1="361.0625" y2="374.0625"/><line style="stroke:#A80036;stroke-width:1.0;" x1="899" x2="940" y1="374.0625" y2="374.0625"/><polygon fill="#A80036" points="909,370.0625,899,374.0625,909,378.0625,905,374.0625" style="stroke:#A80036;stroke-width:1.0;"/><text fill="#000000" font-family="sans-serif" font-size="13" font-weight="bold" lengthAdjust="spacing" textLength="7" x="905" y="356.2061">7</text><text fill="#000000" font-family="sans-serif" font-size="13" lengthAdjust="spacing" textLength="87" x="916" y="356.2061">hasCode(code)</text><line style="stroke:#A80036;stroke-width:1.0;stroke-dasharray:2.0,2.0;" x1="898" x2="940" y1="414.4141" y2="414.4141"/><line style="stroke:#A80036;stroke-width:1.0;stroke-dasharray:2.0,2.0;" x1="940" x2="940" y1="414.4141" y2="427.4141"/><line style="stroke:#A80036;stroke-width:1.0;stroke-dasharray:2.0,2.0;" x1="893" x2="940" y1="427.4141" y2="427.4141"/><polygon fill="#A80036" points="903,423.4141,893,427.4141,903,431.4141,899,427.4141" style="stroke:#A80036;stroke-width:1.0;"/><text fill="#000000" font-family="sans-serif" font-size="13" font-weight="bold" lengthAdjust="spacing" textLength="7" x="905" y="409.5576">8</text><text fill="#000000" font-family="sans-serif" font-size="13" lengthAdjust="spacing" textLength="22" x="916" y="409.5576">true</text><polygon fill="#A80036" points="723,455.7656,713,459.7656,723,463.7656,719,459.7656" style="stroke:#A80036;stroke-width:1.0;"/><line style="stroke:#A80036;stroke-width:1.0;stroke-dasharray:2.0,2.0;" x1="717" x2="887" y1="459.7656" y2="459.7656"/><text fill="#000000" font-family="sans-serif" font-size="13" font-weight="bold" lengthAdjust="spacing" textLength="7" x="729" y="454.9092">9</text><text fill="#000000" font-family="sans-serif" font-size="13" lengthAdjust="spacing" textLength="21" x="740" y="454.9092">proj</text><polygon fill="#A80036" points="432,486.1172,422,490.1172,432,494.1172,428,490.1172" style="stroke:#A80036;stroke-width:1.0;"/><line style="stroke:#A80036;stroke-width:1.0;stroke-dasharray:2.0,2.0;" x1="426" x2="706" y1="490.1172" y2="490.1172"/><text fill="#000000" font-family="sans-serif" font-size="13" font-weight="bold" lengthAdjust="spacing" textLength="14" x="438" y="485.2607">10</text><text fill="#000000" font-family="sans-serif" font-size="13" lengthAdjust="spacing" textLength="21" x="456" y="485.2607">proj</text><polygon fill="#A80036" points="998,516.4688,1008,520.4688,998,524.4688,1002,520.4688" style="stroke:#A80036;stroke-width:1.0;"/><line style="stroke:#A80036;stroke-width:1.0;stroke-dasharray:2.0,2.0;" x1="416" x2="1004" y1="520.4688" y2="520.4688"/><text fill="#000000" font-family="sans-serif" font-size="13" font-weight="bold" lengthAdjust="spacing" textLength="14" x="423" y="515.6123">11</text><text fill="#000000" font-family="sans-serif" font-size="13" lengthAdjust="spacing" textLength="66" x="441" y="515.6123">toDTO(proj)</text><polygon fill="#A80036" points="1084,546.8203,1094,550.8203,1084,554.8203,1088,550.8203" style="stroke:#A80036;stroke-width:1.0;"/><line style="stroke:#A80036;stroke-width:1.0;stroke-dasharray:2.0,2.0;" x1="1010" x2="1090" y1="550.8203" y2="550.8203"/><text fill="#000000" font-family="sans-serif" font-size="13" font-weight="bold" lengthAdjust="spacing" textLength="14" x="1017" y="545.9639">12</text><text fill="#000000" font-family="sans-serif" font-size="13" lengthAdjust="spacing" textLength="44" x="1035" y="545.9639">create()</text><rect fill="#FEFECE" filter="url(#fnz5hy7m0wcrd)" height="31.6094" style="stroke:#A80036;stroke-width:1.5;" width="150" x="1096" y="528.4688"/><text fill="#000000" font-family="sans-serif" font-size="14" lengthAdjust="spacing" textLength="136" x="1103" y="550.002">projDTO: ProjectDTO</text><polygon fill="#A80036" points="427,593.4297,417,597.4297,427,601.4297,423,597.4297" style="stroke:#A80036;stroke-width:1.0;"/><line style="stroke:#A80036;stroke-width:1.0;stroke-dasharray:2.0,2.0;" x1="421" x2="1009" y1="597.4297" y2="597.4297"/><text fill="#000000" font-family="sans-serif" font-size="13" font-weight="bold" lengthAdjust="spacing" textLength="14" x="433" y="592.5732">13</text><text fill="#000000" font-family="sans-serif" font-size="13" lengthAdjust="spacing" textLength="47" x="451" y="592.5732">projDTO</text><polygon fill="#A80036" points="227,623.7813,217,627.7813,227,631.7813,223,627.7813" style="stroke:#A80036;stroke-width:1.0;"/><line style="stroke:#A80036;stroke-width:1.0;stroke-dasharray:2.0,2.0;" x1="221" x2="415" y1="627.7813" y2="627.7813"/><text fill="#000000" font-family="sans-serif" font-size="13" font-weight="bold" lengthAdjust="spacing" textLength="14" x="233" y="622.9248">14</text><text fill="#000000" font-family="sans-serif" font-size="13" lengthAdjust="spacing" textLength="47" x="251" y="622.9248">projDTO</text><polygon fill="#A80036" points="49,654.1328,39,658.1328,49,662.1328,45,658.1328" style="stroke:#A80036;stroke-width:1.0;"/><line style="stroke:#A80036;stroke-width:1.0;stroke-dasharray:2.0,2.0;" x1="43" x2="210" y1="658.1328" y2="658.1328"/><text fill="#000000" font-family="sans-serif" font-size="13" font-weight="bold" lengthAdjust="spacing" textLength="14" x="55" y="653.2764">15</text><text fill="#000000" font-family="sans-serif" font-size="13" lengthAdjust="spacing" textLength="47" x="73" y="653.2764">projDTO</text><!--MD5=[29539c23a7cee195d91696ad7f321b4f]
@startuml

title "US027 - As Director, I want to define the Product Owner of a project."

autoactivate on
autonumber

actor "Director" as Director
participant ": AssignProductOwnerUI" as UI
participant ": AssignProductOwnerController" as Controller
participant ":Company" as Company
participant "projStore:ProjectStore" as ProjectStore
participant "proj:Project" as Project
participant "ProjectsMapper" as ProjectsMapper
participant "projDTO: ProjectDTO" as ProjectDTO


activate Director

Director -> UI: Ask to access a project
UI -> Controller: getProject(code)
Controller -> Company: getProjectStore()
return projStore
Controller -> ProjectStore: getProject(code)
ProjectStore -> Project:getProjectByCode(code)
    loop hasCode(code)
        Project -> Project: hasCode(code)
        return true
    end
return proj
return proj
Controller - -> ProjectsMapper: toDTO(proj)
ProjectsMapper - -> ProjectDTO**: create()
deactivate ProjectsMapper
ProjectsMapper - -> Controller: projDTO
Controller - -> UI: projDTO
UI - -> Director: projDTO

@enduml

PlantUML version 1.2022.0(Tue Jan 11 16:16:42 GMT 2022)
(GPL source distribution)
Java Runtime: OpenJDK Runtime Environment
JVM: OpenJDK 64-Bit Server VM
Default Encoding: Cp1252
Language: pt
Country: PT
--></g></svg>