<?xml version="1.0" encoding="UTF-8" standalone="no"?><svg xmlns="http://www.w3.org/2000/svg" xmlns:xlink="http://www.w3.org/1999/xlink" contentScriptType="application/ecmascript" contentStyleType="text/css" height="675px" preserveAspectRatio="none" style="width:1618px;height:675px;background:#FFFFFF;" version="1.1" viewBox="0 0 1618 675" width="1618px" zoomAndPan="magnify"><defs><filter height="300%" id="f1vf2o66wyu2re" width="300%" x="-1" y="-1"><feGaussianBlur result="blurOut" stdDeviation="2.0"/><feColorMatrix in="blurOut" result="blurOut2" type="matrix" values="0 0 0 0 0 0 0 0 0 0 0 0 0 0 0 0 0 0 .4 0"/><feOffset dx="4.0" dy="4.0" in="blurOut2" result="blurOut3"/><feBlend in="SourceGraphic" in2="blurOut3" mode="normal"/></filter></defs><g><text fill="#000000" font-family="sans-serif" font-size="18" lengthAdjust="spacing" textLength="544" x="534.75" y="30.6855">US027 - As Director, I want to define the Product Owner of a project.</text><rect fill="#FFFFFF" filter="url(#f1vf2o66wyu2re)" height="444.1797" style="stroke:#A80036;stroke-width:1.0;" width="10" x="28" y="136.25"/><rect fill="#FFFFFF" filter="url(#f1vf2o66wyu2re)" height="412.8281" style="stroke:#A80036;stroke-width:1.0;" width="10" x="206" y="158.6016"/><rect fill="#FFFFFF" filter="url(#f1vf2o66wyu2re)" height="352.125" style="stroke:#A80036;stroke-width:1.0;" width="10" x="411" y="188.9531"/><rect fill="#FFFFFF" filter="url(#f1vf2o66wyu2re)" height="30.3516" style="stroke:#A80036;stroke-width:1.0;" width="10" x="572" y="219.3047"/><rect fill="#FFFFFF" filter="url(#f1vf2o66wyu2re)" height="123.4063" style="stroke:#A80036;stroke-width:1.0;" width="10" x="702" y="280.0078"/><rect fill="#FFFFFF" filter="url(#f1vf2o66wyu2re)" height="30.3516" style="stroke:#A80036;stroke-width:1.0;" width="10" x="836" y="335.7109"/><rect fill="#FFFFFF" filter="url(#f1vf2o66wyu2re)" height="76.9609" style="stroke:#A80036;stroke-width:1.0;" width="10" x="949.5" y="433.7656"/><rect fill="#FFFFFF" filter="url(#f1vf2o66wyu2re)" height="79.0547" style="stroke:#000000;stroke-width:2.0;" width="278" x="618" y="295.0078"/><line style="stroke:#A80036;stroke-width:1.0;stroke-dasharray:5.0,5.0;" x1="33" x2="33" y1="126.25" y2="589.4297"/><line style="stroke:#A80036;stroke-width:1.0;stroke-dasharray:5.0,5.0;" x1="211" x2="211" y1="126.25" y2="589.4297"/><line style="stroke:#A80036;stroke-width:1.0;stroke-dasharray:5.0,5.0;" x1="416" x2="416" y1="126.25" y2="589.4297"/><line style="stroke:#A80036;stroke-width:1.0;stroke-dasharray:5.0,5.0;" x1="577" x2="577" y1="126.25" y2="589.4297"/><line style="stroke:#A80036;stroke-width:1.0;stroke-dasharray:5.0,5.0;" x1="707" x2="707" y1="126.25" y2="589.4297"/><line style="stroke:#A80036;stroke-width:1.0;stroke-dasharray:5.0,5.0;" x1="841" x2="841" y1="126.25" y2="589.4297"/><line style="stroke:#A80036;stroke-width:1.0;stroke-dasharray:5.0,5.0;" x1="954" x2="954" y1="126.25" y2="589.4297"/><line style="stroke:#A80036;stroke-width:1.0;stroke-dasharray:5.0,5.0;" x1="1531.5" x2="1531.5" y1="475.0703" y2="589.4297"/><text fill="#000000" font-family="sans-serif" font-size="14" lengthAdjust="spacing" textLength="50" x="5" y="123.1738">Director</text><ellipse cx="33" cy="51.6406" fill="#FEFECE" filter="url(#f1vf2o66wyu2re)" rx="8" ry="8" style="stroke:#A80036;stroke-width:2.0;"/><path d="M33,59.6406 L33,86.6406 M20,67.6406 L46,67.6406 M33,86.6406 L20,101.6406 M33,86.6406 L46,101.6406 " fill="none" filter="url(#f1vf2o66wyu2re)" style="stroke:#A80036;stroke-width:2.0;"/><text fill="#000000" font-family="sans-serif" font-size="14" lengthAdjust="spacing" textLength="50" x="5" y="602.9629">Director</text><ellipse cx="33" cy="616.0391" fill="#FEFECE" filter="url(#f1vf2o66wyu2re)" rx="8" ry="8" style="stroke:#A80036;stroke-width:2.0;"/><path d="M33,624.0391 L33,651.0391 M20,632.0391 L46,632.0391 M33,651.0391 L20,666.0391 M33,651.0391 L46,666.0391 " fill="none" filter="url(#f1vf2o66wyu2re)" style="stroke:#A80036;stroke-width:2.0;"/><rect fill="#FEFECE" filter="url(#f1vf2o66wyu2re)" height="31.6094" style="stroke:#A80036;stroke-width:1.5;" width="166" x="126" y="89.6406"/><text fill="#000000" font-family="sans-serif" font-size="14" lengthAdjust="spacing" textLength="152" x="133" y="111.1738">: AssignProductOwnerUI</text><rect fill="#FEFECE" filter="url(#f1vf2o66wyu2re)" height="31.6094" style="stroke:#A80036;stroke-width:1.5;" width="166" x="126" y="588.4297"/><text fill="#000000" font-family="sans-serif" font-size="14" lengthAdjust="spacing" textLength="152" x="133" y="609.9629">: AssignProductOwnerUI</text><rect fill="#FEFECE" filter="url(#f1vf2o66wyu2re)" height="31.6094" style="stroke:#A80036;stroke-width:1.5;" width="216" x="306" y="89.6406"/><text fill="#000000" font-family="sans-serif" font-size="14" lengthAdjust="spacing" textLength="202" x="313" y="111.1738">: AssignProductOwnerController</text><rect fill="#FEFECE" filter="url(#f1vf2o66wyu2re)" height="31.6094" style="stroke:#A80036;stroke-width:1.5;" width="216" x="306" y="588.4297"/><text fill="#000000" font-family="sans-serif" font-size="14" lengthAdjust="spacing" textLength="202" x="313" y="609.9629">: AssignProductOwnerController</text><rect fill="#FEFECE" filter="url(#f1vf2o66wyu2re)" height="31.6094" style="stroke:#A80036;stroke-width:1.5;" width="78" x="536" y="89.6406"/><text fill="#000000" font-family="sans-serif" font-size="14" lengthAdjust="spacing" textLength="64" x="543" y="111.1738">:Company</text><rect fill="#FEFECE" filter="url(#f1vf2o66wyu2re)" height="31.6094" style="stroke:#A80036;stroke-width:1.5;" width="78" x="536" y="588.4297"/><text fill="#000000" font-family="sans-serif" font-size="14" lengthAdjust="spacing" textLength="64" x="543" y="609.9629">:Company</text><rect fill="#FEFECE" filter="url(#f1vf2o66wyu2re)" height="31.6094" style="stroke:#A80036;stroke-width:1.5;" width="154" x="628" y="89.6406"/><text fill="#000000" font-family="sans-serif" font-size="14" lengthAdjust="spacing" textLength="140" x="635" y="111.1738">projStore:ProjectStore</text><rect fill="#FEFECE" filter="url(#f1vf2o66wyu2re)" height="31.6094" style="stroke:#A80036;stroke-width:1.5;" width="154" x="628" y="588.4297"/><text fill="#000000" font-family="sans-serif" font-size="14" lengthAdjust="spacing" textLength="140" x="635" y="609.9629">projStore:ProjectStore</text><rect fill="#FEFECE" filter="url(#f1vf2o66wyu2re)" height="31.6094" style="stroke:#A80036;stroke-width:1.5;" width="86" x="796" y="89.6406"/><text fill="#000000" font-family="sans-serif" font-size="14" lengthAdjust="spacing" textLength="72" x="803" y="111.1738">proj:Project</text><rect fill="#FEFECE" filter="url(#f1vf2o66wyu2re)" height="31.6094" style="stroke:#A80036;stroke-width:1.5;" width="86" x="796" y="588.4297"/><text fill="#000000" font-family="sans-serif" font-size="14" lengthAdjust="spacing" textLength="72" x="803" y="609.9629">proj:Project</text><rect fill="#FEFECE" filter="url(#f1vf2o66wyu2re)" height="31.6094" style="stroke:#A80036;stroke-width:1.5;" width="113" x="896" y="89.6406"/><text fill="#000000" font-family="sans-serif" font-size="14" lengthAdjust="spacing" textLength="99" x="903" y="111.1738">ProjectsMapper</text><rect fill="#FEFECE" filter="url(#f1vf2o66wyu2re)" height="31.6094" style="stroke:#A80036;stroke-width:1.5;" width="113" x="896" y="588.4297"/><text fill="#000000" font-family="sans-serif" font-size="14" lengthAdjust="spacing" textLength="99" x="903" y="609.9629">ProjectsMapper</text><rect fill="#FEFECE" filter="url(#f1vf2o66wyu2re)" height="31.6094" style="stroke:#A80036;stroke-width:1.5;" width="150" x="1454.5" y="588.4297"/><text fill="#000000" font-family="sans-serif" font-size="14" lengthAdjust="spacing" textLength="136" x="1461.5" y="609.9629">projDTO: ProjectDTO</text><rect fill="#FFFFFF" filter="url(#f1vf2o66wyu2re)" height="444.1797" style="stroke:#A80036;stroke-width:1.0;" width="10" x="28" y="136.25"/><rect fill="#FFFFFF" filter="url(#f1vf2o66wyu2re)" height="412.8281" style="stroke:#A80036;stroke-width:1.0;" width="10" x="206" y="158.6016"/><rect fill="#FFFFFF" filter="url(#f1vf2o66wyu2re)" height="352.125" style="stroke:#A80036;stroke-width:1.0;" width="10" x="411" y="188.9531"/><rect fill="#FFFFFF" filter="url(#f1vf2o66wyu2re)" height="30.3516" style="stroke:#A80036;stroke-width:1.0;" width="10" x="572" y="219.3047"/><rect fill="#FFFFFF" filter="url(#f1vf2o66wyu2re)" height="123.4063" style="stroke:#A80036;stroke-width:1.0;" width="10" x="702" y="280.0078"/><rect fill="#FFFFFF" filter="url(#f1vf2o66wyu2re)" height="30.3516" style="stroke:#A80036;stroke-width:1.0;" width="10" x="836" y="335.7109"/><rect fill="#FFFFFF" filter="url(#f1vf2o66wyu2re)" height="76.9609" style="stroke:#A80036;stroke-width:1.0;" width="10" x="949.5" y="433.7656"/><polygon fill="#A80036" points="194,154.6016,204,158.6016,194,162.6016,198,158.6016" style="stroke:#A80036;stroke-width:1.0;"/><line style="stroke:#A80036;stroke-width:1.0;" x1="38" x2="200" y1="158.6016" y2="158.6016"/><text fill="#000000" font-family="sans-serif" font-size="13" font-weight="bold" lengthAdjust="spacing" textLength="7" x="45" y="153.7451">1</text><text fill="#000000" font-family="sans-serif" font-size="13" lengthAdjust="spacing" textLength="138" x="56" y="153.7451">Ask to access a project</text><polygon fill="#A80036" points="399,184.9531,409,188.9531,399,192.9531,403,188.9531" style="stroke:#A80036;stroke-width:1.0;"/><line style="stroke:#A80036;stroke-width:1.0;" x1="216" x2="405" y1="188.9531" y2="188.9531"/><text fill="#000000" font-family="sans-serif" font-size="13" font-weight="bold" lengthAdjust="spacing" textLength="7" x="223" y="184.0967">2</text><text fill="#000000" font-family="sans-serif" font-size="13" lengthAdjust="spacing" textLength="95" x="234" y="184.0967">getProject(code)</text><polygon fill="#A80036" points="560,215.3047,570,219.3047,560,223.3047,564,219.3047" style="stroke:#A80036;stroke-width:1.0;"/><line style="stroke:#A80036;stroke-width:1.0;" x1="421" x2="566" y1="219.3047" y2="219.3047"/><text fill="#000000" font-family="sans-serif" font-size="13" font-weight="bold" lengthAdjust="spacing" textLength="7" x="428" y="214.4482">3</text><text fill="#000000" font-family="sans-serif" font-size="13" lengthAdjust="spacing" textLength="98" x="439" y="214.4482">getProjectStore()</text><polygon fill="#A80036" points="432,245.6563,422,249.6563,432,253.6563,428,249.6563" style="stroke:#A80036;stroke-width:1.0;"/><line style="stroke:#A80036;stroke-width:1.0;stroke-dasharray:2.0,2.0;" x1="426" x2="576" y1="249.6563" y2="249.6563"/><text fill="#000000" font-family="sans-serif" font-size="13" font-weight="bold" lengthAdjust="spacing" textLength="7" x="438" y="244.7998">4</text><text fill="#000000" font-family="sans-serif" font-size="13" lengthAdjust="spacing" textLength="52" x="449" y="244.7998">projStore</text><polygon fill="#A80036" points="690,276.0078,700,280.0078,690,284.0078,694,280.0078" style="stroke:#A80036;stroke-width:1.0;"/><line style="stroke:#A80036;stroke-width:1.0;" x1="421" x2="696" y1="280.0078" y2="280.0078"/><text fill="#000000" font-family="sans-serif" font-size="13" font-weight="bold" lengthAdjust="spacing" textLength="7" x="428" y="275.1514">5</text><text fill="#000000" font-family="sans-serif" font-size="13" lengthAdjust="spacing" textLength="141" x="439" y="275.1514">getProjectByCode(code)</text><path d="M618,295.0078 L691,295.0078 L691,303.0078 L681,313.0078 L618,313.0078 L618,295.0078 " fill="#EEEEEE" style="stroke:#000000;stroke-width:1.0;"/><rect fill="none" height="79.0547" style="stroke:#000000;stroke-width:2.0;" width="278" x="618" y="295.0078"/><text fill="#000000" font-family="sans-serif" font-size="13" font-weight="bold" lengthAdjust="spacing" textLength="28" x="633" y="309.5029">loop</text><text fill="#000000" font-family="sans-serif" font-size="11" font-weight="bold" lengthAdjust="spacing" textLength="92" x="706" y="308.4268">[hasCode(code)]</text><polygon fill="#A80036" points="824,331.7109,834,335.7109,824,339.7109,828,335.7109" style="stroke:#A80036;stroke-width:1.0;"/><line style="stroke:#A80036;stroke-width:1.0;" x1="712" x2="830" y1="335.7109" y2="335.7109"/><text fill="#000000" font-family="sans-serif" font-size="13" font-weight="bold" lengthAdjust="spacing" textLength="7" x="719" y="330.8545">6</text><text fill="#000000" font-family="sans-serif" font-size="13" lengthAdjust="spacing" textLength="87" x="730" y="330.8545">hasCode(code)</text><polygon fill="#A80036" points="723,362.0625,713,366.0625,723,370.0625,719,366.0625" style="stroke:#A80036;stroke-width:1.0;"/><line style="stroke:#A80036;stroke-width:1.0;stroke-dasharray:2.0,2.0;" x1="717" x2="840" y1="366.0625" y2="366.0625"/><text fill="#000000" font-family="sans-serif" font-size="13" font-weight="bold" lengthAdjust="spacing" textLength="7" x="729" y="361.2061">7</text><text fill="#000000" font-family="sans-serif" font-size="13" lengthAdjust="spacing" textLength="22" x="740" y="361.2061">true</text><polygon fill="#A80036" points="432,399.4141,422,403.4141,432,407.4141,428,403.4141" style="stroke:#A80036;stroke-width:1.0;"/><line style="stroke:#A80036;stroke-width:1.0;stroke-dasharray:2.0,2.0;" x1="426" x2="706" y1="403.4141" y2="403.4141"/><text fill="#000000" font-family="sans-serif" font-size="13" font-weight="bold" lengthAdjust="spacing" textLength="7" x="438" y="398.5576">8</text><text fill="#000000" font-family="sans-serif" font-size="13" lengthAdjust="spacing" textLength="21" x="449" y="398.5576">proj</text><polygon fill="#A80036" points="937.5,429.7656,947.5,433.7656,937.5,437.7656,941.5,433.7656" style="stroke:#A80036;stroke-width:1.0;"/><line style="stroke:#A80036;stroke-width:1.0;" x1="421" x2="943.5" y1="433.7656" y2="433.7656"/><text fill="#000000" font-family="sans-serif" font-size="13" font-weight="bold" lengthAdjust="spacing" textLength="7" x="428" y="428.9092">9</text><text fill="#000000" font-family="sans-serif" font-size="13" lengthAdjust="spacing" textLength="66" x="439" y="428.9092">toDTO(proj)</text><polygon fill="#A80036" points="1442.5,460.1172,1452.5,464.1172,1442.5,468.1172,1446.5,464.1172" style="stroke:#A80036;stroke-width:1.0;"/><line style="stroke:#A80036;stroke-width:1.0;stroke-dasharray:2.0,2.0;" x1="959.5" x2="1448.5" y1="464.1172" y2="464.1172"/><text fill="#000000" font-family="sans-serif" font-size="13" font-weight="bold" lengthAdjust="spacing" textLength="14" x="966.5" y="459.2607">10</text><text fill="#000000" font-family="sans-serif" font-size="13" lengthAdjust="spacing" textLength="453" x="984.5" y="459.2607">ProjectDTO(String code, String projectName, String startDate, String endDate)</text><rect fill="#FEFECE" filter="url(#f1vf2o66wyu2re)" height="31.6094" style="stroke:#A80036;stroke-width:1.5;" width="150" x="1454.5" y="441.7656"/><text fill="#000000" font-family="sans-serif" font-size="14" lengthAdjust="spacing" textLength="136" x="1461.5" y="463.2988">projDTO: ProjectDTO</text><polygon fill="#A80036" points="432,506.7266,422,510.7266,432,514.7266,428,510.7266" style="stroke:#A80036;stroke-width:1.0;"/><line style="stroke:#A80036;stroke-width:1.0;stroke-dasharray:2.0,2.0;" x1="426" x2="953.5" y1="510.7266" y2="510.7266"/><text fill="#000000" font-family="sans-serif" font-size="13" font-weight="bold" lengthAdjust="spacing" textLength="14" x="438" y="505.8701">11</text><text fill="#000000" font-family="sans-serif" font-size="13" lengthAdjust="spacing" textLength="47" x="456" y="505.8701">projDTO</text><polygon fill="#A80036" points="227,537.0781,217,541.0781,227,545.0781,223,541.0781" style="stroke:#A80036;stroke-width:1.0;"/><line style="stroke:#A80036;stroke-width:1.0;stroke-dasharray:2.0,2.0;" x1="221" x2="415" y1="541.0781" y2="541.0781"/><text fill="#000000" font-family="sans-serif" font-size="13" font-weight="bold" lengthAdjust="spacing" textLength="14" x="233" y="536.2217">12</text><text fill="#000000" font-family="sans-serif" font-size="13" lengthAdjust="spacing" textLength="47" x="251" y="536.2217">projDTO</text><polygon fill="#A80036" points="49,567.4297,39,571.4297,49,575.4297,45,571.4297" style="stroke:#A80036;stroke-width:1.0;"/><line style="stroke:#A80036;stroke-width:1.0;stroke-dasharray:2.0,2.0;" x1="43" x2="210" y1="571.4297" y2="571.4297"/><text fill="#000000" font-family="sans-serif" font-size="13" font-weight="bold" lengthAdjust="spacing" textLength="14" x="55" y="566.5732">13</text><text fill="#000000" font-family="sans-serif" font-size="13" lengthAdjust="spacing" textLength="47" x="73" y="566.5732">projDTO</text><!--MD5=[2fed81d1932fd8c90c0a231885e85d30]
@startuml

title "US027 - As Director, I want to define the Product Owner of a project."

autoactivate on
autonumber

actor "Director" as Director
participant ": AssignProductOwnerUI" as UI
participant ": AssignProductOwnerController" as Controller
participant ":Company" as Company
participant "projStore:ProjectStore" as ProjectStore
participant "proj:Project" as Project
participant "ProjectsMapper" as ProjectsMapper
participant "projDTO: ProjectDTO" as ProjectDTO


activate Director

Director -> UI: Ask to access a project
UI -> Controller: getProject(code)
Controller -> Company: getProjectStore()
return projStore
Controller -> ProjectStore: getProjectByCode(code)
    loop hasCode(code)
        ProjectStore -> Project: hasCode(code)
        return true
    end
return proj
Controller -> ProjectsMapper: toDTO(proj)
ProjectsMapper - -> ProjectDTO**: ProjectDTO(String code, String projectName, String startDate, String endDate)
deactivate ProjectDTO
ProjectsMapper - -> Controller: projDTO
Controller - -> UI: projDTO
UI - -> Director: projDTO

@enduml

PlantUML version 1.2022.0(Tue Jan 11 16:16:42 GMT 2022)
(GPL source distribution)
Java Runtime: OpenJDK Runtime Environment
JVM: OpenJDK 64-Bit Server VM
Default Encoding: Cp1252
Language: pt
Country: PT
--></g></svg>