<?xml version="1.0" encoding="UTF-8" standalone="no"?><svg xmlns="http://www.w3.org/2000/svg" xmlns:xlink="http://www.w3.org/1999/xlink" contentScriptType="application/ecmascript" contentStyleType="text/css" height="1932px" preserveAspectRatio="none" style="width:2473px;height:1932px;background:#FFFFFF;" version="1.1" viewBox="0 0 2473 1932" width="2473px" zoomAndPan="magnify"><defs><filter height="300%" id="fflzz7paz9fi1" width="300%" x="-1" y="-1"><feGaussianBlur result="blurOut" stdDeviation="2.0"/><feColorMatrix in="blurOut" result="blurOut2" type="matrix" values="0 0 0 0 0 0 0 0 0 0 0 0 0 0 0 0 0 0 .4 0"/><feOffset dx="4.0" dy="4.0" in="blurOut2" result="blurOut3"/><feBlend in="SourceGraphic" in2="blurOut3" mode="normal"/></filter></defs><g><text fill="#000000" font-family="sans-serif" font-size="18" lengthAdjust="spacing" textLength="544" x="962.75" y="30.6855">US027 - As Director, I want to define the Product Owner of a project.</text><rect fill="#FFFFFF" filter="url(#fflzz7paz9fi1)" height="1701.4844" style="stroke:#A80036;stroke-width:1.0;" width="10" x="28" y="136.25"/><rect fill="#FFFFFF" filter="url(#fflzz7paz9fi1)" height="78.0547" style="stroke:#A80036;stroke-width:1.0;" width="10" x="274" y="158.6016"/><rect fill="#FFFFFF" filter="url(#fflzz7paz9fi1)" height="78.0547" style="stroke:#A80036;stroke-width:1.0;" width="10" x="274" y="267.0078"/><rect fill="#FFFFFF" filter="url(#fflzz7paz9fi1)" height="1453.3203" style="stroke:#A80036;stroke-width:1.0;" width="10" x="274" y="375.4141"/><rect fill="#FFFFFF" filter="url(#fflzz7paz9fi1)" height="1360.2656" style="stroke:#A80036;stroke-width:1.0;" width="10" x="533" y="431.1172"/><rect fill="#FFFFFF" filter="url(#fflzz7paz9fi1)" height="30.3516" style="stroke:#A80036;stroke-width:1.0;" width="10" x="704" y="797.3359"/><rect fill="#FFFFFF" filter="url(#fflzz7paz9fi1)" height="30.3516" style="stroke:#A80036;stroke-width:1.0;" width="10" x="815.5" y="461.4688"/><rect fill="#FFFFFF" filter="url(#fflzz7paz9fi1)" height="30.3516" style="stroke:#A80036;stroke-width:1.0;" width="10" x="815.5" y="736.6328"/><rect fill="#FFFFFF" filter="url(#fflzz7paz9fi1)" height="123.4063" style="stroke:#A80036;stroke-width:1.0;" width="10" x="957" y="522.1719"/><rect fill="#FFFFFF" filter="url(#fflzz7paz9fi1)" height="30.3516" style="stroke:#A80036;stroke-width:1.0;" width="10" x="1114.5" y="577.875"/><rect fill="#FFFFFF" filter="url(#fflzz7paz9fi1)" height="30.3516" style="stroke:#A80036;stroke-width:1.0;" width="10" x="1114.5" y="675.9297"/><rect fill="#FFFFFF" filter="url(#fflzz7paz9fi1)" height="30.3516" style="stroke:#A80036;stroke-width:1.0;" width="10" x="1320.5" y="858.0391"/><rect fill="#FFFFFF" filter="url(#fflzz7paz9fi1)" height="809.9375" style="stroke:#A80036;stroke-width:1.0;" width="10" x="1546.5" y="944.0938"/><rect fill="#FFFFFF" filter="url(#fflzz7paz9fi1)" height="28" style="stroke:#A80036;stroke-width:1.0;" width="10" x="1551.5" y="1594.9766"/><rect fill="#FFFFFF" filter="url(#fflzz7paz9fi1)" height="41.3516" style="stroke:#A80036;stroke-width:1.0;" width="10" x="1551.5" y="1675.3281"/><rect fill="#FFFFFF" filter="url(#fflzz7paz9fi1)" height="236.1094" style="stroke:#A80036;stroke-width:1.0;" width="10" x="2051.5" y="999.7969"/><rect fill="#FFFFFF" filter="url(#fflzz7paz9fi1)" height="41.3516" style="stroke:#A80036;stroke-width:1.0;" width="10" x="2056.5" y="1063.5"/><rect fill="#FFFFFF" filter="url(#fflzz7paz9fi1)" height="41.3516" style="stroke:#A80036;stroke-width:1.0;" width="10" x="2056.5" y="1150.2031"/><rect fill="#FFFFFF" filter="url(#fflzz7paz9fi1)" height="258.0156" style="stroke:#A80036;stroke-width:1.0;" width="10" x="2051.5" y="1273.2578"/><rect fill="#FFFFFF" filter="url(#fflzz7paz9fi1)" height="30" style="stroke:#A80036;stroke-width:1.0;" width="10" x="2056.5" y="1470.9219"/><rect fill="#FFFFFF" filter="url(#fflzz7paz9fi1)" height="30" style="stroke:#A80036;stroke-width:1.0;" width="10" x="2346" y="1350.2188"/><rect fill="#FFFFFF" filter="url(#fflzz7paz9fi1)" height="30" style="stroke:#A80036;stroke-width:1.0;" width="10" x="2346" y="1410.5703"/><rect fill="#FFFFFF" filter="url(#fflzz7paz9fi1)" height="1408.9688" style="stroke:#000000;stroke-width:2.0;" width="2275.5" x="184" y="390.4141"/><rect fill="#FFFFFF" filter="url(#fflzz7paz9fi1)" height="79.0547" style="stroke:#000000;stroke-width:2.0;" width="325" x="879" y="537.1719"/><rect fill="#FFFFFF" filter="url(#fflzz7paz9fi1)" height="858.6406" style="stroke:#000000;stroke-width:2.0;" width="2031.5" x="418" y="903.3906"/><rect fill="#FFFFFF" filter="url(#fflzz7paz9fi1)" height="284.8125" style="stroke:#000000;stroke-width:2.0;" width="863" x="1447" y="959.0938"/><rect fill="#FFFFFF" filter="url(#fflzz7paz9fi1)" height="191.7578" style="stroke:#000000;stroke-width:2.0;" width="327" x="1973" y="1014.7969"/><rect fill="#FFFFFF" filter="url(#fflzz7paz9fi1)" height="91.7031" style="stroke:#000000;stroke-width:2.0;" width="480.5" x="1447" y="1546.2734"/><line style="stroke:#A80036;stroke-width:1.0;stroke-dasharray:5.0,5.0;" x1="33" x2="33" y1="126.25" y2="1846.7344"/><line style="stroke:#A80036;stroke-width:1.0;stroke-dasharray:5.0,5.0;" x1="279" x2="279" y1="126.25" y2="1846.7344"/><line style="stroke:#A80036;stroke-width:1.0;stroke-dasharray:5.0,5.0;" x1="538" x2="538" y1="126.25" y2="1846.7344"/><line style="stroke:#A80036;stroke-width:1.0;stroke-dasharray:5.0,5.0;" x1="709" x2="709" y1="126.25" y2="1846.7344"/><line style="stroke:#A80036;stroke-width:1.0;stroke-dasharray:5.0,5.0;" x1="820" x2="820" y1="126.25" y2="1846.7344"/><line style="stroke:#A80036;stroke-width:1.0;stroke-dasharray:5.0,5.0;" x1="962" x2="962" y1="126.25" y2="1846.7344"/><line style="stroke:#A80036;stroke-width:1.0;stroke-dasharray:5.0,5.0;" x1="1119" x2="1119" y1="126.25" y2="1846.7344"/><line style="stroke:#A80036;stroke-width:1.0;stroke-dasharray:5.0,5.0;" x1="1325" x2="1325" y1="126.25" y2="1846.7344"/><line style="stroke:#A80036;stroke-width:1.0;stroke-dasharray:5.0,5.0;" x1="1551" x2="1551" y1="126.25" y2="1846.7344"/><line style="stroke:#A80036;stroke-width:1.0;stroke-dasharray:5.0,5.0;" x1="2056" x2="2056" y1="126.25" y2="1846.7344"/><line style="stroke:#A80036;stroke-width:1.0;stroke-dasharray:5.0,5.0;" x1="2350.5" x2="2350.5" y1="1314.5625" y2="1846.7344"/><text fill="#000000" font-family="sans-serif" font-size="14" lengthAdjust="spacing" textLength="50" x="5" y="123.1738">Director</text><ellipse cx="33" cy="51.6406" fill="#FEFECE" filter="url(#fflzz7paz9fi1)" rx="8" ry="8" style="stroke:#A80036;stroke-width:2.0;"/><path d="M33,59.6406 L33,86.6406 M20,67.6406 L46,67.6406 M33,86.6406 L20,101.6406 M33,86.6406 L46,101.6406 " fill="none" filter="url(#fflzz7paz9fi1)" style="stroke:#A80036;stroke-width:2.0;"/><text fill="#000000" font-family="sans-serif" font-size="14" lengthAdjust="spacing" textLength="50" x="5" y="1860.2676">Director</text><ellipse cx="33" cy="1873.3438" fill="#FEFECE" filter="url(#fflzz7paz9fi1)" rx="8" ry="8" style="stroke:#A80036;stroke-width:2.0;"/><path d="M33,1881.3438 L33,1908.3438 M20,1889.3438 L46,1889.3438 M33,1908.3438 L20,1923.3438 M33,1908.3438 L46,1923.3438 " fill="none" filter="url(#fflzz7paz9fi1)" style="stroke:#A80036;stroke-width:2.0;"/><rect fill="#FEFECE" filter="url(#fflzz7paz9fi1)" height="31.6094" style="stroke:#A80036;stroke-width:1.5;" width="166" x="194" y="89.6406"/><text fill="#000000" font-family="sans-serif" font-size="14" lengthAdjust="spacing" textLength="152" x="201" y="111.1738">: AssignProductOwnerUI</text><rect fill="#FEFECE" filter="url(#fflzz7paz9fi1)" height="31.6094" style="stroke:#A80036;stroke-width:1.5;" width="166" x="194" y="1845.7344"/><text fill="#000000" font-family="sans-serif" font-size="14" lengthAdjust="spacing" textLength="152" x="201" y="1867.2676">: AssignProductOwnerUI</text><rect fill="#FEFECE" filter="url(#fflzz7paz9fi1)" height="31.6094" style="stroke:#A80036;stroke-width:1.5;" width="216" x="428" y="89.6406"/><text fill="#000000" font-family="sans-serif" font-size="14" lengthAdjust="spacing" textLength="202" x="435" y="111.1738">: AssignProductOwnerController</text><rect fill="#FEFECE" filter="url(#fflzz7paz9fi1)" height="31.6094" style="stroke:#A80036;stroke-width:1.5;" width="216" x="428" y="1845.7344"/><text fill="#000000" font-family="sans-serif" font-size="14" lengthAdjust="spacing" textLength="202" x="435" y="1867.2676">: AssignProductOwnerController</text><rect fill="#FEFECE" filter="url(#fflzz7paz9fi1)" height="31.6094" style="stroke:#A80036;stroke-width:1.5;" width="82" x="666" y="89.6406"/><text fill="#000000" font-family="sans-serif" font-size="14" lengthAdjust="spacing" textLength="68" x="673" y="111.1738">: Company</text><rect fill="#FEFECE" filter="url(#fflzz7paz9fi1)" height="31.6094" style="stroke:#A80036;stroke-width:1.5;" width="82" x="666" y="1845.7344"/><text fill="#000000" font-family="sans-serif" font-size="14" lengthAdjust="spacing" textLength="68" x="673" y="1867.2676">: Company</text><rect fill="#FEFECE" filter="url(#fflzz7paz9fi1)" height="31.6094" style="stroke:#A80036;stroke-width:1.5;" width="113" x="762" y="89.6406"/><text fill="#000000" font-family="sans-serif" font-size="14" lengthAdjust="spacing" textLength="99" x="769" y="111.1738">project : Project</text><rect fill="#FEFECE" filter="url(#fflzz7paz9fi1)" height="31.6094" style="stroke:#A80036;stroke-width:1.5;" width="113" x="762" y="1845.7344"/><text fill="#000000" font-family="sans-serif" font-size="14" lengthAdjust="spacing" textLength="99" x="769" y="1867.2676">project : Project</text><rect fill="#FEFECE" filter="url(#fflzz7paz9fi1)" height="31.6094" style="stroke:#A80036;stroke-width:1.5;" width="142" x="889" y="89.6406"/><text fill="#000000" font-family="sans-serif" font-size="14" lengthAdjust="spacing" textLength="128" x="896" y="111.1738">sprintList : SprintList</text><rect fill="#FEFECE" filter="url(#fflzz7paz9fi1)" height="31.6094" style="stroke:#A80036;stroke-width:1.5;" width="142" x="889" y="1845.7344"/><text fill="#000000" font-family="sans-serif" font-size="14" lengthAdjust="spacing" textLength="128" x="896" y="1867.2676">sprintList : SprintList</text><rect fill="#FEFECE" filter="url(#fflzz7paz9fi1)" height="31.6094" style="stroke:#A80036;stroke-width:1.5;" width="145" x="1045" y="89.6406"/><text fill="#000000" font-family="sans-serif" font-size="14" lengthAdjust="spacing" textLength="131" x="1052" y="111.1738">currentSprint : Sprint</text><rect fill="#FEFECE" filter="url(#fflzz7paz9fi1)" height="31.6094" style="stroke:#A80036;stroke-width:1.5;" width="145" x="1045" y="1845.7344"/><text fill="#000000" font-family="sans-serif" font-size="14" lengthAdjust="spacing" textLength="131" x="1052" y="1867.2676">currentSprint : Sprint</text><rect fill="#FEFECE" filter="url(#fflzz7paz9fi1)" height="31.6094" style="stroke:#A80036;stroke-width:1.5;" width="239" x="1204" y="89.6406"/><text fill="#000000" font-family="sans-serif" font-size="14" lengthAdjust="spacing" textLength="225" x="1211" y="111.1738">projectRoleStore : ProjectRoleStore</text><rect fill="#FEFECE" filter="url(#fflzz7paz9fi1)" height="31.6094" style="stroke:#A80036;stroke-width:1.5;" width="239" x="1204" y="1845.7344"/><text fill="#000000" font-family="sans-serif" font-size="14" lengthAdjust="spacing" textLength="225" x="1211" y="1867.2676">projectRoleStore : ProjectRoleStore</text><rect fill="#FEFECE" filter="url(#fflzz7paz9fi1)" height="31.6094" style="stroke:#A80036;stroke-width:1.5;" width="185" x="1457" y="89.6406"/><text fill="#000000" font-family="sans-serif" font-size="14" lengthAdjust="spacing" textLength="171" x="1464" y="111.1738">projectTeam : ProjectTeam</text><rect fill="#FEFECE" filter="url(#fflzz7paz9fi1)" height="31.6094" style="stroke:#A80036;stroke-width:1.5;" width="185" x="1457" y="1845.7344"/><text fill="#000000" font-family="sans-serif" font-size="14" lengthAdjust="spacing" textLength="171" x="1464" y="1867.2676">projectTeam : ProjectTeam</text><rect fill="#FEFECE" filter="url(#fflzz7paz9fi1)" height="31.6094" style="stroke:#A80036;stroke-width:1.5;" width="143" x="1983" y="89.6406"/><text fill="#000000" font-family="sans-serif" font-size="14" lengthAdjust="spacing" textLength="129" x="1990" y="111.1738">resource : Resource</text><rect fill="#FEFECE" filter="url(#fflzz7paz9fi1)" height="31.6094" style="stroke:#A80036;stroke-width:1.5;" width="143" x="1983" y="1845.7344"/><text fill="#000000" font-family="sans-serif" font-size="14" lengthAdjust="spacing" textLength="129" x="1990" y="1867.2676">resource : Resource</text><rect fill="#FEFECE" filter="url(#fflzz7paz9fi1)" height="31.6094" style="stroke:#A80036;stroke-width:1.5;" width="173" x="2262.5" y="1845.7344"/><text fill="#000000" font-family="sans-serif" font-size="14" lengthAdjust="spacing" textLength="159" x="2269.5" y="1867.2676">newResource : Resource</text><rect fill="#FFFFFF" filter="url(#fflzz7paz9fi1)" height="1701.4844" style="stroke:#A80036;stroke-width:1.0;" width="10" x="28" y="136.25"/><rect fill="#FFFFFF" filter="url(#fflzz7paz9fi1)" height="78.0547" style="stroke:#A80036;stroke-width:1.0;" width="10" x="274" y="158.6016"/><rect fill="#FFFFFF" filter="url(#fflzz7paz9fi1)" height="78.0547" style="stroke:#A80036;stroke-width:1.0;" width="10" x="274" y="267.0078"/><rect fill="#FFFFFF" filter="url(#fflzz7paz9fi1)" height="1453.3203" style="stroke:#A80036;stroke-width:1.0;" width="10" x="274" y="375.4141"/><rect fill="#FFFFFF" filter="url(#fflzz7paz9fi1)" height="1360.2656" style="stroke:#A80036;stroke-width:1.0;" width="10" x="533" y="431.1172"/><rect fill="#FFFFFF" filter="url(#fflzz7paz9fi1)" height="30.3516" style="stroke:#A80036;stroke-width:1.0;" width="10" x="704" y="797.3359"/><rect fill="#FFFFFF" filter="url(#fflzz7paz9fi1)" height="30.3516" style="stroke:#A80036;stroke-width:1.0;" width="10" x="815.5" y="461.4688"/><rect fill="#FFFFFF" filter="url(#fflzz7paz9fi1)" height="30.3516" style="stroke:#A80036;stroke-width:1.0;" width="10" x="815.5" y="736.6328"/><rect fill="#FFFFFF" filter="url(#fflzz7paz9fi1)" height="123.4063" style="stroke:#A80036;stroke-width:1.0;" width="10" x="957" y="522.1719"/><rect fill="#FFFFFF" filter="url(#fflzz7paz9fi1)" height="30.3516" style="stroke:#A80036;stroke-width:1.0;" width="10" x="1114.5" y="577.875"/><rect fill="#FFFFFF" filter="url(#fflzz7paz9fi1)" height="30.3516" style="stroke:#A80036;stroke-width:1.0;" width="10" x="1114.5" y="675.9297"/><rect fill="#FFFFFF" filter="url(#fflzz7paz9fi1)" height="30.3516" style="stroke:#A80036;stroke-width:1.0;" width="10" x="1320.5" y="858.0391"/><rect fill="#FFFFFF" filter="url(#fflzz7paz9fi1)" height="809.9375" style="stroke:#A80036;stroke-width:1.0;" width="10" x="1546.5" y="944.0938"/><rect fill="#FFFFFF" filter="url(#fflzz7paz9fi1)" height="28" style="stroke:#A80036;stroke-width:1.0;" width="10" x="1551.5" y="1594.9766"/><rect fill="#FFFFFF" filter="url(#fflzz7paz9fi1)" height="41.3516" style="stroke:#A80036;stroke-width:1.0;" width="10" x="1551.5" y="1675.3281"/><rect fill="#FFFFFF" filter="url(#fflzz7paz9fi1)" height="236.1094" style="stroke:#A80036;stroke-width:1.0;" width="10" x="2051.5" y="999.7969"/><rect fill="#FFFFFF" filter="url(#fflzz7paz9fi1)" height="41.3516" style="stroke:#A80036;stroke-width:1.0;" width="10" x="2056.5" y="1063.5"/><rect fill="#FFFFFF" filter="url(#fflzz7paz9fi1)" height="41.3516" style="stroke:#A80036;stroke-width:1.0;" width="10" x="2056.5" y="1150.2031"/><rect fill="#FFFFFF" filter="url(#fflzz7paz9fi1)" height="258.0156" style="stroke:#A80036;stroke-width:1.0;" width="10" x="2051.5" y="1273.2578"/><rect fill="#FFFFFF" filter="url(#fflzz7paz9fi1)" height="30" style="stroke:#A80036;stroke-width:1.0;" width="10" x="2056.5" y="1470.9219"/><rect fill="#FFFFFF" filter="url(#fflzz7paz9fi1)" height="30" style="stroke:#A80036;stroke-width:1.0;" width="10" x="2346" y="1350.2188"/><rect fill="#FFFFFF" filter="url(#fflzz7paz9fi1)" height="30" style="stroke:#A80036;stroke-width:1.0;" width="10" x="2346" y="1410.5703"/><polygon fill="#A80036" points="262,154.6016,272,158.6016,262,162.6016,266,158.6016" style="stroke:#A80036;stroke-width:1.0;"/><line style="stroke:#A80036;stroke-width:1.0;" x1="38" x2="268" y1="158.6016" y2="158.6016"/><text fill="#000000" font-family="sans-serif" font-size="13" font-weight="bold" lengthAdjust="spacing" textLength="7" x="45" y="153.7451">1</text><text fill="#000000" font-family="sans-serif" font-size="13" lengthAdjust="spacing" textLength="138" x="56" y="153.7451">Ask to access a project</text><rect fill="#FFFFFF" filter="url(#fflzz7paz9fi1)" height="42.7031" style="stroke:#000000;stroke-width:2.0;" width="456" x="191" y="166.6016"/><path d="M191,166.6016 L253,166.6016 L253,174.6016 L243,184.6016 L191,184.6016 L191,166.6016 " fill="#EEEEEE" style="stroke:#000000;stroke-width:2.0;"/><text fill="#000000" font-family="sans-serif" font-size="13" font-weight="bold" lengthAdjust="spacing" textLength="17" x="204" y="182.0967">ref</text><text fill="#000000" font-family="sans-serif" font-size="13" lengthAdjust="spacing" textLength="132" x="355" y="202.0967">US027-SD-getProject()</text><polygon fill="#A80036" points="49,232.6563,39,236.6563,49,240.6563,45,236.6563" style="stroke:#A80036;stroke-width:1.0;"/><line style="stroke:#A80036;stroke-width:1.0;stroke-dasharray:2.0,2.0;" x1="43" x2="278" y1="236.6563" y2="236.6563"/><text fill="#000000" font-family="sans-serif" font-size="13" font-weight="bold" lengthAdjust="spacing" textLength="7" x="55" y="231.7998">2</text><text fill="#000000" font-family="sans-serif" font-size="13" lengthAdjust="spacing" textLength="47" x="66" y="231.7998">projDTO</text><polygon fill="#A80036" points="262,263.0078,272,267.0078,262,271.0078,266,267.0078" style="stroke:#A80036;stroke-width:1.0;"/><line style="stroke:#A80036;stroke-width:1.0;" x1="38" x2="268" y1="267.0078" y2="267.0078"/><text fill="#000000" font-family="sans-serif" font-size="13" font-weight="bold" lengthAdjust="spacing" textLength="7" x="45" y="262.1514">3</text><text fill="#000000" font-family="sans-serif" font-size="13" lengthAdjust="spacing" textLength="206" x="56" y="262.1514">Ask to access resource of a project</text><rect fill="#FFFFFF" filter="url(#fflzz7paz9fi1)" height="42.7031" style="stroke:#000000;stroke-width:2.0;" width="456" x="191" y="275.0078"/><path d="M191,275.0078 L253,275.0078 L253,283.0078 L243,293.0078 L191,293.0078 L191,275.0078 " fill="#EEEEEE" style="stroke:#000000;stroke-width:2.0;"/><text fill="#000000" font-family="sans-serif" font-size="13" font-weight="bold" lengthAdjust="spacing" textLength="17" x="204" y="290.5029">ref</text><text fill="#000000" font-family="sans-serif" font-size="13" lengthAdjust="spacing" textLength="142" x="350" y="310.5029">us027-SD-getResource()</text><polygon fill="#A80036" points="49,341.0625,39,345.0625,49,349.0625,45,345.0625" style="stroke:#A80036;stroke-width:1.0;"/><line style="stroke:#A80036;stroke-width:1.0;stroke-dasharray:2.0,2.0;" x1="43" x2="278" y1="345.0625" y2="345.0625"/><text fill="#000000" font-family="sans-serif" font-size="13" font-weight="bold" lengthAdjust="spacing" textLength="7" x="55" y="340.2061">4</text><text fill="#000000" font-family="sans-serif" font-size="13" lengthAdjust="spacing" textLength="44" x="66" y="340.2061">resDTO</text><polygon fill="#A80036" points="262,371.4141,272,375.4141,262,379.4141,266,375.4141" style="stroke:#A80036;stroke-width:1.0;"/><line style="stroke:#A80036;stroke-width:1.0;" x1="38" x2="268" y1="375.4141" y2="375.4141"/><text fill="#000000" font-family="sans-serif" font-size="13" font-weight="bold" lengthAdjust="spacing" textLength="7" x="45" y="370.5576">5</text><text fill="#000000" font-family="sans-serif" font-size="13" lengthAdjust="spacing" textLength="144" x="56" y="370.5576">Define as Product Owner</text><path d="M184,390.4141 L245,390.4141 L245,398.4141 L235,408.4141 L184,408.4141 L184,390.4141 " fill="#EEEEEE" style="stroke:#000000;stroke-width:1.0;"/><rect fill="none" height="1408.9688" style="stroke:#000000;stroke-width:2.0;" width="2275.5" x="184" y="390.4141"/><text fill="#000000" font-family="sans-serif" font-size="13" font-weight="bold" lengthAdjust="spacing" textLength="16" x="199" y="404.9092">alt</text><text fill="#000000" font-family="sans-serif" font-size="11" font-weight="bold" lengthAdjust="spacing" textLength="214" x="260" y="403.833">[result = true "Assign Product Owner"]</text><polygon fill="#A80036" points="521,427.1172,531,431.1172,521,435.1172,525,431.1172" style="stroke:#A80036;stroke-width:1.0;"/><line style="stroke:#A80036;stroke-width:1.0;" x1="284" x2="527" y1="431.1172" y2="431.1172"/><text fill="#000000" font-family="sans-serif" font-size="13" font-weight="bold" lengthAdjust="spacing" textLength="7" x="291" y="426.2607">6</text><text fill="#000000" font-family="sans-serif" font-size="13" lengthAdjust="spacing" textLength="219" x="302" y="426.2607">assignRole(resourceName, roleName)</text><polygon fill="#A80036" points="803.5,457.4688,813.5,461.4688,803.5,465.4688,807.5,461.4688" style="stroke:#A80036;stroke-width:1.0;"/><line style="stroke:#A80036;stroke-width:1.0;" x1="543" x2="809.5" y1="461.4688" y2="461.4688"/><text fill="#000000" font-family="sans-serif" font-size="13" font-weight="bold" lengthAdjust="spacing" textLength="7" x="550" y="456.6123">7</text><text fill="#000000" font-family="sans-serif" font-size="13" lengthAdjust="spacing" textLength="67" x="561" y="456.6123">getSprints()</text><polygon fill="#A80036" points="554,487.8203,544,491.8203,554,495.8203,550,491.8203" style="stroke:#A80036;stroke-width:1.0;"/><line style="stroke:#A80036;stroke-width:1.0;stroke-dasharray:2.0,2.0;" x1="548" x2="819.5" y1="491.8203" y2="491.8203"/><text fill="#000000" font-family="sans-serif" font-size="13" font-weight="bold" lengthAdjust="spacing" textLength="7" x="560" y="486.9639">8</text><text fill="#000000" font-family="sans-serif" font-size="13" lengthAdjust="spacing" textLength="63" x="571" y="486.9639">sprintStore</text><polygon fill="#A80036" points="945,518.1719,955,522.1719,945,526.1719,949,522.1719" style="stroke:#A80036;stroke-width:1.0;"/><line style="stroke:#A80036;stroke-width:1.0;" x1="543" x2="951" y1="522.1719" y2="522.1719"/><text fill="#000000" font-family="sans-serif" font-size="13" font-weight="bold" lengthAdjust="spacing" textLength="7" x="550" y="517.3154">9</text><text fill="#000000" font-family="sans-serif" font-size="13" lengthAdjust="spacing" textLength="102" x="561" y="517.3154">getCurrentSprint()</text><path d="M879,537.1719 L952,537.1719 L952,545.1719 L942,555.1719 L879,555.1719 L879,537.1719 " fill="#EEEEEE" style="stroke:#000000;stroke-width:1.0;"/><rect fill="none" height="79.0547" style="stroke:#000000;stroke-width:2.0;" width="325" x="879" y="537.1719"/><text fill="#000000" font-family="sans-serif" font-size="13" font-weight="bold" lengthAdjust="spacing" textLength="28" x="894" y="551.667">loop</text><text fill="#000000" font-family="sans-serif" font-size="11" font-weight="bold" lengthAdjust="spacing" textLength="94" x="967" y="550.5908">[isCurrentSprint]</text><polygon fill="#A80036" points="1102.5,573.875,1112.5,577.875,1102.5,581.875,1106.5,577.875" style="stroke:#A80036;stroke-width:1.0;"/><line style="stroke:#A80036;stroke-width:1.0;" x1="967" x2="1108.5" y1="577.875" y2="577.875"/><text fill="#000000" font-family="sans-serif" font-size="13" font-weight="bold" lengthAdjust="spacing" textLength="14" x="974" y="573.0186">10</text><text fill="#000000" font-family="sans-serif" font-size="13" lengthAdjust="spacing" textLength="94" x="992" y="573.0186">isCurrentSprint()</text><polygon fill="#A80036" points="978,604.2266,968,608.2266,978,612.2266,974,608.2266" style="stroke:#A80036;stroke-width:1.0;"/><line style="stroke:#A80036;stroke-width:1.0;stroke-dasharray:2.0,2.0;" x1="972" x2="1118.5" y1="608.2266" y2="608.2266"/><text fill="#000000" font-family="sans-serif" font-size="13" font-weight="bold" lengthAdjust="spacing" textLength="14" x="984" y="603.3701">11</text><text fill="#000000" font-family="sans-serif" font-size="13" lengthAdjust="spacing" textLength="22" x="1002" y="603.3701">true</text><polygon fill="#A80036" points="554,641.5781,544,645.5781,554,649.5781,550,645.5781" style="stroke:#A80036;stroke-width:1.0;"/><line style="stroke:#A80036;stroke-width:1.0;stroke-dasharray:2.0,2.0;" x1="548" x2="961" y1="645.5781" y2="645.5781"/><text fill="#000000" font-family="sans-serif" font-size="13" font-weight="bold" lengthAdjust="spacing" textLength="14" x="560" y="640.7217">12</text><text fill="#000000" font-family="sans-serif" font-size="13" lengthAdjust="spacing" textLength="74" x="578" y="640.7217">currentSprint</text><polygon fill="#A80036" points="1102.5,671.9297,1112.5,675.9297,1102.5,679.9297,1106.5,675.9297" style="stroke:#A80036;stroke-width:1.0;"/><line style="stroke:#A80036;stroke-width:1.0;" x1="543" x2="1108.5" y1="675.9297" y2="675.9297"/><text fill="#000000" font-family="sans-serif" font-size="13" font-weight="bold" lengthAdjust="spacing" textLength="14" x="550" y="671.0732">13</text><text fill="#000000" font-family="sans-serif" font-size="13" lengthAdjust="spacing" textLength="76" x="568" y="671.0732">getEndDate()</text><polygon fill="#A80036" points="554,702.2813,544,706.2813,554,710.2813,550,706.2813" style="stroke:#A80036;stroke-width:1.0;"/><line style="stroke:#A80036;stroke-width:1.0;stroke-dasharray:2.0,2.0;" x1="548" x2="1118.5" y1="706.2813" y2="706.2813"/><text fill="#000000" font-family="sans-serif" font-size="13" font-weight="bold" lengthAdjust="spacing" textLength="14" x="560" y="701.4248">14</text><text fill="#000000" font-family="sans-serif" font-size="13" lengthAdjust="spacing" textLength="48" x="578" y="701.4248">endDate</text><polygon fill="#A80036" points="803.5,732.6328,813.5,736.6328,803.5,740.6328,807.5,736.6328" style="stroke:#A80036;stroke-width:1.0;"/><line style="stroke:#A80036;stroke-width:1.0;" x1="543" x2="809.5" y1="736.6328" y2="736.6328"/><text fill="#000000" font-family="sans-serif" font-size="13" font-weight="bold" lengthAdjust="spacing" textLength="14" x="550" y="731.7764">15</text><text fill="#000000" font-family="sans-serif" font-size="13" lengthAdjust="spacing" textLength="108" x="568" y="731.7764">getSprintDuration()</text><polygon fill="#A80036" points="554,762.9844,544,766.9844,554,770.9844,550,766.9844" style="stroke:#A80036;stroke-width:1.0;"/><line style="stroke:#A80036;stroke-width:1.0;stroke-dasharray:2.0,2.0;" x1="548" x2="819.5" y1="766.9844" y2="766.9844"/><text fill="#000000" font-family="sans-serif" font-size="13" font-weight="bold" lengthAdjust="spacing" textLength="14" x="560" y="762.1279">16</text><text fill="#000000" font-family="sans-serif" font-size="13" lengthAdjust="spacing" textLength="80" x="578" y="762.1279">sprintDuration</text><polygon fill="#A80036" points="692,793.3359,702,797.3359,692,801.3359,696,797.3359" style="stroke:#A80036;stroke-width:1.0;"/><line style="stroke:#A80036;stroke-width:1.0;" x1="543" x2="698" y1="797.3359" y2="797.3359"/><text fill="#000000" font-family="sans-serif" font-size="13" font-weight="bold" lengthAdjust="spacing" textLength="14" x="550" y="792.4795">17</text><text fill="#000000" font-family="sans-serif" font-size="13" lengthAdjust="spacing" textLength="124" x="568" y="792.4795">getProjectRoleStore()</text><polygon fill="#A80036" points="554,823.6875,544,827.6875,554,831.6875,550,827.6875" style="stroke:#A80036;stroke-width:1.0;"/><line style="stroke:#A80036;stroke-width:1.0;stroke-dasharray:2.0,2.0;" x1="548" x2="708" y1="827.6875" y2="827.6875"/><text fill="#000000" font-family="sans-serif" font-size="13" font-weight="bold" lengthAdjust="spacing" textLength="14" x="560" y="822.8311">18</text><text fill="#000000" font-family="sans-serif" font-size="13" lengthAdjust="spacing" textLength="96" x="578" y="822.8311">projectRoleStore</text><polygon fill="#A80036" points="1308.5,854.0391,1318.5,858.0391,1308.5,862.0391,1312.5,858.0391" style="stroke:#A80036;stroke-width:1.0;"/><line style="stroke:#A80036;stroke-width:1.0;" x1="543" x2="1314.5" y1="858.0391" y2="858.0391"/><text fill="#000000" font-family="sans-serif" font-size="13" font-weight="bold" lengthAdjust="spacing" textLength="14" x="550" y="853.1826">19</text><text fill="#000000" font-family="sans-serif" font-size="13" lengthAdjust="spacing" textLength="148" x="568" y="853.1826">getProjectRole(roleName)</text><polygon fill="#A80036" points="554,884.3906,544,888.3906,554,892.3906,550,888.3906" style="stroke:#A80036;stroke-width:1.0;"/><line style="stroke:#A80036;stroke-width:1.0;stroke-dasharray:2.0,2.0;" x1="548" x2="1324.5" y1="888.3906" y2="888.3906"/><text fill="#000000" font-family="sans-serif" font-size="13" font-weight="bold" lengthAdjust="spacing" textLength="14" x="560" y="883.5342">20</text><text fill="#000000" font-family="sans-serif" font-size="13" lengthAdjust="spacing" textLength="21" x="578" y="883.5342">role</text><path d="M418,903.3906 L479,903.3906 L479,911.3906 L469,921.3906 L418,921.3906 L418,903.3906 " fill="#EEEEEE" style="stroke:#000000;stroke-width:1.0;"/><rect fill="none" height="858.6406" style="stroke:#000000;stroke-width:2.0;" width="2031.5" x="418" y="903.3906"/><text fill="#000000" font-family="sans-serif" font-size="13" font-weight="bold" lengthAdjust="spacing" textLength="16" x="433" y="917.8857">alt</text><text fill="#000000" font-family="sans-serif" font-size="11" font-weight="bold" lengthAdjust="spacing" textLength="342" x="494" y="916.8096">[result = true "resourceName == name &amp;&amp; assignProjectRole"]</text><polygon fill="#A80036" points="1534.5,940.0938,1544.5,944.0938,1534.5,948.0938,1538.5,944.0938" style="stroke:#A80036;stroke-width:1.0;"/><line style="stroke:#A80036;stroke-width:1.0;" x1="543" x2="1540.5" y1="944.0938" y2="944.0938"/><text fill="#000000" font-family="sans-serif" font-size="13" font-weight="bold" lengthAdjust="spacing" textLength="14" x="550" y="939.2373">21</text><text fill="#000000" font-family="sans-serif" font-size="13" lengthAdjust="spacing" textLength="402" x="568" y="939.2373">assignProjectRole(resource, startDateNextSprint, sprintDuration, role)</text><path d="M1447,959.0938 L1508,959.0938 L1508,967.0938 L1498,977.0938 L1447,977.0938 L1447,959.0938 " fill="#EEEEEE" style="stroke:#000000;stroke-width:1.0;"/><rect fill="none" height="284.8125" style="stroke:#000000;stroke-width:2.0;" width="863" x="1447" y="959.0938"/><text fill="#000000" font-family="sans-serif" font-size="13" font-weight="bold" lengthAdjust="spacing" textLength="16" x="1462" y="973.5889">alt</text><text fill="#000000" font-family="sans-serif" font-size="11" font-weight="bold" lengthAdjust="spacing" textLength="363" x="1523" y="972.5127">[result = true "Check if resource can be assigned to role by date"]</text><polygon fill="#A80036" points="2039.5,995.7969,2049.5,999.7969,2039.5,1003.7969,2043.5,999.7969" style="stroke:#A80036;stroke-width:1.0;"/><line style="stroke:#A80036;stroke-width:1.0;" x1="1556.5" x2="2045.5" y1="999.7969" y2="999.7969"/><text fill="#000000" font-family="sans-serif" font-size="13" font-weight="bold" lengthAdjust="spacing" textLength="14" x="1563.5" y="994.9404">22</text><text fill="#000000" font-family="sans-serif" font-size="13" lengthAdjust="spacing" textLength="258" x="1581.5" y="994.9404">isAvailableToSprint(startDate, sprintDuration)</text><path d="M1973,1014.7969 L2034,1014.7969 L2034,1022.7969 L2024,1032.7969 L1973,1032.7969 L1973,1014.7969 " fill="#EEEEEE" style="stroke:#000000;stroke-width:1.0;"/><rect fill="none" height="191.7578" style="stroke:#000000;stroke-width:2.0;" width="327" x="1973" y="1014.7969"/><text fill="#000000" font-family="sans-serif" font-size="13" font-weight="bold" lengthAdjust="spacing" textLength="16" x="1988" y="1029.292">alt</text><text fill="#000000" font-family="sans-serif" font-size="11" font-weight="bold" lengthAdjust="spacing" textLength="246" x="2049" y="1028.2158">[result = true "check startDate and endDate"]</text><line style="stroke:#A80036;stroke-width:1.0;" x1="2061.5" x2="2108.5" y1="1050.5" y2="1050.5"/><line style="stroke:#A80036;stroke-width:1.0;" x1="2108.5" x2="2108.5" y1="1050.5" y2="1063.5"/><line style="stroke:#A80036;stroke-width:1.0;" x1="2067.5" x2="2108.5" y1="1063.5" y2="1063.5"/><polygon fill="#A80036" points="2077.5,1059.5,2067.5,1063.5,2077.5,1067.5,2073.5,1063.5" style="stroke:#A80036;stroke-width:1.0;"/><text fill="#000000" font-family="sans-serif" font-size="13" font-weight="bold" lengthAdjust="spacing" textLength="14" x="2073.5" y="1045.6436">23</text><text fill="#000000" font-family="sans-serif" font-size="13" lengthAdjust="spacing" textLength="108" x="2091.5" y="1045.6436">isBefore(startDate)</text><line style="stroke:#A80036;stroke-width:1.0;stroke-dasharray:2.0,2.0;" x1="2066.5" x2="2108.5" y1="1103.8516" y2="1103.8516"/><line style="stroke:#A80036;stroke-width:1.0;stroke-dasharray:2.0,2.0;" x1="2108.5" x2="2108.5" y1="1103.8516" y2="1116.8516"/><line style="stroke:#A80036;stroke-width:1.0;stroke-dasharray:2.0,2.0;" x1="2061.5" x2="2108.5" y1="1116.8516" y2="1116.8516"/><polygon fill="#A80036" points="2071.5,1112.8516,2061.5,1116.8516,2071.5,1120.8516,2067.5,1116.8516" style="stroke:#A80036;stroke-width:1.0;"/><text fill="#000000" font-family="sans-serif" font-size="13" font-weight="bold" lengthAdjust="spacing" textLength="14" x="2073.5" y="1098.9951">24</text><text fill="#000000" font-family="sans-serif" font-size="13" lengthAdjust="spacing" textLength="22" x="2091.5" y="1098.9951">true</text><line style="stroke:#A80036;stroke-width:1.0;" x1="2061.5" x2="2108.5" y1="1137.2031" y2="1137.2031"/><line style="stroke:#A80036;stroke-width:1.0;" x1="2108.5" x2="2108.5" y1="1137.2031" y2="1150.2031"/><line style="stroke:#A80036;stroke-width:1.0;" x1="2067.5" x2="2108.5" y1="1150.2031" y2="1150.2031"/><polygon fill="#A80036" points="2077.5,1146.2031,2067.5,1150.2031,2077.5,1154.2031,2073.5,1150.2031" style="stroke:#A80036;stroke-width:1.0;"/><text fill="#000000" font-family="sans-serif" font-size="13" font-weight="bold" lengthAdjust="spacing" textLength="14" x="2073.5" y="1132.3467">25</text><text fill="#000000" font-family="sans-serif" font-size="13" lengthAdjust="spacing" textLength="93" x="2091.5" y="1132.3467">isAfter(endDate)</text><line style="stroke:#A80036;stroke-width:1.0;stroke-dasharray:2.0,2.0;" x1="2066.5" x2="2108.5" y1="1190.5547" y2="1190.5547"/><line style="stroke:#A80036;stroke-width:1.0;stroke-dasharray:2.0,2.0;" x1="2108.5" x2="2108.5" y1="1190.5547" y2="1203.5547"/><line style="stroke:#A80036;stroke-width:1.0;stroke-dasharray:2.0,2.0;" x1="2061.5" x2="2108.5" y1="1203.5547" y2="1203.5547"/><polygon fill="#A80036" points="2071.5,1199.5547,2061.5,1203.5547,2071.5,1207.5547,2067.5,1203.5547" style="stroke:#A80036;stroke-width:1.0;"/><text fill="#000000" font-family="sans-serif" font-size="13" font-weight="bold" lengthAdjust="spacing" textLength="14" x="2073.5" y="1185.6982">26</text><text fill="#000000" font-family="sans-serif" font-size="13" lengthAdjust="spacing" textLength="22" x="2091.5" y="1185.6982">true</text><polygon fill="#A80036" points="1567.5,1231.9063,1557.5,1235.9063,1567.5,1239.9063,1563.5,1235.9063" style="stroke:#A80036;stroke-width:1.0;"/><line style="stroke:#A80036;stroke-width:1.0;stroke-dasharray:2.0,2.0;" x1="1561.5" x2="2055.5" y1="1235.9063" y2="1235.9063"/><text fill="#000000" font-family="sans-serif" font-size="13" font-weight="bold" lengthAdjust="spacing" textLength="14" x="1573.5" y="1231.0498">27</text><text fill="#000000" font-family="sans-serif" font-size="13" lengthAdjust="spacing" textLength="22" x="1591.5" y="1231.0498">true</text><polygon fill="#A80036" points="2039.5,1269.2578,2049.5,1273.2578,2039.5,1277.2578,2043.5,1273.2578" style="stroke:#A80036;stroke-width:1.0;"/><line style="stroke:#A80036;stroke-width:1.0;" x1="1556.5" x2="2045.5" y1="1273.2578" y2="1273.2578"/><text fill="#000000" font-family="sans-serif" font-size="13" font-weight="bold" lengthAdjust="spacing" textLength="14" x="1563.5" y="1268.4014">28</text><text fill="#000000" font-family="sans-serif" font-size="13" lengthAdjust="spacing" textLength="458" x="1581.5" y="1268.4014">copyUpdateProjectRoleOfAResource(originalResource, startDateNewRole, role)</text><polygon fill="#A80036" points="2250.5,1299.6094,2260.5,1303.6094,2250.5,1307.6094,2254.5,1303.6094" style="stroke:#A80036;stroke-width:1.0;"/><line style="stroke:#A80036;stroke-width:1.0;" x1="2061.5" x2="2256.5" y1="1303.6094" y2="1303.6094"/><text fill="#000000" font-family="sans-serif" font-size="13" font-weight="bold" lengthAdjust="spacing" textLength="14" x="2068.5" y="1298.7529">29</text><text fill="#000000" font-family="sans-serif" font-size="13" lengthAdjust="spacing" textLength="159" x="2086.5" y="1298.7529">Resource(originalResource)</text><rect fill="#FEFECE" filter="url(#fflzz7paz9fi1)" height="31.6094" style="stroke:#A80036;stroke-width:1.5;" width="173" x="2262.5" y="1281.2578"/><text fill="#000000" font-family="sans-serif" font-size="14" lengthAdjust="spacing" textLength="159" x="2269.5" y="1302.791">newResource : Resource</text><polygon fill="#A80036" points="2334,1346.2188,2344,1350.2188,2334,1354.2188,2338,1350.2188" style="stroke:#A80036;stroke-width:1.0;"/><line style="stroke:#A80036;stroke-width:1.0;" x1="1556.5" x2="2340" y1="1350.2188" y2="1350.2188"/><text fill="#000000" font-family="sans-serif" font-size="13" font-weight="bold" lengthAdjust="spacing" textLength="14" x="1563.5" y="1345.3623">30</text><text fill="#000000" font-family="sans-serif" font-size="13" lengthAdjust="spacing" textLength="73" x="1581.5" y="1345.3623">setRole(role)</text><polygon fill="#A80036" points="2334,1406.5703,2344,1410.5703,2334,1414.5703,2338,1410.5703" style="stroke:#A80036;stroke-width:1.0;"/><line style="stroke:#A80036;stroke-width:1.0;" x1="1556.5" x2="2340" y1="1410.5703" y2="1410.5703"/><text fill="#000000" font-family="sans-serif" font-size="13" font-weight="bold" lengthAdjust="spacing" textLength="14" x="1563.5" y="1405.7139">31</text><text fill="#000000" font-family="sans-serif" font-size="13" lengthAdjust="spacing" textLength="134" x="1581.5" y="1405.7139">setStartDate(startDate)</text><polygon fill="#A80036" points="2044.5,1466.9219,2054.5,1470.9219,2044.5,1474.9219,2048.5,1470.9219" style="stroke:#A80036;stroke-width:1.0;"/><line style="stroke:#A80036;stroke-width:1.0;" x1="1556.5" x2="2050.5" y1="1470.9219" y2="1470.9219"/><text fill="#000000" font-family="sans-serif" font-size="13" font-weight="bold" lengthAdjust="spacing" textLength="14" x="1563.5" y="1466.0654">32</text><text fill="#000000" font-family="sans-serif" font-size="13" lengthAdjust="spacing" textLength="129" x="1581.5" y="1466.0654">setEndDate(startDate)</text><polygon fill="#A80036" points="1567.5,1527.2734,1557.5,1531.2734,1567.5,1535.2734,1563.5,1531.2734" style="stroke:#A80036;stroke-width:1.0;"/><line style="stroke:#A80036;stroke-width:1.0;stroke-dasharray:2.0,2.0;" x1="1561.5" x2="2055.5" y1="1531.2734" y2="1531.2734"/><text fill="#000000" font-family="sans-serif" font-size="13" font-weight="bold" lengthAdjust="spacing" textLength="14" x="1573.5" y="1526.417">33</text><text fill="#000000" font-family="sans-serif" font-size="13" lengthAdjust="spacing" textLength="78" x="1591.5" y="1526.417">newResource</text><path d="M1447,1546.2734 L1508,1546.2734 L1508,1554.2734 L1498,1564.2734 L1447,1564.2734 L1447,1546.2734 " fill="#EEEEEE" style="stroke:#000000;stroke-width:1.0;"/><rect fill="none" height="91.7031" style="stroke:#000000;stroke-width:2.0;" width="480.5" x="1447" y="1546.2734"/><text fill="#000000" font-family="sans-serif" font-size="13" font-weight="bold" lengthAdjust="spacing" textLength="16" x="1462" y="1560.7686">alt</text><text fill="#000000" font-family="sans-serif" font-size="11" font-weight="bold" lengthAdjust="spacing" textLength="292" x="1523" y="1559.6924">[result = false "check if the role exist and is current"]</text><line style="stroke:#A80036;stroke-width:1.0;" x1="1561.5" x2="1603.5" y1="1586.9766" y2="1586.9766"/><line style="stroke:#A80036;stroke-width:1.0;" x1="1603.5" x2="1603.5" y1="1586.9766" y2="1599.9766"/><line style="stroke:#A80036;stroke-width:1.0;" x1="1562.5" x2="1603.5" y1="1599.9766" y2="1599.9766"/><polygon fill="#A80036" points="1572.5,1595.9766,1562.5,1599.9766,1572.5,1603.9766,1568.5,1599.9766" style="stroke:#A80036;stroke-width:1.0;"/><text fill="#000000" font-family="sans-serif" font-size="13" font-weight="bold" lengthAdjust="spacing" textLength="14" x="1568.5" y="1582.1201">34</text><text fill="#000000" font-family="sans-serif" font-size="13" lengthAdjust="spacing" textLength="329" x="1586.5" y="1582.1201">checkIfRoleCurrentExistInTheProjectTeam(role,startDate)</text><line style="stroke:#A80036;stroke-width:1.0;" x1="1556.5" x2="1603.5" y1="1662.3281" y2="1662.3281"/><line style="stroke:#A80036;stroke-width:1.0;" x1="1603.5" x2="1603.5" y1="1662.3281" y2="1675.3281"/><line style="stroke:#A80036;stroke-width:1.0;" x1="1562.5" x2="1603.5" y1="1675.3281" y2="1675.3281"/><polygon fill="#A80036" points="1572.5,1671.3281,1562.5,1675.3281,1572.5,1679.3281,1568.5,1675.3281" style="stroke:#A80036;stroke-width:1.0;"/><text fill="#000000" font-family="sans-serif" font-size="13" font-weight="bold" lengthAdjust="spacing" textLength="14" x="1568.5" y="1657.4717">35</text><text fill="#000000" font-family="sans-serif" font-size="13" lengthAdjust="spacing" textLength="167" x="1586.5" y="1657.4717">saveResource(newResource)</text><line style="stroke:#A80036;stroke-width:1.0;stroke-dasharray:2.0,2.0;" x1="1561.5" x2="1603.5" y1="1715.6797" y2="1715.6797"/><line style="stroke:#A80036;stroke-width:1.0;stroke-dasharray:2.0,2.0;" x1="1603.5" x2="1603.5" y1="1715.6797" y2="1728.6797"/><line style="stroke:#A80036;stroke-width:1.0;stroke-dasharray:2.0,2.0;" x1="1556.5" x2="1603.5" y1="1728.6797" y2="1728.6797"/><polygon fill="#A80036" points="1566.5,1724.6797,1556.5,1728.6797,1566.5,1732.6797,1562.5,1728.6797" style="stroke:#A80036;stroke-width:1.0;"/><text fill="#000000" font-family="sans-serif" font-size="13" font-weight="bold" lengthAdjust="spacing" textLength="14" x="1568.5" y="1710.8232">36</text><text fill="#000000" font-family="sans-serif" font-size="13" lengthAdjust="spacing" textLength="22" x="1586.5" y="1710.8232">true</text><polygon fill="#A80036" points="554,1750.0313,544,1754.0313,554,1758.0313,550,1754.0313" style="stroke:#A80036;stroke-width:1.0;"/><line style="stroke:#A80036;stroke-width:1.0;stroke-dasharray:2.0,2.0;" x1="548" x2="1550.5" y1="1754.0313" y2="1754.0313"/><text fill="#000000" font-family="sans-serif" font-size="13" font-weight="bold" lengthAdjust="spacing" textLength="14" x="560" y="1749.1748">37</text><text fill="#000000" font-family="sans-serif" font-size="13" lengthAdjust="spacing" textLength="22" x="578" y="1749.1748">true</text><polygon fill="#A80036" points="295,1787.3828,285,1791.3828,295,1795.3828,291,1791.3828" style="stroke:#A80036;stroke-width:1.0;"/><line style="stroke:#A80036;stroke-width:1.0;stroke-dasharray:2.0,2.0;" x1="289" x2="537" y1="1791.3828" y2="1791.3828"/><text fill="#000000" font-family="sans-serif" font-size="13" font-weight="bold" lengthAdjust="spacing" textLength="14" x="301" y="1786.5264">38</text><text fill="#000000" font-family="sans-serif" font-size="13" lengthAdjust="spacing" textLength="22" x="319" y="1786.5264">true</text><polygon fill="#A80036" points="49,1824.7344,39,1828.7344,49,1832.7344,45,1828.7344" style="stroke:#A80036;stroke-width:1.0;"/><line style="stroke:#A80036;stroke-width:1.0;stroke-dasharray:2.0,2.0;" x1="43" x2="278" y1="1828.7344" y2="1828.7344"/><text fill="#000000" font-family="sans-serif" font-size="13" font-weight="bold" lengthAdjust="spacing" textLength="14" x="55" y="1823.8779">39</text><text fill="#000000" font-family="sans-serif" font-size="13" lengthAdjust="spacing" textLength="152" x="73" y="1823.8779">Informs operation success</text><!--MD5=[d85ee467f9c251e481b110f43ba85de8]
@startuml

title "US027 - As Director, I want to define the Product Owner of a project."

autoactivate on
autonumber

actor "Director" as Director
participant ": AssignProductOwnerUI" as UI
participant ": AssignProductOwnerController" as Controller
participant ": Company" as Company
participant "project : Project" as Project
participant "sprintList : SprintList" as SprintList
participant "currentSprint : Sprint" as Sprint
participant "projectRoleStore : ProjectRoleStore" as ProjectRoleStore
participant "projectTeam : ProjectTeam" as ProjectTeam
participant "resource : Resource" as OriginalResource
participant "newResource : Resource" as newResource

activate Director

Director -> UI: Ask to access a project
    ref over UI, Controller : US027-SD-getProject()
UI - -> Director: projDTO

Director -> UI: Ask to access resource of a project
    ref over UI, Controller : us027-SD-getResource()
return resDTO

Director -> UI: Define as Product Owner
alt result = true "Assign Product Owner"
    UI -> Controller: assignRole(resourceName, roleName)
    Controller -> Project: getSprints()
    return sprintStore
    Controller -> SprintList: getCurrentSprint()
        loop isCurrentSprint
            SprintList -> Sprint: isCurrentSprint()
            return true
        end
    return currentSprint
    Controller -> Sprint: getEndDate()
    return endDate
    Controller -> Project: getSprintDuration()
    return sprintDuration
    Controller -> Company: getProjectRoleStore()
    return projectRoleStore
    Controller -> ProjectRoleStore: getProjectRole(roleName)
    return role
        alt result = true "resourceName == name && assignProjectRole"
            Controller -> ProjectTeam: assignProjectRole(resource, startDateNextSprint, sprintDuration, role)
            alt result = true "Check if resource can be assigned to role by date"
            ProjectTeam -> OriginalResource: isAvailableToSprint(startDate, sprintDuration)
                alt result = true "check startDate and endDate"
                OriginalResource -> OriginalResource: isBefore(startDate)
                return true
                OriginalResource -> OriginalResource: isAfter(endDate)
                return true
                end
            return true
            end
            ProjectTeam -> OriginalResource: copyUpdateProjectRoleOfAResource(originalResource, startDateNewRole, role)
            OriginalResource -> newResource**: Resource(originalResource)
                ProjectTeam -> newResource: setRole(role)
                deactivate
                ProjectTeam -> newResource: setStartDate(startDate)
                deactivate
                ProjectTeam -> OriginalResource: setEndDate(startDate)
                deactivate
            return newResource
            alt result = false "check if the role exist and is current"
                    ProjectTeam -> ProjectTeam: checkIfRoleCurrentExistInTheProjectTeam(role,startDate)
                    deactivate
            end
                    ProjectTeam -> ProjectTeam: saveResource(newResource)
                    return true
        return true
        end
    return true
end
return Informs operation success

@enduml

PlantUML version 1.2022.0(Tue Jan 11 16:16:42 GMT 2022)
(GPL source distribution)
Java Runtime: OpenJDK Runtime Environment
JVM: OpenJDK 64-Bit Server VM
Default Encoding: Cp1252
Language: pt
Country: PT
--></g></svg>