<?xml version="1.0" encoding="UTF-8" standalone="no"?><svg xmlns="http://www.w3.org/2000/svg" xmlns:xlink="http://www.w3.org/1999/xlink" contentScriptType="application/ecmascript" contentStyleType="text/css" height="535px" preserveAspectRatio="none" style="width:569px;height:535px;background:#FFFFFF;" version="1.1" viewBox="0 0 569 535" width="569px" zoomAndPan="magnify"><defs><filter height="300%" id="fc4pl1x0g233k" width="300%" x="-1" y="-1"><feGaussianBlur result="blurOut" stdDeviation="2.0"/><feColorMatrix in="blurOut" result="blurOut2" type="matrix" values="0 0 0 0 0 0 0 0 0 0 0 0 0 0 0 0 0 0 .4 0"/><feOffset dx="4.0" dy="4.0" in="blurOut2" result="blurOut3"/><feBlend in="SourceGraphic" in2="blurOut3" mode="normal"/></filter></defs><g><text fill="#000000" font-family="sans-serif" font-size="18" lengthAdjust="spacing" textLength="544" x="9" y="30.6855">US027 - As Director, I want to define the Product Owner of a project.</text><rect fill="#FFFFFF" filter="url(#fc4pl1x0g233k)" height="304.5156" style="stroke:#A80036;stroke-width:1.0;" width="10" x="171" y="136.25"/><rect fill="#FFFFFF" filter="url(#fc4pl1x0g233k)" height="30.3516" style="stroke:#A80036;stroke-width:1.0;" width="10" x="375" y="158.6016"/><rect fill="#FFFFFF" filter="url(#fc4pl1x0g233k)" height="30.3516" style="stroke:#A80036;stroke-width:1.0;" width="10" x="375" y="219.3047"/><rect fill="#FFFFFF" filter="url(#fc4pl1x0g233k)" height="30.3516" style="stroke:#A80036;stroke-width:1.0;" width="10" x="375" y="280.0078"/><rect fill="#FFFFFF" filter="url(#fc4pl1x0g233k)" height="30.3516" style="stroke:#A80036;stroke-width:1.0;" width="10" x="375" y="340.7109"/><rect fill="#FFFFFF" filter="url(#fc4pl1x0g233k)" height="30.3516" style="stroke:#A80036;stroke-width:1.0;" width="10" x="375" y="401.4141"/><line style="stroke:#A80036;stroke-width:1.0;stroke-dasharray:5.0,5.0;" x1="176" x2="176" y1="126.25" y2="449.7656"/><line style="stroke:#A80036;stroke-width:1.0;stroke-dasharray:5.0,5.0;" x1="380" x2="380" y1="126.25" y2="449.7656"/><text fill="#000000" font-family="sans-serif" font-size="14" lengthAdjust="spacing" textLength="50" x="148" y="123.1738">Director</text><ellipse cx="176" cy="51.6406" fill="#FEFECE" filter="url(#fc4pl1x0g233k)" rx="8" ry="8" style="stroke:#A80036;stroke-width:2.0;"/><path d="M176,59.6406 L176,86.6406 M163,67.6406 L189,67.6406 M176,86.6406 L163,101.6406 M176,86.6406 L189,101.6406 " fill="none" filter="url(#fc4pl1x0g233k)" style="stroke:#A80036;stroke-width:2.0;"/><text fill="#000000" font-family="sans-serif" font-size="14" lengthAdjust="spacing" textLength="50" x="148" y="463.2988">Director</text><ellipse cx="176" cy="476.375" fill="#FEFECE" filter="url(#fc4pl1x0g233k)" rx="8" ry="8" style="stroke:#A80036;stroke-width:2.0;"/><path d="M176,484.375 L176,511.375 M163,492.375 L189,492.375 M176,511.375 L163,526.375 M176,511.375 L189,526.375 " fill="none" filter="url(#fc4pl1x0g233k)" style="stroke:#A80036;stroke-width:2.0;"/><rect fill="#FEFECE" filter="url(#fc4pl1x0g233k)" height="31.6094" style="stroke:#A80036;stroke-width:1.5;" width="64" x="346" y="89.6406"/><text fill="#000000" font-family="sans-serif" font-size="14" lengthAdjust="spacing" textLength="50" x="353" y="111.1738">:System</text><rect fill="#FEFECE" filter="url(#fc4pl1x0g233k)" height="31.6094" style="stroke:#A80036;stroke-width:1.5;" width="64" x="346" y="448.7656"/><text fill="#000000" font-family="sans-serif" font-size="14" lengthAdjust="spacing" textLength="50" x="353" y="470.2988">:System</text><rect fill="#FFFFFF" filter="url(#fc4pl1x0g233k)" height="304.5156" style="stroke:#A80036;stroke-width:1.0;" width="10" x="171" y="136.25"/><rect fill="#FFFFFF" filter="url(#fc4pl1x0g233k)" height="30.3516" style="stroke:#A80036;stroke-width:1.0;" width="10" x="375" y="158.6016"/><rect fill="#FFFFFF" filter="url(#fc4pl1x0g233k)" height="30.3516" style="stroke:#A80036;stroke-width:1.0;" width="10" x="375" y="219.3047"/><rect fill="#FFFFFF" filter="url(#fc4pl1x0g233k)" height="30.3516" style="stroke:#A80036;stroke-width:1.0;" width="10" x="375" y="280.0078"/><rect fill="#FFFFFF" filter="url(#fc4pl1x0g233k)" height="30.3516" style="stroke:#A80036;stroke-width:1.0;" width="10" x="375" y="340.7109"/><rect fill="#FFFFFF" filter="url(#fc4pl1x0g233k)" height="30.3516" style="stroke:#A80036;stroke-width:1.0;" width="10" x="375" y="401.4141"/><polygon fill="#A80036" points="363,154.6016,373,158.6016,363,162.6016,367,158.6016" style="stroke:#A80036;stroke-width:1.0;"/><line style="stroke:#A80036;stroke-width:1.0;" x1="181" x2="369" y1="158.6016" y2="158.6016"/><text fill="#000000" font-family="sans-serif" font-size="13" font-weight="bold" lengthAdjust="spacing" textLength="7" x="188" y="153.7451">1</text><text fill="#000000" font-family="sans-serif" font-size="13" lengthAdjust="spacing" textLength="151" x="199" y="153.7451">Access the list of projects</text><polygon fill="#A80036" points="192,184.9531,182,188.9531,192,192.9531,188,188.9531" style="stroke:#A80036;stroke-width:1.0;"/><line style="stroke:#A80036;stroke-width:1.0;stroke-dasharray:2.0,2.0;" x1="186" x2="379" y1="188.9531" y2="188.9531"/><text fill="#000000" font-family="sans-serif" font-size="13" font-weight="bold" lengthAdjust="spacing" textLength="7" x="198" y="184.0967">2</text><text fill="#000000" font-family="sans-serif" font-size="13" lengthAdjust="spacing" textLength="66" x="209" y="184.0967">projectsDto</text><polygon fill="#A80036" points="363,215.3047,373,219.3047,363,223.3047,367,219.3047" style="stroke:#A80036;stroke-width:1.0;"/><line style="stroke:#A80036;stroke-width:1.0;" x1="181" x2="369" y1="219.3047" y2="219.3047"/><text fill="#000000" font-family="sans-serif" font-size="13" font-weight="bold" lengthAdjust="spacing" textLength="7" x="188" y="214.4482">3</text><text fill="#000000" font-family="sans-serif" font-size="13" lengthAdjust="spacing" textLength="91" x="199" y="214.4482">Select a project</text><polygon fill="#A80036" points="192,245.6563,182,249.6563,192,253.6563,188,249.6563" style="stroke:#A80036;stroke-width:1.0;"/><line style="stroke:#A80036;stroke-width:1.0;stroke-dasharray:2.0,2.0;" x1="186" x2="379" y1="249.6563" y2="249.6563"/><text fill="#000000" font-family="sans-serif" font-size="13" font-weight="bold" lengthAdjust="spacing" textLength="7" x="198" y="244.7998">4</text><text fill="#000000" font-family="sans-serif" font-size="13" lengthAdjust="spacing" textLength="149" x="209" y="244.7998">Shows project information</text><polygon fill="#A80036" points="363,276.0078,373,280.0078,363,284.0078,367,280.0078" style="stroke:#A80036;stroke-width:1.0;"/><line style="stroke:#A80036;stroke-width:1.0;" x1="181" x2="369" y1="280.0078" y2="280.0078"/><text fill="#000000" font-family="sans-serif" font-size="13" font-weight="bold" lengthAdjust="spacing" textLength="7" x="188" y="275.1514">5</text><text fill="#000000" font-family="sans-serif" font-size="13" lengthAdjust="spacing" textLength="155" x="199" y="275.1514">Access the list of resource</text><polygon fill="#A80036" points="192,306.3594,182,310.3594,192,314.3594,188,310.3594" style="stroke:#A80036;stroke-width:1.0;"/><line style="stroke:#A80036;stroke-width:1.0;stroke-dasharray:2.0,2.0;" x1="186" x2="379" y1="310.3594" y2="310.3594"/><text fill="#000000" font-family="sans-serif" font-size="13" font-weight="bold" lengthAdjust="spacing" textLength="7" x="198" y="305.5029">6</text><text fill="#000000" font-family="sans-serif" font-size="13" lengthAdjust="spacing" textLength="134" x="209" y="305.5029">Shows projectTeamDto</text><polygon fill="#A80036" points="363,336.7109,373,340.7109,363,344.7109,367,340.7109" style="stroke:#A80036;stroke-width:1.0;"/><line style="stroke:#A80036;stroke-width:1.0;" x1="181" x2="369" y1="340.7109" y2="340.7109"/><text fill="#000000" font-family="sans-serif" font-size="13" font-weight="bold" lengthAdjust="spacing" textLength="7" x="188" y="335.8545">7</text><text fill="#000000" font-family="sans-serif" font-size="13" lengthAdjust="spacing" textLength="103" x="199" y="335.8545">Choose Resource</text><polygon fill="#A80036" points="192,367.0625,182,371.0625,192,375.0625,188,371.0625" style="stroke:#A80036;stroke-width:1.0;"/><line style="stroke:#A80036;stroke-width:1.0;stroke-dasharray:2.0,2.0;" x1="186" x2="379" y1="371.0625" y2="371.0625"/><text fill="#000000" font-family="sans-serif" font-size="13" font-weight="bold" lengthAdjust="spacing" textLength="7" x="198" y="366.2061">8</text><text fill="#000000" font-family="sans-serif" font-size="13" lengthAdjust="spacing" textLength="113" x="209" y="366.2061">Shows resourceDto</text><polygon fill="#A80036" points="363,397.4141,373,401.4141,363,405.4141,367,401.4141" style="stroke:#A80036;stroke-width:1.0;"/><line style="stroke:#A80036;stroke-width:1.0;" x1="181" x2="369" y1="401.4141" y2="401.4141"/><text fill="#000000" font-family="sans-serif" font-size="13" font-weight="bold" lengthAdjust="spacing" textLength="7" x="188" y="396.5576">9</text><text fill="#000000" font-family="sans-serif" font-size="13" lengthAdjust="spacing" textLength="126" x="199" y="396.5576">Define Product Owner</text><polygon fill="#A80036" points="192,427.7656,182,431.7656,192,435.7656,188,431.7656" style="stroke:#A80036;stroke-width:1.0;"/><line style="stroke:#A80036;stroke-width:1.0;stroke-dasharray:2.0,2.0;" x1="186" x2="379" y1="431.7656" y2="431.7656"/><text fill="#000000" font-family="sans-serif" font-size="13" font-weight="bold" lengthAdjust="spacing" textLength="14" x="198" y="426.9092">10</text><text fill="#000000" font-family="sans-serif" font-size="13" lengthAdjust="spacing" textLength="152" x="216" y="426.9092">Informs operation success</text><!--MD5=[0e550ab0f5ac139c455a25cee68916f5]
@startuml

title "US027 - As Director, I want to define the Product Owner of a project."
autoactivate on
autonumber

actor "Director" as Director
participant ":System" as System

activate Director

Director -> System: Access the list of projects
System - -> Director: projectsDto
Director -> System: Select a project
System - -> Director: Shows project information
Director -> System: Access the list of resource
System - -> Director: Shows projectTeamDto
Director -> System: Choose Resource
System - -> Director: Shows resourceDto
Director -> System: Define Product Owner
System - -> Director: Informs operation success


@enduml

PlantUML version 1.2022.0(Tue Jan 11 16:16:42 GMT 2022)
(GPL source distribution)
Java Runtime: OpenJDK Runtime Environment
JVM: OpenJDK 64-Bit Server VM
Default Encoding: Cp1252
Language: pt
Country: PT
--></g></svg>