<?xml version="1.0" encoding="UTF-8" standalone="no"?><svg xmlns="http://www.w3.org/2000/svg" xmlns:xlink="http://www.w3.org/1999/xlink" contentScriptType="application/ecmascript" contentStyleType="text/css" height="413px" preserveAspectRatio="none" style="width:569px;height:413px;background:#FFFFFF;" version="1.1" viewBox="0 0 569 413" width="569px" zoomAndPan="magnify"><defs><filter height="300%" id="ff6ubbyjwfslq" width="300%" x="-1" y="-1"><feGaussianBlur result="blurOut" stdDeviation="2.0"/><feColorMatrix in="blurOut" result="blurOut2" type="matrix" values="0 0 0 0 0 0 0 0 0 0 0 0 0 0 0 0 0 0 .4 0"/><feOffset dx="4.0" dy="4.0" in="blurOut2" result="blurOut3"/><feBlend in="SourceGraphic" in2="blurOut3" mode="normal"/></filter></defs><g><text fill="#000000" font-family="sans-serif" font-size="18" lengthAdjust="spacing" textLength="544" x="9" y="30.6855">US027 - As Director, I want to define the Product Owner of a project.</text><rect fill="#FFFFFF" filter="url(#ff6ubbyjwfslq)" height="183.1094" style="stroke:#A80036;stroke-width:1.0;" width="10" x="132.5" y="136.25"/><rect fill="#FFFFFF" filter="url(#ff6ubbyjwfslq)" height="30.3516" style="stroke:#A80036;stroke-width:1.0;" width="10" x="413.5" y="158.6016"/><rect fill="#FFFFFF" filter="url(#ff6ubbyjwfslq)" height="30.3516" style="stroke:#A80036;stroke-width:1.0;" width="10" x="413.5" y="219.3047"/><rect fill="#FFFFFF" filter="url(#ff6ubbyjwfslq)" height="30.3516" style="stroke:#A80036;stroke-width:1.0;" width="10" x="413.5" y="280.0078"/><line style="stroke:#A80036;stroke-width:1.0;stroke-dasharray:5.0,5.0;" x1="137.5" x2="137.5" y1="126.25" y2="328.3594"/><line style="stroke:#A80036;stroke-width:1.0;stroke-dasharray:5.0,5.0;" x1="418.5" x2="418.5" y1="126.25" y2="328.3594"/><text fill="#000000" font-family="sans-serif" font-size="14" lengthAdjust="spacing" textLength="50" x="109.5" y="123.1738">Director</text><ellipse cx="137.5" cy="51.6406" fill="#FEFECE" filter="url(#ff6ubbyjwfslq)" rx="8" ry="8" style="stroke:#A80036;stroke-width:2.0;"/><path d="M137.5,59.6406 L137.5,86.6406 M124.5,67.6406 L150.5,67.6406 M137.5,86.6406 L124.5,101.6406 M137.5,86.6406 L150.5,101.6406 " fill="none" filter="url(#ff6ubbyjwfslq)" style="stroke:#A80036;stroke-width:2.0;"/><text fill="#000000" font-family="sans-serif" font-size="14" lengthAdjust="spacing" textLength="50" x="109.5" y="341.8926">Director</text><ellipse cx="137.5" cy="354.9688" fill="#FEFECE" filter="url(#ff6ubbyjwfslq)" rx="8" ry="8" style="stroke:#A80036;stroke-width:2.0;"/><path d="M137.5,362.9688 L137.5,389.9688 M124.5,370.9688 L150.5,370.9688 M137.5,389.9688 L124.5,404.9688 M137.5,389.9688 L150.5,404.9688 " fill="none" filter="url(#ff6ubbyjwfslq)" style="stroke:#A80036;stroke-width:2.0;"/><rect fill="#FEFECE" filter="url(#ff6ubbyjwfslq)" height="31.6094" style="stroke:#A80036;stroke-width:1.5;" width="64" x="384.5" y="89.6406"/><text fill="#000000" font-family="sans-serif" font-size="14" lengthAdjust="spacing" textLength="50" x="391.5" y="111.1738">:System</text><rect fill="#FEFECE" filter="url(#ff6ubbyjwfslq)" height="31.6094" style="stroke:#A80036;stroke-width:1.5;" width="64" x="384.5" y="327.3594"/><text fill="#000000" font-family="sans-serif" font-size="14" lengthAdjust="spacing" textLength="50" x="391.5" y="348.8926">:System</text><rect fill="#FFFFFF" filter="url(#ff6ubbyjwfslq)" height="183.1094" style="stroke:#A80036;stroke-width:1.0;" width="10" x="132.5" y="136.25"/><rect fill="#FFFFFF" filter="url(#ff6ubbyjwfslq)" height="30.3516" style="stroke:#A80036;stroke-width:1.0;" width="10" x="413.5" y="158.6016"/><rect fill="#FFFFFF" filter="url(#ff6ubbyjwfslq)" height="30.3516" style="stroke:#A80036;stroke-width:1.0;" width="10" x="413.5" y="219.3047"/><rect fill="#FFFFFF" filter="url(#ff6ubbyjwfslq)" height="30.3516" style="stroke:#A80036;stroke-width:1.0;" width="10" x="413.5" y="280.0078"/><polygon fill="#A80036" points="401.5,154.6016,411.5,158.6016,401.5,162.6016,405.5,158.6016" style="stroke:#A80036;stroke-width:1.0;"/><line style="stroke:#A80036;stroke-width:1.0;" x1="142.5" x2="407.5" y1="158.6016" y2="158.6016"/><text fill="#000000" font-family="sans-serif" font-size="13" font-weight="bold" lengthAdjust="spacing" textLength="7" x="149.5" y="153.7451">1</text><text fill="#000000" font-family="sans-serif" font-size="13" lengthAdjust="spacing" textLength="178" x="160.5" y="153.7451">Ask to access a project (code)</text><polygon fill="#A80036" points="153.5,184.9531,143.5,188.9531,153.5,192.9531,149.5,188.9531" style="stroke:#A80036;stroke-width:1.0;"/><line style="stroke:#A80036;stroke-width:1.0;stroke-dasharray:2.0,2.0;" x1="147.5" x2="417.5" y1="188.9531" y2="188.9531"/><text fill="#000000" font-family="sans-serif" font-size="13" font-weight="bold" lengthAdjust="spacing" textLength="7" x="159.5" y="184.0967">2</text><text fill="#000000" font-family="sans-serif" font-size="13" lengthAdjust="spacing" textLength="180" x="170.5" y="184.0967">Shows the request project data</text><polygon fill="#A80036" points="401.5,215.3047,411.5,219.3047,401.5,223.3047,405.5,219.3047" style="stroke:#A80036;stroke-width:1.0;"/><line style="stroke:#A80036;stroke-width:1.0;" x1="142.5" x2="407.5" y1="219.3047" y2="219.3047"/><text fill="#000000" font-family="sans-serif" font-size="13" font-weight="bold" lengthAdjust="spacing" textLength="7" x="149.5" y="214.4482">3</text><text fill="#000000" font-family="sans-serif" font-size="13" lengthAdjust="spacing" textLength="241" x="160.5" y="214.4482">sk to access resource of a project (name)</text><polygon fill="#A80036" points="153.5,245.6563,143.5,249.6563,153.5,253.6563,149.5,249.6563" style="stroke:#A80036;stroke-width:1.0;"/><line style="stroke:#A80036;stroke-width:1.0;stroke-dasharray:2.0,2.0;" x1="147.5" x2="417.5" y1="249.6563" y2="249.6563"/><text fill="#000000" font-family="sans-serif" font-size="13" font-weight="bold" lengthAdjust="spacing" textLength="7" x="159.5" y="244.7998">4</text><text fill="#000000" font-family="sans-serif" font-size="13" lengthAdjust="spacing" textLength="191" x="170.5" y="244.7998">Shows the request resource data</text><polygon fill="#A80036" points="401.5,276.0078,411.5,280.0078,401.5,284.0078,405.5,280.0078" style="stroke:#A80036;stroke-width:1.0;"/><line style="stroke:#A80036;stroke-width:1.0;" x1="142.5" x2="407.5" y1="280.0078" y2="280.0078"/><text fill="#000000" font-family="sans-serif" font-size="13" font-weight="bold" lengthAdjust="spacing" textLength="7" x="149.5" y="275.1514">5</text><text fill="#000000" font-family="sans-serif" font-size="13" lengthAdjust="spacing" textLength="126" x="160.5" y="275.1514">Define Product Owner</text><polygon fill="#A80036" points="153.5,306.3594,143.5,310.3594,153.5,314.3594,149.5,310.3594" style="stroke:#A80036;stroke-width:1.0;"/><line style="stroke:#A80036;stroke-width:1.0;stroke-dasharray:2.0,2.0;" x1="147.5" x2="417.5" y1="310.3594" y2="310.3594"/><text fill="#000000" font-family="sans-serif" font-size="13" font-weight="bold" lengthAdjust="spacing" textLength="7" x="159.5" y="305.5029">6</text><text fill="#000000" font-family="sans-serif" font-size="13" lengthAdjust="spacing" textLength="152" x="170.5" y="305.5029">Informs operation success</text><!--MD5=[0b2d2f1e37c12e985faf23db765d3a62]
@startuml

title "US027 - As Director, I want to define the Product Owner of a project."
autoactivate on
autonumber

actor "Director" as Director
participant ":System" as System

activate Director

Director -> System: Ask to access a project (code)
System - -> Director: Shows the request project data
Director -> System: sk to access resource of a project (name)
System - -> Director: Shows the request resource data
Director -> System: Define Product Owner
System - -> Director: Informs operation success


@enduml

PlantUML version 1.2022.0(Tue Jan 11 16:16:42 GMT 2022)
(GPL source distribution)
Java Runtime: OpenJDK Runtime Environment
JVM: OpenJDK 64-Bit Server VM
Default Encoding: Cp1252
Language: pt
Country: PT
--></g></svg>