<?xml version="1.0" encoding="UTF-8" standalone="no"?><svg xmlns="http://www.w3.org/2000/svg" xmlns:xlink="http://www.w3.org/1999/xlink" contentScriptType="application/ecmascript" contentStyleType="text/css" height="735px" preserveAspectRatio="none" style="width:1767px;height:735px;background:#FFFFFF;" version="1.1" viewBox="0 0 1767 735" width="1767px" zoomAndPan="magnify"><defs><filter height="300%" id="fccu1lftk00kp" width="300%" x="-1" y="-1"><feGaussianBlur result="blurOut" stdDeviation="2.0"/><feColorMatrix in="blurOut" result="blurOut2" type="matrix" values="0 0 0 0 0 0 0 0 0 0 0 0 0 0 0 0 0 0 .4 0"/><feOffset dx="4.0" dy="4.0" in="blurOut2" result="blurOut3"/><feBlend in="SourceGraphic" in2="blurOut3" mode="normal"/></filter></defs><g><text fill="#000000" font-family="sans-serif" font-size="18" lengthAdjust="spacing" textLength="544" x="609.25" y="30.6855">US027 - As Director, I want to define the Product Owner of a project.</text><rect fill="#FFFFFF" filter="url(#fccu1lftk00kp)" height="504.8828" style="stroke:#A80036;stroke-width:1.0;" width="10" x="28" y="136.25"/><rect fill="#FFFFFF" filter="url(#fccu1lftk00kp)" height="473.5313" style="stroke:#A80036;stroke-width:1.0;" width="10" x="274" y="158.6016"/><rect fill="#FFFFFF" filter="url(#fccu1lftk00kp)" height="412.8281" style="stroke:#A80036;stroke-width:1.0;" width="10" x="479" y="188.9531"/><rect fill="#FFFFFF" filter="url(#fccu1lftk00kp)" height="30.3516" style="stroke:#A80036;stroke-width:1.0;" width="10" x="644" y="219.3047"/><rect fill="#FFFFFF" filter="url(#fccu1lftk00kp)" height="184.1094" style="stroke:#A80036;stroke-width:1.0;" width="10" x="780" y="280.0078"/><rect fill="#FFFFFF" filter="url(#fccu1lftk00kp)" height="30.3516" style="stroke:#A80036;stroke-width:1.0;" width="10" x="931" y="335.7109"/><rect fill="#FFFFFF" filter="url(#fccu1lftk00kp)" height="30.3516" style="stroke:#A80036;stroke-width:1.0;" width="10" x="931" y="396.4141"/><rect fill="#FFFFFF" filter="url(#fccu1lftk00kp)" height="76.9609" style="stroke:#A80036;stroke-width:1.0;" width="10" x="1053.5" y="494.4688"/><rect fill="#FFFFFF" filter="url(#fccu1lftk00kp)" height="139.7578" style="stroke:#000000;stroke-width:2.0;" width="291.5" x="694" y="295.0078"/><line style="stroke:#A80036;stroke-width:1.0;stroke-dasharray:5.0,5.0;" x1="33" x2="33" y1="126.25" y2="650.1328"/><line style="stroke:#A80036;stroke-width:1.0;stroke-dasharray:5.0,5.0;" x1="279" x2="279" y1="126.25" y2="650.1328"/><line style="stroke:#A80036;stroke-width:1.0;stroke-dasharray:5.0,5.0;" x1="484" x2="484" y1="126.25" y2="650.1328"/><line style="stroke:#A80036;stroke-width:1.0;stroke-dasharray:5.0,5.0;" x1="649" x2="649" y1="126.25" y2="650.1328"/><line style="stroke:#A80036;stroke-width:1.0;stroke-dasharray:5.0,5.0;" x1="785" x2="785" y1="126.25" y2="650.1328"/><line style="stroke:#A80036;stroke-width:1.0;stroke-dasharray:5.0,5.0;" x1="935.5" x2="935.5" y1="126.25" y2="650.1328"/><line style="stroke:#A80036;stroke-width:1.0;stroke-dasharray:5.0,5.0;" x1="1058.5" x2="1058.5" y1="126.25" y2="650.1328"/><line style="stroke:#A80036;stroke-width:1.0;stroke-dasharray:5.0,5.0;" x1="1675.5" x2="1675.5" y1="535.7734" y2="650.1328"/><text fill="#000000" font-family="sans-serif" font-size="14" lengthAdjust="spacing" textLength="50" x="5" y="123.1738">Director</text><ellipse cx="33" cy="51.6406" fill="#FEFECE" filter="url(#fccu1lftk00kp)" rx="8" ry="8" style="stroke:#A80036;stroke-width:2.0;"/><path d="M33,59.6406 L33,86.6406 M20,67.6406 L46,67.6406 M33,86.6406 L20,101.6406 M33,86.6406 L46,101.6406 " fill="none" filter="url(#fccu1lftk00kp)" style="stroke:#A80036;stroke-width:2.0;"/><text fill="#000000" font-family="sans-serif" font-size="14" lengthAdjust="spacing" textLength="50" x="5" y="663.666">Director</text><ellipse cx="33" cy="676.7422" fill="#FEFECE" filter="url(#fccu1lftk00kp)" rx="8" ry="8" style="stroke:#A80036;stroke-width:2.0;"/><path d="M33,684.7422 L33,711.7422 M20,692.7422 L46,692.7422 M33,711.7422 L20,726.7422 M33,711.7422 L46,726.7422 " fill="none" filter="url(#fccu1lftk00kp)" style="stroke:#A80036;stroke-width:2.0;"/><rect fill="#FEFECE" filter="url(#fccu1lftk00kp)" height="31.6094" style="stroke:#A80036;stroke-width:1.5;" width="166" x="194" y="89.6406"/><text fill="#000000" font-family="sans-serif" font-size="14" lengthAdjust="spacing" textLength="152" x="201" y="111.1738">: AssignProductOwnerUI</text><rect fill="#FEFECE" filter="url(#fccu1lftk00kp)" height="31.6094" style="stroke:#A80036;stroke-width:1.5;" width="166" x="194" y="649.1328"/><text fill="#000000" font-family="sans-serif" font-size="14" lengthAdjust="spacing" textLength="152" x="201" y="670.666">: AssignProductOwnerUI</text><rect fill="#FEFECE" filter="url(#fccu1lftk00kp)" height="31.6094" style="stroke:#A80036;stroke-width:1.5;" width="216" x="374" y="89.6406"/><text fill="#000000" font-family="sans-serif" font-size="14" lengthAdjust="spacing" textLength="202" x="381" y="111.1738">: AssignProductOwnerController</text><rect fill="#FEFECE" filter="url(#fccu1lftk00kp)" height="31.6094" style="stroke:#A80036;stroke-width:1.5;" width="216" x="374" y="649.1328"/><text fill="#000000" font-family="sans-serif" font-size="14" lengthAdjust="spacing" textLength="202" x="381" y="670.666">: AssignProductOwnerController</text><rect fill="#FEFECE" filter="url(#fccu1lftk00kp)" height="31.6094" style="stroke:#A80036;stroke-width:1.5;" width="86" x="604" y="89.6406"/><text fill="#000000" font-family="sans-serif" font-size="14" lengthAdjust="spacing" textLength="72" x="611" y="111.1738">proj:Project</text><rect fill="#FEFECE" filter="url(#fccu1lftk00kp)" height="31.6094" style="stroke:#A80036;stroke-width:1.5;" width="86" x="604" y="649.1328"/><text fill="#000000" font-family="sans-serif" font-size="14" lengthAdjust="spacing" textLength="72" x="611" y="670.666">proj:Project</text><rect fill="#FEFECE" filter="url(#fccu1lftk00kp)" height="31.6094" style="stroke:#A80036;stroke-width:1.5;" width="158" x="704" y="89.6406"/><text fill="#000000" font-family="sans-serif" font-size="14" lengthAdjust="spacing" textLength="144" x="711" y="111.1738">projTeam:ProjectTeam</text><rect fill="#FEFECE" filter="url(#fccu1lftk00kp)" height="31.6094" style="stroke:#A80036;stroke-width:1.5;" width="158" x="704" y="649.1328"/><text fill="#000000" font-family="sans-serif" font-size="14" lengthAdjust="spacing" textLength="144" x="711" y="670.666">projTeam:ProjectTeam</text><rect fill="#FEFECE" filter="url(#fccu1lftk00kp)" height="31.6094" style="stroke:#A80036;stroke-width:1.5;" width="75" x="896.5" y="89.6406"/><text fill="#000000" font-family="sans-serif" font-size="14" lengthAdjust="spacing" textLength="61" x="903.5" y="111.1738">Resource</text><rect fill="#FEFECE" filter="url(#fccu1lftk00kp)" height="31.6094" style="stroke:#A80036;stroke-width:1.5;" width="75" x="896.5" y="649.1328"/><text fill="#000000" font-family="sans-serif" font-size="14" lengthAdjust="spacing" textLength="61" x="903.5" y="670.666">Resource</text><rect fill="#FEFECE" filter="url(#fccu1lftk00kp)" height="31.6094" style="stroke:#A80036;stroke-width:1.5;" width="142" x="985.5" y="89.6406"/><text fill="#000000" font-family="sans-serif" font-size="14" lengthAdjust="spacing" textLength="128" x="992.5" y="111.1738">ProjectTeamMapper</text><rect fill="#FEFECE" filter="url(#fccu1lftk00kp)" height="31.6094" style="stroke:#A80036;stroke-width:1.5;" width="142" x="985.5" y="649.1328"/><text fill="#000000" font-family="sans-serif" font-size="14" lengthAdjust="spacing" textLength="128" x="992.5" y="670.666">ProjectTeamMapper</text><rect fill="#FEFECE" filter="url(#fccu1lftk00kp)" height="31.6094" style="stroke:#A80036;stroke-width:1.5;" width="159" x="1594.5" y="649.1328"/><text fill="#000000" font-family="sans-serif" font-size="14" lengthAdjust="spacing" textLength="145" x="1601.5" y="670.666">resDTO:ResourceDTO</text><rect fill="#FFFFFF" filter="url(#fccu1lftk00kp)" height="504.8828" style="stroke:#A80036;stroke-width:1.0;" width="10" x="28" y="136.25"/><rect fill="#FFFFFF" filter="url(#fccu1lftk00kp)" height="473.5313" style="stroke:#A80036;stroke-width:1.0;" width="10" x="274" y="158.6016"/><rect fill="#FFFFFF" filter="url(#fccu1lftk00kp)" height="412.8281" style="stroke:#A80036;stroke-width:1.0;" width="10" x="479" y="188.9531"/><rect fill="#FFFFFF" filter="url(#fccu1lftk00kp)" height="30.3516" style="stroke:#A80036;stroke-width:1.0;" width="10" x="644" y="219.3047"/><rect fill="#FFFFFF" filter="url(#fccu1lftk00kp)" height="184.1094" style="stroke:#A80036;stroke-width:1.0;" width="10" x="780" y="280.0078"/><rect fill="#FFFFFF" filter="url(#fccu1lftk00kp)" height="30.3516" style="stroke:#A80036;stroke-width:1.0;" width="10" x="931" y="335.7109"/><rect fill="#FFFFFF" filter="url(#fccu1lftk00kp)" height="30.3516" style="stroke:#A80036;stroke-width:1.0;" width="10" x="931" y="396.4141"/><rect fill="#FFFFFF" filter="url(#fccu1lftk00kp)" height="76.9609" style="stroke:#A80036;stroke-width:1.0;" width="10" x="1053.5" y="494.4688"/><polygon fill="#A80036" points="262,154.6016,272,158.6016,262,162.6016,266,158.6016" style="stroke:#A80036;stroke-width:1.0;"/><line style="stroke:#A80036;stroke-width:1.0;" x1="38" x2="268" y1="158.6016" y2="158.6016"/><text fill="#000000" font-family="sans-serif" font-size="13" font-weight="bold" lengthAdjust="spacing" textLength="7" x="45" y="153.7451">1</text><text fill="#000000" font-family="sans-serif" font-size="13" lengthAdjust="spacing" textLength="206" x="56" y="153.7451">Ask to access resource of a project</text><polygon fill="#A80036" points="467,184.9531,477,188.9531,467,192.9531,471,188.9531" style="stroke:#A80036;stroke-width:1.0;"/><line style="stroke:#A80036;stroke-width:1.0;" x1="284" x2="473" y1="188.9531" y2="188.9531"/><text fill="#000000" font-family="sans-serif" font-size="13" font-weight="bold" lengthAdjust="spacing" textLength="7" x="291" y="184.0967">2</text><text fill="#000000" font-family="sans-serif" font-size="13" lengthAdjust="spacing" textLength="113" x="302" y="184.0967">getResource(name)</text><polygon fill="#A80036" points="632,215.3047,642,219.3047,632,223.3047,636,219.3047" style="stroke:#A80036;stroke-width:1.0;"/><line style="stroke:#A80036;stroke-width:1.0;" x1="489" x2="638" y1="219.3047" y2="219.3047"/><text fill="#000000" font-family="sans-serif" font-size="13" font-weight="bold" lengthAdjust="spacing" textLength="7" x="496" y="214.4482">3</text><text fill="#000000" font-family="sans-serif" font-size="13" lengthAdjust="spacing" textLength="99" x="507" y="214.4482">getProjectTeam()</text><polygon fill="#A80036" points="500,245.6563,490,249.6563,500,253.6563,496,249.6563" style="stroke:#A80036;stroke-width:1.0;"/><line style="stroke:#A80036;stroke-width:1.0;stroke-dasharray:2.0,2.0;" x1="494" x2="648" y1="249.6563" y2="249.6563"/><text fill="#000000" font-family="sans-serif" font-size="13" font-weight="bold" lengthAdjust="spacing" textLength="7" x="506" y="244.7998">4</text><text fill="#000000" font-family="sans-serif" font-size="13" lengthAdjust="spacing" textLength="53" x="517" y="244.7998">projTeam</text><polygon fill="#A80036" points="768,276.0078,778,280.0078,768,284.0078,772,280.0078" style="stroke:#A80036;stroke-width:1.0;"/><line style="stroke:#A80036;stroke-width:1.0;" x1="489" x2="774" y1="280.0078" y2="280.0078"/><text fill="#000000" font-family="sans-serif" font-size="13" font-weight="bold" lengthAdjust="spacing" textLength="7" x="496" y="275.1514">5</text><text fill="#000000" font-family="sans-serif" font-size="13" lengthAdjust="spacing" textLength="163" x="507" y="275.1514">getResourceByName(name)</text><path d="M694,295.0078 L767,295.0078 L767,303.0078 L757,313.0078 L694,313.0078 L694,295.0078 " fill="#EEEEEE" style="stroke:#000000;stroke-width:1.0;"/><rect fill="none" height="139.7578" style="stroke:#000000;stroke-width:2.0;" width="291.5" x="694" y="295.0078"/><text fill="#000000" font-family="sans-serif" font-size="13" font-weight="bold" lengthAdjust="spacing" textLength="28" x="709" y="309.5029">loop</text><text fill="#000000" font-family="sans-serif" font-size="11" font-weight="bold" lengthAdjust="spacing" textLength="95" x="782" y="308.4268">[hasEmail(email)]</text><polygon fill="#A80036" points="919,331.7109,929,335.7109,919,339.7109,923,335.7109" style="stroke:#A80036;stroke-width:1.0;"/><line style="stroke:#A80036;stroke-width:1.0;" x1="790" x2="925" y1="335.7109" y2="335.7109"/><text fill="#000000" font-family="sans-serif" font-size="13" font-weight="bold" lengthAdjust="spacing" textLength="7" x="797" y="330.8545">6</text><text fill="#000000" font-family="sans-serif" font-size="13" lengthAdjust="spacing" textLength="111" x="808" y="330.8545">isYourName(name)</text><polygon fill="#A80036" points="801,362.0625,791,366.0625,801,370.0625,797,366.0625" style="stroke:#A80036;stroke-width:1.0;"/><line style="stroke:#A80036;stroke-width:1.0;stroke-dasharray:2.0,2.0;" x1="795" x2="935" y1="366.0625" y2="366.0625"/><text fill="#000000" font-family="sans-serif" font-size="13" font-weight="bold" lengthAdjust="spacing" textLength="7" x="807" y="361.2061">7</text><text fill="#000000" font-family="sans-serif" font-size="13" lengthAdjust="spacing" textLength="22" x="818" y="361.2061">true</text><polygon fill="#A80036" points="919,392.4141,929,396.4141,919,400.4141,923,396.4141" style="stroke:#A80036;stroke-width:1.0;"/><line style="stroke:#A80036;stroke-width:1.0;" x1="790" x2="925" y1="396.4141" y2="396.4141"/><text fill="#000000" font-family="sans-serif" font-size="13" font-weight="bold" lengthAdjust="spacing" textLength="7" x="797" y="391.5576">8</text><text fill="#000000" font-family="sans-serif" font-size="13" lengthAdjust="spacing" textLength="60" x="808" y="391.5576">isCurrent()</text><polygon fill="#A80036" points="801,422.7656,791,426.7656,801,430.7656,797,426.7656" style="stroke:#A80036;stroke-width:1.0;"/><line style="stroke:#A80036;stroke-width:1.0;stroke-dasharray:2.0,2.0;" x1="795" x2="935" y1="426.7656" y2="426.7656"/><text fill="#000000" font-family="sans-serif" font-size="13" font-weight="bold" lengthAdjust="spacing" textLength="7" x="807" y="421.9092">9</text><text fill="#000000" font-family="sans-serif" font-size="13" lengthAdjust="spacing" textLength="22" x="818" y="421.9092">true</text><polygon fill="#A80036" points="500,460.1172,490,464.1172,500,468.1172,496,464.1172" style="stroke:#A80036;stroke-width:1.0;"/><line style="stroke:#A80036;stroke-width:1.0;stroke-dasharray:2.0,2.0;" x1="494" x2="784" y1="464.1172" y2="464.1172"/><text fill="#000000" font-family="sans-serif" font-size="13" font-weight="bold" lengthAdjust="spacing" textLength="14" x="506" y="459.2607">10</text><text fill="#000000" font-family="sans-serif" font-size="13" lengthAdjust="spacing" textLength="50" x="524" y="459.2607">resource</text><polygon fill="#A80036" points="1041.5,490.4688,1051.5,494.4688,1041.5,498.4688,1045.5,494.4688" style="stroke:#A80036;stroke-width:1.0;"/><line style="stroke:#A80036;stroke-width:1.0;" x1="489" x2="1047.5" y1="494.4688" y2="494.4688"/><text fill="#000000" font-family="sans-serif" font-size="13" font-weight="bold" lengthAdjust="spacing" textLength="14" x="496" y="489.6123">11</text><text fill="#000000" font-family="sans-serif" font-size="13" lengthAdjust="spacing" textLength="89" x="514" y="489.6123">toDto(resource)</text><polygon fill="#A80036" points="1582.5,520.8203,1592.5,524.8203,1582.5,528.8203,1586.5,524.8203" style="stroke:#A80036;stroke-width:1.0;"/><line style="stroke:#A80036;stroke-width:1.0;" x1="1063.5" x2="1588.5" y1="524.8203" y2="524.8203"/><text fill="#000000" font-family="sans-serif" font-size="13" font-weight="bold" lengthAdjust="spacing" textLength="14" x="1070.5" y="519.9639">12</text><text fill="#000000" font-family="sans-serif" font-size="13" lengthAdjust="spacing" textLength="489" x="1088.5" y="519.9639">ResourceDTO(name, role, startDate, endDate, costPerHour, percentageOfAllocation)</text><rect fill="#FEFECE" filter="url(#fccu1lftk00kp)" height="31.6094" style="stroke:#A80036;stroke-width:1.5;" width="159" x="1594.5" y="502.4688"/><text fill="#000000" font-family="sans-serif" font-size="14" lengthAdjust="spacing" textLength="145" x="1601.5" y="524.002">resDTO:ResourceDTO</text><polygon fill="#A80036" points="500,567.4297,490,571.4297,500,575.4297,496,571.4297" style="stroke:#A80036;stroke-width:1.0;"/><line style="stroke:#A80036;stroke-width:1.0;stroke-dasharray:2.0,2.0;" x1="494" x2="1057.5" y1="571.4297" y2="571.4297"/><text fill="#000000" font-family="sans-serif" font-size="13" font-weight="bold" lengthAdjust="spacing" textLength="14" x="506" y="566.5732">13</text><text fill="#000000" font-family="sans-serif" font-size="13" lengthAdjust="spacing" textLength="44" x="524" y="566.5732">resDTO</text><polygon fill="#A80036" points="295,597.7813,285,601.7813,295,605.7813,291,601.7813" style="stroke:#A80036;stroke-width:1.0;"/><line style="stroke:#A80036;stroke-width:1.0;stroke-dasharray:2.0,2.0;" x1="289" x2="483" y1="601.7813" y2="601.7813"/><text fill="#000000" font-family="sans-serif" font-size="13" font-weight="bold" lengthAdjust="spacing" textLength="14" x="301" y="596.9248">14</text><text fill="#000000" font-family="sans-serif" font-size="13" lengthAdjust="spacing" textLength="44" x="319" y="596.9248">resDTO</text><polygon fill="#A80036" points="49,628.1328,39,632.1328,49,636.1328,45,632.1328" style="stroke:#A80036;stroke-width:1.0;"/><line style="stroke:#A80036;stroke-width:1.0;stroke-dasharray:2.0,2.0;" x1="43" x2="278" y1="632.1328" y2="632.1328"/><text fill="#000000" font-family="sans-serif" font-size="13" font-weight="bold" lengthAdjust="spacing" textLength="14" x="55" y="627.2764">15</text><text fill="#000000" font-family="sans-serif" font-size="13" lengthAdjust="spacing" textLength="44" x="73" y="627.2764">resDTO</text><!--MD5=[8ea9fdff45fa6338a9d1229f1051a819]
@startuml

title "US027 - As Director, I want to define the Product Owner of a project."

autoactivate on
autonumber

actor "Director" as Director
participant ": AssignProductOwnerUI" as UI
participant ": AssignProductOwnerController" as Controller
participant "proj:Project" as Project
participant "projTeam:ProjectTeam" as ProjectTeam
participant "Resource" as Resource
participant "ProjectTeamMapper" as ProjectTeamMapper
participant "resDTO:ResourceDTO" as ResourceDTO

activate Director

Director -> UI: Ask to access resource of a project
UI -> Controller: getResource(name)
Controller -> Project: getProjectTeam()
return projTeam
Controller -> ProjectTeam: getResourceByName(name)
    loop hasEmail(email)
        ProjectTeam -> Resource: isYourName(name)
        return true
        ProjectTeam -> Resource: isCurrent()
        return true
    end
return resource
Controller -> ProjectTeamMapper: toDto(resource)
ProjectTeamMapper -> ResourceDTO**: ResourceDTO(name, role, startDate, endDate, costPerHour, percentageOfAllocation)
return resDTO
return resDTO
return resDTO

@enduml

PlantUML version 1.2022.0(Tue Jan 11 16:16:42 GMT 2022)
(GPL source distribution)
Java Runtime: OpenJDK Runtime Environment
JVM: OpenJDK 64-Bit Server VM
Default Encoding: Cp1252
Language: pt
Country: PT
--></g></svg>