<?xml version="1.0" encoding="UTF-8" standalone="no"?><svg xmlns="http://www.w3.org/2000/svg" xmlns:xlink="http://www.w3.org/1999/xlink" contentScriptType="application/ecmascript" contentStyleType="text/css" height="752px" preserveAspectRatio="none" style="width:591px;height:752px;background:#FFFFFF;" version="1.1" viewBox="0 0 591 752" width="591px" zoomAndPan="magnify"><defs><filter height="300%" id="f1gjt1ey1ygikp" width="300%" x="-1" y="-1"><feGaussianBlur result="blurOut" stdDeviation="2.0"/><feColorMatrix in="blurOut" result="blurOut2" type="matrix" values="0 0 0 0 0 0 0 0 0 0 0 0 0 0 0 0 0 0 .4 0"/><feOffset dx="4.0" dy="4.0" in="blurOut2" result="blurOut3"/><feBlend in="SourceGraphic" in2="blurOut3" mode="normal"/></filter></defs><g><text fill="#000000" font-family="sans-serif" font-size="18" lengthAdjust="spacing" textLength="582" x="2" y="17.4023">US011 - As Authenticated User, i want to change his/her password</text><!--MD5=[e7995e080a1dabd2ed66cd3257cae407]
class ChangePasswordUI--><rect codeLine="9" fill="#FEFECE" filter="url(#f1gjt1ey1ygikp)" height="48" id="ChangePasswordUI" style="stroke:#A80036;stroke-width:1.5;" width="141" x="216.5" y="28.1992"/><ellipse cx="231.5" cy="44.1992" fill="#ADD1B2" rx="11" ry="11" style="stroke:#A80036;stroke-width:1.0;"/><path d="M233.9731,50.3423 Q233.3921,50.6411 232.7529,50.7905 Q232.1138,50.9399 231.4082,50.9399 Q228.9014,50.9399 227.5815,49.2881 Q226.2617,47.6362 226.2617,44.5151 Q226.2617,41.3857 227.5815,39.7339 Q228.9014,38.082 231.4082,38.082 Q232.1138,38.082 232.7612,38.2314 Q233.4087,38.3809 233.9731,38.6797 L233.9731,41.4023 Q233.3423,40.8213 232.7488,40.5515 Q232.1553,40.2817 231.5244,40.2817 Q230.1797,40.2817 229.4949,41.3484 Q228.8101,42.415 228.8101,44.5151 Q228.8101,46.6069 229.4949,47.6736 Q230.1797,48.7402 231.5244,48.7402 Q232.1553,48.7402 232.7488,48.4705 Q233.3423,48.2007 233.9731,47.6196 Z " fill="#000000"/><text fill="#000000" font-family="sans-serif" font-size="12" lengthAdjust="spacing" textLength="109" x="245.5" y="48.7344">ChangePasswordUI</text><line style="stroke:#A80036;stroke-width:1.5;" x1="217.5" x2="356.5" y1="60.1992" y2="60.1992"/><line style="stroke:#A80036;stroke-width:1.5;" x1="217.5" x2="356.5" y1="68.1992" y2="68.1992"/><!--MD5=[b0e3cb68241936e93aa23f668d4ee427]
class ChangePasswordController--><rect codeLine="12" fill="#FEFECE" filter="url(#f1gjt1ey1ygikp)" height="60.9551" id="ChangePasswordController" style="stroke:#A80036;stroke-width:1.5;" width="448" x="63" y="137.1992"/><ellipse cx="205.75" cy="153.1992" fill="#ADD1B2" rx="11" ry="11" style="stroke:#A80036;stroke-width:1.0;"/><path d="M208.2231,159.3423 Q207.6421,159.6411 207.0029,159.7905 Q206.3638,159.9399 205.6582,159.9399 Q203.1514,159.9399 201.8315,158.2881 Q200.5117,156.6362 200.5117,153.5151 Q200.5117,150.3857 201.8315,148.7339 Q203.1514,147.082 205.6582,147.082 Q206.3638,147.082 207.0112,147.2314 Q207.6587,147.3809 208.2231,147.6797 L208.2231,150.4023 Q207.5923,149.8213 206.9988,149.5515 Q206.4053,149.2817 205.7744,149.2817 Q204.4297,149.2817 203.7449,150.3484 Q203.0601,151.415 203.0601,153.5151 Q203.0601,155.6069 203.7449,156.6736 Q204.4297,157.7402 205.7744,157.7402 Q206.4053,157.7402 206.9988,157.4705 Q207.5923,157.2007 208.2231,156.6196 Z " fill="#000000"/><text fill="#000000" font-family="sans-serif" font-size="12" lengthAdjust="spacing" textLength="154" x="226.25" y="157.7344">ChangePasswordController</text><line style="stroke:#A80036;stroke-width:1.5;" x1="64" x2="510" y1="169.1992" y2="169.1992"/><line style="stroke:#A80036;stroke-width:1.5;" x1="64" x2="510" y1="177.1992" y2="177.1992"/><text fill="#000000" font-family="sans-serif" font-size="11" lengthAdjust="spacing" textLength="436" x="69" y="191.834">+changePassword(email, oldPassword, newPassword, newPasswordConfirmation)</text><!--MD5=[02e4b9b7573f1156f41e60aa5b4e25a4]
class Company--><rect codeLine="16" fill="#FEFECE" filter="url(#f1gjt1ey1ygikp)" height="60.9551" id="Company" style="stroke:#A80036;stroke-width:1.5;" width="137" x="96.5" y="259.1992"/><ellipse cx="134.45" cy="275.1992" fill="#ADD1B2" rx="11" ry="11" style="stroke:#A80036;stroke-width:1.0;"/><path d="M136.9231,281.3423 Q136.3421,281.6411 135.7029,281.7905 Q135.0638,281.9399 134.3582,281.9399 Q131.8514,281.9399 130.5315,280.2881 Q129.2117,278.6362 129.2117,275.5151 Q129.2117,272.3857 130.5315,270.7339 Q131.8514,269.082 134.3582,269.082 Q135.0638,269.082 135.7112,269.2314 Q136.3587,269.3809 136.9231,269.6797 L136.9231,272.4023 Q136.2923,271.8213 135.6988,271.5515 Q135.1053,271.2817 134.4744,271.2817 Q133.1297,271.2817 132.4449,272.3484 Q131.7601,273.415 131.7601,275.5151 Q131.7601,277.6069 132.4449,278.6736 Q133.1297,279.7402 134.4744,279.7402 Q135.1053,279.7402 135.6988,279.4705 Q136.2923,279.2007 136.9231,278.6196 Z " fill="#000000"/><text fill="#000000" font-family="sans-serif" font-size="12" lengthAdjust="spacing" textLength="54" x="153.55" y="279.7344">Company</text><line style="stroke:#A80036;stroke-width:1.5;" x1="97.5" x2="232.5" y1="291.1992" y2="291.1992"/><line style="stroke:#A80036;stroke-width:1.5;" x1="97.5" x2="232.5" y1="299.1992" y2="299.1992"/><text fill="#000000" font-family="sans-serif" font-size="11" lengthAdjust="spacing" textLength="125" x="102.5" y="313.834">+getSystemUserStore()</text><!--MD5=[8787f7db94578849901ee2e9b6146b1d]
class SystemUserStore--><rect codeLine="20" fill="#FEFECE" filter="url(#f1gjt1ey1ygikp)" height="60.9551" id="SystemUserStore" style="stroke:#A80036;stroke-width:1.5;" width="139" x="165.5" y="397.1992"/><ellipse cx="185.9" cy="413.1992" fill="#ADD1B2" rx="11" ry="11" style="stroke:#A80036;stroke-width:1.0;"/><path d="M188.3731,419.3423 Q187.7921,419.6411 187.1529,419.7905 Q186.5138,419.9399 185.8082,419.9399 Q183.3014,419.9399 181.9815,418.2881 Q180.6617,416.6362 180.6617,413.5151 Q180.6617,410.3857 181.9815,408.7339 Q183.3014,407.082 185.8082,407.082 Q186.5138,407.082 187.1612,407.2314 Q187.8087,407.3809 188.3731,407.6797 L188.3731,410.4023 Q187.7423,409.8213 187.1488,409.5515 Q186.5553,409.2817 185.9244,409.2817 Q184.5797,409.2817 183.8949,410.3484 Q183.2101,411.415 183.2101,413.5151 Q183.2101,415.6069 183.8949,416.6736 Q184.5797,417.7402 185.9244,417.7402 Q186.5553,417.7402 187.1488,417.4705 Q187.7423,417.2007 188.3731,416.6196 Z " fill="#000000"/><text fill="#000000" font-family="sans-serif" font-size="12" lengthAdjust="spacing" textLength="95" x="201.1" y="417.7344">SystemUserStore</text><line style="stroke:#A80036;stroke-width:1.5;" x1="166.5" x2="303.5" y1="429.1992" y2="429.1992"/><line style="stroke:#A80036;stroke-width:1.5;" x1="166.5" x2="303.5" y1="437.1992" y2="437.1992"/><text fill="#000000" font-family="sans-serif" font-size="11" lengthAdjust="spacing" textLength="127" x="171.5" y="451.834">+getUserByEmail(email)</text><!--MD5=[bc064d979c32666ae52f3d7624591b7b]
class SystemUser--><rect codeLine="24" fill="#FEFECE" filter="url(#f1gjt1ey1ygikp)" height="203.4609" id="SystemUser" style="stroke:#A80036;stroke-width:1.5;" width="496" x="48" y="535.1992"/><ellipse cx="258.75" cy="551.1992" fill="#ADD1B2" rx="11" ry="11" style="stroke:#A80036;stroke-width:1.0;"/><path d="M261.2231,557.3423 Q260.6421,557.6411 260.0029,557.7905 Q259.3638,557.9399 258.6582,557.9399 Q256.1514,557.9399 254.8315,556.2881 Q253.5117,554.6362 253.5117,551.5151 Q253.5117,548.3857 254.8315,546.7339 Q256.1514,545.082 258.6582,545.082 Q259.3638,545.082 260.0112,545.2314 Q260.6587,545.3809 261.2231,545.6797 L261.2231,548.4023 Q260.5923,547.8213 259.9988,547.5515 Q259.4053,547.2817 258.7744,547.2817 Q257.4297,547.2817 256.7449,548.3484 Q256.0601,549.415 256.0601,551.5151 Q256.0601,553.6069 256.7449,554.6736 Q257.4297,555.7402 258.7744,555.7402 Q259.4053,555.7402 259.9988,555.4705 Q260.5923,555.2007 261.2231,554.6196 Z " fill="#000000"/><text fill="#000000" font-family="sans-serif" font-size="12" lengthAdjust="spacing" textLength="66" x="279.25" y="555.7344">SystemUser</text><line style="stroke:#A80036;stroke-width:1.5;" x1="49" x2="543" y1="567.1992" y2="567.1992"/><text fill="#000000" font-family="sans-serif" font-size="11" lengthAdjust="spacing" textLength="94" x="54" y="581.834">username : String</text><text fill="#000000" font-family="sans-serif" font-size="11" lengthAdjust="spacing" textLength="69" x="54" y="594.7891">email : String</text><text fill="#000000" font-family="sans-serif" font-size="11" lengthAdjust="spacing" textLength="73" x="54" y="607.7441">photo : String</text><text fill="#000000" font-family="sans-serif" font-size="11" lengthAdjust="spacing" textLength="93" x="54" y="620.6992">password : String</text><text fill="#000000" font-family="sans-serif" font-size="11" lengthAdjust="spacing" textLength="164" x="54" y="633.6543">passwordConfirmation : String</text><text fill="#000000" font-family="sans-serif" font-size="11" lengthAdjust="spacing" textLength="86" x="54" y="646.6094">function : String</text><text fill="#000000" font-family="sans-serif" font-size="11" lengthAdjust="spacing" textLength="160" x="54" y="659.5645">activateUser : boolean = False</text><line style="stroke:#A80036;stroke-width:1.5;" x1="49" x2="543" y1="665.8848" y2="665.8848"/><text fill="#000000" font-family="sans-serif" font-size="11" lengthAdjust="spacing" textLength="484" x="54" y="680.5195">+SystemUser(username, email, photo, password, passwordConfirmation, function, profile)</text><text fill="#000000" font-family="sans-serif" font-size="11" lengthAdjust="spacing" textLength="108" x="54" y="693.4746">+isYourEmail(email)</text><text fill="#000000" font-family="sans-serif" font-size="11" lengthAdjust="spacing" textLength="400" x="54" y="706.4297">+updatePassword(oldPassword, newPassword, newPasswordConfirmation)</text><text fill="#000000" font-family="sans-serif" font-size="11" lengthAdjust="spacing" textLength="204" x="54" y="719.3848">-validateOldPassword(oldPasswordUI)</text><text fill="#000000" font-family="sans-serif" font-size="11" lengthAdjust="spacing" textLength="153" x="54" y="732.3398">-setPassword(newPassword)</text><!--MD5=[1c24f6db5dd0a7e19de392d3e05eda73]
link ChangePasswordUI to ChangePasswordController--><path codeLine="39" d="M287,76.4392 C287,92.3092 287,113.6292 287,131.5592 " fill="none" id="ChangePasswordUI-to-ChangePasswordController" style="stroke:#A80036;stroke-width:1.0;stroke-dasharray:7.0,7.0;"/><polygon fill="#A80036" points="287,137.0092,291,128.0092,287,132.0092,283,128.0092,287,137.0092" style="stroke:#A80036;stroke-width:1.0;"/><!--MD5=[3560ce3fdb7c7dfe68c3ca0dd3987a09]
link ChangePasswordController to Company--><path codeLine="41" d="M256.84,198.3592 C239.25,215.6692 217,237.5492 198.81,255.4392 " fill="none" id="ChangePasswordController-to-Company" style="stroke:#A80036;stroke-width:1.0;stroke-dasharray:7.0,7.0;"/><polygon fill="#A80036" points="195.23,258.9592,204.4436,255.4795,198.7869,255.4452,198.8212,249.7884,195.23,258.9592" style="stroke:#A80036;stroke-width:1.0;"/><!--MD5=[763c29e3b57ff686848d3c5e56bc6bac]
link ChangePasswordController to SystemUserStore--><path codeLine="42" d="M281.03,198.2992 C271.36,246.2792 252.31,340.8292 242,391.9392 " fill="none" id="ChangePasswordController-to-SystemUserStore" style="stroke:#A80036;stroke-width:1.0;stroke-dasharray:7.0,7.0;"/><polygon fill="#A80036" points="240.98,397.0492,246.6764,389.0148,241.9661,392.1474,238.8335,387.4371,240.98,397.0492" style="stroke:#A80036;stroke-width:1.0;"/><!--MD5=[0dc14c77051af3940307339a6378fb88]
link ChangePasswordController to SystemUser--><path codeLine="43" d="M294.61,198.2292 C296.89,207.7492 299.24,218.3792 301,228.1992 C319.11,329.2392 329.46,355.8192 322,458.1992 C320.3,481.5392 317.36,506.4792 314.05,530.0592 " fill="none" id="ChangePasswordController-to-SystemUser" style="stroke:#A80036;stroke-width:1.0;stroke-dasharray:7.0,7.0;"/><polygon fill="#A80036" points="313.34,535.0692,318.5625,526.719,314.0411,530.1186,310.6415,525.5973,313.34,535.0692" style="stroke:#A80036;stroke-width:1.0;"/><!--MD5=[8b399b28c903131df3378f5fe4d26a41]
reverse link Company to SystemUserStore--><path codeLine="45" d="M186.24,331.9692 C197,352.8592 209.81,377.7492 219.6,396.7792 " fill="none" id="Company-backto-SystemUserStore" style="stroke:#A80036;stroke-width:1.0;"/><polygon fill="#FFFFFF" points="180.19,320.2092,179.3765,327.3743,185.6776,330.881,186.491,323.7159,180.19,320.2092" style="stroke:#A80036;stroke-width:1.0;"/><text fill="#000000" font-family="sans-serif" font-size="13" lengthAdjust="spacing" textLength="22" x="206" y="363.7676">has</text><text fill="#000000" font-family="sans-serif" font-size="13" lengthAdjust="spacing" textLength="8" x="174.4979" y="340.6538">1</text><text fill="#000000" font-family="sans-serif" font-size="13" lengthAdjust="spacing" textLength="8" x="207.5988" y="386.4601">1</text><!--MD5=[7758a2d24f0b1a5b8a5ff338858e9484]
reverse link SystemUserStore to SystemUser--><path codeLine="46" d="M247.42,470.8592 C252.92,489.5192 259.65,512.3592 266.33,535.0092 " fill="none" id="SystemUserStore-backto-SystemUser" style="stroke:#A80036;stroke-width:1.0;"/><polygon fill="#A80036" points="243.74,458.3592,241.5972,465.2446,247.1289,469.8708,249.2716,462.9854,243.74,458.3592" style="stroke:#A80036;stroke-width:1.0;"/><text fill="#000000" font-family="sans-serif" font-size="13" lengthAdjust="spacing" textLength="22" x="258" y="501.7676">has</text><text fill="#000000" font-family="sans-serif" font-size="13" lengthAdjust="spacing" textLength="8" x="236.7176" y="478.8347">1</text><text fill="#000000" font-family="sans-serif" font-size="13" lengthAdjust="spacing" textLength="22" x="241.3433" y="524.5534">0..*</text><!--MD5=[effbf705ad7c67e2f919fa4b32e088e1]
@startuml
'https://plantuml.com/class-diagram

'hide circle
skinparam classAttributeIconSize 0

title US011 - As Authenticated User, i want to change his/her password


class ChangePasswordUI {
}

class ChangePasswordController {
+changePassword(email, oldPassword, newPassword, newPasswordConfirmation)
}

class Company {
+getSystemUserStore()
}

class SystemUserStore {
+getUserByEmail(email)
}

class SystemUser {
username : String
email : String
photo : String
password : String
passwordConfirmation : String
function : String
activateUser : boolean = False
+SystemUser(username, email, photo, password, passwordConfirmation, function, profile)
+isYourEmail(email)
+updatePassword(oldPassword, newPassword, newPasswordConfirmation)
-validateOldPassword(oldPasswordUI)
-setPassword(newPassword)
}

ChangePasswordUI ..> ChangePasswordController

ChangePasswordController ..> Company
ChangePasswordController ..> SystemUserStore
ChangePasswordController ..> SystemUser

Company "1" o- - "1" SystemUserStore: has
SystemUserStore "1" *- - "0..*" SystemUser: has

@enduml

@startuml

skinparam classAttributeIconSize 0

title US011 - As Authenticated User, i want to change his/her password


class ChangePasswordUI {
}

class ChangePasswordController {
+changePassword(email, oldPassword, newPassword, newPasswordConfirmation)
}

class Company {
+getSystemUserStore()
}

class SystemUserStore {
+getUserByEmail(email)
}

class SystemUser {
username : String
email : String
photo : String
password : String
passwordConfirmation : String
function : String
activateUser : boolean = False
+SystemUser(username, email, photo, password, passwordConfirmation, function, profile)
+isYourEmail(email)
+updatePassword(oldPassword, newPassword, newPasswordConfirmation)
-validateOldPassword(oldPasswordUI)
-setPassword(newPassword)
}

ChangePasswordUI ..> ChangePasswordController

ChangePasswordController ..> Company
ChangePasswordController ..> SystemUserStore
ChangePasswordController ..> SystemUser

Company "1" o- - "1" SystemUserStore: has
SystemUserStore "1" *- - "0..*" SystemUser: has

@enduml

PlantUML version 1.2022.0(Tue Jan 11 16:16:42 WET 2022)
(GPL source distribution)
Java Runtime: OpenJDK Runtime Environment
JVM: OpenJDK 64-Bit Server VM
Default Encoding: UTF-8
Language: pt
Country: PT
--></g></svg>