<?xml version="1.0" encoding="UTF-8" standalone="no"?><svg xmlns="http://www.w3.org/2000/svg" xmlns:xlink="http://www.w3.org/1999/xlink" contentScriptType="application/ecmascript" contentStyleType="text/css" height="995px" preserveAspectRatio="none" style="width:1092px;height:995px;background:#FFFFFF;" version="1.1" viewBox="0 0 1092 995" width="1092px" zoomAndPan="magnify"><defs><filter height="300%" id="fv329nddduzsv" width="300%" x="-1" y="-1"><feGaussianBlur result="blurOut" stdDeviation="2.0"/><feColorMatrix in="blurOut" result="blurOut2" type="matrix" values="0 0 0 0 0 0 0 0 0 0 0 0 0 0 0 0 0 0 .4 0"/><feOffset dx="4.0" dy="4.0" in="blurOut2" result="blurOut3"/><feBlend in="SourceGraphic" in2="blurOut3" mode="normal"/></filter></defs><g><text fill="#000000" font-family="sans-serif" font-size="18" lengthAdjust="spacing" textLength="1083" x="2" y="18.6855">As Project Member, I want to update the status (i.e.: the Scrum Board category) of a user story in the scope of the current sprint backlog.</text><!--MD5=[5d216171312b368784673672c3933d73]
class UpdateStatusUSSprintUI--><rect codeLine="8" fill="#FEFECE" filter="url(#fv329nddduzsv)" height="41.0938" id="UpdateStatusUSSprintUI" style="stroke:#A80036;stroke-width:1.5;" width="142" x="505.25" y="29.6406"/><text fill="#000000" font-family="sans-serif" font-size="12" lengthAdjust="spacing" textLength="136" x="508.25" y="47.0977">UpdateStatusUSSprintUI</text><line style="stroke:#A80036;stroke-width:1.5;" x1="506.25" x2="646.25" y1="54.7344" y2="54.7344"/><line style="stroke:#A80036;stroke-width:1.5;" x1="506.25" x2="646.25" y1="62.7344" y2="62.7344"/><!--MD5=[a8c8c472218f6ca801e955f36f65cd37]
class UpdateStatusUSSprintController--><rect codeLine="11" fill="#FEFECE" filter="url(#fv329nddduzsv)" height="68.7656" id="UpdateStatusUSSprintController" style="stroke:#A80036;stroke-width:1.5;" width="253" x="449.75" y="131.6406"/><text fill="#000000" font-family="sans-serif" font-size="12" lengthAdjust="spacing" textLength="178" x="487.25" y="149.0977">UpdateStatusUSSprintController</text><line style="stroke:#A80036;stroke-width:1.5;" x1="450.75" x2="701.75" y1="156.7344" y2="156.7344"/><line style="stroke:#A80036;stroke-width:1.5;" x1="450.75" x2="701.75" y1="164.7344" y2="164.7344"/><text fill="#000000" font-family="sans-serif" font-size="11" lengthAdjust="spacing" textLength="90" x="455.75" y="180.1533">+getUsStatusList()</text><text fill="#000000" font-family="sans-serif" font-size="11" lengthAdjust="spacing" textLength="241" x="455.75" y="193.9893">+changeStatusOfUs(code, usId, userStoryStatus)</text><!--MD5=[02e4b9b7573f1156f41e60aa5b4e25a4]
class Company--><rect codeLine="16" fill="#FEFECE" filter="url(#fv329nddduzsv)" height="54.9297" id="Company" style="stroke:#A80036;stroke-width:1.5;" width="100" x="317.25" y="261.6406"/><text fill="#000000" font-family="sans-serif" font-size="12" lengthAdjust="spacing" textLength="53" x="340.75" y="279.0977">Company</text><line style="stroke:#A80036;stroke-width:1.5;" x1="318.25" x2="416.25" y1="286.7344" y2="286.7344"/><line style="stroke:#A80036;stroke-width:1.5;" x1="318.25" x2="416.25" y1="294.7344" y2="294.7344"/><text fill="#000000" font-family="sans-serif" font-size="11" lengthAdjust="spacing" textLength="88" x="323.25" y="310.1533">+getProjectStore()</text><!--MD5=[0cf43f64de24b70e8ffe65ff9ee7abee]
class ProjectStore--><rect codeLine="20" fill="#FEFECE" filter="url(#fv329nddduzsv)" height="54.9297" id="ProjectStore" style="stroke:#A80036;stroke-width:1.5;" width="136" x="352.25" y="394.6406"/><text fill="#000000" font-family="sans-serif" font-size="12" lengthAdjust="spacing" textLength="67" x="386.75" y="412.0977">ProjectStore</text><line style="stroke:#A80036;stroke-width:1.5;" x1="353.25" x2="487.25" y1="419.7344" y2="419.7344"/><line style="stroke:#A80036;stroke-width:1.5;" x1="353.25" x2="487.25" y1="427.7344" y2="427.7344"/><text fill="#000000" font-family="sans-serif" font-size="11" lengthAdjust="spacing" textLength="124" x="358.25" y="443.1533">+getProjectByCode(code)</text><!--MD5=[79d378210367c0c6ec62ef762ddfbd1b]
class Project--><rect codeLine="24" fill="#FEFECE" filter="url(#fv329nddduzsv)" height="54.9297" id="Project" style="stroke:#A80036;stroke-width:1.5;" width="105" x="453.75" y="527.6406"/><text fill="#000000" font-family="sans-serif" font-size="12" lengthAdjust="spacing" textLength="38" x="487.25" y="545.0977">Project</text><line style="stroke:#A80036;stroke-width:1.5;" x1="454.75" x2="557.75" y1="552.7344" y2="552.7344"/><line style="stroke:#A80036;stroke-width:1.5;" x1="454.75" x2="557.75" y1="560.7344" y2="560.7344"/><text fill="#000000" font-family="sans-serif" font-size="11" lengthAdjust="spacing" textLength="93" x="459.75" y="576.1533">+getCurrentSprint()</text><!--MD5=[452a66c2e8d45f5bd209be454bbcd04f]
class Sprint--><rect codeLine="28" fill="#FEFECE" filter="url(#fv329nddduzsv)" height="54.9297" id="Sprint" style="stroke:#A80036;stroke-width:1.5;" width="107" x="522.75" y="660.6406"/><text fill="#000000" font-family="sans-serif" font-size="12" lengthAdjust="spacing" textLength="32" x="560.25" y="678.0977">Sprint</text><line style="stroke:#A80036;stroke-width:1.5;" x1="523.75" x2="628.75" y1="685.7344" y2="685.7344"/><line style="stroke:#A80036;stroke-width:1.5;" x1="523.75" x2="628.75" y1="693.7344" y2="693.7344"/><text fill="#000000" font-family="sans-serif" font-size="11" lengthAdjust="spacing" textLength="95" x="528.75" y="709.1533">+getSprintBacklog()</text><!--MD5=[a136f49e3565b20f66540890d0159f10]
class SprintBacklog--><rect codeLine="32" fill="#FEFECE" filter="url(#fv329nddduzsv)" height="54.9297" id="SprintBacklog" style="stroke:#A80036;stroke-width:1.5;" width="110" x="591.25" y="793.6406"/><text fill="#000000" font-family="sans-serif" font-size="12" lengthAdjust="spacing" textLength="76" x="608.25" y="811.0977">SprintBacklog</text><line style="stroke:#A80036;stroke-width:1.5;" x1="592.25" x2="700.25" y1="818.7344" y2="818.7344"/><line style="stroke:#A80036;stroke-width:1.5;" x1="592.25" x2="700.25" y1="826.7344" y2="826.7344"/><text fill="#000000" font-family="sans-serif" font-size="11" lengthAdjust="spacing" textLength="98" x="597.25" y="842.1533">+getUserStory(usId)</text><!--MD5=[addac4ac0d906149d9f4561682b94013]
class Userstory--><rect codeLine="36" fill="#FEFECE" filter="url(#fv329nddduzsv)" height="54.9297" id="Userstory" style="stroke:#A80036;stroke-width:1.5;" width="151" x="624.75" y="926.6406"/><text fill="#000000" font-family="sans-serif" font-size="12" lengthAdjust="spacing" textLength="53" x="673.75" y="944.0977">Userstory</text><line style="stroke:#A80036;stroke-width:1.5;" x1="625.75" x2="774.75" y1="951.7344" y2="951.7344"/><line style="stroke:#A80036;stroke-width:1.5;" x1="625.75" x2="774.75" y1="959.7344" y2="959.7344"/><text fill="#000000" font-family="sans-serif" font-size="11" lengthAdjust="spacing" textLength="139" x="630.75" y="975.1533">+setStatus(userStoryStatus)</text><!--MD5=[65cf8c359a4e3db5b88a0f18a13a0227]
link UpdateStatusUSSprintUI to UpdateStatusUSSprintController--><path codeLine="42" d="M576.25,70.7406 C576.25,85.9806 576.25,107.6206 576.25,126.3306 " fill="none" id="UpdateStatusUSSprintUI-to-UpdateStatusUSSprintController" style="stroke:#A80036;stroke-width:1.0;stroke-dasharray:7.0,7.0;"/><polygon fill="#A80036" points="576.25,131.5306,580.25,122.5306,576.25,126.5306,572.25,122.5306,576.25,131.5306" style="stroke:#A80036;stroke-width:1.0;"/><!--MD5=[e107266b9f98b18d70017ef9f66c3530]
link UpdateStatusUSSprintController to Company--><path codeLine="44" d="M499.88,200.7906 C481.31,209.8106 461.76,220.0306 444.25,230.6406 C430.66,238.8806 416.53,248.9406 404.13,258.3406 " fill="none" id="UpdateStatusUSSprintController-to-Company" style="stroke:#A80036;stroke-width:1.0;stroke-dasharray:7.0,7.0;"/><polygon fill="#A80036" points="400,261.4906,409.5769,259.1921,403.969,258.4497,404.7113,252.8417,400,261.4906" style="stroke:#A80036;stroke-width:1.0;"/><!--MD5=[5d75cc71c3428822bf3ccf678435b67b]
link UpdateStatusUSSprintController to ProjectStore--><path codeLine="46" d="M540.34,200.7306 C531.54,209.9506 522.56,220.2706 515.25,230.6406 C478.78,282.3906 448.58,350.1806 432.59,389.3806 " fill="none" id="UpdateStatusUSSprintController-to-ProjectStore" style="stroke:#A80036;stroke-width:1.0;stroke-dasharray:7.0,7.0;"/><polygon fill="#A80036" points="430.52,394.4806,437.6019,387.6362,432.3942,389.8452,430.1852,384.6375,430.52,394.4806" style="stroke:#A80036;stroke-width:1.0;"/><!--MD5=[2e4af2ce5939cd34d53eafc7abec8f10]
link UpdateStatusUSSprintController to Project--><path codeLine="48" d="M571.04,201.0406 C561.68,261.0306 540.95,389.7506 519.25,497.6406 C517.62,505.7306 515.7,514.4306 513.85,522.5306 " fill="none" id="UpdateStatusUSSprintController-to-Project" style="stroke:#A80036;stroke-width:1.0;stroke-dasharray:7.0,7.0;"/><polygon fill="#A80036" points="512.7,527.4806,518.628,519.6156,513.8285,522.6096,510.8345,517.8101,512.7,527.4806" style="stroke:#A80036;stroke-width:1.0;"/><!--MD5=[6aa1d0c1db2abdeb9c840ff8bf120c3e]
link UpdateStatusUSSprintController to Sprint--><path codeLine="50" d="M591.94,200.7706 C601.64,224.6206 612.25,257.6806 612.25,288.1406 C612.25,288.1406 612.25,288.1406 612.25,556.1406 C612.25,591.2206 600.1,629.7606 589.91,655.9006 " fill="none" id="UpdateStatusUSSprintController-to-Sprint" style="stroke:#A80036;stroke-width:1.0;stroke-dasharray:7.0,7.0;"/><polygon fill="#A80036" points="588.04,660.6306,595.0709,653.7338,589.8797,655.9814,587.6321,650.7902,588.04,660.6306" style="stroke:#A80036;stroke-width:1.0;"/><!--MD5=[129ab1bbaae35a779d3fee9209da2875]
link UpdateStatusUSSprintController to SprintBacklog--><path codeLine="52" d="M629.75,200.7206 C656.5,222.0006 683.25,252.2506 683.25,288.1406 C683.25,288.1406 683.25,288.1406 683.25,689.1406 C683.25,724.0706 670.92,762.3306 660.49,788.4406 " fill="none" id="UpdateStatusUSSprintController-to-SprintBacklog" style="stroke:#A80036;stroke-width:1.0;stroke-dasharray:7.0,7.0;"/><polygon fill="#A80036" points="658.57,793.1706,665.67,786.345,660.4565,788.5402,658.2613,783.3266,658.57,793.1706" style="stroke:#A80036;stroke-width:1.0;"/><!--MD5=[23a8eac4039402a730ab80332452cbcb]
link UpdateStatusUSSprintController to Userstory--><path codeLine="54" d="M684.92,200.7206 C721.98,219.4306 754.25,247.4106 754.25,288.1406 C754.25,288.1406 754.25,288.1406 754.25,822.1406 C754.25,858.4206 736.33,896.3706 721.14,922.0306 " fill="none" id="UpdateStatusUSSprintController-to-Userstory" style="stroke:#A80036;stroke-width:1.0;stroke-dasharray:7.0,7.0;"/><polygon fill="#A80036" points="718.53,926.3606,726.6043,920.7209,721.113,922.0795,719.7544,916.5882,718.53,926.3606" style="stroke:#A80036;stroke-width:1.0;"/><!--MD5=[5080d0b1308565521d8577f7e8059843]
reverse link Company to ProjectStore--><path codeLine="58" d="M382.87,328.7606 C391.39,349.8106 401.72,375.3406 409.36,394.2206 " fill="none" id="Company-backto-ProjectStore" style="stroke:#A80036;stroke-width:1.0;"/><polygon fill="#FFFFFF" points="377.98,316.6506,376.5261,323.7136,382.4866,327.7722,383.9405,320.7092,377.98,316.6506" style="stroke:#A80036;stroke-width:1.0;"/><text fill="#000000" font-family="sans-serif" font-size="13" lengthAdjust="spacing" textLength="21" x="398.25" y="361.1357">has</text><text fill="#000000" font-family="sans-serif" font-size="13" lengthAdjust="spacing" textLength="7" x="372.5616" y="337.9597">1</text><text fill="#000000" font-family="sans-serif" font-size="13" lengthAdjust="spacing" textLength="7" x="399.2122" y="383.9044">1</text><!--MD5=[c2999c5e21c0a7115ef87c36c02875b6]
reverse link ProjectStore to Project--><path codeLine="60" d="M441.65,461.1406 C448.6,472.9906 456.52,486.0006 464.25,497.6406 C470.88,507.6206 478.59,518.2406 485.58,527.5406 " fill="none" id="ProjectStore-backto-Project" style="stroke:#A80036;stroke-width:1.0;"/><polygon fill="#A80036" points="435.06,449.7606,434.607,456.9575,441.0761,460.1436,441.529,452.9468,435.06,449.7606" style="stroke:#A80036;stroke-width:1.0;"/><text fill="#000000" font-family="sans-serif" font-size="13" lengthAdjust="spacing" textLength="49" x="465.25" y="494.1357">contains</text><text fill="#000000" font-family="sans-serif" font-size="13" lengthAdjust="spacing" textLength="7" x="430.5341" y="471.0938">1</text><text fill="#000000" font-family="sans-serif" font-size="13" lengthAdjust="spacing" textLength="20" x="458.4876" y="516.852">0..*</text><!--MD5=[c1411256f47ae1ed9a3bb6846f611a01]
reverse link Project to Sprint--><path codeLine="62" d="M522.71,594.9006 C527.98,606.5506 534.07,619.2606 540.25,630.6406 C545.69,640.6606 552.24,651.2806 558.26,660.5906 " fill="none" id="Project-backto-Sprint" style="stroke:#A80036;stroke-width:1.0;"/><polygon fill="#A80036" points="517.33,582.7806,516.106,589.8871,522.1951,593.7502,523.4191,586.6437,517.33,582.7806" style="stroke:#A80036;stroke-width:1.0;"/><text fill="#000000" font-family="sans-serif" font-size="13" lengthAdjust="spacing" textLength="44" x="541.25" y="627.1357">involves</text><text fill="#000000" font-family="sans-serif" font-size="13" lengthAdjust="spacing" textLength="7" x="511.9881" y="604.1181">1</text><text fill="#000000" font-family="sans-serif" font-size="13" lengthAdjust="spacing" textLength="7" x="546.2904" y="649.9136">1</text><!--MD5=[f85c3baca7bae97edb0c6ffad59c95fe]
reverse link Sprint to SprintBacklog--><path codeLine="64" d="M596.57,727.1706 C607.88,748.3306 621.68,774.1606 631.87,793.2206 " fill="none" id="Sprint-backto-SprintBacklog" style="stroke:#A80036;stroke-width:1.0;"/><polygon fill="#A80036" points="590.42,715.6506,589.7192,722.8276,596.0746,726.2348,596.7754,719.0579,590.42,715.6506" style="stroke:#A80036;stroke-width:1.0;"/><text fill="#000000" font-family="sans-serif" font-size="13" lengthAdjust="spacing" textLength="21" x="616.25" y="760.1357">has</text><text fill="#000000" font-family="sans-serif" font-size="13" lengthAdjust="spacing" textLength="7" x="585.7541" y="736.9597">1</text><text fill="#000000" font-family="sans-serif" font-size="13" lengthAdjust="spacing" textLength="7" x="620.9588" y="782.9044">1</text><!--MD5=[1cfc389af30c91cf5505174465f781d8]
reverse link SprintBacklog to Userstory--><path codeLine="66" d="M646.99,861.9106 C648.28,873.4506 650.73,885.8406 655.25,896.6406 C659.7,907.2806 666.77,917.5706 673.99,926.3906 " fill="none" id="SprintBacklog-backto-Userstory" style="stroke:#A80036;stroke-width:1.0;"/><polygon fill="#A80036" points="645.97,848.9006,642.4504,855.1945,646.9065,860.864,650.426,854.5702,645.97,848.9006" style="stroke:#A80036;stroke-width:1.0;"/><text fill="#000000" font-family="sans-serif" font-size="13" lengthAdjust="spacing" textLength="71" x="656.25" y="893.1357">incorporates</text><text fill="#000000" font-family="sans-serif" font-size="13" lengthAdjust="spacing" textLength="7" x="638.1431" y="870.2644">1</text><text fill="#000000" font-family="sans-serif" font-size="13" lengthAdjust="spacing" textLength="20" x="645.6049" y="915.6673">0..*</text><!--MD5=[e8ac1a86b31c21b6b869dda211479d32]
@startuml
'https://plantuml.com/class-diagram

hide circle
skinparam classAttributeIconSize 0

title As Project Member, I want to update the status (i.e.: the Scrum Board category) of a user story in the scope of the current sprint backlog.

class UpdateStatusUSSprintUI {
}

class UpdateStatusUSSprintController {
    +getUsStatusList()
    +changeStatusOfUs(code, usId, userStoryStatus)
}

class Company {
    +getProjectStore()
}

class ProjectStore {
    +getProjectByCode(code)
}

class Project {
    +getCurrentSprint()
}

class Sprint {
    +getSprintBacklog()
}

class SprintBacklog {
    +getUserStory(usId)
}

class Userstory {
    +setStatus(userStoryStatus)
}



UpdateStatusUSSprintUI ..> UpdateStatusUSSprintController

UpdateStatusUSSprintController ..> Company

UpdateStatusUSSprintController ..> ProjectStore

UpdateStatusUSSprintController ..> Project

UpdateStatusUSSprintController ..> Sprint

UpdateStatusUSSprintController ..> SprintBacklog

UpdateStatusUSSprintController ..> Userstory



Company "1" o- - "1" ProjectStore: has

ProjectStore "1" *- - "0..*" Project: contains

Project "1" *- - "1" Sprint: involves

Sprint "1" *- - "1" SprintBacklog: has

SprintBacklog "1" *- - "0..*" Userstory: incorporates





@enduml

@startuml

hide circle
skinparam classAttributeIconSize 0

title As Project Member, I want to update the status (i.e.: the Scrum Board category) of a user story in the scope of the current sprint backlog.

class UpdateStatusUSSprintUI {
}

class UpdateStatusUSSprintController {
    +getUsStatusList()
    +changeStatusOfUs(code, usId, userStoryStatus)
}

class Company {
    +getProjectStore()
}

class ProjectStore {
    +getProjectByCode(code)
}

class Project {
    +getCurrentSprint()
}

class Sprint {
    +getSprintBacklog()
}

class SprintBacklog {
    +getUserStory(usId)
}

class Userstory {
    +setStatus(userStoryStatus)
}



UpdateStatusUSSprintUI ..> UpdateStatusUSSprintController

UpdateStatusUSSprintController ..> Company

UpdateStatusUSSprintController ..> ProjectStore

UpdateStatusUSSprintController ..> Project

UpdateStatusUSSprintController ..> Sprint

UpdateStatusUSSprintController ..> SprintBacklog

UpdateStatusUSSprintController ..> Userstory



Company "1" o- - "1" ProjectStore: has

ProjectStore "1" *- - "0..*" Project: contains

Project "1" *- - "1" Sprint: involves

Sprint "1" *- - "1" SprintBacklog: has

SprintBacklog "1" *- - "0..*" Userstory: incorporates





@enduml

PlantUML version 1.2022.0(Tue Jan 11 16:16:42 GMT 2022)
(GPL source distribution)
Java Runtime: OpenJDK Runtime Environment
JVM: OpenJDK 64-Bit Server VM
Default Encoding: Cp1252
Language: en
Country: GB
--></g></svg>