<?xml version="1.0" encoding="UTF-8" standalone="no"?><svg xmlns="http://www.w3.org/2000/svg" xmlns:xlink="http://www.w3.org/1999/xlink" contentScriptType="application/ecmascript" contentStyleType="text/css" height="1446px" preserveAspectRatio="none" style="width:1720px;height:1446px;background:#FFFFFF;" version="1.1" viewBox="0 0 1720 1446" width="1720px" zoomAndPan="magnify"><defs><filter height="300%" id="f1w84qkhbtrbdw" width="300%" x="-1" y="-1"><feGaussianBlur result="blurOut" stdDeviation="2.0"/><feColorMatrix in="blurOut" result="blurOut2" type="matrix" values="0 0 0 0 0 0 0 0 0 0 0 0 0 0 0 0 0 0 .4 0"/><feOffset dx="4.0" dy="4.0" in="blurOut2" result="blurOut3"/><feBlend in="SourceGraphic" in2="blurOut3" mode="normal"/></filter></defs><g><text fill="#000000" font-family="sans-serif" font-size="18" lengthAdjust="spacing" textLength="607" x="556.75" y="30.6855">As Product Owner I want to change the Priority of a user story in the backlog</text><rect fill="#FFFFFF" filter="url(#f1w84qkhbtrbdw)" height="1215.9688" style="stroke:#A80036;stroke-width:1.0;" width="10" x="50" y="136.25"/><rect fill="#FFFFFF" filter="url(#f1w84qkhbtrbdw)" height="352.125" style="stroke:#A80036;stroke-width:1.0;" width="10" x="307" y="158.6016"/><rect fill="#FFFFFF" filter="url(#f1w84qkhbtrbdw)" height="151.7578" style="stroke:#A80036;stroke-width:1.0;" width="10" x="307" y="541.0781"/><rect fill="#FFFFFF" filter="url(#f1w84qkhbtrbdw)" height="212.4609" style="stroke:#A80036;stroke-width:1.0;" width="10" x="307" y="723.1875"/><rect fill="#FFFFFF" filter="url(#f1w84qkhbtrbdw)" height="151.7578" style="stroke:#A80036;stroke-width:1.0;" width="10" x="307" y="966"/><rect fill="#FFFFFF" filter="url(#f1w84qkhbtrbdw)" height="195.1094" style="stroke:#A80036;stroke-width:1.0;" width="10" x="307" y="1148.1094"/><rect fill="#FFFFFF" filter="url(#f1w84qkhbtrbdw)" height="91.0547" style="stroke:#A80036;stroke-width:1.0;" width="10" x="584" y="188.9531"/><rect fill="#FFFFFF" filter="url(#f1w84qkhbtrbdw)" height="91.0547" style="stroke:#A80036;stroke-width:1.0;" width="10" x="584" y="571.4297"/><rect fill="#FFFFFF" filter="url(#f1w84qkhbtrbdw)" height="151.7578" style="stroke:#A80036;stroke-width:1.0;" width="10" x="584" y="753.5391"/><rect fill="#FFFFFF" filter="url(#f1w84qkhbtrbdw)" height="91.0547" style="stroke:#A80036;stroke-width:1.0;" width="10" x="584" y="996.3516"/><rect fill="#FFFFFF" filter="url(#f1w84qkhbtrbdw)" height="134.4063" style="stroke:#A80036;stroke-width:1.0;" width="10" x="584" y="1178.4609"/><rect fill="#FFFFFF" filter="url(#f1w84qkhbtrbdw)" height="30.3516" style="stroke:#A80036;stroke-width:1.0;" width="10" x="726" y="219.3047"/><rect fill="#FFFFFF" filter="url(#f1w84qkhbtrbdw)" height="30.3516" style="stroke:#A80036;stroke-width:1.0;" width="10" x="862" y="601.7813"/><rect fill="#FFFFFF" filter="url(#f1w84qkhbtrbdw)" height="30.3516" style="stroke:#A80036;stroke-width:1.0;" width="10" x="1083.5" y="382.3203"/><rect fill="#FFFFFF" filter="url(#f1w84qkhbtrbdw)" height="30.3516" style="stroke:#A80036;stroke-width:1.0;" width="10" x="1231" y="783.8906"/><rect fill="#FFFFFF" filter="url(#f1w84qkhbtrbdw)" height="30.3516" style="stroke:#A80036;stroke-width:1.0;" width="10" x="1384.5" y="844.5938"/><rect fill="#FFFFFF" filter="url(#f1w84qkhbtrbdw)" height="30.3516" style="stroke:#A80036;stroke-width:1.0;" width="10" x="1384.5" y="1026.7031"/><rect fill="#FFFFFF" filter="url(#f1w84qkhbtrbdw)" height="143.4063" style="stroke:#A80036;stroke-width:1.0;" width="10" x="1542.5" y="1208.8125"/><rect fill="#FFFFFF" filter="url(#f1w84qkhbtrbdw)" height="35.3516" style="stroke:#A80036;stroke-width:1.0;" width="10" x="1547.5" y="1247.1641"/><rect fill="#FFFFFF" filter="url(#f1w84qkhbtrbdw)" height="79.0547" style="stroke:#000000;stroke-width:2.0;" width="413" x="774" y="341.6172"/><line style="stroke:#A80036;stroke-width:1.0;stroke-dasharray:5.0,5.0;" x1="55" x2="55" y1="126.25" y2="1361.2188"/><line style="stroke:#A80036;stroke-width:1.0;stroke-dasharray:5.0,5.0;" x1="312" x2="312" y1="126.25" y2="1361.2188"/><line style="stroke:#A80036;stroke-width:1.0;stroke-dasharray:5.0,5.0;" x1="589" x2="589" y1="126.25" y2="1361.2188"/><line style="stroke:#A80036;stroke-width:1.0;stroke-dasharray:5.0,5.0;" x1="731" x2="731" y1="126.25" y2="1361.2188"/><line style="stroke:#A80036;stroke-width:1.0;stroke-dasharray:5.0,5.0;" x1="867" x2="867" y1="126.25" y2="1361.2188"/><line style="stroke:#A80036;stroke-width:1.0;stroke-dasharray:5.0,5.0;" x1="1088" x2="1088" y1="321.3125" y2="1361.2188"/><line style="stroke:#A80036;stroke-width:1.0;stroke-dasharray:5.0,5.0;" x1="1236" x2="1236" y1="126.25" y2="1361.2188"/><line style="stroke:#A80036;stroke-width:1.0;stroke-dasharray:5.0,5.0;" x1="1389" x2="1389" y1="126.25" y2="1361.2188"/><line style="stroke:#A80036;stroke-width:1.0;stroke-dasharray:5.0,5.0;" x1="1547" x2="1547" y1="126.25" y2="1361.2188"/><text fill="#000000" font-family="sans-serif" font-size="14" lengthAdjust="spacing" textLength="94" x="5" y="123.1738">Product Owner</text><ellipse cx="55" cy="51.6406" fill="#FEFECE" filter="url(#f1w84qkhbtrbdw)" rx="8" ry="8" style="stroke:#A80036;stroke-width:2.0;"/><path d="M55,59.6406 L55,86.6406 M42,67.6406 L68,67.6406 M55,86.6406 L42,101.6406 M55,86.6406 L68,101.6406 " fill="none" filter="url(#f1w84qkhbtrbdw)" style="stroke:#A80036;stroke-width:2.0;"/><text fill="#000000" font-family="sans-serif" font-size="14" lengthAdjust="spacing" textLength="94" x="5" y="1374.752">Product Owner</text><ellipse cx="55" cy="1387.8281" fill="#FEFECE" filter="url(#f1w84qkhbtrbdw)" rx="8" ry="8" style="stroke:#A80036;stroke-width:2.0;"/><path d="M55,1395.8281 L55,1422.8281 M42,1403.8281 L68,1403.8281 M55,1422.8281 L42,1437.8281 M55,1422.8281 L68,1437.8281 " fill="none" filter="url(#f1w84qkhbtrbdw)" style="stroke:#A80036;stroke-width:2.0;"/><rect fill="#FEFECE" filter="url(#f1w84qkhbtrbdw)" height="31.6094" style="stroke:#A80036;stroke-width:1.5;" width="124" x="248" y="89.6406"/><text fill="#000000" font-family="sans-serif" font-size="14" lengthAdjust="spacing" textLength="110" x="255" y="111.1738">:ChangePriorityUI</text><rect fill="#FEFECE" filter="url(#f1w84qkhbtrbdw)" height="31.6094" style="stroke:#A80036;stroke-width:1.5;" width="124" x="248" y="1360.2188"/><text fill="#000000" font-family="sans-serif" font-size="14" lengthAdjust="spacing" textLength="110" x="255" y="1381.752">:ChangePriorityUI</text><rect fill="#FEFECE" filter="url(#f1w84qkhbtrbdw)" height="31.6094" style="stroke:#A80036;stroke-width:1.5;" width="174" x="500" y="89.6406"/><text fill="#000000" font-family="sans-serif" font-size="14" lengthAdjust="spacing" textLength="160" x="507" y="111.1738">:ChangePriorityController</text><rect fill="#FEFECE" filter="url(#f1w84qkhbtrbdw)" height="31.6094" style="stroke:#A80036;stroke-width:1.5;" width="174" x="500" y="1360.2188"/><text fill="#000000" font-family="sans-serif" font-size="14" lengthAdjust="spacing" textLength="160" x="507" y="1381.752">:ChangePriorityController</text><rect fill="#FEFECE" filter="url(#f1w84qkhbtrbdw)" height="31.6094" style="stroke:#A80036;stroke-width:1.5;" width="82" x="688" y="89.6406"/><text fill="#000000" font-family="sans-serif" font-size="14" lengthAdjust="spacing" textLength="68" x="695" y="111.1738">: Company</text><rect fill="#FEFECE" filter="url(#f1w84qkhbtrbdw)" height="31.6094" style="stroke:#A80036;stroke-width:1.5;" width="82" x="688" y="1360.2188"/><text fill="#000000" font-family="sans-serif" font-size="14" lengthAdjust="spacing" textLength="68" x="695" y="1381.752">: Company</text><rect fill="#FEFECE" filter="url(#f1w84qkhbtrbdw)" height="31.6094" style="stroke:#A80036;stroke-width:1.5;" width="162" x="784" y="89.6406"/><text fill="#000000" font-family="sans-serif" font-size="14" lengthAdjust="spacing" textLength="148" x="791" y="111.1738">projStore : ProjectStore</text><rect fill="#FEFECE" filter="url(#f1w84qkhbtrbdw)" height="31.6094" style="stroke:#A80036;stroke-width:1.5;" width="162" x="784" y="1360.2188"/><text fill="#000000" font-family="sans-serif" font-size="14" lengthAdjust="spacing" textLength="148" x="791" y="1381.752">projStore : ProjectStore</text><rect fill="#FEFECE" filter="url(#f1w84qkhbtrbdw)" height="31.6094" style="stroke:#A80036;stroke-width:1.5;" width="173" x="1000" y="1360.2188"/><text fill="#000000" font-family="sans-serif" font-size="14" lengthAdjust="spacing" textLength="159" x="1007" y="1381.752">projectList : List&lt;Project&gt;</text><rect fill="#FEFECE" filter="url(#f1w84qkhbtrbdw)" height="31.6094" style="stroke:#A80036;stroke-width:1.5;" width="94" x="1187" y="89.6406"/><text fill="#000000" font-family="sans-serif" font-size="14" lengthAdjust="spacing" textLength="80" x="1194" y="111.1738">proj : Project</text><rect fill="#FEFECE" filter="url(#f1w84qkhbtrbdw)" height="31.6094" style="stroke:#A80036;stroke-width:1.5;" width="94" x="1187" y="1360.2188"/><text fill="#000000" font-family="sans-serif" font-size="14" lengthAdjust="spacing" textLength="80" x="1194" y="1381.752">proj : Project</text><rect fill="#FEFECE" filter="url(#f1w84qkhbtrbdw)" height="31.6094" style="stroke:#A80036;stroke-width:1.5;" width="185" x="1295" y="89.6406"/><text fill="#000000" font-family="sans-serif" font-size="14" lengthAdjust="spacing" textLength="171" x="1302" y="111.1738">prodBack : ProductBacklog</text><rect fill="#FEFECE" filter="url(#f1w84qkhbtrbdw)" height="31.6094" style="stroke:#A80036;stroke-width:1.5;" width="185" x="1295" y="1360.2188"/><text fill="#000000" font-family="sans-serif" font-size="14" lengthAdjust="spacing" textLength="171" x="1302" y="1381.752">prodBack : ProductBacklog</text><rect fill="#FEFECE" filter="url(#f1w84qkhbtrbdw)" height="31.6094" style="stroke:#A80036;stroke-width:1.5;" width="103" x="1494" y="89.6406"/><text fill="#000000" font-family="sans-serif" font-size="14" lengthAdjust="spacing" textLength="89" x="1501" y="111.1738">us : UserStory</text><rect fill="#FEFECE" filter="url(#f1w84qkhbtrbdw)" height="31.6094" style="stroke:#A80036;stroke-width:1.5;" width="103" x="1494" y="1360.2188"/><text fill="#000000" font-family="sans-serif" font-size="14" lengthAdjust="spacing" textLength="89" x="1501" y="1381.752">us : UserStory</text><rect fill="#FFFFFF" filter="url(#f1w84qkhbtrbdw)" height="1215.9688" style="stroke:#A80036;stroke-width:1.0;" width="10" x="50" y="136.25"/><rect fill="#FFFFFF" filter="url(#f1w84qkhbtrbdw)" height="352.125" style="stroke:#A80036;stroke-width:1.0;" width="10" x="307" y="158.6016"/><rect fill="#FFFFFF" filter="url(#f1w84qkhbtrbdw)" height="151.7578" style="stroke:#A80036;stroke-width:1.0;" width="10" x="307" y="541.0781"/><rect fill="#FFFFFF" filter="url(#f1w84qkhbtrbdw)" height="212.4609" style="stroke:#A80036;stroke-width:1.0;" width="10" x="307" y="723.1875"/><rect fill="#FFFFFF" filter="url(#f1w84qkhbtrbdw)" height="151.7578" style="stroke:#A80036;stroke-width:1.0;" width="10" x="307" y="966"/><rect fill="#FFFFFF" filter="url(#f1w84qkhbtrbdw)" height="195.1094" style="stroke:#A80036;stroke-width:1.0;" width="10" x="307" y="1148.1094"/><rect fill="#FFFFFF" filter="url(#f1w84qkhbtrbdw)" height="91.0547" style="stroke:#A80036;stroke-width:1.0;" width="10" x="584" y="188.9531"/><rect fill="#FFFFFF" filter="url(#f1w84qkhbtrbdw)" height="91.0547" style="stroke:#A80036;stroke-width:1.0;" width="10" x="584" y="571.4297"/><rect fill="#FFFFFF" filter="url(#f1w84qkhbtrbdw)" height="151.7578" style="stroke:#A80036;stroke-width:1.0;" width="10" x="584" y="753.5391"/><rect fill="#FFFFFF" filter="url(#f1w84qkhbtrbdw)" height="91.0547" style="stroke:#A80036;stroke-width:1.0;" width="10" x="584" y="996.3516"/><rect fill="#FFFFFF" filter="url(#f1w84qkhbtrbdw)" height="134.4063" style="stroke:#A80036;stroke-width:1.0;" width="10" x="584" y="1178.4609"/><rect fill="#FFFFFF" filter="url(#f1w84qkhbtrbdw)" height="30.3516" style="stroke:#A80036;stroke-width:1.0;" width="10" x="726" y="219.3047"/><rect fill="#FFFFFF" filter="url(#f1w84qkhbtrbdw)" height="30.3516" style="stroke:#A80036;stroke-width:1.0;" width="10" x="862" y="601.7813"/><rect fill="#FFFFFF" filter="url(#f1w84qkhbtrbdw)" height="30.3516" style="stroke:#A80036;stroke-width:1.0;" width="10" x="1083.5" y="382.3203"/><rect fill="#FFFFFF" filter="url(#f1w84qkhbtrbdw)" height="30.3516" style="stroke:#A80036;stroke-width:1.0;" width="10" x="1231" y="783.8906"/><rect fill="#FFFFFF" filter="url(#f1w84qkhbtrbdw)" height="30.3516" style="stroke:#A80036;stroke-width:1.0;" width="10" x="1384.5" y="844.5938"/><rect fill="#FFFFFF" filter="url(#f1w84qkhbtrbdw)" height="30.3516" style="stroke:#A80036;stroke-width:1.0;" width="10" x="1384.5" y="1026.7031"/><rect fill="#FFFFFF" filter="url(#f1w84qkhbtrbdw)" height="143.4063" style="stroke:#A80036;stroke-width:1.0;" width="10" x="1542.5" y="1208.8125"/><rect fill="#FFFFFF" filter="url(#f1w84qkhbtrbdw)" height="35.3516" style="stroke:#A80036;stroke-width:1.0;" width="10" x="1547.5" y="1247.1641"/><polygon fill="#A80036" points="295,154.6016,305,158.6016,295,162.6016,299,158.6016" style="stroke:#A80036;stroke-width:1.0;"/><line style="stroke:#A80036;stroke-width:1.0;" x1="60" x2="301" y1="158.6016" y2="158.6016"/><text fill="#000000" font-family="sans-serif" font-size="13" font-weight="bold" lengthAdjust="spacing" textLength="7" x="67" y="153.7451">1</text><text fill="#000000" font-family="sans-serif" font-size="13" lengthAdjust="spacing" textLength="217" x="78" y="153.7451">Get list of projects associated to user</text><polygon fill="#A80036" points="572,184.9531,582,188.9531,572,192.9531,576,188.9531" style="stroke:#A80036;stroke-width:1.0;"/><line style="stroke:#A80036;stroke-width:1.0;" x1="317" x2="578" y1="188.9531" y2="188.9531"/><text fill="#000000" font-family="sans-serif" font-size="13" font-weight="bold" lengthAdjust="spacing" textLength="7" x="324" y="184.0967">2</text><text fill="#000000" font-family="sans-serif" font-size="13" lengthAdjust="spacing" textLength="237" x="335" y="184.0967">getCurrentProjectListByUserEmail(email)</text><polygon fill="#A80036" points="714,215.3047,724,219.3047,714,223.3047,718,219.3047" style="stroke:#A80036;stroke-width:1.0;"/><line style="stroke:#A80036;stroke-width:1.0;" x1="594" x2="720" y1="219.3047" y2="219.3047"/><text fill="#000000" font-family="sans-serif" font-size="13" font-weight="bold" lengthAdjust="spacing" textLength="7" x="601" y="214.4482">3</text><text fill="#000000" font-family="sans-serif" font-size="13" lengthAdjust="spacing" textLength="98" x="612" y="214.4482">getProjectStore()</text><polygon fill="#A80036" points="605,245.6563,595,249.6563,605,253.6563,601,249.6563" style="stroke:#A80036;stroke-width:1.0;"/><line style="stroke:#A80036;stroke-width:1.0;stroke-dasharray:2.0,2.0;" x1="599" x2="730" y1="249.6563" y2="249.6563"/><text fill="#000000" font-family="sans-serif" font-size="13" font-weight="bold" lengthAdjust="spacing" textLength="7" x="611" y="244.7998">4</text><text fill="#000000" font-family="sans-serif" font-size="13" lengthAdjust="spacing" textLength="52" x="622" y="244.7998">projStore</text><polygon fill="#A80036" points="855,276.0078,865,280.0078,855,284.0078,859,280.0078" style="stroke:#A80036;stroke-width:1.0;"/><line style="stroke:#A80036;stroke-width:1.0;stroke-dasharray:2.0,2.0;" x1="589" x2="861" y1="280.0078" y2="280.0078"/><text fill="#000000" font-family="sans-serif" font-size="13" font-weight="bold" lengthAdjust="spacing" textLength="7" x="596" y="275.1514">5</text><text fill="#000000" font-family="sans-serif" font-size="13" lengthAdjust="spacing" textLength="237" x="607" y="275.1514">getCurrentProjectListByUserEmail(email)</text><polygon fill="#A80036" points="988,306.3594,998,310.3594,988,314.3594,992,310.3594" style="stroke:#A80036;stroke-width:1.0;"/><line style="stroke:#A80036;stroke-width:1.0;" x1="867" x2="994" y1="310.3594" y2="310.3594"/><text fill="#000000" font-family="sans-serif" font-size="13" font-weight="bold" lengthAdjust="spacing" textLength="7" x="874" y="305.5029">6</text><text fill="#000000" font-family="sans-serif" font-size="13" lengthAdjust="spacing" textLength="98" x="885" y="305.5029">createProjectList</text><rect fill="#FEFECE" filter="url(#f1w84qkhbtrbdw)" height="31.6094" style="stroke:#A80036;stroke-width:1.5;" width="173" x="1000" y="288.0078"/><text fill="#000000" font-family="sans-serif" font-size="14" lengthAdjust="spacing" textLength="159" x="1007" y="309.541">projectList : List&lt;Project&gt;</text><path d="M774,341.6172 L847,341.6172 L847,349.6172 L837,359.6172 L774,359.6172 L774,341.6172 " fill="#EEEEEE" style="stroke:#000000;stroke-width:1.0;"/><rect fill="none" height="79.0547" style="stroke:#000000;stroke-width:2.0;" width="413" x="774" y="341.6172"/><text fill="#000000" font-family="sans-serif" font-size="13" font-weight="bold" lengthAdjust="spacing" textLength="28" x="789" y="356.1123">loop</text><polygon fill="#A80036" points="1071.5,378.3203,1081.5,382.3203,1071.5,386.3203,1075.5,382.3203" style="stroke:#A80036;stroke-width:1.0;"/><line style="stroke:#A80036;stroke-width:1.0;" x1="867" x2="1077.5" y1="382.3203" y2="382.3203"/><text fill="#000000" font-family="sans-serif" font-size="13" font-weight="bold" lengthAdjust="spacing" textLength="7" x="874" y="377.4639">7</text><text fill="#000000" font-family="sans-serif" font-size="13" lengthAdjust="spacing" textLength="97" x="885" y="377.4639">addProjectToList</text><polygon fill="#A80036" points="878,408.6719,868,412.6719,878,416.6719,874,412.6719" style="stroke:#A80036;stroke-width:1.0;"/><line style="stroke:#A80036;stroke-width:1.0;stroke-dasharray:2.0,2.0;" x1="872" x2="1087.5" y1="412.6719" y2="412.6719"/><text fill="#000000" font-family="sans-serif" font-size="13" font-weight="bold" lengthAdjust="spacing" textLength="7" x="884" y="407.8154">8</text><text fill="#000000" font-family="sans-serif" font-size="13" lengthAdjust="spacing" textLength="22" x="895" y="407.8154">true</text><polygon fill="#A80036" points="600,446.0234,590,450.0234,600,454.0234,596,450.0234" style="stroke:#A80036;stroke-width:1.0;"/><line style="stroke:#A80036;stroke-width:1.0;stroke-dasharray:2.0,2.0;" x1="594" x2="866" y1="450.0234" y2="450.0234"/><text fill="#000000" font-family="sans-serif" font-size="13" font-weight="bold" lengthAdjust="spacing" textLength="7" x="606" y="445.167">9</text><text fill="#000000" font-family="sans-serif" font-size="13" lengthAdjust="spacing" textLength="60" x="617" y="445.167">projectList</text><polygon fill="#A80036" points="328,476.375,318,480.375,328,484.375,324,480.375" style="stroke:#A80036;stroke-width:1.0;"/><line style="stroke:#A80036;stroke-width:1.0;stroke-dasharray:2.0,2.0;" x1="322" x2="588" y1="480.375" y2="480.375"/><text fill="#000000" font-family="sans-serif" font-size="13" font-weight="bold" lengthAdjust="spacing" textLength="14" x="334" y="475.5186">10</text><text fill="#000000" font-family="sans-serif" font-size="13" lengthAdjust="spacing" textLength="60" x="352" y="475.5186">projectList</text><polygon fill="#A80036" points="71,506.7266,61,510.7266,71,514.7266,67,510.7266" style="stroke:#A80036;stroke-width:1.0;"/><line style="stroke:#A80036;stroke-width:1.0;stroke-dasharray:2.0,2.0;" x1="65" x2="311" y1="510.7266" y2="510.7266"/><text fill="#000000" font-family="sans-serif" font-size="13" font-weight="bold" lengthAdjust="spacing" textLength="14" x="77" y="505.8701">11</text><text fill="#000000" font-family="sans-serif" font-size="13" lengthAdjust="spacing" textLength="103" x="95" y="505.8701">Shows projectList</text><polygon fill="#A80036" points="295,537.0781,305,541.0781,295,545.0781,299,541.0781" style="stroke:#A80036;stroke-width:1.0;"/><line style="stroke:#A80036;stroke-width:1.0;" x1="60" x2="301" y1="541.0781" y2="541.0781"/><text fill="#000000" font-family="sans-serif" font-size="13" font-weight="bold" lengthAdjust="spacing" textLength="14" x="67" y="536.2217">12</text><text fill="#000000" font-family="sans-serif" font-size="13" lengthAdjust="spacing" textLength="76" x="85" y="536.2217">Picks project</text><polygon fill="#A80036" points="572,567.4297,582,571.4297,572,575.4297,576,571.4297" style="stroke:#A80036;stroke-width:1.0;"/><line style="stroke:#A80036;stroke-width:1.0;" x1="317" x2="578" y1="571.4297" y2="571.4297"/><text fill="#000000" font-family="sans-serif" font-size="13" font-weight="bold" lengthAdjust="spacing" textLength="14" x="324" y="566.5732">13</text><text fill="#000000" font-family="sans-serif" font-size="13" lengthAdjust="spacing" textLength="141" x="342" y="566.5732">getProjectByCode(code)</text><polygon fill="#A80036" points="850,597.7813,860,601.7813,850,605.7813,854,601.7813" style="stroke:#A80036;stroke-width:1.0;"/><line style="stroke:#A80036;stroke-width:1.0;" x1="594" x2="856" y1="601.7813" y2="601.7813"/><text fill="#000000" font-family="sans-serif" font-size="13" font-weight="bold" lengthAdjust="spacing" textLength="14" x="601" y="596.9248">14</text><text fill="#000000" font-family="sans-serif" font-size="13" lengthAdjust="spacing" textLength="141" x="619" y="596.9248">getProjectByCode(code)</text><polygon fill="#A80036" points="605,628.1328,595,632.1328,605,636.1328,601,632.1328" style="stroke:#A80036;stroke-width:1.0;"/><line style="stroke:#A80036;stroke-width:1.0;stroke-dasharray:2.0,2.0;" x1="599" x2="866" y1="632.1328" y2="632.1328"/><text fill="#000000" font-family="sans-serif" font-size="13" font-weight="bold" lengthAdjust="spacing" textLength="14" x="611" y="627.2764">15</text><text fill="#000000" font-family="sans-serif" font-size="13" lengthAdjust="spacing" textLength="21" x="629" y="627.2764">proj</text><polygon fill="#A80036" points="328,658.4844,318,662.4844,328,666.4844,324,662.4844" style="stroke:#A80036;stroke-width:1.0;"/><line style="stroke:#A80036;stroke-width:1.0;stroke-dasharray:2.0,2.0;" x1="322" x2="588" y1="662.4844" y2="662.4844"/><text fill="#000000" font-family="sans-serif" font-size="13" font-weight="bold" lengthAdjust="spacing" textLength="14" x="334" y="657.6279">16</text><text fill="#000000" font-family="sans-serif" font-size="13" lengthAdjust="spacing" textLength="21" x="352" y="657.6279">proj</text><polygon fill="#A80036" points="71,688.8359,61,692.8359,71,696.8359,67,692.8359" style="stroke:#A80036;stroke-width:1.0;"/><line style="stroke:#A80036;stroke-width:1.0;stroke-dasharray:2.0,2.0;" x1="65" x2="311" y1="692.8359" y2="692.8359"/><text fill="#000000" font-family="sans-serif" font-size="13" font-weight="bold" lengthAdjust="spacing" textLength="14" x="77" y="687.9795">17</text><text fill="#000000" font-family="sans-serif" font-size="13" lengthAdjust="spacing" textLength="149" x="95" y="687.9795">Shows project information</text><polygon fill="#A80036" points="295,719.1875,305,723.1875,295,727.1875,299,723.1875" style="stroke:#A80036;stroke-width:1.0;"/><line style="stroke:#A80036;stroke-width:1.0;" x1="60" x2="301" y1="723.1875" y2="723.1875"/><text fill="#000000" font-family="sans-serif" font-size="13" font-weight="bold" lengthAdjust="spacing" textLength="14" x="67" y="718.3311">18</text><text fill="#000000" font-family="sans-serif" font-size="13" lengthAdjust="spacing" textLength="140" x="85" y="718.3311">Access product backlog</text><polygon fill="#A80036" points="572,749.5391,582,753.5391,572,757.5391,576,753.5391" style="stroke:#A80036;stroke-width:1.0;"/><line style="stroke:#A80036;stroke-width:1.0;" x1="317" x2="578" y1="753.5391" y2="753.5391"/><text fill="#000000" font-family="sans-serif" font-size="13" font-weight="bold" lengthAdjust="spacing" textLength="14" x="324" y="748.6826">19</text><text fill="#000000" font-family="sans-serif" font-size="13" lengthAdjust="spacing" textLength="105" x="342" y="748.6826">getUserStoryList()</text><polygon fill="#A80036" points="1219,779.8906,1229,783.8906,1219,787.8906,1223,783.8906" style="stroke:#A80036;stroke-width:1.0;"/><line style="stroke:#A80036;stroke-width:1.0;" x1="594" x2="1225" y1="783.8906" y2="783.8906"/><text fill="#000000" font-family="sans-serif" font-size="13" font-weight="bold" lengthAdjust="spacing" textLength="14" x="601" y="779.0342">20</text><text fill="#000000" font-family="sans-serif" font-size="13" lengthAdjust="spacing" textLength="110" x="619" y="779.0342">getUserStoryStore</text><polygon fill="#A80036" points="605,810.2422,595,814.2422,605,818.2422,601,814.2422" style="stroke:#A80036;stroke-width:1.0;"/><line style="stroke:#A80036;stroke-width:1.0;stroke-dasharray:2.0,2.0;" x1="599" x2="1235" y1="814.2422" y2="814.2422"/><text fill="#000000" font-family="sans-serif" font-size="13" font-weight="bold" lengthAdjust="spacing" textLength="14" x="611" y="809.3857">21</text><text fill="#000000" font-family="sans-serif" font-size="13" lengthAdjust="spacing" textLength="55" x="629" y="809.3857">prodBack</text><polygon fill="#A80036" points="1372.5,840.5938,1382.5,844.5938,1372.5,848.5938,1376.5,844.5938" style="stroke:#A80036;stroke-width:1.0;"/><line style="stroke:#A80036;stroke-width:1.0;" x1="594" x2="1378.5" y1="844.5938" y2="844.5938"/><text fill="#000000" font-family="sans-serif" font-size="13" font-weight="bold" lengthAdjust="spacing" textLength="14" x="601" y="839.7373">22</text><text fill="#000000" font-family="sans-serif" font-size="13" lengthAdjust="spacing" textLength="105" x="619" y="839.7373">getUserStoryList()</text><polygon fill="#A80036" points="605,870.9453,595,874.9453,605,878.9453,601,874.9453" style="stroke:#A80036;stroke-width:1.0;"/><line style="stroke:#A80036;stroke-width:1.0;stroke-dasharray:2.0,2.0;" x1="599" x2="1388.5" y1="874.9453" y2="874.9453"/><text fill="#000000" font-family="sans-serif" font-size="13" font-weight="bold" lengthAdjust="spacing" textLength="14" x="611" y="870.0889">23</text><text fill="#000000" font-family="sans-serif" font-size="13" lengthAdjust="spacing" textLength="35" x="629" y="870.0889">usList</text><polygon fill="#A80036" points="328,901.2969,318,905.2969,328,909.2969,324,905.2969" style="stroke:#A80036;stroke-width:1.0;"/><line style="stroke:#A80036;stroke-width:1.0;stroke-dasharray:2.0,2.0;" x1="322" x2="588" y1="905.2969" y2="905.2969"/><text fill="#000000" font-family="sans-serif" font-size="13" font-weight="bold" lengthAdjust="spacing" textLength="14" x="334" y="900.4404">24</text><text fill="#000000" font-family="sans-serif" font-size="13" lengthAdjust="spacing" textLength="35" x="352" y="900.4404">usList</text><polygon fill="#A80036" points="71,931.6484,61,935.6484,71,939.6484,67,935.6484" style="stroke:#A80036;stroke-width:1.0;"/><line style="stroke:#A80036;stroke-width:1.0;stroke-dasharray:2.0,2.0;" x1="65" x2="311" y1="935.6484" y2="935.6484"/><text fill="#000000" font-family="sans-serif" font-size="13" font-weight="bold" lengthAdjust="spacing" textLength="14" x="77" y="930.792">25</text><text fill="#000000" font-family="sans-serif" font-size="13" lengthAdjust="spacing" textLength="86" x="95" y="930.792">Shows US List</text><polygon fill="#A80036" points="295,962,305,966,295,970,299,966" style="stroke:#A80036;stroke-width:1.0;"/><line style="stroke:#A80036;stroke-width:1.0;" x1="60" x2="301" y1="966" y2="966"/><text fill="#000000" font-family="sans-serif" font-size="13" font-weight="bold" lengthAdjust="spacing" textLength="14" x="67" y="961.1436">26</text><text fill="#000000" font-family="sans-serif" font-size="13" lengthAdjust="spacing" textLength="99" x="85" y="961.1436">Picks User Story</text><polygon fill="#A80036" points="572,992.3516,582,996.3516,572,1000.3516,576,996.3516" style="stroke:#A80036;stroke-width:1.0;"/><line style="stroke:#A80036;stroke-width:1.0;" x1="317" x2="578" y1="996.3516" y2="996.3516"/><text fill="#000000" font-family="sans-serif" font-size="13" font-weight="bold" lengthAdjust="spacing" textLength="14" x="324" y="991.4951">27</text><text fill="#000000" font-family="sans-serif" font-size="13" lengthAdjust="spacing" textLength="94" x="342" y="991.4951">getUserStory(id)</text><polygon fill="#A80036" points="1372.5,1022.7031,1382.5,1026.7031,1372.5,1030.7031,1376.5,1026.7031" style="stroke:#A80036;stroke-width:1.0;"/><line style="stroke:#A80036;stroke-width:1.0;" x1="594" x2="1378.5" y1="1026.7031" y2="1026.7031"/><text fill="#000000" font-family="sans-serif" font-size="13" font-weight="bold" lengthAdjust="spacing" textLength="14" x="601" y="1021.8467">28</text><text fill="#000000" font-family="sans-serif" font-size="13" lengthAdjust="spacing" textLength="94" x="619" y="1021.8467">getUserStory(id)</text><polygon fill="#A80036" points="605,1053.0547,595,1057.0547,605,1061.0547,601,1057.0547" style="stroke:#A80036;stroke-width:1.0;"/><line style="stroke:#A80036;stroke-width:1.0;stroke-dasharray:2.0,2.0;" x1="599" x2="1388.5" y1="1057.0547" y2="1057.0547"/><text fill="#000000" font-family="sans-serif" font-size="13" font-weight="bold" lengthAdjust="spacing" textLength="14" x="611" y="1052.1982">29</text><text fill="#000000" font-family="sans-serif" font-size="13" lengthAdjust="spacing" textLength="14" x="629" y="1052.1982">us</text><polygon fill="#A80036" points="328,1083.4063,318,1087.4063,328,1091.4063,324,1087.4063" style="stroke:#A80036;stroke-width:1.0;"/><line style="stroke:#A80036;stroke-width:1.0;stroke-dasharray:2.0,2.0;" x1="322" x2="588" y1="1087.4063" y2="1087.4063"/><text fill="#000000" font-family="sans-serif" font-size="13" font-weight="bold" lengthAdjust="spacing" textLength="14" x="334" y="1082.5498">30</text><text fill="#000000" font-family="sans-serif" font-size="13" lengthAdjust="spacing" textLength="14" x="352" y="1082.5498">us</text><polygon fill="#A80036" points="71,1113.7578,61,1117.7578,71,1121.7578,67,1117.7578" style="stroke:#A80036;stroke-width:1.0;"/><line style="stroke:#A80036;stroke-width:1.0;stroke-dasharray:2.0,2.0;" x1="65" x2="311" y1="1117.7578" y2="1117.7578"/><text fill="#000000" font-family="sans-serif" font-size="13" font-weight="bold" lengthAdjust="spacing" textLength="14" x="77" y="1112.9014">31</text><text fill="#000000" font-family="sans-serif" font-size="13" lengthAdjust="spacing" textLength="128" x="95" y="1112.9014">Shows US Information</text><polygon fill="#A80036" points="295,1144.1094,305,1148.1094,295,1152.1094,299,1148.1094" style="stroke:#A80036;stroke-width:1.0;"/><line style="stroke:#A80036;stroke-width:1.0;" x1="60" x2="301" y1="1148.1094" y2="1148.1094"/><text fill="#000000" font-family="sans-serif" font-size="13" font-weight="bold" lengthAdjust="spacing" textLength="14" x="67" y="1143.2529">32</text><text fill="#000000" font-family="sans-serif" font-size="13" lengthAdjust="spacing" textLength="65" x="85" y="1143.2529">Set Priority</text><polygon fill="#A80036" points="572,1174.4609,582,1178.4609,572,1182.4609,576,1178.4609" style="stroke:#A80036;stroke-width:1.0;"/><line style="stroke:#A80036;stroke-width:1.0;" x1="317" x2="578" y1="1178.4609" y2="1178.4609"/><text fill="#000000" font-family="sans-serif" font-size="13" font-weight="bold" lengthAdjust="spacing" textLength="14" x="324" y="1173.6045">33</text><text fill="#000000" font-family="sans-serif" font-size="13" lengthAdjust="spacing" textLength="106" x="342" y="1173.6045">setPriority(priority)</text><polygon fill="#A80036" points="1530.5,1204.8125,1540.5,1208.8125,1530.5,1212.8125,1534.5,1208.8125" style="stroke:#A80036;stroke-width:1.0;"/><line style="stroke:#A80036;stroke-width:1.0;" x1="594" x2="1536.5" y1="1208.8125" y2="1208.8125"/><text fill="#000000" font-family="sans-serif" font-size="13" font-weight="bold" lengthAdjust="spacing" textLength="14" x="601" y="1203.9561">34</text><text fill="#000000" font-family="sans-serif" font-size="13" lengthAdjust="spacing" textLength="106" x="619" y="1203.9561">setPriority(priority)</text><line style="stroke:#A80036;stroke-width:1.0;" x1="1552.5" x2="1599.5" y1="1234.1641" y2="1234.1641"/><line style="stroke:#A80036;stroke-width:1.0;" x1="1599.5" x2="1599.5" y1="1234.1641" y2="1247.1641"/><line style="stroke:#A80036;stroke-width:1.0;" x1="1558.5" x2="1599.5" y1="1247.1641" y2="1247.1641"/><polygon fill="#A80036" points="1568.5,1243.1641,1558.5,1247.1641,1568.5,1251.1641,1564.5,1247.1641" style="stroke:#A80036;stroke-width:1.0;"/><text fill="#000000" font-family="sans-serif" font-size="13" font-weight="bold" lengthAdjust="spacing" textLength="14" x="1564.5" y="1229.3076">35</text><text fill="#000000" font-family="sans-serif" font-size="13" lengthAdjust="spacing" textLength="131" x="1582.5" y="1229.3076">validatePriority(priority)</text><polygon fill="#A80036" points="605,1278.5156,595,1282.5156,605,1286.5156,601,1282.5156" style="stroke:#A80036;stroke-width:1.0;"/><line style="stroke:#A80036;stroke-width:1.0;stroke-dasharray:2.0,2.0;" x1="599" x2="1541.5" y1="1282.5156" y2="1282.5156"/><text fill="#000000" font-family="sans-serif" font-size="13" font-weight="bold" lengthAdjust="spacing" textLength="14" x="611" y="1277.6592">36</text><text fill="#000000" font-family="sans-serif" font-size="13" lengthAdjust="spacing" textLength="22" x="629" y="1277.6592">true</text><polygon fill="#A80036" points="328,1308.8672,318,1312.8672,328,1316.8672,324,1312.8672" style="stroke:#A80036;stroke-width:1.0;"/><line style="stroke:#A80036;stroke-width:1.0;stroke-dasharray:2.0,2.0;" x1="322" x2="588" y1="1312.8672" y2="1312.8672"/><text fill="#000000" font-family="sans-serif" font-size="13" font-weight="bold" lengthAdjust="spacing" textLength="14" x="334" y="1308.0107">37</text><text fill="#000000" font-family="sans-serif" font-size="13" lengthAdjust="spacing" textLength="22" x="352" y="1308.0107">true</text><polygon fill="#A80036" points="71,1339.2188,61,1343.2188,71,1347.2188,67,1343.2188" style="stroke:#A80036;stroke-width:1.0;"/><line style="stroke:#A80036;stroke-width:1.0;stroke-dasharray:2.0,2.0;" x1="65" x2="311" y1="1343.2188" y2="1343.2188"/><text fill="#000000" font-family="sans-serif" font-size="13" font-weight="bold" lengthAdjust="spacing" textLength="14" x="77" y="1338.3623">38</text><text fill="#000000" font-family="sans-serif" font-size="13" lengthAdjust="spacing" textLength="104" x="95" y="1338.3623">Confirms success</text><!--MD5=[b5da582629485613746a4588c40bc913]
@startuml
'https://plantuml.com/sequence-diagram

title As Product Owner I want to change the Priority of a user story in the backlog

autoactivate on
autonumber

actor "Product Owner" as PO
participant ":ChangePriorityUI" as System
participant ":ChangePriorityController" as Ctrl
participant ": Company" as C1
participant "projStore : ProjectStore" as C2
participant "projectList : List<Project>" as C2.1
participant "proj : Project" as C3
participant "prodBack : ProductBacklog" as C4
participant "us : UserStory" as C5

activate PO



PO -> System: Get list of projects associated to user
System -> Ctrl: getCurrentProjectListByUserEmail(email)
Ctrl -> C1: getProjectStore()
C1 - -> Ctrl: projStore
Ctrl - -> C2: getCurrentProjectListByUserEmail(email)
C2 -> C2.1 ** : createProjectList
 loop
C2 -> C2.1: addProjectToList
C2.1 - -> C2: true
end
C2 - -> Ctrl: projectList
Ctrl - -> System: projectList
System - -> PO: Shows projectList
PO -> System: Picks project
System -> Ctrl: getProjectByCode(code)
Ctrl -> C2: getProjectByCode(code)
C2 - -> Ctrl: proj
Ctrl - -> System: proj
System - -> PO: Shows project information
PO -> System: Access product backlog
System -> Ctrl: getUserStoryList()
Ctrl -> C3: getUserStoryStore
C3 - -> Ctrl: prodBack
Ctrl -> C4: getUserStoryList()
C4 - -> Ctrl: usList
Ctrl - -> System: usList
System - -> PO: Shows US List
PO -> System: Picks User Story
System -> Ctrl: getUserStory(id)
Ctrl -> C4: getUserStory(id)
C4 - -> Ctrl: us
Ctrl - -> System: us
System - -> PO: Shows US Information
PO -> System: Set Priority
System -> Ctrl: setPriority(priority)
Ctrl -> C5: setPriority(priority)
C5 -> C5: validatePriority(priority)
C5 - -> Ctrl: true
Ctrl - -> System: true
System - -> PO: Confirms success



@enduml

@startuml

title As Product Owner I want to change the Priority of a user story in the backlog

autoactivate on
autonumber

actor "Product Owner" as PO
participant ":ChangePriorityUI" as System
participant ":ChangePriorityController" as Ctrl
participant ": Company" as C1
participant "projStore : ProjectStore" as C2
participant "projectList : List<Project>" as C2.1
participant "proj : Project" as C3
participant "prodBack : ProductBacklog" as C4
participant "us : UserStory" as C5

activate PO



PO -> System: Get list of projects associated to user
System -> Ctrl: getCurrentProjectListByUserEmail(email)
Ctrl -> C1: getProjectStore()
C1 - -> Ctrl: projStore
Ctrl - -> C2: getCurrentProjectListByUserEmail(email)
C2 -> C2.1 ** : createProjectList
 loop
C2 -> C2.1: addProjectToList
C2.1 - -> C2: true
end
C2 - -> Ctrl: projectList
Ctrl - -> System: projectList
System - -> PO: Shows projectList
PO -> System: Picks project
System -> Ctrl: getProjectByCode(code)
Ctrl -> C2: getProjectByCode(code)
C2 - -> Ctrl: proj
Ctrl - -> System: proj
System - -> PO: Shows project information
PO -> System: Access product backlog
System -> Ctrl: getUserStoryList()
Ctrl -> C3: getUserStoryStore
C3 - -> Ctrl: prodBack
Ctrl -> C4: getUserStoryList()
C4 - -> Ctrl: usList
Ctrl - -> System: usList
System - -> PO: Shows US List
PO -> System: Picks User Story
System -> Ctrl: getUserStory(id)
Ctrl -> C4: getUserStory(id)
C4 - -> Ctrl: us
Ctrl - -> System: us
System - -> PO: Shows US Information
PO -> System: Set Priority
System -> Ctrl: setPriority(priority)
Ctrl -> C5: setPriority(priority)
C5 -> C5: validatePriority(priority)
C5 - -> Ctrl: true
Ctrl - -> System: true
System - -> PO: Confirms success



@enduml

PlantUML version 1.2022.0(Tue Jan 11 16:16:42 GMT 2022)
(GPL source distribution)
Java Runtime: OpenJDK Runtime Environment
JVM: OpenJDK 64-Bit Server VM
Default Encoding: Cp1252
Language: en
Country: GB
--></g></svg>