<?xml version="1.0" encoding="UTF-8" standalone="no"?><svg xmlns="http://www.w3.org/2000/svg" xmlns:xlink="http://www.w3.org/1999/xlink" contentStyleType="text/css" height="898px" preserveAspectRatio="none" style="width:1712px;height:898px;background:#FFFFFF;" version="1.1" viewBox="0 0 1712 898" width="1712px" zoomAndPan="magnify"><defs/><g><rect height="26.4883" style="stroke:#00000000;stroke-width:1.0;fill:none;" width="398" x="656.25" y="10"/><text fill="#000000" font-family="sans-serif" font-size="14" font-weight="bold" lengthAdjust="spacing" textLength="388" x="661.25" y="28.5352">US022 - As Project Manager, I want to create a sprint.</text><rect fill="#FFFFFF" height="739.9453" style="stroke:#181818;stroke-width:1.0;" width="10" x="210" y="105.2871"/><rect fill="#FFFFFF" height="675.3242" style="stroke:#181818;stroke-width:1.0;" width="10" x="383" y="137.5977"/><rect fill="#FFFFFF" height="610.7031" style="stroke:#181818;stroke-width:1.0;" width="10" x="573" y="169.9082"/><rect fill="#FFFFFF" height="30" style="stroke:#181818;stroke-width:1.0;" width="10" x="776" y="199.2188"/><rect fill="#FFFFFF" height="30" style="stroke:#181818;stroke-width:1.0;" width="10" x="776" y="258.5293"/><rect fill="#FFFFFF" height="30" style="stroke:#181818;stroke-width:1.0;" width="10" x="776" y="317.8398"/><rect fill="#FFFFFF" height="70.7988" style="stroke:#181818;stroke-width:1.0;" width="10" x="891" y="377.1504"/><rect fill="#FFFFFF" height="173.9316" style="stroke:#181818;stroke-width:1.0;" width="10" x="1180.5" y="477.2598"/><rect fill="#FFFFFF" height="28" style="stroke:#181818;stroke-width:1.0;" width="10" x="1185.5" y="514.5703"/><rect fill="#FFFFFF" height="28" style="stroke:#181818;stroke-width:1.0;" width="10" x="1185.5" y="586.8809"/><rect fill="#FFFFFF" height="70.7988" style="stroke:#181818;stroke-width:1.0;" width="10" x="1388.5" y="680.502"/><line style="stroke:#181818;stroke-width:0.5;stroke-dasharray:5.0,5.0;" x1="215" x2="215" y1="73.9766" y2="863.2324"/><line style="stroke:#181818;stroke-width:0.5;stroke-dasharray:5.0,5.0;" x1="388" x2="388" y1="73.9766" y2="863.2324"/><line style="stroke:#181818;stroke-width:0.5;stroke-dasharray:5.0,5.0;" x1="578" x2="578" y1="73.9766" y2="863.2324"/><line style="stroke:#181818;stroke-width:0.5;stroke-dasharray:5.0,5.0;" x1="780.5" x2="780.5" y1="73.9766" y2="863.2324"/><line style="stroke:#181818;stroke-width:0.5;stroke-dasharray:5.0,5.0;" x1="895.5" x2="895.5" y1="73.9766" y2="863.2324"/><line style="stroke:#181818;stroke-width:0.5;stroke-dasharray:5.0,5.0;" x1="1054" x2="1054" y1="415.8945" y2="863.2324"/><line style="stroke:#181818;stroke-width:0.5;stroke-dasharray:5.0,5.0;" x1="1185" x2="1185" y1="73.9766" y2="863.2324"/><line style="stroke:#181818;stroke-width:0.5;stroke-dasharray:5.0,5.0;" x1="1393" x2="1393" y1="73.9766" y2="863.2324"/><line style="stroke:#181818;stroke-width:0.5;stroke-dasharray:5.0,5.0;" x1="1598.5" x2="1598.5" y1="719.2461" y2="863.2324"/><rect fill="#E2E2F0" height="30.4883" rx="2.5" ry="2.5" style="stroke:#181818;stroke-width:0.5;" width="148" x="141" y="42.4883"/><text fill="#000000" font-family="sans-serif" font-size="14" lengthAdjust="spacing" textLength="134" x="148" y="63.0234">: CreateSprintRoute</text><rect fill="#E2E2F0" height="30.4883" rx="2.5" ry="2.5" style="stroke:#181818;stroke-width:0.5;" width="148" x="141" y="862.2324"/><text fill="#000000" font-family="sans-serif" font-size="14" lengthAdjust="spacing" textLength="134" x="148" y="882.7676">: CreateSprintRoute</text><rect fill="#E2E2F0" height="30.4883" rx="2.5" ry="2.5" style="stroke:#181818;stroke-width:0.5;" width="178" x="299" y="42.4883"/><text fill="#000000" font-family="sans-serif" font-size="14" lengthAdjust="spacing" textLength="164" x="306" y="63.0234">: CreateSprintController</text><rect fill="#E2E2F0" height="30.4883" rx="2.5" ry="2.5" style="stroke:#181818;stroke-width:0.5;" width="178" x="299" y="862.2324"/><text fill="#000000" font-family="sans-serif" font-size="14" lengthAdjust="spacing" textLength="164" x="306" y="882.7676">: CreateSprintController</text><rect fill="#E2E2F0" height="30.4883" rx="2.5" ry="2.5" style="stroke:#181818;stroke-width:0.5;" width="156" x="500" y="42.4883"/><text fill="#000000" font-family="sans-serif" font-size="14" lengthAdjust="spacing" textLength="142" x="507" y="63.0234">: CreateSprintService</text><rect fill="#E2E2F0" height="30.4883" rx="2.5" ry="2.5" style="stroke:#181818;stroke-width:0.5;" width="156" x="500" y="862.2324"/><text fill="#000000" font-family="sans-serif" font-size="14" lengthAdjust="spacing" textLength="142" x="507" y="882.7676">: CreateSprintService</text><rect fill="#E2E2F0" height="30.4883" rx="2.5" ry="2.5" style="stroke:#181818;stroke-width:0.5;" width="93" x="734.5" y="42.4883"/><text fill="#000000" font-family="sans-serif" font-size="14" lengthAdjust="spacing" textLength="79" x="741.5" y="63.0234">: SprintDTO</text><rect fill="#E2E2F0" height="30.4883" rx="2.5" ry="2.5" style="stroke:#181818;stroke-width:0.5;" width="93" x="734.5" y="862.2324"/><text fill="#000000" font-family="sans-serif" font-size="14" lengthAdjust="spacing" textLength="79" x="741.5" y="882.7676">: SprintDTO</text><rect fill="#E2E2F0" height="30.4883" rx="2.5" ry="2.5" style="stroke:#181818;stroke-width:0.5;" width="117" x="837.5" y="42.4883"/><text fill="#000000" font-family="sans-serif" font-size="14" lengthAdjust="spacing" textLength="103" x="844.5" y="63.0234">: ISprintFactory</text><rect fill="#E2E2F0" height="30.4883" rx="2.5" ry="2.5" style="stroke:#181818;stroke-width:0.5;" width="117" x="837.5" y="862.2324"/><text fill="#000000" font-family="sans-serif" font-size="14" lengthAdjust="spacing" textLength="103" x="844.5" y="882.7676">: ISprintFactory</text><rect fill="#E2E2F0" height="30.4883" rx="2.5" ry="2.5" style="stroke:#181818;stroke-width:0.5;" width="140" x="984" y="862.2324"/><text fill="#000000" font-family="sans-serif" font-size="14" lengthAdjust="spacing" textLength="122" x="995" y="882.7676">newSprint : Sprint</text><rect fill="#E2E2F0" height="30.4883" rx="2.5" ry="2.5" style="stroke:#181818;stroke-width:0.5;" width="103" x="1134" y="42.4883"/><text fill="#000000" font-family="sans-serif" font-size="14" lengthAdjust="spacing" textLength="89" x="1141" y="63.0234">: ISprintStore</text><rect fill="#E2E2F0" height="30.4883" rx="2.5" ry="2.5" style="stroke:#181818;stroke-width:0.5;" width="103" x="1134" y="862.2324"/><text fill="#000000" font-family="sans-serif" font-size="14" lengthAdjust="spacing" textLength="89" x="1141" y="882.7676">: ISprintStore</text><rect fill="#E2E2F0" height="30.4883" rx="2.5" ry="2.5" style="stroke:#181818;stroke-width:0.5;" width="115" x="1336" y="42.4883"/><text fill="#000000" font-family="sans-serif" font-size="14" lengthAdjust="spacing" textLength="101" x="1343" y="63.0234">: SprintMapper</text><rect fill="#E2E2F0" height="30.4883" rx="2.5" ry="2.5" style="stroke:#181818;stroke-width:0.5;" width="115" x="1336" y="862.2324"/><text fill="#000000" font-family="sans-serif" font-size="14" lengthAdjust="spacing" textLength="101" x="1343" y="882.7676">: SprintMapper</text><rect fill="#E2E2F0" height="30.4883" rx="2.5" ry="2.5" style="stroke:#181818;stroke-width:0.5;" width="216" x="1490.5" y="862.2324"/><text fill="#000000" font-family="sans-serif" font-size="14" lengthAdjust="spacing" textLength="202" x="1497.5" y="882.7676">outputDTO: OutPutSprintDTO</text><rect fill="#FFFFFF" height="739.9453" style="stroke:#181818;stroke-width:1.0;" width="10" x="210" y="105.2871"/><rect fill="#FFFFFF" height="675.3242" style="stroke:#181818;stroke-width:1.0;" width="10" x="383" y="137.5977"/><rect fill="#FFFFFF" height="610.7031" style="stroke:#181818;stroke-width:1.0;" width="10" x="573" y="169.9082"/><rect fill="#FFFFFF" height="30" style="stroke:#181818;stroke-width:1.0;" width="10" x="776" y="199.2188"/><rect fill="#FFFFFF" height="30" style="stroke:#181818;stroke-width:1.0;" width="10" x="776" y="258.5293"/><rect fill="#FFFFFF" height="30" style="stroke:#181818;stroke-width:1.0;" width="10" x="776" y="317.8398"/><rect fill="#FFFFFF" height="70.7988" style="stroke:#181818;stroke-width:1.0;" width="10" x="891" y="377.1504"/><rect fill="#FFFFFF" height="173.9316" style="stroke:#181818;stroke-width:1.0;" width="10" x="1180.5" y="477.2598"/><rect fill="#FFFFFF" height="28" style="stroke:#181818;stroke-width:1.0;" width="10" x="1185.5" y="514.5703"/><rect fill="#FFFFFF" height="28" style="stroke:#181818;stroke-width:1.0;" width="10" x="1185.5" y="586.8809"/><rect fill="#FFFFFF" height="70.7988" style="stroke:#181818;stroke-width:1.0;" width="10" x="1388.5" y="680.502"/><ellipse cx="7.5" cy="104.5371" fill="none" rx="4" ry="4" style="stroke:#181818;stroke-width:1.5;"/><polygon fill="#181818" points="198,101.2871,208,105.2871,198,109.2871,202,105.2871" style="stroke:#181818;stroke-width:1.0;"/><line style="stroke:#181818;stroke-width:1.0;" x1="12" x2="204" y1="105.2871" y2="105.2871"/><text fill="#000000" font-family="sans-serif" font-size="13" font-weight="bold" lengthAdjust="spacing" textLength="9" x="15" y="100.5449">1</text><text fill="#000000" font-family="sans-serif" font-size="13" lengthAdjust="spacing" textLength="118" x="28" y="100.5449">POST/sprints(json)</text><polygon fill="#181818" points="371,133.5977,381,137.5977,371,141.5977,375,137.5977" style="stroke:#181818;stroke-width:1.0;"/><line style="stroke:#181818;stroke-width:1.0;" x1="220" x2="377" y1="137.5977" y2="137.5977"/><text fill="#000000" font-family="sans-serif" font-size="13" font-weight="bold" lengthAdjust="spacing" textLength="9" x="227" y="132.8555">2</text><text fill="#000000" font-family="sans-serif" font-size="13" lengthAdjust="spacing" textLength="110" x="240" y="132.8555">createSprint(json)</text><path d="M398,118.2871 L398,143.2871 L747,143.2871 L747,128.2871 L737,118.2871 L398,118.2871 " fill="#FEFFDD" style="stroke:#181818;stroke-width:0.5;"/><path d="M737,118.2871 L737,128.2871 L747,128.2871 L737,118.2871 " fill="#FEFFDD" style="stroke:#181818;stroke-width:0.5;"/><text fill="#000000" font-family="sans-serif" font-size="13" lengthAdjust="spacing" textLength="328" x="404" y="135.8555">Change from json to dto hidden to simplify diagram</text><polygon fill="#181818" points="561,165.9082,571,169.9082,561,173.9082,565,169.9082" style="stroke:#181818;stroke-width:1.0;"/><line style="stroke:#181818;stroke-width:1.0;" x1="393" x2="567" y1="169.9082" y2="169.9082"/><text fill="#000000" font-family="sans-serif" font-size="13" font-weight="bold" lengthAdjust="spacing" textLength="9" x="400" y="165.166">3</text><text fill="#000000" font-family="sans-serif" font-size="13" lengthAdjust="spacing" textLength="148" x="413" y="165.166">createSprint(sprintDTO)</text><polygon fill="#181818" points="764,195.2188,774,199.2188,764,203.2188,768,199.2188" style="stroke:#181818;stroke-width:1.0;"/><line style="stroke:#181818;stroke-width:1.0;" x1="583" x2="770" y1="199.2188" y2="199.2188"/><text fill="#000000" font-family="sans-serif" font-size="13" font-weight="bold" lengthAdjust="spacing" textLength="9" x="590" y="194.4766">4</text><text fill="#000000" font-family="sans-serif" font-size="13" lengthAdjust="spacing" textLength="161" x="603" y="194.4766">projectID = getProjectID()</text><polygon fill="#181818" points="764,254.5293,774,258.5293,764,262.5293,768,258.5293" style="stroke:#181818;stroke-width:1.0;"/><line style="stroke:#181818;stroke-width:1.0;" x1="583" x2="770" y1="258.5293" y2="258.5293"/><text fill="#000000" font-family="sans-serif" font-size="13" font-weight="bold" lengthAdjust="spacing" textLength="9" x="590" y="253.7871">5</text><text fill="#000000" font-family="sans-serif" font-size="13" lengthAdjust="spacing" textLength="148" x="603" y="253.7871">sprintID = getSprintID()</text><polygon fill="#181818" points="764,313.8398,774,317.8398,764,321.8398,768,317.8398" style="stroke:#181818;stroke-width:1.0;"/><line style="stroke:#181818;stroke-width:1.0;" x1="583" x2="770" y1="317.8398" y2="317.8398"/><text fill="#000000" font-family="sans-serif" font-size="13" font-weight="bold" lengthAdjust="spacing" textLength="9" x="590" y="313.0977">6</text><text fill="#000000" font-family="sans-serif" font-size="13" lengthAdjust="spacing" textLength="116" x="603" y="313.0977">name = getName()</text><polygon fill="#181818" points="879,373.1504,889,377.1504,879,381.1504,883,377.1504" style="stroke:#181818;stroke-width:1.0;"/><line style="stroke:#181818;stroke-width:1.0;" x1="583" x2="885" y1="377.1504" y2="377.1504"/><text fill="#000000" font-family="sans-serif" font-size="13" font-weight="bold" lengthAdjust="spacing" textLength="9" x="590" y="372.4082">7</text><text fill="#000000" font-family="sans-serif" font-size="13" lengthAdjust="spacing" textLength="242" x="603" y="372.4082">createSprint(projectID, sprintID, name)</text><polygon fill="#181818" points="972,402.4609,982,406.4609,972,410.4609,976,406.4609" style="stroke:#181818;stroke-width:1.0;"/><line style="stroke:#181818;stroke-width:1.0;" x1="901" x2="978" y1="406.4609" y2="406.4609"/><text fill="#000000" font-family="sans-serif" font-size="13" font-weight="bold" lengthAdjust="spacing" textLength="9" x="908" y="401.7188">8</text><text fill="#000000" font-family="sans-serif" font-size="13" lengthAdjust="spacing" textLength="46" x="921" y="401.7188">create()</text><rect fill="#E2E2F0" height="30.4883" rx="2.5" ry="2.5" style="stroke:#181818;stroke-width:0.5;" width="140" x="984" y="385.1504"/><text fill="#000000" font-family="sans-serif" font-size="14" lengthAdjust="spacing" textLength="122" x="995" y="405.6855">newSprint : Sprint</text><polygon fill="#181818" points="594,443.9492,584,447.9492,594,451.9492,590,447.9492" style="stroke:#181818;stroke-width:1.0;"/><line style="stroke:#181818;stroke-width:1.0;stroke-dasharray:2.0,2.0;" x1="588" x2="895" y1="447.9492" y2="447.9492"/><text fill="#000000" font-family="sans-serif" font-size="13" font-weight="bold" lengthAdjust="spacing" textLength="9" x="600" y="443.207">9</text><text fill="#000000" font-family="sans-serif" font-size="13" lengthAdjust="spacing" textLength="62" x="613" y="443.207">newSprint</text><polygon fill="#181818" points="1168.5,473.2598,1178.5,477.2598,1168.5,481.2598,1172.5,477.2598" style="stroke:#181818;stroke-width:1.0;"/><line style="stroke:#181818;stroke-width:1.0;" x1="583" x2="1174.5" y1="477.2598" y2="477.2598"/><text fill="#000000" font-family="sans-serif" font-size="13" font-weight="bold" lengthAdjust="spacing" textLength="18" x="590" y="472.5176">10</text><text fill="#000000" font-family="sans-serif" font-size="13" lengthAdjust="spacing" textLength="135" x="612" y="472.5176">saveSprint(newSprint)</text><line style="stroke:#181818;stroke-width:1.0;" x1="1195.5" x2="1237.5" y1="506.5703" y2="506.5703"/><line style="stroke:#181818;stroke-width:1.0;" x1="1237.5" x2="1237.5" y1="506.5703" y2="519.5703"/><line style="stroke:#181818;stroke-width:1.0;" x1="1196.5" x2="1237.5" y1="519.5703" y2="519.5703"/><polygon fill="#181818" points="1206.5,515.5703,1196.5,519.5703,1206.5,523.5703,1202.5,519.5703" style="stroke:#181818;stroke-width:1.0;"/><text fill="#000000" font-family="sans-serif" font-size="13" font-weight="bold" lengthAdjust="spacing" textLength="18" x="1202.5" y="501.8281">11</text><text fill="#000000" font-family="sans-serif" font-size="13" lengthAdjust="spacing" textLength="162" x="1224.5" y="501.8281">existsBySprintID(sprintID)</text><line style="stroke:#181818;stroke-width:1.0;" x1="1195.5" x2="1237.5" y1="578.8809" y2="578.8809"/><line style="stroke:#181818;stroke-width:1.0;" x1="1237.5" x2="1237.5" y1="578.8809" y2="591.8809"/><line style="stroke:#181818;stroke-width:1.0;" x1="1196.5" x2="1237.5" y1="591.8809" y2="591.8809"/><polygon fill="#181818" points="1206.5,587.8809,1196.5,591.8809,1206.5,595.8809,1202.5,591.8809" style="stroke:#181818;stroke-width:1.0;"/><text fill="#000000" font-family="sans-serif" font-size="13" font-weight="bold" lengthAdjust="spacing" textLength="18" x="1202.5" y="574.1387">12</text><text fill="#000000" font-family="sans-serif" font-size="13" lengthAdjust="spacing" textLength="93" x="1224.5" y="574.1387">add(newSprint)</text><polygon fill="#181818" points="594,647.1914,584,651.1914,594,655.1914,590,651.1914" style="stroke:#181818;stroke-width:1.0;"/><line style="stroke:#181818;stroke-width:1.0;stroke-dasharray:2.0,2.0;" x1="588" x2="1184.5" y1="651.1914" y2="651.1914"/><text fill="#000000" font-family="sans-serif" font-size="13" font-weight="bold" lengthAdjust="spacing" textLength="18" x="600" y="646.4492">13</text><text fill="#000000" font-family="sans-serif" font-size="13" lengthAdjust="spacing" textLength="25" x="622" y="646.4492">true</text><polygon fill="#181818" points="1376.5,676.502,1386.5,680.502,1376.5,684.502,1380.5,680.502" style="stroke:#181818;stroke-width:1.0;"/><line style="stroke:#181818;stroke-width:1.0;" x1="583" x2="1382.5" y1="680.502" y2="680.502"/><text fill="#000000" font-family="sans-serif" font-size="13" font-weight="bold" lengthAdjust="spacing" textLength="18" x="590" y="675.7598">14</text><text fill="#000000" font-family="sans-serif" font-size="13" lengthAdjust="spacing" textLength="111" x="612" y="675.7598">toDTO(newsprint)</text><polygon fill="#181818" points="1478.5,705.8125,1488.5,709.8125,1478.5,713.8125,1482.5,709.8125" style="stroke:#181818;stroke-width:1.0;"/><line style="stroke:#181818;stroke-width:1.0;" x1="1398.5" x2="1484.5" y1="709.8125" y2="709.8125"/><text fill="#000000" font-family="sans-serif" font-size="13" font-weight="bold" lengthAdjust="spacing" textLength="18" x="1405.5" y="705.0703">15</text><text fill="#000000" font-family="sans-serif" font-size="13" lengthAdjust="spacing" textLength="46" x="1427.5" y="705.0703">create()</text><rect fill="#E2E2F0" height="30.4883" rx="2.5" ry="2.5" style="stroke:#181818;stroke-width:0.5;" width="216" x="1490.5" y="688.502"/><text fill="#000000" font-family="sans-serif" font-size="14" lengthAdjust="spacing" textLength="202" x="1497.5" y="709.0371">outputDTO: OutPutSprintDTO</text><polygon fill="#181818" points="594,747.3008,584,751.3008,594,755.3008,590,751.3008" style="stroke:#181818;stroke-width:1.0;"/><line style="stroke:#181818;stroke-width:1.0;stroke-dasharray:2.0,2.0;" x1="588" x2="1392.5" y1="751.3008" y2="751.3008"/><text fill="#000000" font-family="sans-serif" font-size="13" font-weight="bold" lengthAdjust="spacing" textLength="18" x="600" y="746.5586">16</text><text fill="#000000" font-family="sans-serif" font-size="13" lengthAdjust="spacing" textLength="70" x="622" y="746.5586">outputDTO</text><polygon fill="#181818" points="404,776.6113,394,780.6113,404,784.6113,400,780.6113" style="stroke:#181818;stroke-width:1.0;"/><line style="stroke:#181818;stroke-width:1.0;stroke-dasharray:2.0,2.0;" x1="398" x2="577" y1="780.6113" y2="780.6113"/><text fill="#000000" font-family="sans-serif" font-size="13" font-weight="bold" lengthAdjust="spacing" textLength="18" x="410" y="775.8691">17</text><text fill="#000000" font-family="sans-serif" font-size="13" lengthAdjust="spacing" textLength="70" x="432" y="775.8691">outputDTO</text><polygon fill="#181818" points="231,808.9219,221,812.9219,231,816.9219,227,812.9219" style="stroke:#181818;stroke-width:1.0;"/><line style="stroke:#181818;stroke-width:1.0;stroke-dasharray:2.0,2.0;" x1="225" x2="387" y1="812.9219" y2="812.9219"/><text fill="#000000" font-family="sans-serif" font-size="13" font-weight="bold" lengthAdjust="spacing" textLength="18" x="237" y="808.1797">18</text><text fill="#000000" font-family="sans-serif" font-size="13" lengthAdjust="spacing" textLength="69" x="259" y="808.1797">outputJson</text><path d="M398,793.6113 L398,818.6113 L747,818.6113 L747,803.6113 L737,793.6113 L398,793.6113 " fill="#FEFFDD" style="stroke:#181818;stroke-width:0.5;"/><path d="M737,793.6113 L737,803.6113 L747,803.6113 L737,793.6113 " fill="#FEFFDD" style="stroke:#181818;stroke-width:0.5;"/><text fill="#000000" font-family="sans-serif" font-size="13" lengthAdjust="spacing" textLength="328" x="404" y="811.1797">Change from json to dto hidden to simplify diagram</text><polygon fill="#181818" points="11,841.2324,1,845.2324,11,849.2324,7,845.2324" style="stroke:#181818;stroke-width:1.0;"/><line style="stroke:#181818;stroke-width:1.0;stroke-dasharray:2.0,2.0;" x1="5" x2="214" y1="845.2324" y2="845.2324"/><text fill="#000000" font-family="sans-serif" font-size="13" font-weight="bold" lengthAdjust="spacing" textLength="18" x="17" y="840.4902">19</text><text fill="#000000" font-family="sans-serif" font-size="13" lengthAdjust="spacing" textLength="169" x="39" y="840.4902">Informs Operation Success</text><!--MD5=[b28a1ed79067d1a2fe976aa02dd1c18d]
@startuml

title US022 - As Project Manager, I want to create a sprint.

autoactivate on
autonumber

participant ": CreateSprintRoute" as UI
participant ": CreateSprintController" as Ctrl
participant ": CreateSprintService" as createSprintService
participant ": SprintDTO" as sprintDTO
participant ": ISprintFactory" as sprintFactory
participant " newSprint : Sprint" as sprint
participant ": ISprintStore" as sprintStore
participant ": SprintMapper" as sprintMapper
participant "outputDTO: OutPutSprintDTO" as outputDTO


[o-> UI: POST/sprints(json)
UI -> Ctrl: createSprint(json)
note right
Change from json to dto hidden to simplify diagram
end note
Ctrl -> createSprintService: createSprint(sprintDTO)
createSprintService -> sprintDTO: projectID = getProjectID()
deactivate
createSprintService -> sprintDTO: sprintID = getSprintID()
deactivate
createSprintService -> sprintDTO: name = getName()
deactivate
createSprintService -> sprintFactory: createSprint(projectID, sprintID, name)
sprintFactory -> sprint**: create()
sprintFactory - -> createSprintService: newSprint
createSprintService -> sprintStore: saveSprint(newSprint)
sprintStore -> sprintStore: existsBySprintID(sprintID)
deactivate
sprintStore -> sprintStore: add(newSprint)
deactivate
sprintStore - -> createSprintService: true
createSprintService -> sprintMapper: toDTO(newsprint)
sprintMapper -> outputDTO**: create()
sprintMapper - -> createSprintService: outputDTO
createSprintService - -> Ctrl: outputDTO
Ctrl - -> UI: outputJson
note right
Change from json to dto hidden to simplify diagram
end note
[<- -UI : Informs Operation Success
@enduml

PlantUML version 1.2022.4(Sat Apr 09 14:29:17 WEST 2022)
(GPL source distribution)
Java Runtime: OpenJDK Runtime Environment
JVM: OpenJDK 64-Bit Server VM
Default Encoding: UTF-8
Language: pt
Country: PT
--></g></svg>