<?xml version="1.0" encoding="UTF-8" standalone="no"?><svg xmlns="http://www.w3.org/2000/svg" xmlns:xlink="http://www.w3.org/1999/xlink" contentStyleType="text/css" height="297px" preserveAspectRatio="none" style="width:598px;height:297px;background:#FFFFFF;" version="1.1" viewBox="0 0 598 297" width="598px" zoomAndPan="magnify"><defs/><g><rect height="26.4883" style="stroke:#00000000;stroke-width:1.0;fill:none;" width="580" x="5" y="5"/><text fill="#000000" font-family="sans-serif" font-size="14" font-weight="bold" lengthAdjust="spacing" textLength="570" x="10" y="23.5352">Domain Model excerpt - US022 - As Project Manager, I Want to create a Sprint.</text><!--MD5=[a8621f786b421b40515673e2d966a1c3]
cluster Sprint--><g id="cluster_Sprint"><rect height="99" rx="2.5" ry="2.5" style="stroke:#181818;stroke-width:1.0;fill:none;" width="106" x="249.5" y="44.4883"/><text fill="#000000" font-family="sans-serif" font-size="14" font-weight="bold" lengthAdjust="spacing" textLength="43" x="281" y="60.0234">Sprint</text></g><!--MD5=[aedf33e92eb03334654cabdc4d55aa07]
cluster SprintID--><g id="cluster_SprintID"><rect height="99" rx="2.5" ry="2.5" style="stroke:#181818;stroke-width:1.0;fill:none;" width="120" x="242.5" y="192.4883"/><text fill="#000000" font-family="sans-serif" font-size="14" font-weight="bold" lengthAdjust="spacing" textLength="59" x="273" y="208.0234">SprintID</text></g><!--MD5=[452a66c2e8d45f5bd209be454bbcd04f]
class Sprint--><g id="elem_Sprint"><rect codeLine="9" fill="#F1F1F1" height="48" id="Sprint" rx="2.5" ry="2.5" style="stroke:#181818;stroke-width:0.5;" width="73" x="266" y="79.4883"/><ellipse cx="281" cy="95.4883" fill="#ADD1B2" rx="11" ry="11" style="stroke:#181818;stroke-width:1.0;"/><path d="M283.4731,101.6313 Q282.8921,101.9302 282.2529,102.0796 Q281.6138,102.229 280.9082,102.229 Q278.4014,102.229 277.0815,100.5771 Q275.7617,98.9253 275.7617,95.8042 Q275.7617,92.6748 277.0815,91.0229 Q278.4014,89.3711 280.9082,89.3711 Q281.6138,89.3711 282.2612,89.5205 Q282.9087,89.6699 283.4731,89.9688 L283.4731,92.6914 Q282.8423,92.1104 282.2488,91.8406 Q281.6553,91.5708 281.0244,91.5708 Q279.6797,91.5708 278.9949,92.6375 Q278.3101,93.7041 278.3101,95.8042 Q278.3101,97.896 278.9949,98.9626 Q279.6797,100.0293 281.0244,100.0293 Q281.6553,100.0293 282.2488,99.7595 Q282.8423,99.4897 283.4731,98.9087 Z " fill="#000000"/><text fill="#000000" font-family="sans-serif" font-size="14" lengthAdjust="spacing" textLength="41" x="295" y="100.7793">Sprint</text><line style="stroke:#181818;stroke-width:0.5;" x1="267" x2="338" y1="111.4883" y2="111.4883"/><line style="stroke:#181818;stroke-width:0.5;" x1="267" x2="338" y1="119.4883" y2="119.4883"/></g><!--MD5=[9ad4036dd028425989883104bd9f35de]
class SprintID--><g id="elem_SprintID"><rect codeLine="15" fill="#F1F1F1" height="48" id="SprintID" rx="2.5" ry="2.5" style="stroke:#181818;stroke-width:0.5;" width="87" x="259" y="227.4883"/><ellipse cx="274" cy="243.4883" fill="#ADD1B2" rx="11" ry="11" style="stroke:#181818;stroke-width:1.0;"/><path d="M276.4731,249.6313 Q275.8921,249.9302 275.2529,250.0796 Q274.6138,250.229 273.9082,250.229 Q271.4014,250.229 270.0815,248.5771 Q268.7617,246.9253 268.7617,243.8042 Q268.7617,240.6748 270.0815,239.0229 Q271.4014,237.3711 273.9082,237.3711 Q274.6138,237.3711 275.2612,237.5205 Q275.9087,237.6699 276.4731,237.9688 L276.4731,240.6914 Q275.8423,240.1104 275.2488,239.8406 Q274.6553,239.5708 274.0244,239.5708 Q272.6797,239.5708 271.9949,240.6375 Q271.3101,241.7041 271.3101,243.8042 Q271.3101,245.896 271.9949,246.9626 Q272.6797,248.0293 274.0244,248.0293 Q274.6553,248.0293 275.2488,247.7595 Q275.8423,247.4897 276.4731,246.9087 Z " fill="#000000"/><text fill="#000000" font-family="sans-serif" font-size="14" lengthAdjust="spacing" textLength="55" x="288" y="248.7793">SprintID</text><line style="stroke:#181818;stroke-width:0.5;" x1="260" x2="345" y1="259.4883" y2="259.4883"/><line style="stroke:#181818;stroke-width:0.5;" x1="260" x2="345" y1="267.4883" y2="267.4883"/></g><!--MD5=[128fcd6bf76a45b6dcfe63b4d7205530]
link Sprint to SprintID--><g id="link_Sprint_SprintID"><path codeLine="19" d="M302.5,127.6183 C302.5,153.2483 302.5,194.5883 302.5,222.1483 " fill="none" id="Sprint-to-SprintID" style="stroke:#181818;stroke-width:1.0;"/><polygon fill="#181818" points="302.5,227.4583,306.5,218.4583,302.5,222.4583,298.5,218.4583,302.5,227.4583" style="stroke:#181818;stroke-width:1.0;"/><text fill="#000000" font-family="sans-serif" font-size="13" lengthAdjust="spacing" textLength="22" x="303.5" y="173.0566">has</text></g><!--MD5=[c5f0fe1db316788d1190a9c0b153ff0e]
@startuml
'https://plantuml.com/class-diagram

skinparam classAttributeIconSize 0
'hide circle

title Domain Model excerpt - US022 - As Project Manager, I Want to create a Sprint.

package Sprint <<Rectangle>>{
class Sprint{
}
}


package SprintID <<Rectangle>>{
class SprintID{
}
}

Sprint -down-> SprintID: has


@enduml

@startuml

skinparam classAttributeIconSize 0

title Domain Model excerpt - US022 - As Project Manager, I Want to create a Sprint.

package Sprint <<Rectangle>>{
class Sprint{
}
}


package SprintID <<Rectangle>>{
class SprintID{
}
}

Sprint -down-> SprintID: has


@enduml

PlantUML version 1.2022.4(Sat Apr 09 14:29:17 WEST 2022)
(GPL source distribution)
Java Runtime: OpenJDK Runtime Environment
JVM: OpenJDK 64-Bit Server VM
Default Encoding: UTF-8
Language: pt
Country: PT
--></g></svg>