<?xml version="1.0" encoding="UTF-8" standalone="no"?><svg xmlns="http://www.w3.org/2000/svg" xmlns:xlink="http://www.w3.org/1999/xlink" contentStyleType="text/css" height="278px" preserveAspectRatio="none" style="width:416px;height:278px;background:#FFFFFF;" version="1.1" viewBox="0 0 416 278" width="416px" zoomAndPan="magnify"><defs/><g><rect height="26.4883" style="stroke:#00000000;stroke-width:1.0;fill:none;" width="398" x="5" y="10"/><text fill="#000000" font-family="sans-serif" font-size="14" font-weight="bold" lengthAdjust="spacing" textLength="388" x="10" y="28.5352">US022 - As Project Manager, I want to create a sprint.</text><rect fill="#FFFFFF" height="59.6211" style="stroke:#181818;stroke-width:1.0;" width="10" x="104.25" y="128.9766"/><rect fill="#FFFFFF" height="29.3105" style="stroke:#181818;stroke-width:1.0;" width="10" x="320.25" y="150.2871"/><line style="stroke:#181818;stroke-width:0.5;stroke-dasharray:5.0,5.0;" x1="108.75" x2="108.75" y1="118.9766" y2="197.5977"/><line style="stroke:#181818;stroke-width:0.5;stroke-dasharray:5.0,5.0;" x1="325.25" x2="325.25" y1="118.9766" y2="197.5977"/><text fill="#000000" font-family="sans-serif" font-size="14" lengthAdjust="spacing" textLength="111" x="50.75" y="116.0234">Project Manager</text><ellipse cx="109.25" cy="50.9883" fill="#E2E2F0" rx="8" ry="8" style="stroke:#181818;stroke-width:0.5;"/><path d="M109.25,58.9883 L109.25,85.9883 M96.25,66.9883 L122.25,66.9883 M109.25,85.9883 L96.25,100.9883 M109.25,85.9883 L122.25,100.9883 " fill="none" style="stroke:#181818;stroke-width:0.5;"/><text fill="#000000" font-family="sans-serif" font-size="14" lengthAdjust="spacing" textLength="111" x="50.75" y="210.1328">Project Manager</text><ellipse cx="109.25" cy="221.5859" fill="#E2E2F0" rx="8" ry="8" style="stroke:#181818;stroke-width:0.5;"/><path d="M109.25,229.5859 L109.25,256.5859 M96.25,237.5859 L122.25,237.5859 M109.25,256.5859 L96.25,271.5859 M109.25,256.5859 L122.25,271.5859 " fill="none" style="stroke:#181818;stroke-width:0.5;"/><rect fill="#E2E2F0" height="30.4883" rx="2.5" ry="2.5" style="stroke:#181818;stroke-width:0.5;" width="66" x="292.25" y="87.4883"/><text fill="#000000" font-family="sans-serif" font-size="14" lengthAdjust="spacing" textLength="52" x="299.25" y="108.0234">:System</text><rect fill="#E2E2F0" height="30.4883" rx="2.5" ry="2.5" style="stroke:#181818;stroke-width:0.5;" width="66" x="292.25" y="196.5977"/><text fill="#000000" font-family="sans-serif" font-size="14" lengthAdjust="spacing" textLength="52" x="299.25" y="217.1328">:System</text><rect fill="#FFFFFF" height="59.6211" style="stroke:#181818;stroke-width:1.0;" width="10" x="104.25" y="128.9766"/><rect fill="#FFFFFF" height="29.3105" style="stroke:#181818;stroke-width:1.0;" width="10" x="320.25" y="150.2871"/><polygon fill="#181818" points="308.25,146.2871,318.25,150.2871,308.25,154.2871,312.25,150.2871" style="stroke:#181818;stroke-width:1.0;"/><line style="stroke:#181818;stroke-width:1.0;" x1="114.25" x2="314.25" y1="150.2871" y2="150.2871"/><text fill="#000000" font-family="sans-serif" font-size="13" font-weight="bold" lengthAdjust="spacing" textLength="9" x="121.25" y="145.5449">1</text><text fill="#000000" font-family="sans-serif" font-size="13" lengthAdjust="spacing" textLength="147" x="134.25" y="145.5449">Starts to create a Sprint</text><polygon fill="#181818" points="125.25,175.5977,115.25,179.5977,125.25,183.5977,121.25,179.5977" style="stroke:#181818;stroke-width:1.0;"/><line style="stroke:#181818;stroke-width:1.0;stroke-dasharray:2.0,2.0;" x1="119.25" x2="324.25" y1="179.5977" y2="179.5977"/><text fill="#000000" font-family="sans-serif" font-size="13" font-weight="bold" lengthAdjust="spacing" textLength="9" x="131.25" y="174.8555">2</text><text fill="#000000" font-family="sans-serif" font-size="13" lengthAdjust="spacing" textLength="169" x="144.25" y="174.8555">Informs Operation Success</text><!--MD5=[8e11696c53cf833365f72498f9d45671]
@startuml
'https://plantuml.com/sequence-diagram

title US022 - As Project Manager, I want to create a sprint.

autoactivate on
autonumber

actor "Project Manager" as ProjectManager
participant ":System" as System

activate ProjectManager

ProjectManager -> System: Starts to create a Sprint
'System -> System: createSprint
'deactivate
System - -> ProjectManager: Informs Operation Success

@enduml

@startuml

title US022 - As Project Manager, I want to create a sprint.

autoactivate on
autonumber

actor "Project Manager" as ProjectManager
participant ":System" as System

activate ProjectManager

ProjectManager -> System: Starts to create a Sprint
System - -> ProjectManager: Informs Operation Success

@enduml

PlantUML version 1.2022.4(Sat Apr 09 14:29:17 WEST 2022)
(GPL source distribution)
Java Runtime: OpenJDK Runtime Environment
JVM: OpenJDK 64-Bit Server VM
Default Encoding: UTF-8
Language: pt
Country: PT
--></g></svg>