<?xml version="1.0" encoding="UTF-8" standalone="no"?><svg xmlns="http://www.w3.org/2000/svg" xmlns:xlink="http://www.w3.org/1999/xlink" contentStyleType="text/css" height="284px" preserveAspectRatio="none" style="width:650px;height:284px;background:#FFFFFF;" version="1.1" viewBox="0 0 650 284" width="650px" zoomAndPan="magnify"><defs/><g><rect height="27.6094" style="stroke:#00000000;stroke-width:1.0;fill:none;" width="632" x="5" y="10"/><text fill="#000000" font-family="sans-serif" font-size="14" font-weight="bold" lengthAdjust="spacing" textLength="622" x="10" y="29.5332">US009 - As Product Owner, I want to create a user story and add it to the Product Backlog</text><rect fill="#FFFFFF" height="61.7031" style="stroke:#181818;stroke-width:1.0;" width="10" x="222" y="131.2188"/><rect fill="#FFFFFF" height="30.3516" style="stroke:#181818;stroke-width:1.0;" width="10" x="429" y="153.5703"/><line style="stroke:#181818;stroke-width:0.5;stroke-dasharray:5.0,5.0;" x1="227" x2="227" y1="121.2188" y2="201.9219"/><line style="stroke:#181818;stroke-width:0.5;stroke-dasharray:5.0,5.0;" x1="434" x2="434" y1="121.2188" y2="201.9219"/><text fill="#000000" font-family="sans-serif" font-size="14" lengthAdjust="spacing" textLength="94" x="177" y="118.1426">Product Owner</text><ellipse cx="227" cy="52.1094" fill="#90EE90" rx="8" ry="8" style="stroke:#181818;stroke-width:0.5;"/><path d="M227,60.1094 L227,87.1094 M214,68.1094 L240,68.1094 M227,87.1094 L214,102.1094 M227,87.1094 L240,102.1094 " fill="none" style="stroke:#181818;stroke-width:0.5;"/><text fill="#000000" font-family="sans-serif" font-size="14" lengthAdjust="spacing" textLength="94" x="177" y="215.4551">Product Owner</text><ellipse cx="227" cy="227.0313" fill="#90EE90" rx="8" ry="8" style="stroke:#181818;stroke-width:0.5;"/><path d="M227,235.0313 L227,262.0313 M214,243.0313 L240,243.0313 M227,262.0313 L214,277.0313 M227,262.0313 L240,277.0313 " fill="none" style="stroke:#181818;stroke-width:0.5;"/><rect fill="#E2E2F0" height="31.6094" rx="2.5" ry="2.5" style="stroke:#181818;stroke-width:0.5;" width="64" x="402" y="88.6094"/><text fill="#000000" font-family="sans-serif" font-size="14" lengthAdjust="spacing" textLength="50" x="409" y="110.1426">:System</text><rect fill="#E2E2F0" height="31.6094" rx="2.5" ry="2.5" style="stroke:#181818;stroke-width:0.5;" width="64" x="402" y="200.9219"/><text fill="#000000" font-family="sans-serif" font-size="14" lengthAdjust="spacing" textLength="50" x="409" y="222.4551">:System</text><rect fill="#FFFFFF" height="61.7031" style="stroke:#181818;stroke-width:1.0;" width="10" x="222" y="131.2188"/><rect fill="#FFFFFF" height="30.3516" style="stroke:#181818;stroke-width:1.0;" width="10" x="429" y="153.5703"/><polygon fill="#181818" points="417,149.5703,427,153.5703,417,157.5703,421,153.5703" style="stroke:#181818;stroke-width:1.0;"/><line style="stroke:#181818;stroke-width:1.0;" x1="232" x2="423" y1="153.5703" y2="153.5703"/><text fill="#000000" font-family="sans-serif" font-size="13" font-weight="bold" lengthAdjust="spacing" textLength="7" x="239" y="148.7139">1</text><text fill="#000000" font-family="sans-serif" font-size="13" lengthAdjust="spacing" textLength="167" x="250" y="148.7139">Starts to create a User Story</text><polygon fill="#181818" points="243,179.9219,233,183.9219,243,187.9219,239,183.9219" style="stroke:#181818;stroke-width:1.0;"/><line style="stroke:#181818;stroke-width:1.0;stroke-dasharray:2.0,2.0;" x1="237" x2="433" y1="183.9219" y2="183.9219"/><text fill="#000000" font-family="sans-serif" font-size="13" font-weight="bold" lengthAdjust="spacing" textLength="7" x="249" y="179.0654">2</text><text fill="#000000" font-family="sans-serif" font-size="13" lengthAdjust="spacing" textLength="157" x="260" y="179.0654">Informs Operation Success</text><!--MD5=[596fe3a356d9400c18bcf5ac9d9d9075]
@startuml
'https://plantuml.com/sequence-diagramtitle US022 - As Project Manager, I want to create a sprint.

title US009 - As Product Owner, I want to create a user story and add it to the Product Backlog

autoactivate on
autonumber
actor "Product Owner" as ProjectManager #lightgreen
participant ":System" as System

activate ProjectManager

ProjectManager -> System: Starts to create a User Story
'System -> System: createUserStory
'deactivate
System - -> ProjectManager: Informs Operation Success

@enduml

@startuml

title US009 - As Product Owner, I want to create a user story and add it to the Product Backlog

autoactivate on
autonumber
actor "Product Owner" as ProjectManager #lightgreen
participant ":System" as System

activate ProjectManager

ProjectManager -> System: Starts to create a User Story
System - -> ProjectManager: Informs Operation Success

@enduml

PlantUML version 1.2022.4(Sat Apr 09 14:29:17 BST 2022)
(GPL source distribution)
Java Runtime: OpenJDK Runtime Environment
JVM: OpenJDK 64-Bit Server VM
Default Encoding: Cp1252
Language: en
Country: US
--></g></svg>