<?xml version="1.0" encoding="UTF-8" standalone="no"?><svg xmlns="http://www.w3.org/2000/svg" xmlns:xlink="http://www.w3.org/1999/xlink" contentStyleType="text/css" height="1188px" preserveAspectRatio="none" style="width:1733px;height:1188px;background:#FFFFFF;" version="1.1" viewBox="0 0 1733 1188" width="1733px" zoomAndPan="magnify"><defs/><g><rect height="27.6094" style="stroke:#00000000;stroke-width:1.0;fill:none;" width="632" x="549.5" y="10"/><text fill="#000000" font-family="sans-serif" font-size="14" font-weight="bold" lengthAdjust="spacing" textLength="622" x="554.5" y="29.5332">US009 - As Product Owner, I want to create a user story and add it to the Product Backlog</text><rect fill="#FFFFFF" height="990.2109" style="stroke:#181818;stroke-width:1.0;" width="10" x="241" y="126.1797"/><rect fill="#FFFFFF" height="923.5078" style="stroke:#181818;stroke-width:1.0;" width="10" x="428" y="159.5313"/><rect fill="#FFFFFF" height="856.8047" style="stroke:#181818;stroke-width:1.0;" width="10" x="639" y="192.8828"/><rect fill="#FFFFFF" height="30" style="stroke:#181818;stroke-width:1.0;" width="10" x="878" y="223.2344"/><rect fill="#FFFFFF" height="30" style="stroke:#181818;stroke-width:1.0;" width="10" x="878" y="283.5859"/><rect fill="#FFFFFF" height="30" style="stroke:#181818;stroke-width:1.0;" width="10" x="878" y="343.9375"/><rect fill="#FFFFFF" height="30" style="stroke:#181818;stroke-width:1.0;" width="10" x="878" y="404.2891"/><rect fill="#FFFFFF" height="30" style="stroke:#181818;stroke-width:1.0;" width="10" x="878" y="464.6406"/><rect fill="#FFFFFF" height="30" style="stroke:#181818;stroke-width:1.0;" width="10" x="878" y="524.9922"/><rect fill="#FFFFFF" height="90.5703" style="stroke:#181818;stroke-width:1.0;" width="10" x="1008.5" y="601.6953"/><rect fill="#FFFFFF" height="193.4063" style="stroke:#181818;stroke-width:1.0;" width="10" x="1285" y="722.6172"/><rect fill="#FFFFFF" height="28" style="stroke:#181818;stroke-width:1.0;" width="10" x="1290" y="777.3203"/><rect fill="#FFFFFF" height="28" style="stroke:#181818;stroke-width:1.0;" width="10" x="1290" y="850.6719"/><rect fill="#FFFFFF" height="72.9609" style="stroke:#181818;stroke-width:1.0;" width="10" x="1446" y="946.375"/><line style="stroke:#181818;stroke-width:0.5;stroke-dasharray:5.0,5.0;" x1="245.5" x2="245.5" y1="93.8281" y2="1134.3906"/><line style="stroke:#181818;stroke-width:0.5;stroke-dasharray:5.0,5.0;" x1="432.5" x2="432.5" y1="93.8281" y2="1134.3906"/><line style="stroke:#181818;stroke-width:0.5;stroke-dasharray:5.0,5.0;" x1="644" x2="644" y1="93.8281" y2="1134.3906"/><line style="stroke:#181818;stroke-width:0.5;stroke-dasharray:5.0,5.0;" x1="883" x2="883" y1="93.8281" y2="1134.3906"/><line style="stroke:#181818;stroke-width:0.5;stroke-dasharray:5.0,5.0;" x1="1013" x2="1013" y1="93.8281" y2="1134.3906"/><line style="stroke:#181818;stroke-width:0.5;stroke-dasharray:5.0,5.0;" x1="1160.5" x2="1160.5" y1="649.8047" y2="1134.3906"/><line style="stroke:#181818;stroke-width:0.5;stroke-dasharray:5.0,5.0;" x1="1289.5" x2="1289.5" y1="93.8281" y2="1134.3906"/><line style="stroke:#181818;stroke-width:0.5;stroke-dasharray:5.0,5.0;" x1="1451" x2="1451" y1="93.8281" y2="1134.3906"/><line style="stroke:#181818;stroke-width:0.5;stroke-dasharray:5.0,5.0;" x1="1634" x2="1634" y1="985.6797" y2="1134.3906"/><rect fill="#E2E2F0" height="31.6094" rx="2.5" ry="2.5" style="stroke:#181818;stroke-width:0.5;" width="165" x="163.5" y="61.2188"/><text fill="#000000" font-family="sans-serif" font-size="14" lengthAdjust="spacing" textLength="151" x="170.5" y="82.752">: CreateUserStoryRoute</text><rect fill="#E2E2F0" height="31.6094" rx="2.5" ry="2.5" style="stroke:#181818;stroke-width:0.5;" width="165" x="163.5" y="1133.3906"/><text fill="#000000" font-family="sans-serif" font-size="14" lengthAdjust="spacing" textLength="151" x="170.5" y="1154.9238">: CreateUserStoryRoute</text><rect fill="#E2E2F0" height="31.6094" rx="2.5" ry="2.5" style="stroke:#181818;stroke-width:0.5;" width="189" x="338.5" y="61.2188"/><text fill="#000000" font-family="sans-serif" font-size="14" lengthAdjust="spacing" textLength="175" x="345.5" y="82.752">: CreateUserStoryController</text><rect fill="#E2E2F0" height="31.6094" rx="2.5" ry="2.5" style="stroke:#181818;stroke-width:0.5;" width="189" x="338.5" y="1133.3906"/><text fill="#000000" font-family="sans-serif" font-size="14" lengthAdjust="spacing" textLength="175" x="345.5" y="1154.9238">: CreateUserStoryController</text><rect fill="#E2E2F0" height="31.6094" rx="2.5" ry="2.5" style="stroke:#181818;stroke-width:0.5;" width="174" x="557" y="61.2188"/><text fill="#000000" font-family="sans-serif" font-size="14" lengthAdjust="spacing" textLength="160" x="564" y="82.752">: CreateUserStoryService</text><rect fill="#E2E2F0" height="31.6094" rx="2.5" ry="2.5" style="stroke:#181818;stroke-width:0.5;" width="174" x="557" y="1133.3906"/><text fill="#000000" font-family="sans-serif" font-size="14" lengthAdjust="spacing" textLength="160" x="564" y="1154.9238">: CreateUserStoryService</text><rect fill="#E2E2F0" height="31.6094" rx="2.5" ry="2.5" style="stroke:#181818;stroke-width:0.5;" width="106" x="830" y="61.2188"/><text fill="#000000" font-family="sans-serif" font-size="14" lengthAdjust="spacing" textLength="92" x="837" y="82.752">: UserStoryDto</text><rect fill="#E2E2F0" height="31.6094" rx="2.5" ry="2.5" style="stroke:#181818;stroke-width:0.5;" width="106" x="830" y="1133.3906"/><text fill="#000000" font-family="sans-serif" font-size="14" lengthAdjust="spacing" textLength="92" x="837" y="1154.9238">: UserStoryDto</text><rect fill="#E2E2F0" height="31.6094" rx="2.5" ry="2.5" style="stroke:#181818;stroke-width:0.5;" width="135" x="946" y="61.2188"/><text fill="#000000" font-family="sans-serif" font-size="14" lengthAdjust="spacing" textLength="121" x="953" y="82.752">: IUserStoryFactory</text><rect fill="#E2E2F0" height="31.6094" rx="2.5" ry="2.5" style="stroke:#181818;stroke-width:0.5;" width="135" x="946" y="1133.3906"/><text fill="#000000" font-family="sans-serif" font-size="14" lengthAdjust="spacing" textLength="121" x="953" y="1154.9238">: IUserStoryFactory</text><rect fill="#E2E2F0" height="49.2188" rx="2.5" ry="2.5" style="stroke:#181818;stroke-width:0.5;" width="113" x="1104.5" y="1133.3906"/><text fill="#000000" font-family="sans-serif" font-size="14" lengthAdjust="spacing" textLength="95" x="1111.5" y="1154.9238">newUserStory :</text><text fill="#000000" font-family="sans-serif" font-size="14" lengthAdjust="spacing" textLength="62" x="1132" y="1172.5332">UserStory</text><rect fill="#E2E2F0" height="31.6094" rx="2.5" ry="2.5" style="stroke:#181818;stroke-width:0.5;" width="125" x="1227.5" y="61.2188"/><text fill="#000000" font-family="sans-serif" font-size="14" lengthAdjust="spacing" textLength="107" x="1234.5" y="82.752">: IRepoUserStory</text><rect fill="#E2E2F0" height="31.6094" rx="2.5" ry="2.5" style="stroke:#181818;stroke-width:0.5;" width="125" x="1227.5" y="1133.3906"/><text fill="#000000" font-family="sans-serif" font-size="14" lengthAdjust="spacing" textLength="107" x="1234.5" y="1154.9238">: IRepoUserStory</text><rect fill="#E2E2F0" height="31.6094" rx="2.5" ry="2.5" style="stroke:#181818;stroke-width:0.5;" width="132" x="1385" y="61.2188"/><text fill="#000000" font-family="sans-serif" font-size="14" lengthAdjust="spacing" textLength="118" x="1392" y="82.752">: UserStoryMapper</text><rect fill="#E2E2F0" height="31.6094" rx="2.5" ry="2.5" style="stroke:#181818;stroke-width:0.5;" width="132" x="1385" y="1133.3906"/><text fill="#000000" font-family="sans-serif" font-size="14" lengthAdjust="spacing" textLength="118" x="1392" y="1154.9238">: UserStoryMapper</text><rect fill="#E2E2F0" height="31.6094" rx="2.5" ry="2.5" style="stroke:#181818;stroke-width:0.5;" width="185" x="1542" y="1133.3906"/><text fill="#000000" font-family="sans-serif" font-size="14" lengthAdjust="spacing" textLength="171" x="1549" y="1154.9238">outputUsDto : OutputUsDto</text><rect fill="#FFFFFF" height="990.2109" style="stroke:#181818;stroke-width:1.0;" width="10" x="241" y="126.1797"/><rect fill="#FFFFFF" height="923.5078" style="stroke:#181818;stroke-width:1.0;" width="10" x="428" y="159.5313"/><rect fill="#FFFFFF" height="856.8047" style="stroke:#181818;stroke-width:1.0;" width="10" x="639" y="192.8828"/><rect fill="#FFFFFF" height="30" style="stroke:#181818;stroke-width:1.0;" width="10" x="878" y="223.2344"/><rect fill="#FFFFFF" height="30" style="stroke:#181818;stroke-width:1.0;" width="10" x="878" y="283.5859"/><rect fill="#FFFFFF" height="30" style="stroke:#181818;stroke-width:1.0;" width="10" x="878" y="343.9375"/><rect fill="#FFFFFF" height="30" style="stroke:#181818;stroke-width:1.0;" width="10" x="878" y="404.2891"/><rect fill="#FFFFFF" height="30" style="stroke:#181818;stroke-width:1.0;" width="10" x="878" y="464.6406"/><rect fill="#FFFFFF" height="30" style="stroke:#181818;stroke-width:1.0;" width="10" x="878" y="524.9922"/><rect fill="#FFFFFF" height="90.5703" style="stroke:#181818;stroke-width:1.0;" width="10" x="1008.5" y="601.6953"/><rect fill="#FFFFFF" height="193.4063" style="stroke:#181818;stroke-width:1.0;" width="10" x="1285" y="722.6172"/><rect fill="#FFFFFF" height="28" style="stroke:#181818;stroke-width:1.0;" width="10" x="1290" y="777.3203"/><rect fill="#FFFFFF" height="28" style="stroke:#181818;stroke-width:1.0;" width="10" x="1290" y="850.6719"/><rect fill="#FFFFFF" height="72.9609" style="stroke:#181818;stroke-width:1.0;" width="10" x="1446" y="946.375"/><ellipse cx="7.5" cy="125.4297" fill="none" rx="4" ry="4" style="stroke:#181818;stroke-width:1.5;"/><polygon fill="#181818" points="229,122.1797,239,126.1797,229,130.1797,233,126.1797" style="stroke:#181818;stroke-width:1.0;"/><line style="stroke:#181818;stroke-width:1.0;" x1="12" x2="235" y1="126.1797" y2="126.1797"/><text fill="#000000" font-family="sans-serif" font-size="13" font-weight="bold" lengthAdjust="spacing" textLength="7" x="15" y="121.3232">1</text><text fill="#000000" font-family="sans-serif" font-size="13" lengthAdjust="spacing" textLength="137" x="26" y="121.3232">POST/userStories(json)</text><polygon fill="#181818" points="416,155.5313,426,159.5313,416,163.5313,420,159.5313" style="stroke:#181818;stroke-width:1.0;"/><line style="stroke:#181818;stroke-width:1.0;" x1="251" x2="422" y1="159.5313" y2="159.5313"/><text fill="#000000" font-family="sans-serif" font-size="13" font-weight="bold" lengthAdjust="spacing" textLength="7" x="258" y="154.6748">2</text><text fill="#000000" font-family="sans-serif" font-size="13" lengthAdjust="spacing" textLength="126" x="269" y="154.6748">createUserStory(json)</text><path d="M443,139.1797 L443,165.1797 L757,165.1797 L757,149.1797 L747,139.1797 L443,139.1797 " fill="#FEFFDD" style="stroke:#181818;stroke-width:0.5;"/><path d="M747,139.1797 L747,149.1797 L757,149.1797 L747,139.1797 " fill="#FEFFDD" style="stroke:#181818;stroke-width:0.5;"/><text fill="#000000" font-family="sans-serif" font-size="13" lengthAdjust="spacing" textLength="293" x="449" y="157.6748">Change from json to dto hidden to simplify diagram</text><polygon fill="#181818" points="627,188.8828,637,192.8828,627,196.8828,631,192.8828" style="stroke:#181818;stroke-width:1.0;"/><line style="stroke:#181818;stroke-width:1.0;" x1="438" x2="633" y1="192.8828" y2="192.8828"/><text fill="#000000" font-family="sans-serif" font-size="13" font-weight="bold" lengthAdjust="spacing" textLength="7" x="445" y="188.0264">3</text><text fill="#000000" font-family="sans-serif" font-size="13" lengthAdjust="spacing" textLength="171" x="456" y="188.0264">createAndSaveUserStory(dto)</text><polygon fill="#181818" points="866,219.2344,876,223.2344,866,227.2344,870,223.2344" style="stroke:#181818;stroke-width:1.0;"/><line style="stroke:#181818;stroke-width:1.0;" x1="649" x2="872" y1="223.2344" y2="223.2344"/><text fill="#000000" font-family="sans-serif" font-size="13" font-weight="bold" lengthAdjust="spacing" textLength="7" x="656" y="218.3779">4</text><text fill="#000000" font-family="sans-serif" font-size="13" lengthAdjust="spacing" textLength="146" x="667" y="218.3779">projectID = getProjectID()</text><polygon fill="#181818" points="866,279.5859,876,283.5859,866,287.5859,870,283.5859" style="stroke:#181818;stroke-width:1.0;"/><line style="stroke:#181818;stroke-width:1.0;" x1="649" x2="872" y1="283.5859" y2="283.5859"/><text fill="#000000" font-family="sans-serif" font-size="13" font-weight="bold" lengthAdjust="spacing" textLength="7" x="656" y="278.7295">5</text><text fill="#000000" font-family="sans-serif" font-size="13" lengthAdjust="spacing" textLength="180" x="667" y="278.7295">userStoryID = getUserStoryID()</text><polygon fill="#181818" points="866,339.9375,876,343.9375,866,347.9375,870,343.9375" style="stroke:#181818;stroke-width:1.0;"/><line style="stroke:#181818;stroke-width:1.0;" x1="649" x2="872" y1="343.9375" y2="343.9375"/><text fill="#000000" font-family="sans-serif" font-size="13" font-weight="bold" lengthAdjust="spacing" textLength="7" x="656" y="339.0811">6</text><text fill="#000000" font-family="sans-serif" font-size="13" lengthAdjust="spacing" textLength="87" x="667" y="339.0811">title = getTitle()</text><polygon fill="#181818" points="866,400.2891,876,404.2891,866,408.2891,870,404.2891" style="stroke:#181818;stroke-width:1.0;"/><line style="stroke:#181818;stroke-width:1.0;" x1="649" x2="872" y1="404.2891" y2="404.2891"/><text fill="#000000" font-family="sans-serif" font-size="13" font-weight="bold" lengthAdjust="spacing" textLength="7" x="656" y="399.4326">7</text><text fill="#000000" font-family="sans-serif" font-size="13" lengthAdjust="spacing" textLength="122" x="667" y="399.4326">priority = getPriority()</text><polygon fill="#181818" points="866,460.6406,876,464.6406,866,468.6406,870,464.6406" style="stroke:#181818;stroke-width:1.0;"/><line style="stroke:#181818;stroke-width:1.0;" x1="649" x2="872" y1="464.6406" y2="464.6406"/><text fill="#000000" font-family="sans-serif" font-size="13" font-weight="bold" lengthAdjust="spacing" textLength="7" x="656" y="459.7842">8</text><text fill="#000000" font-family="sans-serif" font-size="13" lengthAdjust="spacing" textLength="170" x="667" y="459.7842">description = getDescription()</text><polygon fill="#181818" points="866,520.9922,876,524.9922,866,528.9922,870,524.9922" style="stroke:#181818;stroke-width:1.0;"/><line style="stroke:#181818;stroke-width:1.0;" x1="649" x2="872" y1="524.9922" y2="524.9922"/><text fill="#000000" font-family="sans-serif" font-size="13" font-weight="bold" lengthAdjust="spacing" textLength="7" x="656" y="520.1357">9</text><text fill="#000000" font-family="sans-serif" font-size="13" lengthAdjust="spacing" textLength="199" x="667" y="520.1357">timeEstimate = getTimeEstimate()</text><polygon fill="#181818" points="996.5,597.6953,1006.5,601.6953,996.5,605.6953,1000.5,601.6953" style="stroke:#181818;stroke-width:1.0;"/><line style="stroke:#181818;stroke-width:1.0;" x1="649" x2="1002.5" y1="601.6953" y2="601.6953"/><text fill="#000000" font-family="sans-serif" font-size="13" font-weight="bold" lengthAdjust="spacing" textLength="14" x="656" y="588.6631">10</text><text fill="#000000" font-family="sans-serif" font-size="13" lengthAdjust="spacing" textLength="258" x="674" y="580.4873">createUserStory(projectID, userStoryID, title,</text><text fill="#000000" font-family="sans-serif" font-size="13" lengthAdjust="spacing" textLength="199" x="678" y="596.8389">priority, description, timeEstimate)</text><polygon fill="#181818" points="1092.5,628.0469,1102.5,632.0469,1092.5,636.0469,1096.5,632.0469" style="stroke:#181818;stroke-width:1.0;"/><line style="stroke:#181818;stroke-width:1.0;" x1="1018.5" x2="1098.5" y1="632.0469" y2="632.0469"/><text fill="#000000" font-family="sans-serif" font-size="13" font-weight="bold" lengthAdjust="spacing" textLength="14" x="1025.5" y="627.1904">11</text><text fill="#000000" font-family="sans-serif" font-size="13" lengthAdjust="spacing" textLength="44" x="1043.5" y="627.1904">create()</text><rect fill="#E2E2F0" height="49.2188" rx="2.5" ry="2.5" style="stroke:#181818;stroke-width:0.5;" width="113" x="1104.5" y="609.6953"/><text fill="#000000" font-family="sans-serif" font-size="14" lengthAdjust="spacing" textLength="95" x="1111.5" y="631.2285">newUserStory :</text><text fill="#000000" font-family="sans-serif" font-size="14" lengthAdjust="spacing" textLength="62" x="1132" y="648.8379">UserStory</text><polygon fill="#181818" points="660,688.2656,650,692.2656,660,696.2656,656,692.2656" style="stroke:#181818;stroke-width:1.0;"/><line style="stroke:#181818;stroke-width:1.0;stroke-dasharray:2.0,2.0;" x1="654" x2="1012.5" y1="692.2656" y2="692.2656"/><text fill="#000000" font-family="sans-serif" font-size="13" font-weight="bold" lengthAdjust="spacing" textLength="14" x="666" y="687.4092">12</text><text fill="#000000" font-family="sans-serif" font-size="13" lengthAdjust="spacing" textLength="81" x="684" y="687.4092">newUserStory</text><polygon fill="#181818" points="1273,718.6172,1283,722.6172,1273,726.6172,1277,722.6172" style="stroke:#181818;stroke-width:1.0;"/><line style="stroke:#181818;stroke-width:1.0;" x1="649" x2="1279" y1="722.6172" y2="722.6172"/><text fill="#000000" font-family="sans-serif" font-size="13" font-weight="bold" lengthAdjust="spacing" textLength="14" x="656" y="717.7607">13</text><text fill="#000000" font-family="sans-serif" font-size="13" lengthAdjust="spacing" textLength="115" x="674" y="717.7607">save(newUserStory)</text><line style="stroke:#181818;stroke-width:1.0;" x1="1300" x2="1342" y1="769.3203" y2="769.3203"/><line style="stroke:#181818;stroke-width:1.0;" x1="1342" x2="1342" y1="769.3203" y2="782.3203"/><line style="stroke:#181818;stroke-width:1.0;" x1="1301" x2="1342" y1="782.3203" y2="782.3203"/><polygon fill="#181818" points="1311,778.3203,1301,782.3203,1311,786.3203,1307,782.3203" style="stroke:#181818;stroke-width:1.0;"/><text fill="#000000" font-family="sans-serif" font-size="13" font-weight="bold" lengthAdjust="spacing" textLength="14" x="1307" y="756.2881">14</text><text fill="#000000" font-family="sans-serif" font-size="13" lengthAdjust="spacing" textLength="119" x="1325" y="748.1123">existsByUserStoryId</text><text fill="#000000" font-family="sans-serif" font-size="13" lengthAdjust="spacing" textLength="78" x="1325" y="764.4639">(UserStoryID)</text><line style="stroke:#181818;stroke-width:1.0;" x1="1300" x2="1342" y1="842.6719" y2="842.6719"/><line style="stroke:#181818;stroke-width:1.0;" x1="1342" x2="1342" y1="842.6719" y2="855.6719"/><line style="stroke:#181818;stroke-width:1.0;" x1="1301" x2="1342" y1="855.6719" y2="855.6719"/><polygon fill="#181818" points="1311,851.6719,1301,855.6719,1311,859.6719,1307,855.6719" style="stroke:#181818;stroke-width:1.0;"/><text fill="#000000" font-family="sans-serif" font-size="13" font-weight="bold" lengthAdjust="spacing" textLength="14" x="1307" y="837.8154">15</text><text fill="#000000" font-family="sans-serif" font-size="13" lengthAdjust="spacing" textLength="110" x="1325" y="837.8154">add(newUserStory)</text><polygon fill="#181818" points="660,912.0234,650,916.0234,660,920.0234,656,916.0234" style="stroke:#181818;stroke-width:1.0;"/><line style="stroke:#181818;stroke-width:1.0;stroke-dasharray:2.0,2.0;" x1="654" x2="1289" y1="916.0234" y2="916.0234"/><text fill="#000000" font-family="sans-serif" font-size="13" font-weight="bold" lengthAdjust="spacing" textLength="14" x="666" y="911.167">16</text><text fill="#000000" font-family="sans-serif" font-size="13" lengthAdjust="spacing" textLength="22" x="684" y="911.167">true</text><polygon fill="#181818" points="1434,942.375,1444,946.375,1434,950.375,1438,946.375" style="stroke:#181818;stroke-width:1.0;"/><line style="stroke:#181818;stroke-width:1.0;" x1="649" x2="1440" y1="946.375" y2="946.375"/><text fill="#000000" font-family="sans-serif" font-size="13" font-weight="bold" lengthAdjust="spacing" textLength="14" x="656" y="941.5186">17</text><text fill="#000000" font-family="sans-serif" font-size="13" lengthAdjust="spacing" textLength="120" x="674" y="941.5186">toDto(newUserStory)</text><polygon fill="#181818" points="1530,972.7266,1540,976.7266,1530,980.7266,1534,976.7266" style="stroke:#181818;stroke-width:1.0;"/><line style="stroke:#181818;stroke-width:1.0;" x1="1456" x2="1536" y1="976.7266" y2="976.7266"/><text fill="#000000" font-family="sans-serif" font-size="13" font-weight="bold" lengthAdjust="spacing" textLength="14" x="1463" y="971.8701">18</text><text fill="#000000" font-family="sans-serif" font-size="13" lengthAdjust="spacing" textLength="44" x="1481" y="971.8701">create()</text><rect fill="#E2E2F0" height="31.6094" rx="2.5" ry="2.5" style="stroke:#181818;stroke-width:0.5;" width="185" x="1542" y="954.375"/><text fill="#000000" font-family="sans-serif" font-size="14" lengthAdjust="spacing" textLength="171" x="1549" y="975.9082">outputUsDto : OutputUsDto</text><polygon fill="#181818" points="660,1015.3359,650,1019.3359,660,1023.3359,656,1019.3359" style="stroke:#181818;stroke-width:1.0;"/><line style="stroke:#181818;stroke-width:1.0;stroke-dasharray:2.0,2.0;" x1="654" x2="1450" y1="1019.3359" y2="1019.3359"/><text fill="#000000" font-family="sans-serif" font-size="13" font-weight="bold" lengthAdjust="spacing" textLength="14" x="666" y="1014.4795">19</text><text fill="#000000" font-family="sans-serif" font-size="13" lengthAdjust="spacing" textLength="72" x="684" y="1014.4795">outputUsDto</text><polygon fill="#181818" points="449,1045.6875,439,1049.6875,449,1053.6875,445,1049.6875" style="stroke:#181818;stroke-width:1.0;"/><line style="stroke:#181818;stroke-width:1.0;stroke-dasharray:2.0,2.0;" x1="443" x2="643" y1="1049.6875" y2="1049.6875"/><text fill="#000000" font-family="sans-serif" font-size="13" font-weight="bold" lengthAdjust="spacing" textLength="14" x="455" y="1044.8311">20</text><text fill="#000000" font-family="sans-serif" font-size="13" lengthAdjust="spacing" textLength="72" x="473" y="1044.8311">outputUsDto</text><polygon fill="#181818" points="262,1079.0391,252,1083.0391,262,1087.0391,258,1083.0391" style="stroke:#181818;stroke-width:1.0;"/><line style="stroke:#181818;stroke-width:1.0;stroke-dasharray:2.0,2.0;" x1="256" x2="432" y1="1083.0391" y2="1083.0391"/><text fill="#000000" font-family="sans-serif" font-size="13" font-weight="bold" lengthAdjust="spacing" textLength="14" x="268" y="1078.1826">21</text><text fill="#000000" font-family="sans-serif" font-size="13" lengthAdjust="spacing" textLength="79" x="286" y="1078.1826">outputUsJson</text><path d="M443,1062.6875 L443,1088.6875 L757,1088.6875 L757,1072.6875 L747,1062.6875 L443,1062.6875 " fill="#FEFFDD" style="stroke:#181818;stroke-width:0.5;"/><path d="M747,1062.6875 L747,1072.6875 L757,1072.6875 L747,1062.6875 " fill="#FEFFDD" style="stroke:#181818;stroke-width:0.5;"/><text fill="#000000" font-family="sans-serif" font-size="13" lengthAdjust="spacing" textLength="293" x="449" y="1081.1826">Change from json to dto hidden to simplify diagram</text><polygon fill="#181818" points="11,1112.3906,1,1116.3906,11,1120.3906,7,1116.3906" style="stroke:#181818;stroke-width:1.0;"/><line style="stroke:#181818;stroke-width:1.0;stroke-dasharray:2.0,2.0;" x1="5" x2="245" y1="1116.3906" y2="1116.3906"/><text fill="#000000" font-family="sans-serif" font-size="13" font-weight="bold" lengthAdjust="spacing" textLength="14" x="17" y="1111.5342">22</text><text fill="#000000" font-family="sans-serif" font-size="13" lengthAdjust="spacing" textLength="204" x="35" y="1111.5342">Informs that user story was created</text><!--MD5=[64f400d0bdf9269b7da008c5f0f3c9da]
@startuml
'https://plantuml.com/sequence-diagram

title US009 - As Product Owner, I want to create a user story and add it to the Product Backlog

autoactivate on
autonumber


participant ": CreateUserStoryRoute" as System
participant ": CreateUserStoryController" as Ctrl
participant ": CreateUserStoryService" as appService
participant ": UserStoryDto" as usDto
participant ": IUserStoryFactory" as factory
participant "newUserStory : \n UserStory" as us
participant ": IRepoUserStory " as usStore
participant ": UserStoryMapper" as usMapper
participant "outputUsDto : OutputUsDto" as outDto



[o-> System: POST/userStories(json)
System -> Ctrl: createUserStory(json)
note right
Change from json to dto hidden to simplify diagram
end note
Ctrl -> appService: createAndSaveUserStory(dto)
appService -> usDto: projectID = getProjectID()
deactivate
appService -> usDto: userStoryID = getUserStoryID()
deactivate
appService -> usDto: title = getTitle()
deactivate
appService -> usDto: priority = getPriority()
deactivate
appService -> usDto: description = getDescription()
deactivate
appService -> usDto: timeEstimate = getTimeEstimate()
deactivate
appService -> factory:  createUserStory(projectID, userStoryID, title,\n priority, description, timeEstimate)
factory -> us **: create()
factory - -> appService: newUserStory

appService-> usStore: save(newUserStory)
usStore-> usStore: existsByUserStoryId\n(UserStoryID)
deactivate
usStore-> usStore: add(newUserStory)
deactivate
usStore - -> appService : true
appService-> usMapper : toDto(newUserStory)
usMapper-> outDto **:create()
usMapper - -> appService: outputUsDto
appService - -> Ctrl: outputUsDto
Ctrl - -> System: outputUsJson
note right
Change from json to dto hidden to simplify diagram
end note
[<- -System : Informs that user story was created

@enduml

@startuml

title US009 - As Product Owner, I want to create a user story and add it to the Product Backlog

autoactivate on
autonumber


participant ": CreateUserStoryRoute" as System
participant ": CreateUserStoryController" as Ctrl
participant ": CreateUserStoryService" as appService
participant ": UserStoryDto" as usDto
participant ": IUserStoryFactory" as factory
participant "newUserStory : \n UserStory" as us
participant ": IRepoUserStory " as usStore
participant ": UserStoryMapper" as usMapper
participant "outputUsDto : OutputUsDto" as outDto



[o-> System: POST/userStories(json)
System -> Ctrl: createUserStory(json)
note right
Change from json to dto hidden to simplify diagram
end note
Ctrl -> appService: createAndSaveUserStory(dto)
appService -> usDto: projectID = getProjectID()
deactivate
appService -> usDto: userStoryID = getUserStoryID()
deactivate
appService -> usDto: title = getTitle()
deactivate
appService -> usDto: priority = getPriority()
deactivate
appService -> usDto: description = getDescription()
deactivate
appService -> usDto: timeEstimate = getTimeEstimate()
deactivate
appService -> factory:  createUserStory(projectID, userStoryID, title,\n priority, description, timeEstimate)
factory -> us **: create()
factory - -> appService: newUserStory

appService-> usStore: save(newUserStory)
usStore-> usStore: existsByUserStoryId\n(UserStoryID)
deactivate
usStore-> usStore: add(newUserStory)
deactivate
usStore - -> appService : true
appService-> usMapper : toDto(newUserStory)
usMapper-> outDto **:create()
usMapper - -> appService: outputUsDto
appService - -> Ctrl: outputUsDto
Ctrl - -> System: outputUsJson
note right
Change from json to dto hidden to simplify diagram
end note
[<- -System : Informs that user story was created

@enduml

PlantUML version 1.2022.4(Sat Apr 09 14:29:17 BST 2022)
(GPL source distribution)
Java Runtime: OpenJDK Runtime Environment
JVM: OpenJDK 64-Bit Server VM
Default Encoding: Cp1252
Language: en
Country: US
--></g></svg>