<?xml version="1.0" encoding="UTF-8" standalone="no"?><svg xmlns="http://www.w3.org/2000/svg" xmlns:xlink="http://www.w3.org/1999/xlink" contentScriptType="application/ecmascript" contentStyleType="text/css" height="307px" preserveAspectRatio="none" style="width:1251px;height:307px;background:#FFFFFF;" version="1.1" viewBox="0 0 1251 307" width="1251px" zoomAndPan="magnify"><defs><filter height="300%" id="f164hm5f7kmool" width="300%" x="-1" y="-1"><feGaussianBlur result="blurOut" stdDeviation="2.0"/><feColorMatrix in="blurOut" result="blurOut2" type="matrix" values="0 0 0 0 0 0 0 0 0 0 0 0 0 0 0 0 0 0 .4 0"/><feOffset dx="4.0" dy="4.0" in="blurOut2" result="blurOut3"/><feBlend in="SourceGraphic" in2="blurOut3" mode="normal"/></filter></defs><g><text fill="#000000" font-family="sans-serif" font-size="18" lengthAdjust="spacing" textLength="126" x="556" y="17.4023">Domain Model</text><!--MD5=[15636c1ca4a123c16a2a1a8e90aca7a9]
cluster Model--><polygon fill="#FFFFFF" filter="url(#f164hm5f7kmool)" points="16,27.1992,66,27.1992,73,49.6875,1234,49.6875,1234,300.1992,16,300.1992,16,27.1992" style="stroke:#000000;stroke-width:1.5;"/><line style="stroke:#000000;stroke-width:1.5;" x1="16" x2="73" y1="49.6875" y2="49.6875"/><text fill="#000000" font-family="sans-serif" font-size="14" font-weight="bold" lengthAdjust="spacing" textLength="44" x="20" y="42.7344">Model</text><!--MD5=[0f05b381ce972810648735ab0813e8dd]
cluster Project--><polygon fill="#FFFFFF" filter="url(#f164hm5f7kmool)" points="1104,70.1992,1160,70.1992,1167,92.6875,1210,92.6875,1210,161.1992,1104,161.1992,1104,70.1992" style="stroke:#000000;stroke-width:1.5;"/><line style="stroke:#000000;stroke-width:1.5;" x1="1104" x2="1167" y1="92.6875" y2="92.6875"/><text fill="#000000" font-family="sans-serif" font-size="14" font-weight="bold" lengthAdjust="spacing" textLength="50" x="1108" y="85.7344">Project</text><!--MD5=[a8621f786b421b40515673e2d966a1c3]
cluster Sprint--><polygon fill="#FFFFFF" filter="url(#f164hm5f7kmool)" points="982,70.1992,1031,70.1992,1038,92.6875,1080,92.6875,1080,161.1992,982,161.1992,982,70.1992" style="stroke:#000000;stroke-width:1.5;"/><line style="stroke:#000000;stroke-width:1.5;" x1="982" x2="1038" y1="92.6875" y2="92.6875"/><text fill="#000000" font-family="sans-serif" font-size="14" font-weight="bold" lengthAdjust="spacing" textLength="43" x="986" y="85.7344">Sprint</text><!--MD5=[70ce3a0b7249b89e7183e518c52a7191]
cluster UserStory--><polygon fill="#FFFFFF" filter="url(#f164hm5f7kmool)" points="838,70.1992,913,70.1992,920,92.6875,958,92.6875,958,161.1992,838,161.1992,838,70.1992" style="stroke:#000000;stroke-width:1.5;"/><line style="stroke:#000000;stroke-width:1.5;" x1="838" x2="920" y1="92.6875" y2="92.6875"/><text fill="#000000" font-family="sans-serif" font-size="14" font-weight="bold" lengthAdjust="spacing" textLength="69" x="842" y="85.7344">UserStory</text><!--MD5=[996a0e22aa5fcad0a8b55c37b2fd323d]
cluster Task--><polygon fill="#FFFFFF" filter="url(#f164hm5f7kmool)" points="720,70.1992,761,70.1992,768,92.6875,814,92.6875,814,161.1992,720,161.1992,720,70.1992" style="stroke:#000000;stroke-width:1.5;"/><line style="stroke:#000000;stroke-width:1.5;" x1="720" x2="768" y1="92.6875" y2="92.6875"/><text fill="#000000" font-family="sans-serif" font-size="14" font-weight="bold" lengthAdjust="spacing" textLength="35" x="724" y="85.7344">Task</text><!--MD5=[c49de2a178ec89eae0d3b1e1329d186f]
cluster SystemUser--><polygon fill="#FFFFFF" filter="url(#f164hm5f7kmool)" points="476,70.1992,566,70.1992,573,92.6875,696,92.6875,696,161.1992,476,161.1992,476,70.1992" style="stroke:#000000;stroke-width:1.5;"/><line style="stroke:#000000;stroke-width:1.5;" x1="476" x2="573" y1="92.6875" y2="92.6875"/><text fill="#000000" font-family="sans-serif" font-size="14" font-weight="bold" lengthAdjust="spacing" textLength="84" x="480" y="85.7344">SystemUser</text><!--MD5=[99b6005fb0c05032b9e942ec0f628b67]
cluster Typology--><polygon fill="#FFFFFF" filter="url(#f164hm5f7kmool)" points="334,70.1992,407,70.1992,414,92.6875,452,92.6875,452,161.1992,334,161.1992,334,70.1992" style="stroke:#000000;stroke-width:1.5;"/><line style="stroke:#000000;stroke-width:1.5;" x1="334" x2="414" y1="92.6875" y2="92.6875"/><text fill="#000000" font-family="sans-serif" font-size="14" font-weight="bold" lengthAdjust="spacing" textLength="67" x="338" y="85.7344">Typology</text><!--MD5=[73424d2176fe6edd5dc9e6e93f7901c1]
cluster UserProfile--><polygon fill="#FFFFFF" filter="url(#f164hm5f7kmool)" points="182,70.1992,268,70.1992,275,92.6875,310,92.6875,310,161.1992,182,161.1992,182,70.1992" style="stroke:#000000;stroke-width:1.5;"/><line style="stroke:#000000;stroke-width:1.5;" x1="182" x2="275" y1="92.6875" y2="92.6875"/><text fill="#000000" font-family="sans-serif" font-size="14" font-weight="bold" lengthAdjust="spacing" textLength="80" x="186" y="85.7344">UserProfile</text><!--MD5=[39e750ed8fd817ac372d7da55c795c85]
cluster Resource--><polygon fill="#FFFFFF" filter="url(#f164hm5f7kmool)" points="40,70.1992,111,70.1992,118,92.6875,158,92.6875,158,161.1992,40,161.1992,40,70.1992" style="stroke:#000000;stroke-width:1.5;"/><line style="stroke:#000000;stroke-width:1.5;" x1="40" x2="118" y1="92.6875" y2="92.6875"/><text fill="#000000" font-family="sans-serif" font-size="14" font-weight="bold" lengthAdjust="spacing" textLength="65" x="44" y="85.7344">Resource</text><!--MD5=[27d0362bf59409c1b1c97188c6d50c43]
cluster Value-Object--><polygon fill="#FFFFFF" filter="url(#f164hm5f7kmool)" points="391,185.1992,493,185.1992,500,207.6875,1208,207.6875,1208,276.1992,391,276.1992,391,185.1992" style="stroke:#000000;stroke-width:1.5;"/><line style="stroke:#000000;stroke-width:1.5;" x1="391" x2="500" y1="207.6875" y2="207.6875"/><text fill="#000000" font-family="sans-serif" font-size="14" font-weight="bold" lengthAdjust="spacing" textLength="96" x="395" y="200.7344">Value-Object</text><!--MD5=[79d378210367c0c6ec62ef762ddfbd1b]
class Project--><rect codeLine="11" fill="#FEFECE" filter="url(#f164hm5f7kmool)" height="40.1328" id="Project" style="stroke:#A80036;stroke-width:1.5;" width="73" x="1120.5" y="105.1992"/><text fill="#000000" font-family="sans-serif" font-size="12" lengthAdjust="spacing" textLength="40" x="1123.5" y="121.8008">Project</text><rect fill="#FFFFFF" height="16.1328" style="stroke:#000000;stroke-width:1.0;stroke-dasharray:2.0,2.0;" width="25" x="1171.5" y="102.1992"/><text fill="#000000" font-family="sans-serif" font-size="12" font-style="italic" lengthAdjust="spacing" textLength="23" x="1172.5" y="114.8008">root</text><line style="stroke:#A80036;stroke-width:1.5;" x1="1121.5" x2="1192.5" y1="129.332" y2="129.332"/><line style="stroke:#A80036;stroke-width:1.5;" x1="1121.5" x2="1192.5" y1="137.332" y2="137.332"/><!--MD5=[452a66c2e8d45f5bd209be454bbcd04f]
class Sprint--><rect codeLine="17" fill="#FEFECE" filter="url(#f164hm5f7kmool)" height="40.1328" id="Sprint" style="stroke:#A80036;stroke-width:1.5;" width="66" x="998" y="105.1992"/><text fill="#000000" font-family="sans-serif" font-size="12" lengthAdjust="spacing" textLength="33" x="1001" y="121.8008">Sprint</text><rect fill="#FFFFFF" height="16.1328" style="stroke:#000000;stroke-width:1.0;stroke-dasharray:2.0,2.0;" width="25" x="1042" y="102.1992"/><text fill="#000000" font-family="sans-serif" font-size="12" font-style="italic" lengthAdjust="spacing" textLength="23" x="1043" y="114.8008">root</text><line style="stroke:#A80036;stroke-width:1.5;" x1="999" x2="1063" y1="129.332" y2="129.332"/><line style="stroke:#A80036;stroke-width:1.5;" x1="999" x2="1063" y1="137.332" y2="137.332"/><!--MD5=[daa6dd44d8f60c5a9cd695bb66773862]
class UserStory--><rect codeLine="23" fill="#FEFECE" filter="url(#f164hm5f7kmool)" height="40.1328" id="UserStory" style="stroke:#A80036;stroke-width:1.5;" width="87" x="854.5" y="105.1992"/><text fill="#000000" font-family="sans-serif" font-size="12" lengthAdjust="spacing" textLength="54" x="857.5" y="121.8008">UserStory</text><rect fill="#FFFFFF" height="16.1328" style="stroke:#000000;stroke-width:1.0;stroke-dasharray:2.0,2.0;" width="25" x="919.5" y="102.1992"/><text fill="#000000" font-family="sans-serif" font-size="12" font-style="italic" lengthAdjust="spacing" textLength="23" x="920.5" y="114.8008">root</text><line style="stroke:#A80036;stroke-width:1.5;" x1="855.5" x2="940.5" y1="129.332" y2="129.332"/><line style="stroke:#A80036;stroke-width:1.5;" x1="855.5" x2="940.5" y1="137.332" y2="137.332"/><!--MD5=[b34797a66dc35cbf1d65f7e3ca75530e]
class Task--><rect codeLine="29" fill="#FEFECE" filter="url(#f164hm5f7kmool)" height="40.1328" id="Task" style="stroke:#A80036;stroke-width:1.5;" width="61" x="736.5" y="105.1992"/><text fill="#000000" font-family="sans-serif" font-size="12" lengthAdjust="spacing" textLength="28" x="739.5" y="121.8008">Task</text><rect fill="#FFFFFF" height="16.1328" style="stroke:#000000;stroke-width:1.0;stroke-dasharray:2.0,2.0;" width="25" x="775.5" y="102.1992"/><text fill="#000000" font-family="sans-serif" font-size="12" font-style="italic" lengthAdjust="spacing" textLength="23" x="776.5" y="114.8008">root</text><line style="stroke:#A80036;stroke-width:1.5;" x1="737.5" x2="796.5" y1="129.332" y2="129.332"/><line style="stroke:#A80036;stroke-width:1.5;" x1="737.5" x2="796.5" y1="137.332" y2="137.332"/><!--MD5=[bc064d979c32666ae52f3d7624591b7b]
class SystemUser--><rect codeLine="35" fill="#FEFECE" filter="url(#f164hm5f7kmool)" height="40.1328" id="SystemUser" style="stroke:#A80036;stroke-width:1.5;" width="99" x="492.5" y="105.1992"/><text fill="#000000" font-family="sans-serif" font-size="12" lengthAdjust="spacing" textLength="66" x="495.5" y="121.8008">SystemUser</text><rect fill="#FFFFFF" height="16.1328" style="stroke:#000000;stroke-width:1.0;stroke-dasharray:2.0,2.0;" width="25" x="569.5" y="102.1992"/><text fill="#000000" font-family="sans-serif" font-size="12" font-style="italic" lengthAdjust="spacing" textLength="23" x="570.5" y="114.8008">root</text><line style="stroke:#A80036;stroke-width:1.5;" x1="493.5" x2="590.5" y1="129.332" y2="129.332"/><line style="stroke:#A80036;stroke-width:1.5;" x1="493.5" x2="590.5" y1="137.332" y2="137.332"/><!--MD5=[0851f84a889f989e7bb0bebc385d0f09]
class Request--><rect codeLine="37" fill="#FEFECE" filter="url(#f164hm5f7kmool)" height="40.1328" id="Request" style="stroke:#A80036;stroke-width:1.5;" width="53" x="626.5" y="105.1992"/><text fill="#000000" font-family="sans-serif" font-size="12" lengthAdjust="spacing" textLength="47" x="629.5" y="121.8008">Request</text><line style="stroke:#A80036;stroke-width:1.5;" x1="627.5" x2="678.5" y1="129.332" y2="129.332"/><line style="stroke:#A80036;stroke-width:1.5;" x1="627.5" x2="678.5" y1="137.332" y2="137.332"/><!--MD5=[024d6bb17f4c47f299ed89907d0655d2]
class Typology--><rect codeLine="43" fill="#FEFECE" filter="url(#f164hm5f7kmool)" height="40.1328" id="Typology" style="stroke:#A80036;stroke-width:1.5;" width="85" x="350.5" y="105.1992"/><text fill="#000000" font-family="sans-serif" font-size="12" lengthAdjust="spacing" textLength="52" x="353.5" y="121.8008">Typology</text><rect fill="#FFFFFF" height="16.1328" style="stroke:#000000;stroke-width:1.0;stroke-dasharray:2.0,2.0;" width="25" x="413.5" y="102.1992"/><text fill="#000000" font-family="sans-serif" font-size="12" font-style="italic" lengthAdjust="spacing" textLength="23" x="414.5" y="114.8008">root</text><line style="stroke:#A80036;stroke-width:1.5;" x1="351.5" x2="434.5" y1="129.332" y2="129.332"/><line style="stroke:#A80036;stroke-width:1.5;" x1="351.5" x2="434.5" y1="137.332" y2="137.332"/><!--MD5=[7dde244f1b93ccf44d7f9e836b89e039]
class UserProfile--><rect codeLine="49" fill="#FEFECE" filter="url(#f164hm5f7kmool)" height="40.1328" id="UserProfile" style="stroke:#A80036;stroke-width:1.5;" width="95" x="198.5" y="105.1992"/><text fill="#000000" font-family="sans-serif" font-size="12" lengthAdjust="spacing" textLength="62" x="201.5" y="121.8008">UserProfile</text><rect fill="#FFFFFF" height="16.1328" style="stroke:#000000;stroke-width:1.0;stroke-dasharray:2.0,2.0;" width="25" x="271.5" y="102.1992"/><text fill="#000000" font-family="sans-serif" font-size="12" font-style="italic" lengthAdjust="spacing" textLength="23" x="272.5" y="114.8008">root</text><line style="stroke:#A80036;stroke-width:1.5;" x1="199.5" x2="292.5" y1="129.332" y2="129.332"/><line style="stroke:#A80036;stroke-width:1.5;" x1="199.5" x2="292.5" y1="137.332" y2="137.332"/><!--MD5=[6b13f1b330d33795af281e5c1dfe1e98]
class Resource--><rect codeLine="55" fill="#FEFECE" filter="url(#f164hm5f7kmool)" height="40.1328" id="Resource" style="stroke:#A80036;stroke-width:1.5;" width="86" x="56" y="105.1992"/><text fill="#000000" font-family="sans-serif" font-size="12" lengthAdjust="spacing" textLength="53" x="59" y="121.8008">Resource</text><rect fill="#FFFFFF" height="16.1328" style="stroke:#000000;stroke-width:1.0;stroke-dasharray:2.0,2.0;" width="25" x="120" y="102.1992"/><text fill="#000000" font-family="sans-serif" font-size="12" font-style="italic" lengthAdjust="spacing" textLength="23" x="121" y="114.8008">root</text><line style="stroke:#A80036;stroke-width:1.5;" x1="57" x2="141" y1="129.332" y2="129.332"/><line style="stroke:#A80036;stroke-width:1.5;" x1="57" x2="141" y1="137.332" y2="137.332"/><!--MD5=[78bec0fde86ad92ec1dc3fb343b83709]
class Email--><rect codeLine="63" fill="#FEFECE" filter="url(#f164hm5f7kmool)" height="40.1328" id="Email" style="stroke:#A80036;stroke-width:1.5;" width="58" x="407" y="220.1992"/><text fill="#000000" font-family="sans-serif" font-size="12" lengthAdjust="spacing" textLength="31" x="410" y="236.8008">Email</text><rect fill="#FFFFFF" height="16.1328" style="stroke:#000000;stroke-width:1.0;stroke-dasharray:2.0,2.0;" width="19" x="449" y="217.1992"/><text fill="#000000" font-family="sans-serif" font-size="12" font-style="italic" lengthAdjust="spacing" textLength="17" x="450" y="229.8008">VO</text><line style="stroke:#A80036;stroke-width:1.5;" x1="408" x2="464" y1="244.332" y2="244.332"/><line style="stroke:#A80036;stroke-width:1.5;" x1="408" x2="464" y1="252.332" y2="252.332"/><!--MD5=[5d69f14587b43039b1f7f06356fe9af3]
class ProjectCode--><rect codeLine="103" fill="#FEFECE" filter="url(#f164hm5f7kmool)" height="40.1328" id="ProjectCode" style="stroke:#A80036;stroke-width:1.5;" width="97" x="969.5" y="220.1992"/><text fill="#000000" font-family="sans-serif" font-size="12" lengthAdjust="spacing" textLength="70" x="972.5" y="236.8008">ProjectCode</text><rect fill="#FFFFFF" height="16.1328" style="stroke:#000000;stroke-width:1.0;stroke-dasharray:2.0,2.0;" width="19" x="1050.5" y="217.1992"/><text fill="#000000" font-family="sans-serif" font-size="12" font-style="italic" lengthAdjust="spacing" textLength="17" x="1051.5" y="229.8008">VO</text><line style="stroke:#A80036;stroke-width:1.5;" x1="970.5" x2="1065.5" y1="244.332" y2="244.332"/><line style="stroke:#A80036;stroke-width:1.5;" x1="970.5" x2="1065.5" y1="252.332" y2="252.332"/><!--MD5=[f963504bddfce81459fbb37672df876e]
class IdUserStory--><rect codeLine="113" fill="#FEFECE" filter="url(#f164hm5f7kmool)" height="40.1328" id="IdUserStory" style="stroke:#A80036;stroke-width:1.5;" width="92" x="736" y="220.1992"/><text fill="#000000" font-family="sans-serif" font-size="12" lengthAdjust="spacing" textLength="65" x="739" y="236.8008">IdUserStory</text><rect fill="#FFFFFF" height="16.1328" style="stroke:#000000;stroke-width:1.0;stroke-dasharray:2.0,2.0;" width="19" x="812" y="217.1992"/><text fill="#000000" font-family="sans-serif" font-size="12" font-style="italic" lengthAdjust="spacing" textLength="17" x="813" y="229.8008">VO</text><line style="stroke:#A80036;stroke-width:1.5;" x1="737" x2="827" y1="244.332" y2="244.332"/><line style="stroke:#A80036;stroke-width:1.5;" x1="737" x2="827" y1="252.332" y2="252.332"/><!--MD5=[be3e51bd834a0dd75c21057f79e3592b]
class IdSprint--><rect codeLine="115" fill="#FEFECE" filter="url(#f164hm5f7kmool)" height="40.1328" id="IdSprint" style="stroke:#A80036;stroke-width:1.5;" width="71" x="863.5" y="220.1992"/><text fill="#000000" font-family="sans-serif" font-size="12" lengthAdjust="spacing" textLength="44" x="866.5" y="236.8008">IdSprint</text><rect fill="#FFFFFF" height="16.1328" style="stroke:#000000;stroke-width:1.0;stroke-dasharray:2.0,2.0;" width="19" x="918.5" y="217.1992"/><text fill="#000000" font-family="sans-serif" font-size="12" font-style="italic" lengthAdjust="spacing" textLength="17" x="919.5" y="229.8008">VO</text><line style="stroke:#A80036;stroke-width:1.5;" x1="864.5" x2="933.5" y1="244.332" y2="244.332"/><line style="stroke:#A80036;stroke-width:1.5;" x1="864.5" x2="933.5" y1="252.332" y2="252.332"/><!--MD5=[e4e59985222c3569fdd19c8a446df18a]
class IdUserProfile--><rect codeLine="117" fill="#FEFECE" filter="url(#f164hm5f7kmool)" height="40.1328" id="IdUserProfile" style="stroke:#A80036;stroke-width:1.5;" width="100" x="500" y="220.1992"/><text fill="#000000" font-family="sans-serif" font-size="12" lengthAdjust="spacing" textLength="73" x="503" y="236.8008">IdUserProfile</text><rect fill="#FFFFFF" height="16.1328" style="stroke:#000000;stroke-width:1.0;stroke-dasharray:2.0,2.0;" width="19" x="584" y="217.1992"/><text fill="#000000" font-family="sans-serif" font-size="12" font-style="italic" lengthAdjust="spacing" textLength="17" x="585" y="229.8008">VO</text><line style="stroke:#A80036;stroke-width:1.5;" x1="501" x2="599" y1="244.332" y2="244.332"/><line style="stroke:#A80036;stroke-width:1.5;" x1="501" x2="599" y1="252.332" y2="252.332"/><!--MD5=[101e327b5de451e396f0aea08f580d79]
class IdTypology--><rect codeLine="119" fill="#FEFECE" filter="url(#f164hm5f7kmool)" height="40.1328" id="IdTypology" style="stroke:#A80036;stroke-width:1.5;" width="90" x="1102" y="220.1992"/><text fill="#000000" font-family="sans-serif" font-size="12" lengthAdjust="spacing" textLength="63" x="1105" y="236.8008">IdTypology</text><rect fill="#FFFFFF" height="16.1328" style="stroke:#000000;stroke-width:1.0;stroke-dasharray:2.0,2.0;" width="19" x="1176" y="217.1992"/><text fill="#000000" font-family="sans-serif" font-size="12" font-style="italic" lengthAdjust="spacing" textLength="17" x="1177" y="229.8008">VO</text><line style="stroke:#A80036;stroke-width:1.5;" x1="1103" x2="1191" y1="244.332" y2="244.332"/><line style="stroke:#A80036;stroke-width:1.5;" x1="1103" x2="1191" y1="252.332" y2="252.332"/><!--MD5=[2f78d11a725357bd85cd1ffd126aaa7d]
class IdTask--><rect codeLine="121" fill="#FEFECE" filter="url(#f164hm5f7kmool)" height="40.1328" id="IdTask" style="stroke:#A80036;stroke-width:1.5;" width="66" x="635" y="220.1992"/><text fill="#000000" font-family="sans-serif" font-size="12" lengthAdjust="spacing" textLength="39" x="638" y="236.8008">IdTask</text><rect fill="#FFFFFF" height="16.1328" style="stroke:#000000;stroke-width:1.0;stroke-dasharray:2.0,2.0;" width="19" x="685" y="217.1992"/><text fill="#000000" font-family="sans-serif" font-size="12" font-style="italic" lengthAdjust="spacing" textLength="17" x="686" y="229.8008">VO</text><line style="stroke:#A80036;stroke-width:1.5;" x1="636" x2="700" y1="244.332" y2="244.332"/><line style="stroke:#A80036;stroke-width:1.5;" x1="636" x2="700" y1="252.332" y2="252.332"/><!--MD5=[503832a18fbf1c4c9245f8d33b95d987]
link SystemUser to Email--><path codeLine="126" d="M516.93,145.3592 C505.71,154.4592 492.65,165.8192 482,177.1992 C470.83,189.1392 459.85,203.7792 451.43,215.8392 " fill="none" id="SystemUser-to-Email" style="stroke:#A80036;stroke-width:1.0;"/><polygon fill="#A80036" points="448.44,220.1492,456.847,215.0187,451.2823,216.0357,450.2654,210.471,448.44,220.1492" style="stroke:#A80036;stroke-width:1.0;"/><text fill="#000000" font-family="sans-serif" font-size="13" lengthAdjust="spacing" textLength="8" x="500.7541" y="165.7319">1</text><text fill="#000000" font-family="sans-serif" font-size="13" lengthAdjust="spacing" textLength="8" x="443.0248" y="209.3076">1</text><!--MD5=[f21ec079288cf084647fa9c99e59ea86]
link Request to IdUserProfile--><path codeLine="127" d="M635.53,145.3692 C617.7,164.9292 590.02,195.2992 571,216.1592 " fill="none" id="Request-to-IdUserProfile" style="stroke:#A80036;stroke-width:1.0;"/><polygon fill="#A80036" points="567.56,219.9392,576.5784,215.9808,570.9276,216.2434,570.6651,210.5926,567.56,219.9392" style="stroke:#A80036;stroke-width:1.0;"/><text fill="#000000" font-family="sans-serif" font-size="13" lengthAdjust="spacing" textLength="8" x="621.4916" y="165.7448">1</text><text fill="#000000" font-family="sans-serif" font-size="13" lengthAdjust="spacing" textLength="8" x="563.5433" y="209.3792">1</text><!--MD5=[4f2c6e55c46593a478e51434d8850d1c]
link UserProfile to IdUserProfile--><path codeLine="128" d="M277.4,145.3692 C293.68,154.2992 314.25,164.0692 334,169.1992 C365.88,177.4792 451.62,164.4792 482,177.1992 C501.8,185.4892 519.55,202.1592 531.94,216.1292 " fill="none" id="UserProfile-to-IdUserProfile" style="stroke:#A80036;stroke-width:1.0;"/><polygon fill="#A80036" points="535.3,219.9892,532.404,210.5758,532.0156,216.2193,526.3721,215.8308,535.3,219.9892" style="stroke:#A80036;stroke-width:1.0;"/><text fill="#000000" font-family="sans-serif" font-size="13" lengthAdjust="spacing" textLength="6" x="279.3875" y="165.7448">*</text><text fill="#000000" font-family="sans-serif" font-size="13" lengthAdjust="spacing" textLength="8" x="521.8069" y="209.4439">1</text><!--MD5=[23eff9c70e0ff1c6f7c0cb82cf96dffc]
link Resource to Email--><path codeLine="129" d="M132.18,145.4192 C147.07,153.5092 165.08,162.5692 182,169.1992 C258.38,199.1292 352.4,221.4792 401.86,232.1792 " fill="none" id="Resource-to-Email" style="stroke:#A80036;stroke-width:1.0;"/><polygon fill="#A80036" points="406.79,233.2392,398.8233,227.4486,401.9002,232.1955,397.1533,235.2724,406.79,233.2392" style="stroke:#A80036;stroke-width:1.0;"/><text fill="#000000" font-family="sans-serif" font-size="13" lengthAdjust="spacing" textLength="6" x="134.6681" y="165.8088">*</text><text fill="#000000" font-family="sans-serif" font-size="13" lengthAdjust="spacing" textLength="8" x="391.1102" y="227.4843">1</text><!--MD5=[1d45036d2319443c5a0480ce132ad873]
link Resource to ProjectCode--><path codeLine="130" d="M127.62,145.2792 C143.04,154.4192 162.79,164.4092 182,169.1992 C223.51,179.5392 912.31,161.2392 952,177.1992 C971.73,185.1292 989.04,201.9992 1000.98,216.1292 " fill="none" id="Resource-to-ProjectCode" style="stroke:#A80036;stroke-width:1.0;"/><polygon fill="#A80036" points="1004.2,220.0392,1001.5528,210.5528,1001.016,216.1841,995.3846,215.6472,1004.2,220.0392" style="stroke:#A80036;stroke-width:1.0;"/><text fill="#000000" font-family="sans-serif" font-size="13" lengthAdjust="spacing" textLength="6" x="129.1459" y="165.9753">*</text><text fill="#000000" font-family="sans-serif" font-size="13" lengthAdjust="spacing" textLength="8" x="1001.3213" y="209.5086">1</text><!--MD5=[5c2c954902a8a2623ee18a698c7b23b1]
link Sprint to ProjectCode--><path codeLine="131" d="M1028.79,145.3692 C1026.59,164.5192 1023.19,194.0392 1020.8,214.8492 " fill="none" id="Sprint-to-ProjectCode" style="stroke:#A80036;stroke-width:1.0;"/><polygon fill="#A80036" points="1020.22,219.9392,1025.2216,211.4549,1020.791,214.9719,1017.2739,210.5413,1020.22,219.9392" style="stroke:#A80036;stroke-width:1.0;"/><text fill="#000000" font-family="sans-serif" font-size="13" lengthAdjust="spacing" textLength="6" x="1021.3247" y="165.7448">*</text><text fill="#000000" font-family="sans-serif" font-size="13" lengthAdjust="spacing" textLength="8" x="1011.6971" y="209.3792">1</text><!--MD5=[2bf71af88fd2f6696c1f017905d07c63]
link Project to ProjectCode--><path codeLine="132" d="M1128.33,145.2292 C1114.88,154.4892 1098.8,166.0092 1085,177.1992 C1069.83,189.4992 1053.74,204.3292 1041.13,216.3992 " fill="none" id="Project-to-ProjectCode" style="stroke:#A80036;stroke-width:1.0;"/><polygon fill="#A80036" points="1037.33,220.0492,1046.5851,216.6814,1040.9292,216.5785,1041.0321,210.9226,1037.33,220.0492" style="stroke:#A80036;stroke-width:1.0;"/><text fill="#000000" font-family="sans-serif" font-size="13" lengthAdjust="spacing" textLength="8" x="1110.7332" y="165.9106">1</text><text fill="#000000" font-family="sans-serif" font-size="13" lengthAdjust="spacing" textLength="8" x="1033.8332" y="209.5215">1</text><!--MD5=[1d86c1e92f971d5a6cdbabd3b68b673f]
link UserStory to ProjectCode--><path codeLine="133" d="M918.36,145.3692 C939.22,165.0092 971.65,195.5492 993.81,216.4192 " fill="none" id="UserStory-to-ProjectCode" style="stroke:#A80036;stroke-width:1.0;"/><polygon fill="#A80036" points="997.54,219.9392,993.7455,210.8507,993.9057,216.5053,988.2511,216.6655,997.54,219.9392" style="stroke:#A80036;stroke-width:1.0;"/><text fill="#000000" font-family="sans-serif" font-size="13" lengthAdjust="spacing" textLength="6" x="917.2425" y="165.7448">*</text><text fill="#000000" font-family="sans-serif" font-size="13" lengthAdjust="spacing" textLength="8" x="982.3549" y="209.3792">1</text><!--MD5=[131b3670542a84dfe054b4fe53f8bd9f]
link Project to IdTypology--><path codeLine="134" d="M1155.3,145.3692 C1153.61,164.5192 1151,194.0392 1149.16,214.8492 " fill="none" id="Project-to-IdTypology" style="stroke:#A80036;stroke-width:1.0;"/><polygon fill="#A80036" points="1148.7,219.9392,1153.4806,211.3284,1149.1424,214.9588,1145.512,210.6206,1148.7,219.9392" style="stroke:#A80036;stroke-width:1.0;"/><text fill="#000000" font-family="sans-serif" font-size="13" lengthAdjust="spacing" textLength="8" x="1145.6969" y="165.7448">1</text><text fill="#000000" font-family="sans-serif" font-size="13" lengthAdjust="spacing" textLength="8" x="1140.0244" y="209.3792">1</text><!--MD5=[523b2636a2a4a424e1a7ed7f09fa430a]
link Typology to IdTypology--><path codeLine="135" d="M421.63,145.2492 C437.04,154.3992 456.8,164.3892 476,169.1992 C508.77,177.4092 1052.82,164.1892 1084,177.1992 C1103,185.1292 1119.38,201.7692 1130.67,215.8092 " fill="none" id="Typology-to-IdTypology" style="stroke:#A80036;stroke-width:1.0;"/><polygon fill="#A80036" points="1134.01,220.0792,1131.6132,210.5264,1130.9285,216.1417,1125.3132,215.4569,1134.01,220.0792" style="stroke:#A80036;stroke-width:1.0;"/><text fill="#000000" font-family="sans-serif" font-size="13" lengthAdjust="spacing" textLength="8" x="420.8651" y="165.9365">1</text><text fill="#000000" font-family="sans-serif" font-size="13" lengthAdjust="spacing" textLength="8" x="1121.0192" y="209.5603">1</text><!--MD5=[abe83e4de37fe3f8c4c2efc91ed295da]
link Sprint to IdSprint--><path codeLine="136" d="M997.98,144.5592 C983.21,153.4992 966.01,164.9492 952,177.1992 C938.78,188.7592 925.94,203.6592 916.2,215.9592 " fill="none" id="Sprint-to-IdSprint" style="stroke:#A80036;stroke-width:1.0;"/><polygon fill="#A80036" points="913.02,220.0192,921.7145,215.3926,916.0996,216.0802,915.4121,210.4653,913.02,220.0192" style="stroke:#A80036;stroke-width:1.0;"/><text fill="#000000" font-family="sans-serif" font-size="13" lengthAdjust="spacing" textLength="8" x="981.8819" y="144.7414">1</text><text fill="#000000" font-family="sans-serif" font-size="13" lengthAdjust="spacing" textLength="8" x="907.9634" y="209.4827">1</text><!--MD5=[8e96ac6a53a6111904d5cacc78b40aad]
link UserStory to IdSprint--><path codeLine="137" d="M898.17,145.3692 C898.34,164.5192 898.6,194.0392 898.78,214.8492 " fill="none" id="UserStory-to-IdSprint" style="stroke:#A80036;stroke-width:1.0;"/><polygon fill="#A80036" points="898.83,219.9392,902.7527,210.9053,898.7871,214.9394,894.753,210.9738,898.83,219.9392" style="stroke:#A80036;stroke-width:1.0;"/><text fill="#000000" font-family="sans-serif" font-size="13" lengthAdjust="spacing" textLength="6" x="891.3741" y="165.7448">*</text><text fill="#000000" font-family="sans-serif" font-size="13" lengthAdjust="spacing" textLength="24" x="871.2551" y="209.3792">0..1</text><!--MD5=[ebc311c51824f90ddda969ea775a2807]
link UserStory to IdUserStory--><path codeLine="138" d="M878.32,145.3692 C858.16,165.0092 826.81,195.5492 805.39,216.4192 " fill="none" id="UserStory-to-IdUserStory" style="stroke:#A80036;stroke-width:1.0;"/><polygon fill="#A80036" points="801.77,219.9392,811.0045,216.5151,805.348,216.4467,805.4165,210.7903,801.77,219.9392" style="stroke:#A80036;stroke-width:1.0;"/><text fill="#000000" font-family="sans-serif" font-size="13" lengthAdjust="spacing" textLength="6" x="865.9413" y="165.7448">*</text><text fill="#000000" font-family="sans-serif" font-size="13" lengthAdjust="spacing" textLength="8" x="798.4024" y="209.3792">1</text><!--MD5=[204ea6bd4a69c22dfb14aee9ffaedee0]
link Task to IdSprint--><path codeLine="139" d="M797.71,143.1692 C812.97,152.2892 831.25,164.3092 846,177.1992 C859.22,188.7592 872.06,203.6592 881.8,215.9592 " fill="none" id="Task-to-IdSprint" style="stroke:#A80036;stroke-width:1.0;"/><polygon fill="#A80036" points="884.98,220.0192,882.5879,210.4653,881.9004,216.0802,876.2855,215.3926,884.98,220.0192" style="stroke:#A80036;stroke-width:1.0;"/><text fill="#000000" font-family="sans-serif" font-size="13" lengthAdjust="spacing" textLength="6" x="805.5054" y="143.1793">*</text><text fill="#000000" font-family="sans-serif" font-size="13" lengthAdjust="spacing" textLength="24" x="853.3366" y="209.4827">0..1</text><!--MD5=[2beb27172fb0449db8335ffa93a81266]
link Task to IdUserStory--><path codeLine="140" d="M769.54,145.3692 C772.09,164.5192 776.01,194.0392 778.77,214.8492 " fill="none" id="Task-to-IdUserStory" style="stroke:#A80036;stroke-width:1.0;"/><polygon fill="#A80036" points="779.44,219.9392,782.2226,210.4916,778.7829,214.9826,774.292,211.5429,779.44,219.9392" style="stroke:#A80036;stroke-width:1.0;"/><text fill="#000000" font-family="sans-serif" font-size="13" lengthAdjust="spacing" textLength="6" x="763.4106" y="165.7448">*</text><text fill="#000000" font-family="sans-serif" font-size="13" lengthAdjust="spacing" textLength="24" x="751.163" y="209.3792">0..1</text><!--MD5=[75b64d5a116c70d224dce106af1d870f]
link Task to IdTask--><path codeLine="141" d="M748.46,145.2892 C739.42,154.7492 728.48,166.4292 719,177.1992 C708.01,189.6892 696.18,204.0092 686.69,215.7292 " fill="none" id="Task-to-IdTask" style="stroke:#A80036;stroke-width:1.0;"/><polygon fill="#A80036" points="683.3,219.9292,692.0699,215.4471,686.4443,216.0417,685.8498,210.4161,683.3,219.9292" style="stroke:#A80036;stroke-width:1.0;"/><text fill="#000000" font-family="sans-serif" font-size="13" lengthAdjust="spacing" textLength="6" x="736.1326" y="165.9882">*</text><text fill="#000000" font-family="sans-serif" font-size="13" lengthAdjust="spacing" textLength="8" x="678.6194" y="209.3662">1</text><!--MD5=[adba60f87b7052f1dc5c6a4805102933]
@startuml
'https://plantuml.com/class-diagram

skinparam classAttributeIconSize 0
hide circle

title Domain Model
package Model {


package Project {
class Project <root>{
}
}


package Sprint {
class Sprint <root>{
}
}


package UserStory {
class UserStory <root>{
}
}


package Task {
class Task <root>{
}
}


package SystemUser {
class SystemUser <root>{
}
class Request{
}
}


package Typology {
class Typology <root>{
}
}


package UserProfile {
class UserProfile <root>{
}
}


package Resource{
class Resource <root>{
}
}


package Value-Object {
'class Description <VO>{
'}
class Email <VO>{
}
'class Name <VO>{
'}
'class CostPerHour <VO>{
'}
'class PercentageOfAllocation <VO>{
'}
'class ProjectRole <VO>{
'}
'class Photo <VO>{
'}
'class Function <VO>{
'}
'class Password <VO>{
'}
'class TaskEffort <VO>{
'}
'class Effort_Hour <VO>{
'}
'class Effort_Date <VO>{
'}
'class Comment <VO>{
'}
'class Attachment <VO>{
'}
'class Effort_Minutes <VO>{
'}
'class TaskStatus <VO>{
'}
'class TaskType <VO>{
'}
'class Title_UserStory <VO>{
'}
'class UserStoryStatus <VO>{
'}
'class BusinessSector <VO>{
'}
'class Customer <VO>{
'}
class ProjectCode <VO>{
}
'class Budget <VO>{
'}
'class SprintDuration <VO>{
'}
'class NumberOfSprints <VO>{
'}
'class ProjectStatus <VO>{
'}
class IdUserStory <VO>{
}
class IdSprint <VO>{
}
class IdUserProfile<VO>{
}
class IdTypology<VO>{
}
class IdTask<VO>{
}
'}
'}

SystemUser "1" - -> "1" Email
Request "1" - -> "1" IdUserProfile
UserProfile "*" - -> "1" IdUserProfile
Resource "*" - -> "1" Email
Resource "*" - -> "1" ProjectCode
Sprint "*" - -> "1" ProjectCode
Project "1" - -> "1" ProjectCode
UserStory "*" - -> "1" ProjectCode
Project "1" - -> "1" IdTypology
Typology "1" - -> "1" IdTypology
Sprint "1" - -> "1" IdSprint
UserStory "*" - -> "0..1" IdSprint
UserStory "*" - -> "1" IdUserStory
Task "*" - -> "0..1" IdSprint
Task "*" - -> "0..1" IdUserStory
Task "*" - -> "1" IdTask



@enduml

@startuml

skinparam classAttributeIconSize 0
hide circle

title Domain Model
package Model {


package Project {
class Project <root>{
}
}


package Sprint {
class Sprint <root>{
}
}


package UserStory {
class UserStory <root>{
}
}


package Task {
class Task <root>{
}
}


package SystemUser {
class SystemUser <root>{
}
class Request{
}
}


package Typology {
class Typology <root>{
}
}


package UserProfile {
class UserProfile <root>{
}
}


package Resource{
class Resource <root>{
}
}


package Value-Object {
class Email <VO>{
}
class ProjectCode <VO>{
}
class IdUserStory <VO>{
}
class IdSprint <VO>{
}
class IdUserProfile<VO>{
}
class IdTypology<VO>{
}
class IdTask<VO>{
}

SystemUser "1" - -> "1" Email
Request "1" - -> "1" IdUserProfile
UserProfile "*" - -> "1" IdUserProfile
Resource "*" - -> "1" Email
Resource "*" - -> "1" ProjectCode
Sprint "*" - -> "1" ProjectCode
Project "1" - -> "1" ProjectCode
UserStory "*" - -> "1" ProjectCode
Project "1" - -> "1" IdTypology
Typology "1" - -> "1" IdTypology
Sprint "1" - -> "1" IdSprint
UserStory "*" - -> "0..1" IdSprint
UserStory "*" - -> "1" IdUserStory
Task "*" - -> "0..1" IdSprint
Task "*" - -> "0..1" IdUserStory
Task "*" - -> "1" IdTask



@enduml

PlantUML version 1.2022.1(Tue Feb 01 18:19:58 WET 2022)
(GPL source distribution)
Java Runtime: OpenJDK Runtime Environment
JVM: OpenJDK 64-Bit Server VM
Default Encoding: UTF-8
Language: pt
Country: PT
--></g></svg>